<svg width="356" height="121" viewBox="0 0 356 121" fill="none" xmlns="http://www.w3.org/2000/svg">
<path d="M20.3617 75.7865C16.4103 75.7865 12.9025 75.128 9.83813 73.8109C6.80067 72.4668 4.3949 70.4508 2.62081 67.7628C0.873604 65.0479 0 61.6476 0 57.5618C0 54.1212 0.604803 51.2181 1.81441 48.8527C3.02401 46.4872 4.69058 44.5653 6.81411 43.0869C8.93764 41.6085 11.3837 40.4929 14.1524 39.7403C16.921 38.9608 19.8779 38.4366 23.0228 38.1678C26.5441 37.8452 29.38 37.5092 31.5304 37.1598C33.6808 36.7835 35.2399 36.2593 36.2075 35.5873C37.2021 34.8884 37.6994 33.9073 37.6994 32.6439V32.4423C37.6994 30.3726 36.9871 28.7732 35.5624 27.6442C34.1378 26.5153 32.2158 25.9508 29.7966 25.9508C27.1893 25.9508 25.0926 26.5153 23.5067 27.6442C21.9207 28.7732 20.9127 30.3322 20.4827 32.3214L2.29825 31.6763C2.83585 27.913 4.22018 24.553 6.45123 21.5962C8.70916 18.6125 11.8004 16.2739 15.7249 14.5805C19.6763 12.8602 24.4206 12 29.9579 12C33.9093 12 37.5515 12.4704 40.8847 13.4112C44.2178 14.3251 47.1209 15.6691 49.5938 17.4432C52.0668 19.1904 53.9753 21.3408 55.3193 23.8945C56.6902 26.4481 57.3756 29.3646 57.3756 32.6439V74.7382H38.8284V66.1097H38.3445C37.2424 68.2063 35.8312 69.9804 34.1109 71.432C32.4174 72.8835 30.4149 73.9721 28.1032 74.6979C25.8184 75.4237 23.2379 75.7865 20.3617 75.7865ZM26.4501 62.8841C28.5736 62.8841 30.4821 62.454 32.1755 61.5938C33.8958 60.7337 35.2667 59.5509 36.2882 58.0457C37.3096 56.5135 37.8203 54.7394 37.8203 52.7234V46.8366C37.2559 47.1323 36.5704 47.4011 35.764 47.643C34.9845 47.885 34.1243 48.1135 33.1835 48.3285C32.2427 48.5435 31.275 48.7317 30.2805 48.893C29.2859 49.0543 28.3317 49.2021 27.4177 49.3365C25.563 49.6322 23.9771 50.0891 22.66 50.7074C21.3697 51.3256 20.3751 52.132 19.6763 53.1266C19.0043 54.0943 18.6683 55.2501 18.6683 56.5941C18.6683 58.637 19.394 60.1961 20.8455 61.2713C22.3239 62.3465 24.1921 62.8841 26.4501 62.8841Z" fill="#15616D"/>
<path d="M75.6729 75.9075C69.1948 75.9075 63.6038 74.6307 58.8997 72.0771C54.2226 69.4966 50.6207 65.8275 48.0939 61.0697C45.5941 56.285 44.3442 50.5999 44.3442 44.0142C44.3442 37.6168 45.6075 32.0257 48.1343 27.241C50.661 22.4295 54.2226 18.6931 58.8191 16.032C63.4156 13.344 68.832 12 75.0681 12C79.4765 12 83.5085 12.6854 87.1642 14.0563C90.8199 15.4272 93.9783 17.4567 96.6395 20.1447C99.3006 22.8327 101.37 26.1524 102.849 30.1038C104.327 34.0283 105.066 38.5307 105.066 43.611V48.5301H51.2389V37.0792H86.7207C86.6938 34.9825 86.1965 33.1143 85.2288 31.4747C84.2611 29.835 82.9306 28.5582 81.2371 27.6442C79.5706 26.7034 77.6486 26.233 75.4713 26.233C73.2672 26.233 71.2915 26.7303 69.5443 27.7249C67.7971 28.6926 66.4127 30.0231 65.3913 31.7166C64.3699 33.3831 63.8322 35.2782 63.7785 37.4017V49.0543C63.7785 51.581 64.2758 53.7986 65.2703 55.7071C66.2649 57.5887 67.6761 59.0537 69.504 60.102C71.3318 61.1503 73.5091 61.6745 76.0358 61.6745C77.783 61.6745 79.369 61.4326 80.7936 60.9487C82.2183 60.4649 83.4413 59.7525 84.4628 58.8117C85.4842 57.8709 86.2503 56.7151 86.761 55.3442L104.865 55.8684C104.112 59.9273 102.459 63.462 99.9054 66.4726C97.3787 69.4563 94.059 71.7814 89.9463 73.448C85.8336 75.0877 81.0759 75.9075 75.6729 75.9075Z" fill="#15616D"/>
<path d="M158.932 31.7166L140.828 32.2004C140.64 30.9102 140.129 29.7678 139.296 28.7732C138.463 27.7518 137.374 26.9588 136.03 26.3943C134.713 25.8029 133.181 25.5073 131.434 25.5073C129.149 25.5073 127.2 25.9642 125.587 26.8781C124.001 27.7921 123.222 29.0286 123.249 30.5876C123.222 31.7972 123.706 32.8455 124.7 33.7326C125.722 34.6196 127.536 35.3319 130.144 35.8696L142.078 38.1275C148.261 39.3102 152.857 41.2725 155.868 44.0142C158.905 46.756 160.437 50.3848 160.464 54.9007C160.437 59.1477 159.174 62.8438 156.674 65.9887C154.201 69.1337 150.814 71.5798 146.514 73.327C142.213 75.0473 137.294 75.9075 131.756 75.9075C122.913 75.9075 115.937 74.0931 110.83 70.4643C105.75 66.8086 102.847 61.9164 102.121 55.7877L121.596 55.3039C122.026 57.5618 123.141 59.2821 124.942 60.4649C126.743 61.6476 129.041 62.239 131.837 62.239C134.364 62.239 136.42 61.7686 138.006 60.8278C139.592 59.8869 140.398 58.637 140.425 57.078C140.398 55.6802 139.78 54.5647 138.57 53.7314C137.361 52.8712 135.466 52.1992 132.885 51.7154L122.079 49.6591C115.87 48.5301 111.247 46.4469 108.209 43.4094C105.172 40.3451 103.667 36.4475 103.693 31.7166C103.667 27.577 104.769 24.0423 107 21.1124C109.231 18.1555 112.403 15.8976 116.515 14.3386C120.628 12.7795 125.48 12 131.071 12C139.457 12 146.07 13.7606 150.908 17.2819C155.747 20.7764 158.421 25.5879 158.932 31.7166Z" fill="#15616D"/>
<path d="M234.617 98.7691V13.6128H254.132V24.217H254.737C255.543 22.3354 256.685 20.521 258.164 18.7738C259.669 17.0266 261.578 15.6019 263.889 14.4998C266.228 13.3709 269.023 12.8064 272.276 12.8064C276.577 12.8064 280.595 13.9354 284.332 16.1933C288.095 18.4512 291.132 21.9322 293.444 26.6362C295.756 31.3402 296.911 37.3345 296.911 44.619C296.911 51.6347 295.796 57.5081 293.565 62.239C291.361 66.9699 288.377 70.518 284.614 72.8835C280.877 75.2489 276.725 76.4317 272.155 76.4317C269.037 76.4317 266.335 75.9209 264.051 74.8995C261.766 73.8781 259.844 72.534 258.285 70.8675C256.753 69.2009 255.57 67.4134 254.737 65.5049H254.333V98.7691H234.617ZM253.93 44.5787C253.93 47.9118 254.374 50.8149 255.261 53.2879C256.175 55.7608 257.478 57.6828 259.172 59.0537C260.892 60.3977 262.948 61.0697 265.341 61.0697C267.76 61.0697 269.816 60.3977 271.51 59.0537C273.203 57.6828 274.48 55.7608 275.34 53.2879C276.227 50.8149 276.671 47.9118 276.671 44.5787C276.671 41.2456 276.227 38.356 275.34 35.9099C274.48 33.4638 273.203 31.5687 271.51 30.2247C269.843 28.8807 267.787 28.2087 265.341 28.2087C262.922 28.2087 260.865 28.8673 259.172 30.1844C257.478 31.5015 256.175 33.3831 255.261 35.8292C254.374 38.2753 253.93 41.1918 253.93 44.5787Z" fill="#15616D"/>
<path d="M353.723 33.1278L335.619 33.6116C335.431 32.3214 334.92 31.179 334.087 30.1844C333.253 29.163 332.165 28.37 330.821 27.8055C329.504 27.2141 327.971 26.9185 326.224 26.9185C323.939 26.9185 321.991 27.3754 320.378 28.2894C318.792 29.2033 318.012 30.4398 318.039 31.9988C318.012 33.2084 318.496 34.2567 319.491 35.1438C320.512 36.0308 322.327 36.7431 324.934 37.2808L336.869 39.5387C343.051 40.7214 347.648 42.6837 350.658 45.4254C353.696 48.1672 355.228 51.796 355.255 56.3119C355.228 60.5589 353.965 64.255 351.465 67.3999C348.992 70.5449 345.605 72.991 341.304 74.7382C337.003 76.4585 332.084 77.3187 326.547 77.3187C317.703 77.3187 310.728 75.5043 305.621 71.8755C300.54 68.2198 297.637 63.3276 296.911 57.1989L316.386 56.7151C316.816 58.973 317.932 60.6934 319.733 61.8761C321.534 63.0588 323.832 63.6502 326.627 63.6502C329.154 63.6502 331.211 63.1798 332.796 62.239C334.382 61.2982 335.189 60.0482 335.216 58.4892C335.189 57.0914 334.571 55.9759 333.361 55.1426C332.151 54.2824 330.256 53.6104 327.676 53.1266L316.87 51.0703C310.661 49.9413 306.037 47.8581 303 44.8206C299.962 41.7563 298.457 37.8587 298.484 33.1278C298.457 28.9882 299.559 25.4535 301.79 22.5236C304.021 19.5668 307.193 17.3088 311.306 15.7498C315.418 14.1907 320.27 13.4112 325.861 13.4112C334.248 13.4112 340.86 15.1719 345.699 18.6931C350.537 22.1876 353.212 26.9991 353.723 33.1278Z" fill="#15616D"/>
<path d="M21.4599 99.253L22.2279 99.877C22.0359 100.421 21.7079 100.917 21.2439 101.365C20.7799 101.829 20.2759 102.061 19.7319 102.061C18.9959 102.061 18.3959 101.701 17.9319 100.981C17.4679 100.261 17.1639 99.221 17.0199 97.861C16.2839 98.661 15.3639 99.421 14.2599 100.141C13.1559 100.845 12.1879 101.197 11.3559 101.197C10.5239 101.197 9.86792 100.917 9.38792 100.357C8.90792 99.797 8.66792 99.077 8.66792 98.197C8.66792 96.197 9.64392 93.821 11.5959 91.069C13.5479 88.317 15.5239 86.357 17.5239 85.189L18.1719 86.101C16.3479 87.461 14.6759 89.253 13.1559 91.477C11.6359 93.701 10.8759 95.653 10.8759 97.333C10.8759 97.957 11.0199 98.445 11.3079 98.797C11.6119 99.133 12.0279 99.301 12.5559 99.301C13.0999 99.301 13.8519 98.989 14.8119 98.365C15.7719 97.741 16.4919 97.157 16.9719 96.613C17.0519 95.061 17.4199 93.485 18.0759 91.885C18.7479 90.285 19.5399 88.981 20.4519 87.973C21.3799 86.949 22.2439 86.437 23.0439 86.437C23.7159 86.437 24.0519 86.845 24.0519 87.661C24.0519 88.477 23.4519 89.845 22.2519 91.765C21.0519 93.669 19.8599 95.181 18.6759 96.301C18.6439 96.557 18.6279 96.765 18.6279 96.925C18.6279 97.629 18.7639 98.365 19.0359 99.133C19.3239 99.885 19.6999 100.261 20.1639 100.261C20.5639 100.261 20.9959 99.925 21.4599 99.253ZM21.8199 88.693C21.2919 88.693 20.7079 89.317 20.0679 90.565C19.4279 91.797 19.0199 93.109 18.8439 94.501C19.8359 93.317 20.6279 92.229 21.2199 91.237C21.8279 90.229 22.1319 89.501 22.1319 89.053C22.1319 88.813 22.0279 88.693 21.8199 88.693ZM35.072 98.221L35.576 98.605C35.224 99.309 34.736 99.901 34.112 100.381C33.504 100.861 32.952 101.101 32.456 101.101C31.96 101.101 31.568 100.957 31.28 100.669C30.992 100.381 30.848 100.021 30.848 99.589C30.848 99.157 31.12 98.405 31.664 97.333C32.224 96.245 32.504 95.445 32.504 94.933C32.504 94.709 32.408 94.509 32.216 94.333C32.04 94.141 31.824 94.045 31.568 94.045C30.752 94.045 29.928 94.669 29.096 95.917C28.264 97.149 27.336 98.933 26.312 101.269L24.872 100.765C25.176 98.909 25.608 97.101 26.168 95.341C26.744 93.565 27.272 92.293 27.752 91.525L28.736 91.837C28.288 92.973 27.72 94.933 27.032 97.717C29.24 93.941 31.272 92.053 33.128 92.053C33.528 92.053 33.856 92.189 34.112 92.461C34.384 92.733 34.52 93.053 34.52 93.421C34.52 93.789 34.472 94.125 34.376 94.429C34.28 94.717 33.976 95.405 33.464 96.493C32.968 97.565 32.72 98.237 32.72 98.509C32.72 98.781 32.8 98.997 32.96 99.157C33.12 99.301 33.272 99.373 33.416 99.373C33.56 99.373 33.68 99.349 33.776 99.301C33.872 99.253 33.976 99.181 34.088 99.085C34.216 98.989 34.328 98.901 34.424 98.821C34.52 98.741 34.632 98.637 34.76 98.509C34.904 98.365 35.008 98.269 35.072 98.221ZM43.9969 92.533L44.8129 93.181C42.6849 95.981 41.2449 98.317 40.4929 100.189C40.2369 100.813 39.8689 101.125 39.3889 101.125C39.0849 101.125 38.8129 100.965 38.5729 100.645C38.3489 100.325 38.1969 100.037 38.1169 99.781C38.0529 99.509 37.9409 98.949 37.7809 98.101C37.6209 97.253 37.4449 96.373 37.2529 95.461C37.0609 94.533 36.9009 93.845 36.7729 93.397C36.6609 92.933 36.5809 92.629 36.5329 92.485C36.5009 92.341 36.4369 92.221 36.3409 92.125C36.2449 92.013 36.1889 91.941 36.1729 91.909L37.7329 92.053C38.1969 93.189 38.5649 94.421 38.8369 95.749C38.9009 96.021 39.0129 96.573 39.1729 97.405C39.3329 98.221 39.4609 98.861 39.5569 99.325C40.4369 97.629 41.2049 96.253 41.8609 95.197C42.5329 94.125 43.2449 93.237 43.9969 92.533ZM51.986 98.293L52.538 98.725C52.042 99.413 51.362 99.989 50.498 100.453C49.634 100.901 48.794 101.125 47.978 101.125C47.162 101.125 46.506 100.885 46.01 100.405C45.514 99.925 45.266 99.293 45.266 98.509C45.266 97.037 46.042 95.589 47.594 94.165C49.162 92.741 50.746 92.029 52.346 92.029C53.402 92.029 53.93 92.445 53.93 93.277C53.93 94.141 53.37 95.013 52.25 95.893C51.146 96.773 49.586 97.573 47.57 98.293C47.714 98.661 47.938 98.949 48.242 99.157C48.546 99.365 48.858 99.469 49.178 99.469C49.866 99.469 50.802 99.077 51.986 98.293ZM47.45 97.573C48.746 97.125 49.858 96.565 50.786 95.893C51.714 95.221 52.178 94.605 52.178 94.045C52.178 93.837 52.098 93.653 51.938 93.493C51.778 93.333 51.594 93.253 51.386 93.253C50.634 93.253 49.818 93.725 48.938 94.669C48.074 95.597 47.578 96.565 47.45 97.573ZM59.3027 90.949C58.4067 90.949 57.9587 90.589 57.9587 89.869C57.9587 89.469 58.0707 89.133 58.2947 88.861C58.5187 88.589 58.8067 88.453 59.1587 88.453C59.5107 88.453 59.7987 88.557 60.0227 88.765C60.2467 88.973 60.3587 89.245 60.3587 89.581C60.3587 89.917 60.2627 90.229 60.0707 90.517C59.8787 90.805 59.6227 90.949 59.3027 90.949ZM58.9907 98.029L59.4707 98.437C59.0867 99.173 58.5747 99.805 57.9347 100.333C57.3107 100.845 56.7427 101.101 56.2307 101.101C55.3347 101.101 54.8867 100.477 54.8867 99.229C54.8867 97.677 55.5267 95.653 56.8067 93.157C57.0947 92.613 57.2627 92.293 57.3107 92.197L58.3427 92.821C58.0067 93.429 57.5907 94.397 57.0947 95.725C56.6147 97.053 56.3747 97.909 56.3747 98.293C56.3747 98.661 56.4547 98.925 56.6147 99.085C56.7747 99.245 56.9667 99.325 57.1907 99.325C57.6227 99.325 58.2227 98.893 58.9907 98.029ZM64.5725 98.821L65.0765 99.229C64.5325 100.077 64.0605 100.693 63.6605 101.077C63.2765 101.445 62.8445 101.629 62.3645 101.629C61.8845 101.629 61.4925 101.437 61.1885 101.053C60.8845 100.669 60.7325 100.189 60.7325 99.613C60.7325 98.493 61.4685 96.085 62.9405 92.389C64.4125 88.677 65.9245 85.413 67.4765 82.597L68.5325 83.173C66.9645 86.213 65.5485 89.237 64.2845 92.245C63.0205 95.237 62.3885 97.389 62.3885 98.701C62.3885 99.453 62.6685 99.829 63.2285 99.829C63.6765 99.829 64.1245 99.493 64.5725 98.821ZM72.2402 90.949C71.3442 90.949 70.8962 90.589 70.8962 89.869C70.8962 89.469 71.0082 89.133 71.2322 88.861C71.4562 88.589 71.7442 88.453 72.0962 88.453C72.4482 88.453 72.7362 88.557 72.9602 88.765C73.1842 88.973 73.2962 89.245 73.2962 89.581C73.2962 89.917 73.2002 90.229 73.0082 90.517C72.8162 90.805 72.5602 90.949 72.2402 90.949ZM71.9282 98.029L72.4082 98.437C72.0242 99.173 71.5122 99.805 70.8722 100.333C70.2482 100.845 69.6802 101.101 69.1682 101.101C68.2722 101.101 67.8242 100.477 67.8242 99.229C67.8242 97.677 68.4642 95.653 69.7442 93.157C70.0322 92.613 70.2002 92.293 70.2482 92.197L71.2802 92.821C70.9442 93.429 70.5282 94.397 70.0322 95.725C69.5522 97.053 69.3122 97.909 69.3122 98.293C69.3122 98.661 69.3922 98.925 69.5522 99.085C69.7122 99.245 69.9042 99.325 70.1282 99.325C70.5602 99.325 71.1602 98.893 71.9282 98.029ZM83.822 98.221L84.326 98.605C83.974 99.309 83.486 99.901 82.862 100.381C82.254 100.861 81.702 101.101 81.206 101.101C80.71 101.101 80.318 100.957 80.03 100.669C79.742 100.381 79.598 100.021 79.598 99.589C79.598 99.157 79.87 98.405 80.414 97.333C80.974 96.245 81.254 95.445 81.254 94.933C81.254 94.709 81.158 94.509 80.966 94.333C80.79 94.141 80.574 94.045 80.318 94.045C79.502 94.045 78.678 94.669 77.846 95.917C77.014 97.149 76.086 98.933 75.062 101.269L73.622 100.765C73.926 98.909 74.358 97.101 74.918 95.341C75.494 93.565 76.022 92.293 76.502 91.525L77.486 91.837C77.038 92.973 76.47 94.933 75.782 97.717C77.99 93.941 80.022 92.053 81.878 92.053C82.278 92.053 82.606 92.189 82.862 92.461C83.134 92.733 83.27 93.053 83.27 93.421C83.27 93.789 83.222 94.125 83.126 94.429C83.03 94.717 82.726 95.405 82.214 96.493C81.718 97.565 81.47 98.237 81.47 98.509C81.47 98.781 81.55 98.997 81.71 99.157C81.87 99.301 82.022 99.373 82.166 99.373C82.31 99.373 82.43 99.349 82.526 99.301C82.622 99.253 82.726 99.181 82.838 99.085C82.966 98.989 83.078 98.901 83.174 98.821C83.27 98.741 83.382 98.637 83.51 98.509C83.654 98.365 83.758 98.269 83.822 98.221ZM95.2429 100.261L95.2669 100.837C95.1069 100.933 94.3789 101.221 93.0829 101.701C92.5709 104.757 91.8189 106.965 90.8269 108.325C89.8349 109.685 88.6189 110.365 87.1789 110.365C86.5069 110.365 85.9709 110.149 85.5709 109.717C85.1709 109.285 84.9709 108.725 84.9709 108.037C84.9709 106.661 85.6029 105.373 86.8669 104.173C88.1309 102.989 89.8189 102.053 91.9309 101.365C92.1709 100.293 92.6029 98.781 93.2269 96.829C92.1549 98.461 91.1789 99.565 90.2989 100.141C89.4349 100.717 88.6509 101.005 87.9469 101.005C87.2429 101.005 86.7069 100.813 86.3389 100.429C85.9869 100.045 85.8109 99.533 85.8109 98.893C85.8109 97.837 86.2509 96.765 87.1309 95.677C88.0109 94.573 89.1149 93.677 90.4429 92.989C91.7869 92.285 93.0829 91.933 94.3309 91.933L94.5229 92.773C92.7469 92.965 91.2189 93.589 89.9389 94.645C88.6749 95.701 88.0429 96.717 88.0429 97.693C88.0429 98.109 88.1709 98.453 88.4269 98.725C88.6829 98.997 88.9949 99.133 89.3629 99.133C89.9069 99.133 90.7309 98.557 91.8349 97.405C92.9389 96.253 93.7149 95.269 94.1629 94.453L95.0509 94.957C94.1709 97.309 93.5629 99.293 93.2269 100.909L95.2429 100.261ZM91.7869 102.085C90.3949 102.725 89.2429 103.493 88.3309 104.389C87.4189 105.285 86.9629 106.101 86.9629 106.837C86.9629 107.221 87.0749 107.533 87.2989 107.773C87.5229 108.013 87.8029 108.133 88.1389 108.133C88.8109 108.133 89.4749 107.661 90.1309 106.717C90.7869 105.773 91.3389 104.229 91.7869 102.085ZM112.107 90.949C111.211 90.949 110.763 90.589 110.763 89.869C110.763 89.469 110.875 89.133 111.099 88.861C111.323 88.589 111.611 88.453 111.963 88.453C112.315 88.453 112.603 88.557 112.827 88.765C113.051 88.973 113.163 89.245 113.163 89.581C113.163 89.917 113.067 90.229 112.875 90.517C112.683 90.805 112.427 90.949 112.107 90.949ZM111.795 98.029L112.275 98.437C111.891 99.173 111.379 99.805 110.739 100.333C110.115 100.845 109.547 101.101 109.035 101.101C108.139 101.101 107.691 100.477 107.691 99.229C107.691 97.677 108.331 95.653 109.611 93.157C109.899 92.613 110.067 92.293 110.115 92.197L111.147 92.821C110.811 93.429 110.395 94.397 109.899 95.725C109.419 97.053 109.179 97.909 109.179 98.293C109.179 98.661 109.259 98.925 109.419 99.085C109.579 99.245 109.771 99.325 109.995 99.325C110.427 99.325 111.027 98.893 111.795 98.029ZM123.689 98.221L124.193 98.605C123.841 99.309 123.353 99.901 122.729 100.381C122.121 100.861 121.569 101.101 121.073 101.101C120.577 101.101 120.185 100.957 119.897 100.669C119.609 100.381 119.465 100.021 119.465 99.589C119.465 99.157 119.737 98.405 120.281 97.333C120.841 96.245 121.121 95.445 121.121 94.933C121.121 94.709 121.025 94.509 120.833 94.333C120.657 94.141 120.441 94.045 120.185 94.045C119.369 94.045 118.545 94.669 117.713 95.917C116.881 97.149 115.953 98.933 114.929 101.269L113.489 100.765C113.793 98.909 114.225 97.101 114.785 95.341C115.361 93.565 115.889 92.293 116.369 91.525L117.353 91.837C116.905 92.973 116.337 94.933 115.649 97.717C117.857 93.941 119.889 92.053 121.745 92.053C122.145 92.053 122.473 92.189 122.729 92.461C123.001 92.733 123.137 93.053 123.137 93.421C123.137 93.789 123.089 94.125 122.993 94.429C122.897 94.717 122.593 95.405 122.081 96.493C121.585 97.565 121.337 98.237 121.337 98.509C121.337 98.781 121.417 98.997 121.577 99.157C121.737 99.301 121.889 99.373 122.033 99.373C122.177 99.373 122.297 99.349 122.393 99.301C122.489 99.253 122.593 99.181 122.705 99.085C122.833 98.989 122.945 98.901 123.041 98.821C123.137 98.741 123.249 98.637 123.377 98.509C123.521 98.365 123.625 98.269 123.689 98.221ZM132.614 91.741L132.398 92.677C132.126 92.645 131.774 92.629 131.342 92.629C129.742 92.629 128.942 93.157 128.942 94.213C128.942 94.437 129.262 95.093 129.902 96.181C130.558 97.269 130.886 97.997 130.886 98.365C130.886 99.229 130.59 99.909 129.998 100.405C129.422 100.885 128.646 101.125 127.67 101.125C126.326 101.125 125.246 100.381 124.43 98.893L125.342 98.245C125.566 98.421 125.806 98.637 126.062 98.893C126.318 99.133 126.51 99.301 126.638 99.397C126.942 99.669 127.278 99.805 127.646 99.805C128.014 99.805 128.334 99.677 128.606 99.421C128.878 99.149 129.014 98.821 129.014 98.437C129.014 98.037 128.662 97.301 127.958 96.229C127.27 95.157 126.926 94.405 126.926 93.973C126.926 93.189 127.254 92.589 127.91 92.173C128.582 91.757 129.454 91.549 130.526 91.549C131.614 91.549 132.31 91.613 132.614 91.741ZM137.607 90.949C136.711 90.949 136.263 90.589 136.263 89.869C136.263 89.469 136.375 89.133 136.599 88.861C136.823 88.589 137.111 88.453 137.463 88.453C137.815 88.453 138.103 88.557 138.327 88.765C138.551 88.973 138.663 89.245 138.663 89.581C138.663 89.917 138.567 90.229 138.375 90.517C138.183 90.805 137.927 90.949 137.607 90.949ZM137.295 98.029L137.775 98.437C137.391 99.173 136.879 99.805 136.239 100.333C135.615 100.845 135.047 101.101 134.535 101.101C133.639 101.101 133.191 100.477 133.191 99.229C133.191 97.677 133.831 95.653 135.111 93.157C135.399 92.613 135.567 92.293 135.615 92.197L136.647 92.821C136.311 93.429 135.895 94.397 135.399 95.725C134.919 97.053 134.679 97.909 134.679 98.293C134.679 98.661 134.759 98.925 134.919 99.085C135.079 99.245 135.271 99.325 135.495 99.325C135.927 99.325 136.527 98.893 137.295 98.029ZM149.477 100.261L149.501 100.837C149.341 100.933 148.613 101.221 147.317 101.701C146.805 104.757 146.053 106.965 145.061 108.325C144.069 109.685 142.853 110.365 141.413 110.365C140.741 110.365 140.205 110.149 139.805 109.717C139.405 109.285 139.205 108.725 139.205 108.037C139.205 106.661 139.837 105.373 141.101 104.173C142.365 102.989 144.053 102.053 146.165 101.365C146.405 100.293 146.837 98.781 147.461 96.829C146.389 98.461 145.413 99.565 144.533 100.141C143.669 100.717 142.885 101.005 142.181 101.005C141.477 101.005 140.941 100.813 140.573 100.429C140.221 100.045 140.045 99.533 140.045 98.893C140.045 97.837 140.485 96.765 141.365 95.677C142.245 94.573 143.349 93.677 144.677 92.989C146.021 92.285 147.317 91.933 148.565 91.933L148.757 92.773C146.981 92.965 145.453 93.589 144.173 94.645C142.909 95.701 142.277 96.717 142.277 97.693C142.277 98.109 142.405 98.453 142.661 98.725C142.917 98.997 143.229 99.133 143.597 99.133C144.141 99.133 144.965 98.557 146.069 97.405C147.173 96.253 147.949 95.269 148.397 94.453L149.285 94.957C148.405 97.309 147.797 99.293 147.461 100.909L149.477 100.261ZM146.021 102.085C144.629 102.725 143.477 103.493 142.565 104.389C141.653 105.285 141.197 106.101 141.197 106.837C141.197 107.221 141.309 107.533 141.533 107.773C141.757 108.013 142.037 108.133 142.373 108.133C143.045 108.133 143.709 107.661 144.365 106.717C145.021 105.773 145.573 104.229 146.021 102.085ZM159.178 99.373L159.73 99.829C159.058 100.949 158.186 101.509 157.114 101.509C156.186 101.509 155.722 101.053 155.722 100.141C155.722 99.613 155.946 98.773 156.394 97.621C156.858 96.453 157.09 95.685 157.09 95.317C157.09 94.853 156.794 94.621 156.202 94.621C155.61 94.621 154.802 95.261 153.778 96.541C152.77 97.805 151.922 99.277 151.234 100.957L149.818 100.453C150.65 96.277 152.826 90.685 156.346 83.677L157.522 84.061C155.746 87.613 154.474 90.437 153.706 92.533C152.906 94.709 152.306 96.509 151.906 97.933C153.138 95.901 154.194 94.493 155.074 93.709C155.97 92.925 156.746 92.533 157.402 92.533C158.586 92.533 159.178 92.957 159.178 93.805C159.178 94.333 158.882 95.277 158.29 96.637C157.698 97.997 157.402 98.901 157.402 99.349C157.402 99.797 157.618 100.021 158.05 100.021C158.274 100.021 158.65 99.805 159.178 99.373ZM165.913 98.437L166.441 99.037C166.041 99.661 165.553 100.149 164.977 100.501C164.417 100.853 163.849 101.029 163.273 101.029C162.697 101.029 162.241 100.869 161.905 100.549C161.569 100.213 161.401 99.757 161.401 99.181C161.401 97.837 161.905 95.981 162.913 93.613C162.097 93.741 161.281 93.933 160.465 94.189L160.297 93.253L160.273 93.229C161.073 92.893 162.121 92.621 163.417 92.413C163.545 92.173 163.833 91.589 164.281 90.661C165.177 88.821 165.817 87.629 166.201 87.085L167.233 87.493C167.073 87.845 166.793 88.437 166.393 89.269C165.993 90.085 165.545 91.013 165.049 92.053C165.769 92.005 166.337 91.981 166.753 91.981C167.169 91.981 167.489 92.045 167.713 92.173V93.205C167.489 93.157 167.161 93.133 166.729 93.133C166.313 93.133 165.561 93.205 164.473 93.349C163.529 95.461 163.057 96.997 163.057 97.957C163.057 98.325 163.169 98.629 163.393 98.869C163.633 99.109 163.945 99.229 164.329 99.229C164.729 99.229 165.257 98.965 165.913 98.437ZM176.067 91.741L175.851 92.677C175.579 92.645 175.227 92.629 174.795 92.629C173.195 92.629 172.395 93.157 172.395 94.213C172.395 94.437 172.715 95.093 173.355 96.181C174.011 97.269 174.339 97.997 174.339 98.365C174.339 99.229 174.043 99.909 173.451 100.405C172.875 100.885 172.099 101.125 171.123 101.125C169.779 101.125 168.699 100.381 167.883 98.893L168.795 98.245C169.019 98.421 169.259 98.637 169.515 98.893C169.771 99.133 169.963 99.301 170.091 99.397C170.395 99.669 170.731 99.805 171.099 99.805C171.467 99.805 171.787 99.677 172.059 99.421C172.331 99.149 172.467 98.821 172.467 98.437C172.467 98.037 172.115 97.301 171.411 96.229C170.723 95.157 170.379 94.405 170.379 93.973C170.379 93.189 170.707 92.589 171.363 92.173C172.035 91.757 172.907 91.549 173.979 91.549C175.067 91.549 175.763 91.613 176.067 91.741Z" fill="#15616D"/>
<g filter="url(#filter0_d_1604_95)">
<path d="M195.859 20.5H196.995C211.74 20.5 223.693 32.4531 223.693 47.1979C223.693 61.9428 211.74 73.8958 196.995 73.8958H196.427H195.859C181.115 73.8958 169.161 61.9428 169.161 47.1979C169.161 32.4531 181.115 20.5 195.859 20.5Z" stroke="url(#paint0_linear_1604_95)" stroke-width="17" shape-rendering="crispEdges"/>
</g>
<defs>
<filter id="filter0_d_1604_95" x="148.661" y="0" width="111.531" height="110.396" filterUnits="userSpaceOnUse" color-interpolation-filters="sRGB">
<feFlood flood-opacity="0" result="BackgroundImageFix"/>
<feColorMatrix in="SourceAlpha" type="matrix" values="0 0 0 0 0 0 0 0 0 0 0 0 0 0 0 0 0 0 127 0" result="hardAlpha"/>
<feOffset dx="8" dy="8"/>
<feGaussianBlur stdDeviation="10"/>
<feComposite in2="hardAlpha" operator="out"/>
<feColorMatrix type="matrix" values="0 0 0 0 0.0823529 0 0 0 0 0.380392 0 0 0 0 0.427451 0 0 0 0.1 0"/>
<feBlend mode="normal" in2="BackgroundImageFix" result="effect1_dropShadow_1604_95"/>
<feBlend mode="normal" in="SourceGraphic" in2="effect1_dropShadow_1604_95" result="shape"/>
</filter>
<linearGradient id="paint0_linear_1604_95" x1="170.618" y1="12" x2="220.199" y2="83.1442" gradientUnits="userSpaceOnUse">
<stop offset="0.109375" stop-color="#001524"/>
<stop offset="0.302083" stop-color="#15616D"/>
<stop offset="0.453125" stop-color="#799D98"/>
<stop offset="0.5625" stop-color="#FFECD1"/>
<stop offset="0.739583" stop-color="#FFB569"/>
<stop offset="0.9375" stop-color="#FF7D00"/>
</linearGradient>
</defs>
</svg>
