<svg width="801" height="555" viewBox="0 0 801 555" fill="none" xmlns="http://www.w3.org/2000/svg">
<g clip-path="url(#clip0_2405_2)">
<path d="M641.686 553.141C641.686 553.787 642.009 554.305 642.411 554.305H800.142C800.542 554.305 800.867 553.787 800.867 553.141C800.867 552.495 800.544 551.977 800.142 551.977H642.411C642.009 551.977 641.686 552.495 641.686 553.141Z" fill="#F2F2F2"/>
<path d="M705.143 280.004L690.643 279.606L697.356 260.937L709.125 265.164L705.143 280.004Z" fill="#ED9DA0"/>
<path d="M701.744 267.498C709.331 267.498 715.482 261.347 715.482 253.759C715.482 246.172 709.331 240.021 701.744 240.021C694.156 240.021 688.005 246.172 688.005 253.759C688.005 261.347 694.156 267.498 701.744 267.498Z" fill="#ED9DA0"/>
<path d="M714.926 468.155H704.163V483.424H714.926V468.155Z" fill="#ED9DA0"/>
<path d="M705.363 492.175C707.205 492.348 716.413 493.071 716.869 490.957C717.116 489.543 717.017 488.09 716.582 486.722C715.694 477.912 715.364 477.819 715.169 477.76C714.856 477.666 713.944 478.097 712.455 479.061L712.362 479.12L712.345 479.23C712.32 479.365 711.66 482.601 708.542 482.104C706.402 481.767 705.709 481.293 705.49 481.067C705.72 480.966 705.916 480.802 706.056 480.594C706.173 480.386 706.244 480.155 706.264 479.918C706.285 479.68 706.254 479.441 706.174 479.216C705.737 477.929 705.182 476.685 704.517 475.499L704.382 475.254L692.148 483.506L684.598 485.661C684.317 485.74 684.058 485.881 683.84 486.075C683.622 486.268 683.451 486.508 683.339 486.777C683.183 487.149 683.147 487.56 683.235 487.954C683.322 488.347 683.53 488.704 683.829 488.975C685.199 490.209 687.929 492.315 690.787 492.585C691.547 492.653 692.553 492.686 693.686 492.686C698.413 492.686 705.303 492.196 705.355 492.188L705.363 492.175Z" fill="#2F2E43"/>
<path d="M757.447 463.956L746.889 466.066L749.881 481.045L760.44 478.936L757.447 463.956Z" fill="#ED9DA0"/>
<path d="M752.744 489.385C754.579 489.19 763.752 488.088 763.794 485.935C763.756 484.499 763.374 483.092 762.678 481.835C760.085 473.371 759.745 473.338 759.533 473.321C759.204 473.296 758.391 473.896 757.123 475.13L757.047 475.206V475.316C757.047 475.46 757.038 478.757 753.885 478.884C751.725 478.97 750.952 478.647 750.687 478.461C750.892 478.316 751.053 478.117 751.152 477.887C751.229 477.66 751.255 477.419 751.229 477.181C751.202 476.943 751.124 476.713 751 476.509C750.318 475.333 749.532 474.221 748.65 473.186L748.473 472.975L738.101 483.467L731.117 487.068C730.858 487.202 730.632 487.392 730.456 487.625C730.281 487.857 730.16 488.127 730.102 488.412C730.023 488.808 730.068 489.219 730.232 489.589C730.395 489.958 730.669 490.268 731.015 490.476C732.605 491.414 735.69 492.953 738.549 492.648C739.309 492.562 740.299 492.395 741.406 492.175C746.039 491.245 752.701 489.418 752.752 489.402L752.744 489.385Z" fill="#2F2E43"/>
<path d="M688.005 345.106L738.467 339.645L761.689 466.788L745.535 468.832L718.285 385.096L719.634 471.224H702.138L688.005 345.106Z" fill="#2F2E43"/>
<path d="M691.342 271.525L717.672 268.413L743.689 357.958C743.689 357.958 730.523 355.228 722.491 364.113C714.459 372.998 686.809 362.903 686.809 362.903L691.342 271.516V271.525Z" fill="#DFDFE0"/>
<path d="M663.208 366.335C662.447 370.089 663.842 373.522 666.327 373.995C668.812 374.468 671.442 371.813 672.204 368.051C672.531 366.554 672.478 364.999 672.052 363.528L675.071 347.574L667.266 346.34L665.119 362.201C664.152 363.4 663.499 364.821 663.217 366.335H663.208Z" fill="#ED9DA0"/>
<path d="M700.333 270.941L689.579 271.998C687.044 272.536 684.721 273.803 682.895 275.643C681.07 277.483 679.82 279.815 679.301 282.354L663.656 358.421H674.233L700.341 270.932L700.333 270.941Z" fill="#DFDFE0"/>
<path d="M709.43 262.316L708.078 261.699C708.644 259.146 709.16 256.271 707.722 254.093C706.928 252.893 705.575 251.945 705.406 250.516C705.262 249.333 706.011 248.124 705.685 246.973C705.339 245.763 703.986 245.206 702.794 244.8C700.958 244.082 699.027 243.641 697.062 243.489C696.077 243.426 695.091 243.581 694.174 243.946C693.257 244.31 692.433 244.873 691.761 245.595C691.388 246.073 691.062 246.585 690.788 247.126C689.8 248.918 688.092 252.384 688.092 252.384C688.092 252.384 688.159 251.59 688.15 250.008C687.526 248.675 687.08 247.265 686.823 245.815C686.776 244.028 687.336 242.278 688.412 240.852C689.542 239.177 691.039 237.783 692.791 236.776C694.542 235.769 696.5 235.177 698.516 235.043C702.54 234.857 706.226 235.137 708.263 238.611C708.603 239.287 708.996 239.935 709.439 240.547C710.327 241.629 711.671 242.204 712.761 243.075C714.02 244.131 715.028 245.453 715.714 246.946C716.4 248.439 716.746 250.065 716.727 251.708C716.554 254.819 715.417 257.778 714.283 260.678C713.311 263.184 711.308 265.725 708.771 266.604C709.041 265.26 709.303 263.915 709.574 262.571" fill="#2F2E43"/>
<path d="M700.653 272.572L700.814 272.792L705.701 279.472L711.34 287.191L712.608 288.924L717.258 295.291C718.488 296.697 719.804 298.027 721.197 299.273L721.248 299.315C722.127 300.109 723.126 300.957 724.224 301.801C730.439 306.586 739.789 311.262 747.907 304.98C758.213 296.998 735.605 279.21 724.098 271.094C722.234 269.777 720.088 268.915 717.832 268.576C715.576 268.237 713.271 268.43 711.103 269.14L700.653 272.572Z" fill="#DFDFE0"/>
<path d="M700.916 281.957C701.96 282.647 703.134 283.118 704.365 283.34C704.644 283.391 704.924 283.434 705.211 283.459L711.061 287.78L712.608 288.922L718.087 292.972L722.644 286.512L714.232 280.957L709.091 277.559C708.328 276.231 707.247 275.112 705.946 274.304C704.518 273.351 702.851 272.82 701.135 272.773H701.127C701.022 272.77 700.917 272.776 700.814 272.79C700.188 272.776 699.569 272.914 699.008 273.19C698.447 273.467 697.962 273.875 697.592 274.38C696.197 276.496 697.694 279.886 700.916 281.957Z" fill="#ED9DA0"/>
<path d="M710.055 289.947L714.35 280.681L733.382 287.783L724.225 301.801L710.055 289.947Z" fill="#DFDFE0"/>
<path d="M227.042 77.538C228.954 73.689 232.009 70.494 233.878 66.624C235.747 62.754 236.11 57.575 232.997 54.613C230.353 52.098 226.212 52.063 223.051 50.241C214.996 45.6 215.006 30.86 205.798 29.586C201.32 28.967 197.269 32.325 194.562 35.945C191.855 39.565 189.699 43.79 185.946 46.309C181.697 49.161 176.204 49.284 171.486 51.265C162.44 55.065 157.697 64.827 153.732 73.801C151.177 79.582 148.564 85.817 149.75 92.025C147.174 93.625 148.322 97.94 150.894 99.55C153.466 101.16 156.694 101.125 159.648 101.822C165.855 103.288 170.937 108.229 173.348 114.134C175.226 118.734 175.61 123.789 175.972 128.747L177.858 154.553C178.138 158.38 178.505 162.447 180.834 165.496C183.163 168.545 188.208 169.823 190.826 167.018C193.326 164.337 192.201 160.094 192.151 156.427C192.101 152.76 195.415 148.194 198.54 150.112L199.64 147.612C206.779 145.056 213.03 140.497 217.645 134.48C222.26 128.463 225.043 121.244 225.662 113.687C226.46 101.515 221.616 88.463 227.042 77.538Z" fill="#E6E6E6"/>
<path d="M234.335 154.729C235.025 154.079 235.514 153.246 235.745 152.327C235.977 151.408 235.94 150.442 235.641 149.543C235.341 148.644 234.791 147.849 234.055 147.253C233.318 146.657 232.427 146.283 231.485 146.177L231.497 146.59C230.153 147.375 228.621 147.778 227.065 147.755C225.515 147.73 223.972 147.975 222.505 148.477C221.776 148.742 221.144 149.222 220.693 149.853C220.241 150.484 219.991 151.237 219.976 152.013C220.062 152.607 220.289 153.172 220.639 153.659C220.99 154.147 221.452 154.542 221.988 154.813C223.065 155.343 224.22 155.694 225.41 155.852C228.479 156.429 232.067 156.868 234.335 154.729Z" fill="#E6E6E6"/>
<path d="M294.123 77.742C295.406 76.8684 296.496 75.7396 297.323 74.426C297.724 73.7613 297.915 72.9908 297.87 72.2158C297.826 71.4407 297.548 70.6973 297.073 70.083C296.107 69.2442 294.863 68.7948 293.583 68.822C290.108 68.5625 286.616 68.9744 283.297 70.035L293.521 79.093L294.123 77.742Z" fill="#E6E6E6"/>
<path d="M277.078 85.594C278.455 87.114 278.016 89.473 277.626 91.487C277.236 93.501 277.186 96.018 278.919 97.117C280.419 98.069 282.528 97.292 283.626 95.894C284.608 94.4025 285.206 92.6914 285.367 90.913C285.907 88.3284 286.151 85.6908 286.094 83.051C286.03 80.3905 285.091 77.8252 283.424 75.751C282.241 74.4025 280.666 73.458 278.919 73.0498C277.173 72.6416 275.342 72.7903 273.684 73.475L275.267 73.397C274.116 74.8749 273.243 76.5498 272.691 78.34C272.427 79.2392 272.408 80.1928 272.636 81.1017C272.865 82.0107 273.333 82.8419 273.991 83.509C274.933 84.33 276.242 84.672 277.078 85.594Z" fill="#E6E6E6"/>
<path d="M354.764 60.095L355.045 59.228C353.868 59.9091 352.96 60.9739 352.474 62.2441C351.988 63.5144 351.953 64.913 352.375 66.206C353.281 65.4918 353.979 64.5491 354.399 63.4749C354.819 62.4007 354.945 61.234 354.764 60.095Z" fill="#E6E6E6"/>
<path d="M339.46 72.504C340.959 71.655 342.238 70.4667 343.195 69.0341C344.153 67.6016 344.761 65.9649 344.971 64.255C345.133 63.1919 345.01 62.1048 344.614 61.105C344.411 60.6085 344.088 60.17 343.674 59.8284C343.261 59.4869 342.769 59.2528 342.243 59.147L341.602 60.156C340.682 59.365 339.138 60.178 338.751 61.328C338.502 62.5222 338.606 63.7631 339.051 64.899C339.495 66.0418 339.474 67.3127 338.995 68.441C338.478 69.1044 337.897 69.7151 337.26 70.264C336.949 70.5474 336.746 70.9301 336.685 71.3467C336.625 71.7632 336.711 72.1879 336.929 72.548C337.532 73.238 338.66 72.949 339.46 72.504Z" fill="#E6E6E6"/>
<path d="M332.935 66.866C333.484 65.8785 333.743 64.7561 333.682 63.628L332.282 63.188C331.386 63.5514 330.591 64.1264 329.965 64.864C329.775 65.0545 329.629 65.2847 329.538 65.5382C329.447 65.7917 329.413 66.0622 329.439 66.3303C329.465 66.5984 329.55 66.8574 329.688 67.0887C329.826 67.32 330.013 67.518 330.237 67.6684C330.46 67.8187 330.714 67.9178 330.98 67.9584C331.247 67.999 331.519 67.9802 331.777 67.9033C332.035 67.8264 332.273 67.6934 332.473 67.5137C332.674 67.334 332.832 67.1121 332.937 66.864L332.935 66.866Z" fill="#E6E6E6"/>
<path d="M401.472 59.77C401.599 59.876 401.725 59.985 401.852 60.093C401.964 60.07 402.07 60.027 402.184 60.013L401.472 59.77Z" fill="#E6E6E6"/>
<path d="M399.225 72.076L403.087 68.949C403.771 68.4662 404.353 67.8548 404.803 67.149C405.11 66.4795 405.242 65.7434 405.188 65.009C405.134 64.2746 404.894 63.5659 404.492 62.949C403.78 61.8554 402.887 60.8904 401.852 60.095C400.715 60.364 399.716 61.0406 399.045 61.9968C398.373 62.9529 398.075 64.1221 398.208 65.283C398.441 66.76 399.368 68.339 398.608 69.628C398.313 70.128 397.808 70.472 397.467 70.944C397.126 71.416 397.017 72.169 397.484 72.517C398.005 72.9 398.723 72.483 399.225 72.076Z" fill="#E6E6E6"/>
<path d="M402.041 78.452C402.52 78.4775 402.998 78.3999 403.444 78.2242C403.89 78.0486 404.293 77.7791 404.626 77.434C406.347 76.0238 407.853 74.3697 409.095 72.524L400.41 75.272L401.31 76.328C400.51 76.856 401.1 78.272 402.041 78.452Z" fill="#E6E6E6"/>
<path d="M410.16 84.414C410.337 84.8659 410.657 85.2474 411.071 85.5002C411.485 85.7531 411.97 85.8633 412.453 85.814C412.934 85.75 413.395 85.5814 413.803 85.3199C414.212 85.0585 414.558 84.7107 414.817 84.301C415.259 83.652 415.518 82.8967 415.57 82.1135C415.621 81.3302 415.461 80.5476 415.108 79.8466C414.755 79.1457 414.221 78.5519 413.561 78.127C412.901 77.7021 412.139 77.4614 411.355 77.43L412.155 78.652C412.358 80.737 409.523 82.417 410.16 84.414Z" fill="#E6E6E6"/>
<path d="M466.419 107.255C467.202 107.84 468.154 108.154 469.132 108.152C470.109 108.15 471.06 107.83 471.84 107.242C472.346 106.81 472.758 106.277 473.049 105.679C473.34 105.08 473.504 104.428 473.531 103.763C473.558 103.097 473.448 102.434 473.206 101.813C472.965 101.193 472.598 100.629 472.129 100.157L470.65 100.983C469.829 100.456 468.836 100.267 467.879 100.457C466.923 100.647 466.077 101.201 465.52 102.002C465.021 102.842 464.837 103.832 465.002 104.794C465.167 105.757 465.669 106.629 466.419 107.255Z" fill="#E6E6E6"/>
<path d="M483.622 109.204C484.343 108.995 484.997 108.604 485.524 108.069C486.05 107.535 486.43 106.874 486.628 106.15L483.752 105.772C482.952 105.168 482.021 104.761 481.034 104.585C480.539 104.511 480.033 104.61 479.602 104.865C479.171 105.12 478.84 105.515 478.666 105.985C478.605 106.384 478.647 106.792 478.788 107.17C478.929 107.548 479.164 107.884 479.472 108.145C480.015 108.663 480.682 109.032 481.408 109.219C482.135 109.405 482.897 109.402 483.622 109.209V109.204Z" fill="#E6E6E6"/>
<path d="M471.745 114.959C471.796 115.427 471.978 115.87 472.272 116.238C472.565 116.606 472.957 116.883 473.402 117.036C473.888 117.266 474.432 117.346 474.964 117.263C475.496 117.181 475.99 116.941 476.384 116.574C476.558 116.378 476.682 116.143 476.747 115.889C476.812 115.635 476.815 115.369 476.756 115.114C476.697 114.859 476.578 114.621 476.409 114.421C476.24 114.221 476.026 114.064 475.784 113.963L473.627 113.571C472.796 113.136 471.731 114.017 471.745 114.959Z" fill="#E6E6E6"/>
<path d="M346.593 130.121L344.924 128.597C345.368 129.216 345.937 129.735 346.593 130.121Z" fill="#E6E6E6"/>
<path d="M333.843 121.145C334.871 125.918 340.011 129.806 344.678 128.372L344.924 128.597C343.438 126.563 343.186 123.554 343.533 120.938C344.177 116.454 345.94 112.205 348.659 108.582C351.379 104.959 354.966 102.079 359.092 100.208C360.222 99.8559 361.232 99.1984 362.012 98.308C362.677 97.335 362.429 95.667 361.283 95.393C360.66 95.322 360.032 95.4675 359.504 95.805L350.831 100.074C346.451 102.23 341.983 104.448 338.542 107.912C335.101 111.376 332.815 116.372 333.843 121.145Z" fill="#E6E6E6"/>
<path d="M193.844 285.266C185.763 279.481 176.913 274.856 167.55 271.525C161.795 269.479 155.612 267.918 149.615 269.08C146.327 269.761 143.247 271.207 140.623 273.302C137.999 275.397 135.907 278.081 134.515 281.136C133.174 284.214 132.544 287.554 132.67 290.909C132.797 294.264 133.677 297.547 135.246 300.515C138.011 305.697 142.799 309.823 144.4 315.474C145.479 319.284 144.968 323.34 144.448 327.265L141.263 351.329C140.297 358.629 139.355 366.229 141.663 373.229C143.971 380.229 150.573 386.389 157.903 385.646L159.355 385.537C154.507 382.237 153.148 375.415 154.591 369.737C156.034 364.059 159.698 359.237 163.276 354.59L195.124 313.235C199.424 307.658 203.962 300.764 201.672 294.108C200.371 290.319 197.097 287.596 193.844 285.266Z" fill="#E6E6E6"/>
<path d="M121.497 250.419C120.422 250.055 119.286 250.864 118.654 251.807C118.143 252.819 117.543 253.784 116.86 254.69C115.206 256.39 112.193 256.056 110.409 254.49C108.625 252.924 107.853 250.496 107.509 248.147C107.094 245.328 107.273 242.183 109.134 240.024C111.049 237.802 114.198 237.206 117.095 236.744C120.087 236.267 123.44 235.87 125.895 237.651C127.439 238.773 128.339 240.583 129.77 241.851C131.201 243.119 133.745 243.593 134.822 242.017C135.104 241.458 135.246 240.84 135.237 240.214C135.228 239.588 135.068 238.974 134.77 238.424C134.165 237.328 133.801 236.115 133.702 234.867C133.774 233.135 135.165 231.758 136.589 230.767C138.013 229.776 139.62 228.922 140.554 227.461C141.703 225.661 141.581 223.349 142.293 221.339C144.018 216.473 150.173 214.309 151.966 209.468C152.398 208.45 152.447 207.309 152.103 206.258C151.353 204.33 149.324 204.708 149.203 202.352C149.084 200.098 150.964 197.887 152.875 196.945C155.509 195.645 158.581 195.752 161.516 195.673C164.451 195.594 167.616 195.204 169.769 193.208C170.466 192.489 171.004 191.631 171.347 190.69C171.69 189.749 171.83 188.747 171.759 187.748C171.687 186.749 171.406 185.776 170.933 184.894C170.46 184.011 169.805 183.238 169.013 182.626C167.408 181.517 165.378 181.132 163.813 179.963C161.867 178.507 160.946 176.082 159.431 174.182C158.17 172.735 156.728 171.458 155.139 170.382L151.239 167.487C148.888 165.743 146.439 163.954 143.582 163.333C140.725 162.712 137.315 163.591 135.882 166.144C135.318 167.282 135.011 168.53 134.982 169.799C134.852 172.789 134.976 175.784 135.355 178.753L136.063 185.922C136.275 188.064 136.047 190.888 133.963 191.444C129.35 192.677 130.906 185.856 129.883 183.767C128.317 180.567 121.121 179.032 118.045 177.699C116.124 176.866 114.096 175.947 112.936 174.204C111.492 172.035 111.789 169.082 112.921 166.735C114.207 164.466 115.77 162.365 117.574 160.482C119.282 158.448 120.838 156.291 122.392 154.136L127.798 146.636C130.109 143.436 132.539 139.52 131.226 135.793C130.942 135.294 130.516 134.891 130.003 134.633C129.491 134.375 128.913 134.274 128.343 134.343C127.773 134.412 127.236 134.647 126.8 135.02C126.363 135.392 126.046 135.885 125.888 136.437C125.313 138.449 126.848 141.018 125.379 142.509C124.876 142.914 124.247 143.129 123.601 143.117C122.955 143.105 122.335 142.867 121.847 142.443C120.896 141.565 120.172 140.469 119.736 139.25C117.957 135.297 116.224 131.319 114.398 127.387C113.821 126.144 113.218 124.016 111.469 124.225C109.95 124.407 109.13 126.625 109.183 127.905C109.26 129.775 110.293 131.445 111.083 133.141C111.873 134.837 112.425 136.874 111.558 138.532C110.458 140.632 107.679 141.103 105.311 141.032C100.847 140.897 96.4735 139.743 92.5241 137.658L92.2141 144.24L82.7841 140.293L80.9531 139.526C78.3021 138.416 75.6471 137.305 72.9171 136.404C71.3671 135.893 69.7961 135.45 68.2261 135.004L65.3621 134.197C63.478 133.529 61.4797 133.244 59.4841 133.358C57.3841 133.621 55.5181 134.747 53.5791 135.589C49.2531 137.467 43.6581 135.578 39.0221 135.544C37.1834 132.859 34.7008 130.678 31.8013 129.2C28.9019 127.722 25.6782 126.995 22.4252 127.086C19.1721 127.176 15.9936 128.08 13.1805 129.716C10.3673 131.352 8.00925 133.667 6.32207 136.45C5.50709 137.86 4.78134 139.319 4.14908 140.82L2.26207 145.049C1.33907 147.117 0.396082 149.295 0.578082 151.549C0.760082 153.803 2.49008 156.112 4.75408 156.091C-0.584923 158.508 -1.69592 166.967 2.83808 170.681C4.09308 171.709 5.63308 172.381 6.76308 173.547C7.61713 174.428 8.18851 175.543 8.40389 176.751C8.61927 177.959 8.46883 179.203 7.97185 180.325C7.47487 181.446 6.65403 182.394 5.61473 183.045C4.57544 183.697 3.36509 184.023 2.13907 183.982C5.30227 185.204 8.78652 185.318 12.0227 184.304C15.2588 183.291 18.0555 181.21 19.9561 178.401C21.8941 175.366 22.7371 171.575 25.3741 169.122C28.8661 165.874 34.6341 166.122 38.6621 168.68C42.6901 171.238 45.2381 175.58 46.9901 180.018C49.2901 185.831 50.7571 192.472 55.6501 196.36C58.0161 198.24 61.0121 199.297 63.1031 201.479C66.0811 204.586 66.5961 209.279 66.5291 213.579C66.4621 217.879 65.9981 222.346 67.5661 226.354C69.1341 230.362 73.6271 233.654 77.6571 232.147C76.5027 235.572 76.538 239.286 77.7574 242.689C78.9768 246.091 81.3089 248.982 84.3761 250.894L82.1761 237.234C85.8351 238.264 88.2061 241.813 89.5761 245.359C90.9461 248.905 91.6691 252.74 93.6551 255.981C96.7811 261.081 102.442 263.281 108.201 263.266C114.422 263.245 116.784 260.279 120.884 255.911C121.708 255.166 122.333 254.227 122.703 253.18C122.868 252.652 122.837 252.082 122.615 251.575C122.394 251.067 121.997 250.657 121.497 250.419Z" fill="#E6E6E6"/>
<path d="M139.112 250.192L128.68 248.552L134.149 251.84C135.669 252.852 137.322 253.648 139.06 254.206C139.932 254.48 140.851 254.572 141.76 254.477C142.669 254.381 143.548 254.1 144.344 253.65L143.899 252.799C143.197 251.026 140.995 250.488 139.112 250.192Z" fill="#E6E6E6"/>
<path d="M136.75 269.521L136.774 269.461C136.564 269.112 136.254 268.834 135.885 268.663C135.515 268.492 135.103 268.435 134.701 268.5C133.9 268.643 133.081 268.656 132.276 268.539C131.765 268.339 131.309 268.019 130.946 267.607C130.583 267.195 130.324 266.702 130.191 266.169C129.845 265.129 129.743 264.017 129.349 262.994C129.065 262.185 128.563 261.47 127.898 260.928C127.234 260.386 126.433 260.038 125.583 259.922C124.731 259.854 123.886 260.124 123.231 260.674C122.576 261.223 122.164 262.009 122.083 262.86C122.15 263.737 122.429 264.584 122.895 265.329L124.019 267.492C124.335 268.139 124.699 268.761 125.107 269.354C125.771 270.269 126.639 271.016 127.643 271.537C128.646 272.057 129.757 272.337 130.887 272.353C132.017 272.369 133.136 272.121 134.153 271.63C135.171 271.138 136.06 270.416 136.75 269.521Z" fill="#E6E6E6"/>
<path d="M116.441 84.474C119.089 86.035 122.405 87.111 123.663 89.915L124.389 90.149L122.014 93.1C121.036 94.316 120.007 95.67 120.03 97.231C120.062 99.38 122.13 101.001 124.217 101.508C126.446 101.967 128.766 101.582 130.727 100.427C132.688 99.2719 134.149 97.4293 134.828 95.257C135.076 94.351 135.179 93.412 135.397 92.498C136.032 90.3309 136.99 88.2721 138.239 86.391L159.328 50.903C160.204 49.43 161.106 47.668 160.448 46.085C160.097 45.4159 159.553 44.8673 158.887 44.51C158.221 44.1526 157.463 44.0029 156.711 44.08C155.21 44.2623 153.763 44.7493 152.457 45.511C151.877 44.4921 151.058 43.6291 150.071 42.9964C149.084 42.3636 147.958 41.9798 146.79 41.878C144.454 41.6978 142.105 41.9025 139.835 42.484C134.708 43.2578 129.764 44.9563 125.244 47.497C122.771 48.747 120.05 50.291 119.332 52.967C118.449 56.259 121.294 59.614 124.568 60.561C127.842 61.508 131.338 60.713 134.652 59.916C135.027 61.5226 134.871 63.2075 134.208 64.7181C133.544 66.2286 132.409 67.4835 130.973 68.2945C129.536 69.1056 127.875 69.4291 126.239 69.2166C124.603 69.0041 123.08 68.2671 121.898 67.116C119.522 64.803 118.359 60.787 115.098 60.19C111.837 59.593 109.263 63.063 108.545 66.29C107.844 69.7654 108.225 73.3724 109.637 76.6243C111.05 79.8763 113.426 82.6167 116.445 84.476L116.441 84.474Z" fill="#E6E6E6"/>
<path d="M157.22 141.392C155.654 136.979 153.597 132.756 151.086 128.804C149.183 125.68 146.834 122.85 144.113 120.404C141.627 118.257 138.769 116.583 135.68 115.464C132.68 114.38 129.344 113.844 126.313 114.833C123.282 115.822 120.703 118.64 120.765 121.827C120.833 125.352 123.917 128.108 127.131 129.556C130.345 131.004 133.92 131.635 136.952 133.432C139.014 134.682 140.736 136.42 141.969 138.492C143.202 140.564 143.907 142.908 144.022 145.316L144.786 146.579C143.056 147.152 141.442 148.031 140.022 149.173C139.319 149.754 138.781 150.509 138.463 151.364C138.146 152.219 138.059 153.143 138.213 154.042C138.743 156.176 140.922 157.401 142.893 158.377L153.816 163.787C151.962 158.259 158.032 153.114 158.368 147.293C158.381 145.27 157.992 143.264 157.222 141.393L157.22 141.392Z" fill="#E6E6E6"/>
<path d="M65.6651 126.466C67.8741 128.181 71.2651 127.379 73.2931 125.449C75.3211 123.519 76.3021 120.771 77.2211 118.13C76.8854 120.744 76.917 123.393 77.3151 125.998C77.5225 127.301 77.9982 128.547 78.7121 129.656C79.4259 130.766 80.3623 131.715 81.4621 132.444C82.4607 132.992 83.5371 133.384 84.6541 133.606C89.846 134.788 95.2719 134.4 100.243 132.492L100.288 130.792C97.7881 131.077 95.9011 128.338 95.7361 125.83C95.5711 123.322 96.4811 120.862 96.5611 118.35C96.6411 115.838 95.4301 112.902 92.9611 112.455C93.3938 113.324 93.5515 114.305 93.4133 115.266C93.2751 116.228 92.8474 117.124 92.1873 117.836C91.5271 118.549 90.6657 119.043 89.7176 119.254C88.7696 119.464 87.7799 119.382 86.8801 119.016C84.0171 117.852 82.9801 114.364 80.7641 112.206C79.397 110.99 77.7009 110.205 75.8891 109.951C74.0773 109.696 72.2306 109.982 70.5811 110.774C68.9525 111.605 67.5237 112.78 66.3935 114.217C65.2633 115.654 64.4586 117.319 64.0351 119.098C63.3591 121.678 63.5581 124.83 65.6651 126.466Z" fill="#E6E6E6"/>
<path d="M133.833 108.565L133.933 108.399C133.545 107.538 132.932 106.796 132.159 106.253C131.386 105.709 130.481 105.383 129.539 105.309C127.659 105.185 125.77 105.247 123.902 105.495C122.016 105.739 120.105 105.318 118.496 104.304C117.212 103.344 116.48 101.834 115.454 100.604C114.428 99.374 112.766 98.36 111.274 98.948C109.659 99.586 109.229 101.848 110.012 103.398C110.935 104.885 112.328 106.021 113.969 106.628C120.185 109.481 127.18 110.164 133.83 108.567L133.833 108.565Z" fill="#E6E6E6"/>
<path d="M112.615 113.902C112.099 114.281 111.749 114.844 111.639 115.474C111.529 116.104 111.666 116.753 112.023 117.284C112.38 117.815 112.928 118.188 113.554 118.325C114.179 118.461 114.832 118.35 115.378 118.016L115.923 118.554C116.647 117.254 116.946 115.519 116.023 114.354C115.611 113.873 115.037 113.562 114.41 113.478C113.783 113.394 113.146 113.544 112.623 113.9L112.615 113.902Z" fill="#E6E6E6"/>
<path d="M106.241 118.556C106.249 118.093 106.116 117.638 105.86 117.251C105.605 116.864 105.238 116.564 104.809 116.389C104.517 116.339 104.217 116.349 103.929 116.418C103.64 116.487 103.369 116.613 103.13 116.789C102.892 116.966 102.692 117.189 102.542 117.444C102.392 117.7 102.295 117.984 102.257 118.278C102.212 118.877 102.291 119.48 102.489 120.047C102.686 120.615 102.999 121.136 103.406 121.578C103.643 121.934 103.953 122.235 104.315 122.463C104.677 122.691 105.083 122.839 105.506 122.898C106.36 122.926 107.23 122.033 106.884 121.252L105.584 121.227C105.986 120.391 106.21 119.482 106.244 118.555L106.241 118.556Z" fill="#E6E6E6"/>
<path d="M80.7511 105.207L82.1871 106.371C83.0162 107.088 83.912 107.724 84.8621 108.271C86.5239 109.191 88.4783 109.431 90.3131 108.938C91.2189 108.68 92.045 108.197 92.7154 107.536C93.3858 106.874 93.8788 106.054 94.1491 105.152C94.7211 102.995 93.7881 100.752 92.8741 98.72C92.6668 98.1376 92.324 97.6128 91.8741 97.189C91.643 96.9841 91.3481 96.8656 91.0395 96.8533C90.731 96.8411 90.4277 96.936 90.1811 97.122C90.0022 97.3446 89.8831 97.6094 89.8353 97.891C89.7876 98.1726 89.8126 98.4617 89.9081 98.731C90.1044 99.2674 90.1941 99.8371 90.1721 100.408C90.0811 100.971 89.4901 101.508 88.9721 101.27L88.8891 103.186C86.4031 101.928 85.0891 98.586 82.3231 98.251C81.7023 98.177 81.0731 98.2749 80.5042 98.5341C79.9353 98.7932 79.4484 99.2036 79.0967 99.7204C78.745 100.237 78.542 100.841 78.5098 101.465C78.4776 102.089 78.6174 102.711 78.9141 103.261C79.3942 104.024 80.0201 104.686 80.7561 105.207H80.7511Z" fill="#E6E6E6"/>
<path d="M74.8301 96.934C75.4051 96.5399 75.8601 95.9946 76.1449 95.3583C76.4297 94.722 76.5333 94.0194 76.4441 93.328C76.3753 92.9931 76.2336 92.6776 76.029 92.4037C75.8244 92.1298 75.562 91.9044 75.2604 91.7434C74.9588 91.5825 74.6255 91.4899 74.2841 91.4724C73.9427 91.4549 73.6016 91.5128 73.2851 91.642C72.5749 92.173 72.076 92.9387 71.8771 93.803L69.9121 99.347L71.0121 98.547C72.3744 98.2536 73.6694 97.7071 74.8301 96.936V96.934Z" fill="#E6E6E6"/>
<path d="M87.5881 85.594C87.7849 85.346 87.925 85.0578 87.9984 84.7498C88.0718 84.4418 88.0768 84.1214 88.013 83.8113C87.9492 83.5012 87.8182 83.2088 87.6292 82.9548C87.4402 82.7007 87.1978 82.4912 86.9191 82.341L85.5421 82.212C85.229 82.2912 84.9389 82.4427 84.695 82.6543C84.4511 82.8659 84.2602 83.1318 84.1376 83.4306C84.015 83.7293 83.9641 84.0526 83.9891 84.3746C84.0141 84.6966 84.1142 85.0082 84.2814 85.2845C84.4486 85.5607 84.6782 85.794 84.9518 85.9655C85.2255 86.137 85.5355 86.2419 85.857 86.2719C86.1785 86.3019 86.5026 86.2561 86.8033 86.1382C87.1039 86.0203 87.3727 85.8336 87.5881 85.593V85.594Z" fill="#E6E6E6"/>
<path d="M100.255 87.72C101.54 88.335 103.166 88.92 104.283 88.038C104.614 87.7384 104.86 87.3569 104.997 86.9318C105.133 86.5068 105.156 86.0533 105.061 85.617C104.861 84.7463 104.473 83.9298 103.925 83.224C102.216 80.7701 100.044 78.6732 97.5321 77.051L96.9111 77.858C96.0431 80.111 95.2061 82.741 96.4111 84.829C97.3759 86.154 98.7144 87.1607 100.255 87.72Z" fill="#E6E6E6"/>
<path d="M109.824 89.724L112.224 90.811C111.989 90.4009 111.63 90.0752 111.2 89.8801C110.769 89.685 110.288 89.6304 109.824 89.724Z" fill="#E6E6E6"/>
<path d="M103.351 97.283L102.216 97.657C101.251 99.243 101.67 101.271 102.116 103.073C102.4 104.212 103.016 105.613 104.185 105.562C105.326 105.512 105.831 104.128 106.05 103.007C106.392 101.789 106.429 100.506 106.158 99.271C106.004 98.6596 105.636 98.1234 105.121 97.7589C104.607 97.3945 103.979 97.2257 103.351 97.283Z" fill="#E6E6E6"/>
<path d="M85.2451 91.944L86.085 92.282C86.2808 92.2535 86.4618 92.1613 86.5999 92.0196C86.738 91.8779 86.8256 91.6947 86.8491 91.4982C86.8725 91.3018 86.8306 91.103 86.7298 90.9328C86.629 90.7626 86.4749 90.6303 86.2914 90.5564C86.1078 90.4826 85.9051 90.4712 85.7144 90.5242C85.5238 90.5772 85.3559 90.6915 85.2368 90.8495C85.1177 91.0075 85.054 91.2003 85.0554 91.3981C85.0569 91.596 85.1236 91.7878 85.2451 91.944Z" fill="#E6E6E6"/>
<path d="M127.592 156.169C127.185 156.178 126.786 156.284 126.429 156.479C126.072 156.674 125.766 156.951 125.537 157.287C125.309 157.624 125.164 158.011 125.115 158.415C125.066 158.819 125.114 159.228 125.256 159.61C126.081 161.386 128.921 161.394 130.184 159.897C130.508 159.471 130.74 158.983 130.865 158.464C130.99 157.944 131.007 157.404 130.913 156.878C130.819 156.351 130.617 155.85 130.319 155.406C130.021 154.962 129.635 154.584 129.184 154.297L127.592 156.169Z" fill="#E6E6E6"/>
<path d="M168.505 198.24C168.175 198.328 167.865 198.481 167.595 198.691C167.325 198.901 167.1 199.163 166.933 199.461C166.765 199.759 166.66 200.088 166.622 200.428C166.585 200.768 166.615 201.112 166.713 201.44L169.071 201.604L171.471 200.404C171.423 200.066 171.307 199.741 171.131 199.448C170.955 199.155 170.722 198.901 170.446 198.699C170.17 198.498 169.856 198.354 169.523 198.277C169.191 198.199 168.846 198.188 168.509 198.246L168.505 198.24Z" fill="#E6E6E6"/>
<path d="M158.92 201.158C158.245 201.637 157.704 202.28 157.346 203.027C156.989 203.773 156.827 204.598 156.877 205.424C156.954 206.248 157.291 207.026 157.84 207.646C158.388 208.265 159.12 208.694 159.928 208.871C160.745 208.999 161.579 208.812 162.263 208.348C162.947 207.884 163.429 207.177 163.611 206.371C164.011 203.932 161.388 202.145 160.446 199.86L158.92 201.158Z" fill="#E6E6E6"/>
<path d="M250.511 185.048C250.76 186.879 249.111 188.483 249.049 190.33C248.976 192.521 251.362 194.23 253.544 194.011C254.627 193.823 255.652 193.387 256.538 192.736C257.424 192.086 258.147 191.238 258.65 190.261L258.697 190.056L255.508 186.456C254.203 184.981 252.819 183.301 252.87 181.332C252.895 180.361 253.278 179.421 253.256 178.45C253.205 177.752 253.049 177.065 252.794 176.413C252.506 175.554 252.114 174.586 251.256 174.296C250.182 173.933 249.098 174.885 248.585 175.896C248.124 176.829 247.9 177.861 247.932 178.9C247.965 179.94 248.253 180.956 248.772 181.858C249.394 182.909 250.347 183.836 250.511 185.048Z" fill="#E6E6E6"/>
<path d="M240.487 191.49C240.719 191.616 240.976 191.69 241.24 191.707C241.503 191.724 241.767 191.684 242.014 191.59C242.961 191.429 243.871 191.098 244.701 190.614C245.113 190.366 245.452 190.013 245.683 189.592C245.914 189.17 246.028 188.695 246.015 188.214C245.872 187.61 245.552 187.062 245.097 186.639C244.642 186.216 244.071 185.938 243.458 185.84C243.032 185.69 242.576 185.648 242.13 185.716C241.684 185.784 241.262 185.961 240.9 186.231C240.108 186.974 240.2 188.231 240.358 189.31L240.191 189.59C240.046 190.247 239.95 191.076 240.487 191.49Z" fill="#E6E6E6"/>
<path d="M407.784 269.749L407.094 268.034C406.779 268.811 406.896 269.604 407.784 269.749Z" fill="#E6E6E6"/>
<path d="M545.783 149.503C542.833 146.303 541.026 144.457 539.163 140.49C538.15 138.302 536.61 136.398 534.681 134.95C532.753 133.502 530.496 132.554 528.112 132.19C521.992 131.182 515.738 132.778 509.543 132.458C499.621 131.946 490.674 126.624 481.172 123.721C475.852 122.23 470.434 121.113 464.958 120.377L455.492 118.877C445.149 117.241 434.741 115.601 424.272 115.818C421.253 115.881 417.048 114.973 417.29 111.964C417.59 108.226 424.316 108.717 425.609 105.197C426.409 103.02 424.494 100.733 422.393 99.749C420.292 98.765 417.868 98.468 415.961 97.149C414.054 95.83 413.01 92.763 414.761 91.242L400.192 98.711C396.154 100.781 391.643 103.474 390.93 107.955C388.497 108.598 386.368 110.077 384.916 112.133C382.184 112.147 380.038 114.77 379.587 117.464C379.136 120.158 379.955 122.885 380.765 125.494C379.774 123.594 378.722 121.626 376.975 120.387C375.228 119.148 372.57 118.913 371.081 120.451C369.553 122.03 369.91 124.679 370.991 126.591C372.072 128.503 373.732 130.048 374.752 131.991C377.937 138.069 372.165 146.626 365.337 145.949C365.795 139.673 366.253 133.397 366.711 127.121C367.001 125.191 366.839 123.219 366.237 121.362C365.492 119.562 363.585 118.09 361.687 118.514C358.274 119.277 358.566 124.276 359.987 127.472C361.408 130.668 362.822 135.112 359.924 137.072C358.052 138.336 355.515 137.555 353.495 136.546C351.475 135.537 349.313 134.294 347.104 134.765C344.895 135.236 343.504 138.612 345.458 139.749L335.75 138.062C335.59 139.015 335.232 139.923 334.698 140.729C334.165 141.534 333.469 142.219 332.655 142.738C331.84 143.258 330.926 143.601 329.971 143.745C329.015 143.889 328.041 143.831 327.109 143.575L326.156 139.625L324.735 139.225C326.221 139.639 323.896 145.908 321.811 150.696C319.011 150.367 314.911 150.304 314.445 149.496C312.207 145.65 312.473 136.489 308.584 134.325C306.634 133.24 304.634 132.251 302.584 131.359C301.507 130.847 300.37 130.473 299.199 130.248C296.811 129.872 294.399 130.612 292.099 131.348C289.427 131.86 286.903 132.963 284.713 134.578C282.524 136.193 280.723 138.278 279.445 140.68L266.095 160.454C264.768 162.215 263.725 164.171 263.002 166.254C262.661 167.288 262.547 168.384 262.667 169.467C262.788 170.549 263.141 171.593 263.702 172.527C264.294 173.442 265.177 174.131 266.208 174.484C267.24 174.836 268.36 174.831 269.388 174.47C270.678 173.912 271.97 172.646 273.249 173.23C274.217 173.673 274.459 174.945 274.358 176.005C274.112 177.043 274.092 178.121 274.301 179.167C274.883 180.817 277.122 181.391 278.719 180.677C280.272 179.83 281.436 178.413 281.965 176.725C283.504 172.778 283.347 168.411 283.73 164.192C284.113 159.973 285.266 155.461 288.593 152.838C289.593 152.053 291.051 151.487 292.076 152.238C292.46 152.587 292.725 153.047 292.835 153.554C292.944 154.06 292.893 154.589 292.688 155.065C292.259 156.007 291.701 156.885 291.028 157.672C289.892 159.271 289.096 161.086 288.692 163.006C288.288 164.925 288.282 166.908 288.677 168.829L289.357 169.25C291.951 168.577 295.422 169.782 298.865 170.937C296.368 171.679 294.169 173.19 292.581 175.254C288.601 180.838 285.72 186.123 277.847 186.054C275.979 186.038 274.127 185.669 272.26 185.665C270.375 185.548 268.517 186.167 267.078 187.391C265.662 188.778 265.224 190.891 264.013 192.457C262.42 194.519 259.758 195.357 257.326 196.295C255.549 196.98 253.676 197.903 252.859 199.623C252.346 201.034 252.228 202.558 252.517 204.031C252.791 206.636 253.275 209.599 255.486 211.006C256.313 211.437 257.217 211.7 258.146 211.778C259.075 211.857 260.01 211.75 260.897 211.464C263.197 210.905 265.444 209.852 267.805 210.009C269.654 210.233 271.36 211.117 272.61 212.499C273.859 213.881 274.568 215.667 274.605 217.529C274.624 219.409 274.075 221.566 275.322 222.974C275.644 223.27 276.021 223.5 276.432 223.65C276.843 223.801 277.28 223.868 277.717 223.85C278.154 223.831 278.583 223.727 278.98 223.542C279.377 223.357 279.733 223.096 280.029 222.774C280.593 222.091 280.981 221.28 281.159 220.412C281.337 219.544 281.3 218.645 281.051 217.795C280.536 216.101 279.744 214.505 278.706 213.07C279.94 212.75 281.247 212.868 282.404 213.403C283.561 213.938 284.496 214.857 285.052 216.004C285.875 217.833 285.609 219.944 285.872 221.933C286.135 223.922 287.346 226.133 289.348 226.247C290.003 226.265 290.644 226.054 291.159 225.649C291.675 225.245 292.032 224.673 292.17 224.032C292.191 223.023 292.136 222.013 292.005 221.012C292.073 220.027 292.516 219.105 293.243 218.435C293.969 217.766 294.924 217.4 295.912 217.412C295.303 218.538 295.105 219.841 295.351 221.097C295.598 222.353 296.274 223.484 297.263 224.296C298.787 225.475 300.802 225.739 302.7 226.069C304.598 226.399 306.624 226.92 307.849 228.407C309.89 230.884 307.393 232 307.004 234.098C306.527 236.674 308.678 240.478 309.504 242.942L320.897 258.88C321.745 260.172 322.745 261.357 323.875 262.41C325.823 263.942 328.25 264.733 330.726 264.644C333.203 264.554 335.567 263.59 337.399 261.922C339.141 260.158 340.273 257.882 340.627 255.428C340.981 252.975 340.54 250.472 339.368 248.287C337.146 244.243 332.744 241.738 330.568 237.668C334.186 240.663 338.628 242.49 343.307 242.907C351.585 244.589 359.45 247.887 366.451 252.613C366.781 259.929 369.588 266.915 374.413 272.424C375.28 266.181 378.19 260.402 382.689 255.988C385.615 253.135 389.612 250.834 393.626 251.602C397.64 252.37 400.685 257.488 398.257 260.775L404.357 261.229L407.094 268.029C407.256 267.551 407.566 267.138 407.98 266.85C408.394 266.562 408.89 266.414 409.394 266.429C411.294 266.717 412.634 268.488 414.446 269.143C417.861 270.376 421.511 266.96 421.953 263.356C422.395 259.752 420.68 256.273 419.015 253.047C422.694 253.729 426.493 253.323 429.945 251.879C433.397 250.435 436.353 248.015 438.451 244.917C440.549 241.819 441.699 238.176 441.758 234.435C441.818 230.693 440.786 227.016 438.787 223.852C442.746 219.694 447.405 216.264 452.551 213.718C457.314 211.365 462.523 209.75 466.685 206.45C470.847 203.15 473.766 197.418 471.764 192.498C470.35 189.022 466.802 186.663 465.741 183.064C464.204 177.854 468.873 172.464 474.147 171.164C479.421 169.864 484.928 171.464 490.124 173.05C489.324 167.704 495.524 162.693 500.583 164.591L506.942 162.016C504.485 167.433 499.161 170.879 495.242 175.357C491.323 179.835 488.996 187.128 493.085 191.447L510.67 175.509L529.063 158.838L528.185 156.258C533.987 154.062 540.234 152.24 545.783 149.503Z" fill="#E6E6E6"/>
<path d="M241.331 221.004C241.094 221.345 240.968 221.751 240.97 222.166C240.973 222.581 241.103 222.985 241.343 223.324C241.658 223.591 242.056 223.741 242.469 223.746C242.882 223.752 243.284 223.613 243.606 223.354C244.236 222.817 244.728 222.136 245.04 221.37C245.344 221.959 245.823 222.44 246.41 222.748C246.998 223.056 247.665 223.175 248.323 223.09C249.636 222.892 250.88 222.373 251.945 221.579C252.79 221.084 253.536 220.437 254.145 219.671C254.447 219.285 254.654 218.834 254.75 218.354C254.846 217.873 254.828 217.377 254.698 216.905C254.382 216.181 253.891 215.547 253.269 215.06L248.616 210.76L248.09 210.602C247.817 210.311 247.487 210.078 247.121 209.918C246.756 209.757 246.361 209.672 245.962 209.668C245.563 209.663 245.166 209.74 244.797 209.893C244.428 210.045 244.094 210.271 243.814 210.556C242.851 211.634 242.847 213.245 242.994 214.683C243.141 216.121 243.37 217.653 242.73 218.95C242.362 219.695 241.74 220.284 241.331 221.004Z" fill="#E6E6E6"/>
<path d="M331.319 269.944C325.292 268.602 319.775 265.564 315.42 261.187C311.065 256.81 308.054 251.278 306.742 245.244C306.17 242.396 305.911 239.285 304.017 237.084C302.183 234.953 299.187 234.184 296.375 234.184C293.563 234.184 290.792 234.831 287.985 235.006C283.079 235.312 277.88 234.016 274.371 230.573C272.71 228.942 271.452 226.873 269.511 225.586C266.903 223.858 263.446 223.859 260.474 224.838C257.164 225.929 254.515 228.914 250.896 228.503C247.132 228.076 242.77 226.745 241.296 231.703C240.871 233.13 241.016 234.695 240.478 236.083C239.649 238.223 237.447 239.429 235.706 240.923C232.199 243.934 230.334 248.507 229.706 253.086C229.078 257.665 229.564 262.316 230.05 266.912C230.312 269.391 230.657 272.059 232.36 273.88C234.734 276.418 238.717 276.32 242.181 276.034L254.253 275.034C256.422 274.855 258.894 274.779 260.438 276.313C261.363 277.232 261.755 278.562 262.569 279.581C263.3 280.448 264.303 281.042 265.414 281.266C266.526 281.49 267.68 281.331 268.69 280.815C267.874 282.273 267.43 283.909 267.396 285.579C267.363 287.25 267.743 288.902 268.501 290.391C269.259 291.88 270.372 293.159 271.742 294.115C273.112 295.07 274.697 295.674 276.356 295.871L276.666 296.071C274.09 300.482 271.417 305.436 272.485 310.432C273.401 314.715 276.948 318.149 277.529 322.491C278.061 326.474 275.983 330.548 276.902 334.46C277.833 338.422 281.834 341.184 285.893 341.479C289.952 341.774 293.94 339.973 297.084 337.389C300.119 334.671 302.797 331.58 305.055 328.189C306.534 326.158 308.055 324.043 308.555 321.582C309.095 318.963 308.469 316.061 309.742 313.71C311.211 310.998 314.697 309.982 316.456 307.45C318.735 304.171 317.392 299.705 317.896 295.743C319.146 285.932 331.602 279.822 331.319 269.944Z" fill="#E6E6E6"/>
<path d="M329.519 303.412C329.178 304.943 327.745 305.95 326.379 306.721C325.013 307.492 323.511 308.269 322.815 309.674C322.102 311.113 322.428 312.829 322.801 314.391C323.576 317.641 324.49 320.854 325.542 324.029C327.58 320.178 329.36 316.195 330.869 312.108C331.508 310.586 331.903 308.973 332.038 307.328C332.101 306.505 331.99 305.677 331.713 304.899C331.436 304.121 331 303.41 330.431 302.811L329.519 303.412Z" fill="#E6E6E6"/>
<path d="M413.34 286.361L408.205 280.434C407.035 279.083 405.7 277.64 403.926 277.414L403.196 277.88L407.648 288.48C408.173 290.093 409.098 291.548 410.336 292.708C411.664 293.752 413.818 293.952 414.926 292.677C415.283 292.199 415.508 291.635 415.579 291.042C415.649 290.449 415.562 289.848 415.326 289.3C414.843 288.21 414.17 287.214 413.337 286.36L413.34 286.361Z" fill="#E6E6E6"/>
<path d="M429.924 290.145C430.571 289.92 431.164 289.563 431.665 289.096C432.166 288.629 432.564 288.063 432.833 287.433C433.364 286.172 433.714 284.843 433.874 283.484L434.751 278.176L434.368 278.076C433.996 277.897 433.572 277.859 433.175 277.969C432.777 278.079 432.433 278.331 432.207 278.676C431.776 279.378 431.45 280.14 431.239 280.937C431.131 281.335 430.934 281.704 430.663 282.016C430.392 282.328 430.055 282.574 429.675 282.737C428.301 283.152 427 281.696 425.566 281.752C424.987 281.826 424.45 282.093 424.043 282.511C423.635 282.928 423.381 283.472 423.322 284.052C423.239 285.225 423.572 286.39 424.261 287.342C425.484 289.244 427.754 290.77 429.924 290.145Z" fill="#E6E6E6"/>
<path d="M439.387 293.499L443.331 283.111C441.733 284.27 440.509 285.871 439.808 287.716C439.107 289.562 438.961 291.572 439.387 293.499Z" fill="#E6E6E6"/>
<path d="M459.516 285.129L458.716 285.163C458.36 285.868 458.17 286.646 458.163 287.436C458.155 288.226 458.33 289.007 458.673 289.719C459.373 291.138 460.392 292.376 461.649 293.336C463.598 294.944 465.822 296.186 468.213 297.001C471.72 298.024 475.347 298.582 478.999 298.662L485.263 299.072C486.258 299.137 487.544 299.011 487.821 298.053C488.049 297.262 487.376 296.519 486.747 295.988C481.222 291.339 474.525 288.3 467.389 287.202C464.684 286.786 461.812 286.617 459.516 285.129Z" fill="#E6E6E6"/>
<path d="M481.805 312.695L477.3 308.326C475.84 306.91 473.652 305.409 471.978 306.565C471.016 307.23 470.719 308.526 469.904 309.365C469.407 309.81 468.808 310.124 468.159 310.278C467.511 310.432 466.834 310.422 466.19 310.249C464.907 309.889 463.695 309.314 462.604 308.549L458.878 306.237L455.021 303.843L452.121 306.663C452.247 305.275 450.397 304.374 449.116 304.922C448.508 305.263 447.984 305.737 447.584 306.308C447.184 306.88 446.918 307.534 446.805 308.222C446.592 309.599 446.219 310.947 445.696 312.239C444.223 315.06 440.645 315.895 437.496 316.368C434.347 316.841 430.784 317.506 429.096 320.206C427.696 322.455 428.113 325.342 428.582 327.951L430.356 337.821C430.44 339.016 430.92 340.15 431.719 341.043C433.277 342.418 435.691 341.582 437.592 340.743C441.567 338.831 445.833 337.595 450.215 337.085C454.635 336.589 459.083 337.727 462.721 340.285C464.976 342.002 466.696 344.38 469.086 345.905C470.732 346.895 472.582 347.497 474.496 347.664C476.41 347.831 478.336 347.559 480.129 346.869C483.723 345.438 486.697 342.786 488.529 339.379C490.155 336.375 490.971 333 490.897 329.585C490.822 326.17 489.86 322.833 488.105 319.903C486.312 317.248 484.196 314.827 481.805 312.695Z" fill="#E6E6E6"/>
<path d="M477.377 352.906C477.017 353.344 476.806 353.885 476.776 354.451C476.746 355.017 476.897 355.578 477.209 356.051C477.863 356.989 478.861 357.631 479.985 357.838C481.099 358.037 482.234 358.09 483.361 357.993L483.395 357.151C483.095 355.673 482.413 354.3 481.418 353.167C480.33 352.132 478.407 351.814 477.377 352.906Z" fill="#E6E6E6"/>
<path d="M516.046 353.802L515.508 353.602L511.664 359.402C510.974 360.441 510.255 361.689 510.676 362.863C511.176 364.252 513.014 364.663 514.444 364.292C515.535 363.996 516.52 363.395 517.281 362.559C518.043 361.724 518.55 360.688 518.744 359.574C518.902 358.454 518.73 357.312 518.251 356.288C517.771 355.264 517.005 354.401 516.044 353.804L516.046 353.802Z" fill="#E6E6E6"/>
<path d="M525.815 347.678L522.277 344.866C522.23 346.171 522.182 347.475 522.135 348.78H522.002C522.818 349.495 523.588 350.261 524.308 351.073C525.136 351.773 526.525 352.099 527.233 351.273C527.445 350.978 527.565 350.627 527.579 350.263C527.592 349.9 527.498 349.541 527.309 349.231C526.918 348.617 526.408 348.088 525.809 347.675L525.815 347.678Z" fill="#E6E6E6"/>
<path d="M461.91 225.327C460.426 225.281 458.783 225.19 457.632 226.127C457.254 226.465 456.922 226.852 456.645 227.278L456.239 227.846C455.632 228.64 455.103 229.491 454.659 230.387C454.427 230.807 454.288 231.271 454.251 231.75C454.214 232.228 454.28 232.708 454.444 233.159C454.539 233.374 454.68 233.566 454.858 233.721C455.035 233.876 455.244 233.99 455.471 234.055C455.697 234.12 455.935 234.134 456.167 234.097C456.4 234.06 456.621 233.972 456.816 233.84C457.45 233.252 457.302 232.186 457.782 231.467C457.993 231.196 458.265 230.978 458.574 230.83C458.884 230.681 459.225 230.607 459.568 230.613C460.254 230.63 460.936 230.708 461.608 230.844C463.469 231.099 465.364 230.816 467.069 230.029C468.774 229.241 470.218 227.982 471.231 226.4C472.244 224.818 472.782 222.98 472.784 221.102C472.785 219.224 472.249 217.384 471.238 215.801L471.119 215.436C470.092 215.398 469.083 215.72 468.269 216.348C467.454 216.976 466.885 217.869 466.661 218.873C466.329 220.603 467.033 222.612 465.984 224.027C465.097 225.222 463.391 225.374 461.91 225.327Z" fill="#E6E6E6"/>
<path d="M475.193 206.992L474.967 206.972C473.64 207.214 472.366 207.688 471.203 208.372C470.822 208.549 470.517 208.858 470.345 209.242C470.295 209.446 470.296 209.659 470.348 209.862C470.401 210.065 470.503 210.252 470.645 210.406C470.934 210.711 471.272 210.965 471.645 211.157C472.2 211.527 472.813 211.801 473.459 211.968C473.783 212.048 474.122 212.046 474.446 211.963C474.769 211.879 475.066 211.717 475.311 211.49C475.541 211.174 475.699 210.812 475.774 210.43C475.849 210.047 475.839 209.652 475.745 209.273C475.639 208.495 475.455 207.73 475.195 206.989L475.193 206.992Z" fill="#E6E6E6"/>
<path d="M452.315 225.768C452.67 225.199 452.922 224.573 453.06 223.917L453.475 222.39L451.995 221.49C451.288 221.858 450.636 222.323 450.058 222.871C449.77 223.147 449.543 223.48 449.39 223.848C449.237 224.216 449.162 224.612 449.169 225.011C449.189 225.41 449.344 225.789 449.608 226.089C449.872 226.388 450.229 226.59 450.622 226.66C450.957 226.67 451.289 226.593 451.586 226.437C451.883 226.281 452.134 226.05 452.315 225.768Z" fill="#E6E6E6"/>
<path d="M291.125 88.173C290.54 88.538 290.705 89.419 290.943 90.067L291.761 92.297L292.142 90.854C292.477 90.2944 292.625 89.6424 292.564 88.993C292.431 88.359 291.675 87.83 291.125 88.173Z" fill="#E6E6E6"/>
<path d="M660.55 222.047H413.07C407.105 222.041 401.385 219.668 397.167 215.45C392.949 211.232 390.576 205.512 390.57 199.547V22.498C390.576 16.5326 392.949 10.8133 397.167 6.59509C401.385 2.3769 407.105 0.0043388 413.07 -0.00201416H660.55C666.515 0.0043388 672.235 2.3769 676.453 6.59509C680.671 10.8133 683.044 16.5326 683.05 22.498V199.548C683.044 205.513 680.671 211.233 676.453 215.451C672.235 219.669 666.516 222.042 660.55 222.048V222.047Z" fill="white"/>
<path d="M660.55 222.047H413.07C407.105 222.041 401.385 219.668 397.167 215.45C392.949 211.232 390.576 205.512 390.57 199.547V22.498C390.576 16.5326 392.949 10.8133 397.167 6.59509C401.385 2.3769 407.105 0.0043388 413.07 -0.00201416H660.55C666.515 0.0043388 672.235 2.3769 676.453 6.59509C680.671 10.8133 683.044 16.5326 683.05 22.498V199.548C683.044 205.513 680.671 211.233 676.453 215.451C672.235 219.669 666.516 222.042 660.55 222.048V222.047ZM413.07 1.95599C407.624 1.96261 402.403 4.12903 398.553 7.98003C394.702 11.831 392.536 17.0521 392.53 22.498V199.548C392.536 204.994 394.702 210.215 398.553 214.065C402.404 217.916 407.624 220.082 413.07 220.089H660.55C665.996 220.083 671.218 217.917 675.069 214.066C678.92 210.215 681.086 204.993 681.092 199.547V22.498C681.086 17.0518 678.92 11.8304 675.069 7.97932C671.218 4.12827 665.996 1.96208 660.55 1.95599H413.07Z" fill="#3F3D56"/>
<path d="M480.402 26.963H441.275C440.248 26.9466 439.269 26.5271 438.549 25.7952C437.828 25.0632 437.425 24.0774 437.425 23.0505C437.425 22.0235 437.828 21.0377 438.549 20.3058C439.269 19.5738 440.248 19.1544 441.275 19.138H480.402C481.429 19.1544 482.408 19.5738 483.128 20.3058C483.849 21.0377 484.252 22.0235 484.252 23.0505C484.252 24.0774 483.849 25.0632 483.128 25.7952C482.408 26.5271 481.429 26.9466 480.402 26.963Z" fill="#CCCCCC"/>
<path d="M565.504 114.999H441.275C440.248 114.983 439.269 114.563 438.549 113.831C437.828 113.099 437.425 112.113 437.425 111.086C437.425 110.06 437.828 109.074 438.549 108.342C439.269 107.61 440.248 107.19 441.275 107.174H565.504C566.531 107.19 567.51 107.61 568.23 108.342C568.951 109.074 569.354 110.06 569.354 111.086C569.354 112.113 568.951 113.099 568.23 113.831C567.51 114.563 566.531 114.983 565.504 114.999Z" fill="#CCCCCC"/>
<path d="M463.28 90.293C477.769 90.293 489.514 78.5476 489.514 64.059C489.514 49.5703 477.769 37.825 463.28 37.825C448.791 37.825 437.046 49.5703 437.046 64.059C437.046 78.5476 448.791 90.293 463.28 90.293Z" fill="#2D6A73"/>
<path d="M443.231 189.715H437.362V191.671H443.231V189.715Z" fill="#3F3D56"/>
<path d="M615.556 191.671H603.247V189.715H615.556V191.671ZM590.938 191.671H578.629V189.715H590.938V191.671ZM566.32 191.671H554.011V189.715H566.32V191.671ZM541.703 191.671H529.394V189.715H541.703V191.671ZM517.085 191.671H504.78V189.715H517.08L517.085 191.671ZM492.467 191.671H480.158V189.715H492.467V191.671ZM467.849 191.671H455.54V189.715H467.849V191.671Z" fill="#3F3D56"/>
<path d="M633.734 189.715H627.865V191.671H633.734V189.715Z" fill="#3F3D56"/>
<path d="M536.979 155.099H532.088V188.357H536.979V155.099Z" fill="#2D6A73"/>
<path d="M586.867 155.099H581.976V188.357H586.867V155.099Z" fill="#0A2533"/>
<path d="M611.321 173.685H606.43V188.358H611.321V173.685Z" fill="#A65D4A"/>
<path d="M561.434 140.426H556.543V188.357H561.434V140.426Z" fill="#D4956A"/>
<path d="M312.869 294.738C316.11 294.738 318.738 292.11 318.738 288.869C318.738 285.628 316.11 283 312.869 283C309.628 283 307 285.628 307 288.869C307 292.11 309.628 294.738 312.869 294.738Z" fill="#2D6A73"/>
</g>
<defs>
<clipPath id="clip0_2405_2">
<rect width="800.867" height="554.305" fill="white"/>
</clipPath>
</defs>
</svg>
