<svg width="924" height="633" viewBox="0 0 924 633" fill="none" xmlns="http://www.w3.org/2000/svg">
<g filter="url(#filter0_d)">
<path d="M79.6415 190.457C137.939 54.4471 302.425 144.301 426.007 69.9922C461.044 48.9244 473.612 21.7001 512.666 10.8269C563.43 -3.30655 597.847 9.9026 645.465 33.0537C804.09 110.174 761.291 366.987 642.609 501.473C512.382 649.041 277.257 649.611 150.986 498.475C73.1201 405.275 31.2149 303.437 79.6415 190.457Z" fill="#6F0DCC"/>
</g>
<g filter="url(#filter1_d)">
<rect x="443" y="31" width="466" height="302" rx="20" fill="white"/>
<rect x="444" y="32" width="464" height="300" rx="19" stroke="#6F0DCC" stroke-width="2"/>
</g>
<path d="M496.324 195.032C496.324 189.509 500.801 185.032 506.324 185.032H545.444C550.966 185.032 555.444 189.509 555.444 195.032V285.699H496.324V195.032Z" fill="#6F0DCC"/>
<path d="M591.379 144.092C591.379 138.57 595.856 134.092 601.379 134.092H640.498C646.021 134.092 650.498 138.57 650.498 144.092V285.699H591.379V144.092Z" fill="#DE8E68"/>
<path d="M781.488 88.3012C781.488 82.7784 785.965 78.3012 791.488 78.3012H830.608C836.131 78.3012 840.608 82.7784 840.608 88.3012V286.912H781.488V88.3012Z" fill="#FFC74C"/>
<rect x="496.324" y="301.466" width="59.1194" height="12.1285" rx="5" fill="#DFDFDF"/>
<rect x="591.379" y="301.466" width="59.1194" height="12.1285" rx="5" fill="#DFDFDF"/>
<rect x="686.434" y="301.466" width="59.1194" height="12.1285" rx="5" fill="#DFDFDF"/>
<rect x="781.488" y="301.466" width="59.1194" height="12.1285" rx="5" fill="#DFDFDF"/>
<path d="M686.434 117.41C686.434 111.887 690.911 107.41 696.434 107.41H735.553C741.076 107.41 745.553 111.887 745.553 117.41V285.699H686.434V117.41Z" fill="#FED385"/>
<g clip-path="url(#clip0)">
<path d="M182.063 401.811L347.334 401.516C347.629 401.516 347.912 401.399 348.121 401.19C348.33 400.981 348.447 400.698 348.447 400.402C348.447 400.107 348.33 399.824 348.121 399.615C347.912 399.406 347.629 399.289 347.334 399.289L182.063 399.584C181.768 399.584 181.484 399.701 181.275 399.91C181.067 400.119 180.949 400.402 180.949 400.697C180.949 400.993 181.067 401.276 181.275 401.485C181.484 401.693 181.768 401.811 182.063 401.811V401.811Z" fill="#3F3D56"/>
<path d="M179.594 417.401C188.207 417.401 195.189 410.421 195.189 401.811C195.189 393.2 188.207 386.22 179.594 386.22C170.982 386.22 164 393.2 164 401.811C164 410.421 170.982 417.401 179.594 417.401Z" fill="#3F3D56"/>
<path d="M339.924 401.732C318.783 401.732 298.116 395.464 280.538 383.722C262.959 371.979 249.258 355.289 241.168 335.762C233.078 316.235 230.961 294.747 235.085 274.017C239.21 253.287 249.39 234.246 264.339 219.3C279.289 204.355 298.335 194.177 319.071 190.053C339.806 185.93 361.298 188.046 380.83 196.135C400.363 204.223 417.057 217.92 428.803 235.494C440.548 253.068 446.817 273.73 446.817 294.866C446.785 323.199 435.513 350.362 415.474 370.396C395.434 390.43 368.264 401.7 339.924 401.732V401.732ZM339.924 195.37C320.241 195.37 301 201.205 284.633 212.138C268.267 223.071 255.511 238.61 247.979 256.791C240.446 274.971 238.475 294.976 242.315 314.277C246.156 333.577 255.634 351.305 269.552 365.22C283.471 379.135 301.203 388.611 320.509 392.45C339.814 396.289 359.824 394.319 378.009 386.788C396.194 379.257 411.738 366.505 422.673 350.143C433.609 333.781 439.445 314.544 439.445 294.866C439.415 268.487 428.921 243.197 410.263 224.545C391.606 205.892 366.31 195.4 339.924 195.37V195.37Z" fill="#3F3D56"/>
<path d="M386.048 337.685C382.136 337.688 378.31 336.53 375.056 334.359C371.801 332.188 369.264 329.101 367.764 325.489C366.264 321.876 365.87 317.9 366.631 314.063C367.391 310.226 369.273 306.701 372.038 303.933C374.802 301.165 378.326 299.279 382.163 298.514C386 297.748 389.977 298.137 393.593 299.631C397.209 301.126 400.3 303.659 402.476 306.909C404.652 310.16 405.814 313.983 405.817 317.894C405.818 323.139 403.737 328.169 400.03 331.88C396.323 335.591 391.294 337.679 386.048 337.685V337.685ZM339.925 337.685C334.684 337.679 329.659 335.595 325.953 331.89C322.247 328.185 320.162 323.161 320.156 317.922V271.81C320.156 266.568 322.239 261.541 325.947 257.835C329.654 254.129 334.682 252.046 339.925 252.046C345.168 252.046 350.196 254.129 353.904 257.835C357.611 261.541 359.694 266.568 359.694 271.81V317.922C359.688 323.162 357.603 328.185 353.897 331.89C350.191 335.595 345.166 337.679 339.925 337.685V337.685ZM293.815 337.685C288.57 337.679 283.542 335.593 279.834 331.886C276.125 328.178 274.039 323.151 274.033 317.907V299.484C274.033 294.239 276.117 289.209 279.827 285.5C283.537 281.791 288.569 279.707 293.816 279.707C299.062 279.707 304.094 281.791 307.804 285.5C311.514 289.209 313.598 294.239 313.598 299.484V317.907C313.592 323.151 311.506 328.178 307.797 331.886C304.088 335.594 299.06 337.679 293.815 337.685Z" fill="#DE8E68"/>
<path d="M28.8027 487.598V489.39C28.8053 492.361 29.9866 495.208 32.0873 497.309C34.1881 499.409 37.0365 500.59 40.0074 500.592H135.023C137.994 500.591 140.843 499.411 142.944 497.31C145.045 495.21 146.226 492.361 146.227 489.39V487.598C146.233 484.977 145.312 482.438 143.627 480.429C143.067 479.762 142.432 479.161 141.736 478.637H92.4537C91.8595 478.637 91.2896 478.4 90.8694 477.98C90.4492 477.56 90.213 476.991 90.2128 476.396H40.0074C37.037 476.4 34.1894 477.582 32.089 479.682C29.9886 481.782 28.8068 484.629 28.8027 487.598Z" fill="#3F3D56"/>
<path d="M81.2457 582.592H92.8984L92.8984 500.147H81.2457L81.2457 582.592Z" fill="#3F3D56"/>
<path d="M48.0801 582.183C48.0801 583.442 65.7381 582.67 87.5203 582.67C109.303 582.67 126.961 583.442 126.961 582.183C126.961 580.924 109.303 570.943 87.5203 570.943C65.7381 570.943 48.0801 580.924 48.0801 582.183Z" fill="#3F3D56"/>
<path d="M47.0898 485.707L86.8526 492.052L133.052 499.427L149.07 501.981C150.608 502.224 152.179 501.847 153.439 500.933C154.699 500.019 155.546 498.643 155.793 497.106L156.519 492.572L157.191 488.351L157.746 484.874C157.872 484.096 157.838 483.302 157.647 482.537C157.456 481.773 157.112 481.056 156.635 480.429C156.071 479.658 155.322 479.041 154.457 478.637H92.4549C91.8606 478.637 91.2908 478.4 90.8706 477.98C90.4504 477.56 90.2142 476.991 90.214 476.396V474.631C90.2142 474.037 90.4504 473.467 90.8706 473.047C91.2908 472.627 91.8606 472.391 92.4549 472.391H116.818L105.587 470.598L71.0585 465.087L50.8993 461.87C49.3579 461.626 47.7825 462.003 46.5188 462.918C45.2551 463.834 44.4063 465.213 44.1587 466.754L42.2044 478.977C41.9659 480.517 42.3455 482.088 43.2606 483.348C44.1757 484.609 45.552 485.457 47.0898 485.707Z" fill="#D37C59"/>
<path d="M133.051 484.005V552.3C133.053 553.856 133.672 555.347 134.773 556.448C135.873 557.548 137.365 558.167 138.922 558.169H151.319C152.875 558.167 154.367 557.548 155.468 556.448C156.569 555.348 157.188 553.856 157.19 552.3V484.005C157.192 482.709 156.76 481.45 155.962 480.429C155.371 479.644 154.587 479.027 153.685 478.637H136.547C135.649 479.029 134.868 479.647 134.279 480.429C133.482 481.451 133.05 482.709 133.051 484.005V484.005Z" fill="#D37C59"/>
<path d="M95.6908 368.411C95.7538 369.02 95.9111 369.616 96.1569 370.177C96.5302 371.033 97.1054 371.786 97.8333 372.372L97.8604 372.39L133.231 401.076L133.751 401.488L141.074 407.429L143.288 409.222H181.59L179.385 407.429L149.115 382.875L128.83 366.422L113.045 353.625C112.121 352.872 110.988 352.422 109.8 352.334C109.795 352.329 109.789 352.326 109.782 352.326C109.429 352.3 109.075 352.306 108.724 352.343C108.198 352.397 107.682 352.523 107.191 352.72C106.856 352.841 106.537 353.004 106.241 353.204C105.684 353.543 105.19 353.977 104.78 354.485L97.0892 363.957L96.9728 364.11C96.4853 364.706 96.1209 365.394 95.9008 366.132C95.6808 366.87 95.6094 367.645 95.6908 368.411V368.411Z" fill="#6F0DCC"/>
<path d="M97.859 372.39C98.5255 374.056 99.495 375.585 100.718 376.898L124.266 402.187C124.835 402.709 125.502 403.115 126.228 403.379C126.954 403.643 127.725 403.762 128.497 403.728C129.269 403.694 130.026 403.508 130.726 403.18C131.426 402.853 132.054 402.39 132.575 401.819L133.23 401.076L133.516 400.753L143.69 389.345L148.064 384.434C148.355 384.132 148.608 383.795 148.817 383.431C148.925 383.251 149.023 383.063 149.113 382.875C149.48 382.038 149.649 381.127 149.606 380.214C149.576 379.436 149.39 378.673 149.059 377.97C148.728 377.266 148.259 376.636 147.679 376.118L120.375 355.256C117.363 352.946 113.57 351.899 109.798 352.334C109.794 352.329 109.787 352.326 109.781 352.326C108.943 352.431 108.115 352.604 107.306 352.845C106.948 352.944 106.599 353.069 106.24 353.204C103.925 354.075 101.873 355.525 100.279 357.416C98.5453 359.452 97.4031 361.925 96.9764 364.565C96.5498 367.205 96.855 369.911 97.859 372.39V372.39Z" fill="#2F2E41"/>
<path d="M86.6779 331.507C111.491 331.507 131.606 311.398 131.606 286.591C131.606 261.784 111.491 241.674 86.6779 241.674C61.8649 241.674 41.75 261.784 41.75 286.591C41.75 311.398 61.8649 331.507 86.6779 331.507Z" fill="#D37C59"/>
<path d="M74.7158 479.515L91.3792 482.168L91.756 482.23L117.087 486.272L133.052 488.826L156.519 492.572L157.191 492.679L160.678 493.235L176.696 495.789C178.234 496.031 179.805 495.655 181.065 494.741C182.325 493.827 183.172 492.451 183.419 490.914L184.817 482.168L185.373 478.691C185.373 478.673 185.382 478.655 185.382 478.637H92.455C91.8607 478.637 91.2908 478.4 90.8706 477.98C90.4504 477.56 90.2143 476.991 90.214 476.396V474.631C90.2143 474.037 90.4504 473.467 90.8706 473.047C91.2908 472.627 91.8607 472.391 92.455 472.391H121.82V462.596L120.027 462.309L111.171 460.893L78.5166 455.687C76.9775 455.442 75.4042 455.818 74.142 456.732C72.8799 457.646 72.0321 459.023 71.7847 460.562L71.0586 465.087L69.8304 472.794C69.5899 474.333 69.9689 475.904 70.8846 477.163C71.8002 478.423 73.1778 479.269 74.7158 479.515V479.515Z" fill="#D37C59"/>
<path d="M25.5312 439.834C25.5312 476.45 29.2515 498.352 86.6192 492.079C86.6997 492.07 86.7715 492.061 86.852 492.052C97.084 491.042 107.204 489.107 117.087 486.272C122.223 484.772 127.214 482.817 132.002 480.429C133.131 479.856 134.216 479.255 135.283 478.637H92.4543C91.8601 478.637 91.2902 478.4 90.87 477.98C90.4498 477.56 90.2136 476.991 90.2134 476.396V474.631C90.2136 474.037 90.4498 473.467 90.87 473.047C91.2902 472.627 91.8601 472.391 92.4543 472.391H121.819V415.79C121.822 414.049 122.515 412.38 123.746 411.148C124.978 409.917 126.648 409.224 128.39 409.222H152.278C152.072 408.63 151.866 408.03 151.642 407.429C149.401 401.23 146.744 395.188 143.691 389.345C139.508 381.231 134.53 373.553 128.829 366.422C124.86 361.453 120.404 356.893 115.527 352.809C106.536 345.389 96.748 340.801 86.8162 340.801C50.1906 340.801 25.5312 403.217 25.5312 439.834Z" fill="#2F2E41"/>
<path d="M85.7342 303.238L85.6875 301.56C88.8109 301.473 91.5646 301.277 93.6338 299.766C94.2204 299.313 94.7026 298.739 95.0475 298.083C95.3925 297.428 95.5921 296.705 95.6329 295.965C95.6692 295.513 95.6008 295.059 95.433 294.638C95.2651 294.216 95.0024 293.839 94.6651 293.536C93.2915 292.376 91.0814 292.752 89.4705 293.49L88.0813 294.127L90.7452 274.664L92.4086 274.892L90.1427 291.448C92.3315 290.804 94.3597 291.081 95.7489 292.254C96.2823 292.72 96.7008 293.302 96.9717 293.956C97.2426 294.61 97.3586 295.318 97.3106 296.024C97.2616 297.018 96.9957 297.99 96.5316 298.87C96.0676 299.751 95.4165 300.519 94.6241 301.121C91.9655 303.064 88.5105 303.161 85.7342 303.238Z" fill="#2F2E41"/>
<path d="M109.677 276.32H100.635V277.998H109.677V276.32Z" fill="#2F2E41"/>
<path d="M81.1361 276.32H72.0938V277.998H81.1361V276.32Z" fill="#2F2E41"/>
<path d="M50.8226 274.25C54.3167 268.991 60.465 266.762 66.5278 266.22C73.352 265.61 79.946 266.925 86.6087 268.203C93.9414 269.61 101.702 270.926 109.091 269.148C112.359 268.392 115.413 266.904 118.023 264.796C120.633 262.689 122.73 260.016 124.156 256.98C126.861 251.057 127.444 244.384 125.807 238.082C124.075 231.379 119.778 225.482 114.568 221.027C103.934 211.936 89.5447 207.85 75.7043 208.234C61.9163 208.59 48.59 213.275 37.6135 221.624C26.6187 230.275 18.8818 242.397 15.6656 256.01C12.3024 269.512 13.398 283.739 18.7887 296.567C21.8174 303.591 26.1976 309.923 29.5776 316.77C32.7246 323.146 35.1482 330.558 33.1901 337.669C31.472 343.908 26.4275 349.452 20.0947 351.146C17.2135 351.902 14.1646 351.702 11.4068 350.576C8.649 349.451 6.33131 347.46 4.80235 344.904C1.6366 339.914 1.56086 333.377 6.31404 329.348C7.51247 328.315 8.90849 327.537 10.4172 327.06C11.9259 326.584 13.5158 326.419 15.0902 326.576C16.6646 326.733 18.1906 327.208 19.5754 327.974C20.9601 328.739 22.1748 329.778 23.1455 331.027C25.0738 333.531 25.937 336.694 25.5478 339.83C25.3136 341.415 27.7399 342.099 27.9762 340.499C28.5434 337.183 27.9144 333.772 26.2013 330.876C24.4882 327.98 21.8023 325.786 18.622 324.685C15.4417 323.584 11.9737 323.647 8.83591 324.864C5.69809 326.08 3.09423 328.371 1.48827 331.328C-1.37817 336.716 0.168447 343.215 3.80711 347.821C5.68446 350.274 8.22901 352.134 11.1363 353.18C14.0437 354.225 17.1907 354.41 20.2008 353.714C26.8241 352.185 32.2424 346.922 34.7905 340.738C37.6272 333.853 36.3275 326.169 33.5621 319.488C30.5728 312.266 26.1338 305.789 22.6233 298.829C19.4447 292.54 17.422 285.731 16.6515 278.727C15.1096 264.661 18.3027 250.483 25.7257 238.436C33.2917 226.575 44.84 217.801 58.296 213.689C71.5642 209.525 86.1977 209.652 99.189 214.77C111.986 219.81 124.342 230.796 124.194 245.55C124.131 251.852 121.79 258.279 116.962 262.483C111.191 267.507 103.156 267.936 95.902 267.152C88.6018 266.363 81.5127 264.232 74.181 263.688C67.804 263.215 60.9241 263.707 55.2302 266.874C52.5786 268.353 50.3212 270.446 48.648 272.979C47.7486 274.332 49.9289 275.595 50.8226 274.25Z" fill="#2F2E41"/>
<path d="M57.9706 384.183C58.0421 384.346 58.1228 384.505 58.2122 384.658C58.3023 384.819 58.4011 384.974 58.508 385.124L78.1564 413.398L79.6804 415.593L95.7074 438.642L111.17 460.893L117.426 469.908C117.595 470.154 117.784 470.385 117.991 470.598C118.959 471.616 120.26 472.252 121.657 472.391H121.818V433.937L120.026 431.356L99.9205 402.429L78.3271 371.36C77.4376 370.082 76.0777 369.208 74.5453 368.931C73.0129 368.654 71.4331 368.996 70.1521 369.881L63.5278 374.478L59.969 376.951C58.8439 377.734 58.0282 378.886 57.6632 380.207C57.2982 381.527 57.4069 382.934 57.9706 384.183V384.183Z" fill="#DE8E68"/>
<path d="M54.8973 383.493L55.7844 385.277L55.7936 385.286L56.0357 385.761L70.4401 414.348C71.2521 415.677 72.5577 416.631 74.0713 417C75.5849 417.37 77.1833 417.125 78.5167 416.319L79.4489 415.737L79.6817 415.593L98.2548 403.943C98.9177 403.542 99.4945 403.013 99.952 402.388C100.409 401.763 100.739 401.053 100.92 400.3C101.102 399.547 101.132 398.765 101.01 398C100.888 397.235 100.616 396.501 100.209 395.842L79.8074 368.187C77.8077 365.477 74.9355 363.538 71.674 362.696C68.4124 361.854 64.9602 362.16 61.8979 363.563C61.2069 363.875 60.5414 364.24 59.9078 364.656C56.9092 366.637 54.7425 369.65 53.8188 373.122C52.8952 376.595 53.2789 380.285 54.8973 383.493V383.493Z" fill="#2F2E41"/>
<path d="M160.678 478.637V546.107C160.68 547.663 161.299 549.155 162.4 550.255C163.501 551.356 164.993 551.975 166.549 551.977H178.946C180.503 551.975 181.995 551.356 183.095 550.255C184.196 549.155 184.815 547.663 184.817 546.107V478.637H160.678Z" fill="#D37C59"/>
<path d="M88.4219 474.631V476.396C88.4232 477.329 88.7469 478.233 89.3382 478.955C89.9295 479.677 90.7521 480.172 91.6668 480.357C91.792 480.375 91.9176 480.402 92.0432 480.411C92.1776 480.42 92.312 480.429 92.4555 480.429H230.64C232.859 480.429 234.987 479.548 236.556 477.98C238.126 476.413 239.009 474.286 239.012 472.068V415.79C239.009 413.572 238.126 411.446 236.556 409.878C234.987 408.311 232.859 407.43 230.64 407.429H128.391C126.174 407.432 124.048 408.313 122.48 409.881C120.912 411.448 120.03 413.574 120.028 415.79V470.598H92.4555C91.3857 470.598 90.3598 471.023 89.6034 471.78C88.8469 472.536 88.4219 473.562 88.4219 474.631Z" fill="white"/>
<path d="M88.4219 474.631V476.396C88.4232 477.329 88.7469 478.233 89.3382 478.955C89.9295 479.677 90.7521 480.172 91.6668 480.357C91.792 480.375 91.9176 480.402 92.0432 480.411C92.1776 480.42 92.312 480.429 92.4555 480.429H230.64C232.859 480.429 234.987 479.548 236.556 477.98C238.126 476.413 239.009 474.286 239.012 472.068V415.79C239.009 413.572 238.126 411.446 236.556 409.878C234.987 408.311 232.859 407.43 230.64 407.429H128.391C126.174 407.432 124.048 408.313 122.48 409.881C120.912 411.448 120.03 413.574 120.028 415.79V470.598H92.4555C91.3857 470.598 90.3598 471.023 89.6034 471.78C88.8469 472.536 88.4219 473.562 88.4219 474.631ZM90.2146 476.396V474.631C90.2148 474.037 90.451 473.467 90.8712 473.047C91.2914 472.627 91.8613 472.391 92.4555 472.391H121.82V415.79C121.823 414.049 122.516 412.38 123.748 411.148C124.979 409.917 126.649 409.224 128.391 409.222H230.64C232.383 409.222 234.055 409.914 235.288 411.146C236.522 412.377 237.216 414.048 237.219 415.79V472.068C237.216 473.811 236.522 475.481 235.288 476.713C234.055 477.944 232.383 478.636 230.64 478.637H92.4555C91.8613 478.637 91.2914 478.4 90.8712 477.98C90.451 477.56 90.2149 476.991 90.2146 476.396V476.396Z" fill="#3F3D56"/>
<path d="M179.518 450.822C183.325 450.822 186.411 447.736 186.411 443.93C186.411 440.124 183.325 437.039 179.518 437.039C175.711 437.039 172.625 440.124 172.625 443.93C172.625 447.736 175.711 450.822 179.518 450.822Z" fill="#6F0DCC"/>
<path d="M121.847 471.548H120.055V479.614H121.847V471.548Z" fill="#3F3D56"/>
</g>
<defs>
<filter id="filter0_d" x="51" y="0" width="713.058" height="632.13" filterUnits="userSpaceOnUse" color-interpolation-filters="sRGB">
<feFlood flood-opacity="0" result="BackgroundImageFix"/>
<feColorMatrix in="SourceAlpha" type="matrix" values="0 0 0 0 0 0 0 0 0 0 0 0 0 0 0 0 0 0 127 0" result="hardAlpha"/>
<feOffset dx="4" dy="8"/>
<feGaussianBlur stdDeviation="5"/>
<feComposite in2="hardAlpha" operator="out"/>
<feColorMatrix type="matrix" values="0 0 0 0 0 0 0 0 0 0 0 0 0 0 0 0 0 0 0.25 0"/>
<feBlend mode="normal" in2="BackgroundImageFix" result="effect1_dropShadow"/>
<feBlend mode="normal" in="SourceGraphic" in2="effect1_dropShadow" result="shape"/>
</filter>
<filter id="filter1_d" x="438" y="27" width="486" height="322" filterUnits="userSpaceOnUse" color-interpolation-filters="sRGB">
<feFlood flood-opacity="0" result="BackgroundImageFix"/>
<feColorMatrix in="SourceAlpha" type="matrix" values="0 0 0 0 0 0 0 0 0 0 0 0 0 0 0 0 0 0 127 0" result="hardAlpha"/>
<feOffset dx="5" dy="6"/>
<feGaussianBlur stdDeviation="5"/>
<feColorMatrix type="matrix" values="0 0 0 0 0 0 0 0 0 0 0 0 0 0 0 0 0 0 0.15 0"/>
<feBlend mode="normal" in2="BackgroundImageFix" result="effect1_dropShadow"/>
<feBlend mode="normal" in="SourceGraphic" in2="effect1_dropShadow" result="shape"/>
</filter>
<clipPath id="clip0">
<rect width="417" height="497" fill="white" transform="translate(0 119)"/>
</clipPath>
</defs>
</svg>
