<svg width="330" height="394" viewBox="0 0 330 394" fill="none" xmlns="http://www.w3.org/2000/svg">
<path d="M171 181.5L249.207 149.402L171 7L86.4248 149.402L171 181.5Z" fill="#BED431"/>
<path d="M255.548 239.334L277.484 200.892L249.207 149.402L171 181.5L255.548 239.334Z" fill="#BED431"/>
<path d="M277.484 200.892L255.548 239.334L324.5 286.5L277.484 200.892Z" fill="#BED431"/>
<path d="M55.8441 200.892L79.5668 239.334L171 181.5L86.4248 149.402L55.8441 200.892Z" fill="#BED431"/>
<path d="M79.5668 239.334L55.8441 200.892L5 286.5L79.5668 239.334Z" fill="#BED431"/>
<path d="M171 7L5 118.5M171 7L324.5 118.5M171 7L249.207 149.402M171 7L86.4248 149.402M5 118.5V286.5M5 118.5L86.4248 149.402M5 118.5L55.8441 200.892M5 286.5L171 387.5M5 286.5L79.5668 239.334M5 286.5L55.8441 200.892M171 387.5L324.5 286.5M171 387.5L255.548 239.334M171 387.5L79.5668 239.334M324.5 286.5V118.5M324.5 286.5L277.484 200.892M324.5 286.5L255.548 239.334M324.5 118.5L249.207 149.402M324.5 118.5L277.484 200.892M171 181.5L249.207 149.402M171 181.5L86.4248 149.402M171 181.5L255.548 239.334M171 181.5L79.5668 239.334M249.207 149.402L277.484 200.892M86.4248 149.402L55.8441 200.892M255.548 239.334L277.484 200.892M55.8441 200.892L79.5668 239.334" stroke="#BED431" stroke-width="10"/>
</svg>
