<svg width="1255" height="999" viewBox="0 0 1255 999" fill="none" xmlns="http://www.w3.org/2000/svg">
<g clip-path="url(#clip0)">
<path d="M14.2688 195.499C16.8955 195.499 19.0249 193.372 19.0249 190.749C19.0249 188.126 16.8955 186 14.2688 186C11.6421 186 9.5127 188.126 9.5127 190.749C9.5127 193.372 11.6421 195.499 14.2688 195.499Z" fill="#E0E0E0"/>
<path d="M42.8049 195.499C45.4316 195.499 47.561 193.372 47.561 190.749C47.561 188.126 45.4316 186 42.8049 186C40.1782 186 38.0488 188.126 38.0488 190.749C38.0488 193.372 40.1782 195.499 42.8049 195.499Z" fill="#E0E0E0"/>
<path d="M71.342 195.499C73.9688 195.499 76.0981 193.372 76.0981 190.749C76.0981 188.126 73.9688 186 71.342 186C68.7153 186 66.5859 188.126 66.5859 190.749C66.5859 193.372 68.7153 195.499 71.342 195.499Z" fill="#E0E0E0"/>
<path d="M99.8782 195.499C102.505 195.499 104.634 193.372 104.634 190.749C104.634 188.126 102.505 186 99.8782 186C97.2514 186 95.1221 188.126 95.1221 190.749C95.1221 193.372 97.2514 195.499 99.8782 195.499Z" fill="#E0E0E0"/>
<path d="M128.415 195.499C131.042 195.499 133.171 193.372 133.171 190.749C133.171 188.126 131.042 186 128.415 186C125.789 186 123.659 188.126 123.659 190.749C123.659 193.372 125.789 195.499 128.415 195.499Z" fill="#E0E0E0"/>
<path d="M156.951 195.499C159.578 195.499 161.708 193.372 161.708 190.749C161.708 188.126 159.578 186 156.951 186C154.325 186 152.195 188.126 152.195 190.749C152.195 193.372 154.325 195.499 156.951 195.499Z" fill="#E0E0E0"/>
<path d="M185.489 195.499C188.115 195.499 190.245 193.372 190.245 190.749C190.245 188.126 188.115 186 185.489 186C182.862 186 180.732 188.126 180.732 190.749C180.732 193.372 182.862 195.499 185.489 195.499Z" fill="#E0E0E0"/>
<path d="M214.025 195.499C216.651 195.499 218.781 193.372 218.781 190.749C218.781 188.126 216.651 186 214.025 186C211.398 186 209.269 188.126 209.269 190.749C209.269 193.372 211.398 195.499 214.025 195.499Z" fill="#E0E0E0"/>
<path d="M242.561 195.499C245.187 195.499 247.317 193.372 247.317 190.749C247.317 188.126 245.187 186 242.561 186C239.934 186 237.805 188.126 237.805 190.749C237.805 193.372 239.934 195.499 242.561 195.499Z" fill="#E0E0E0"/>
<path d="M14.2688 217.662C16.8955 217.662 19.0249 215.536 19.0249 212.913C19.0249 210.29 16.8955 208.163 14.2688 208.163C11.6421 208.163 9.5127 210.29 9.5127 212.913C9.5127 215.536 11.6421 217.662 14.2688 217.662Z" fill="#E0E0E0"/>
<path d="M42.8049 217.662C45.4316 217.662 47.561 215.536 47.561 212.913C47.561 210.29 45.4316 208.163 42.8049 208.163C40.1782 208.163 38.0488 210.29 38.0488 212.913C38.0488 215.536 40.1782 217.662 42.8049 217.662Z" fill="#E0E0E0"/>
<path d="M71.342 217.662C73.9688 217.662 76.0981 215.536 76.0981 212.913C76.0981 210.29 73.9688 208.163 71.342 208.163C68.7153 208.163 66.5859 210.29 66.5859 212.913C66.5859 215.536 68.7153 217.662 71.342 217.662Z" fill="#E0E0E0"/>
<path d="M99.8782 217.662C102.505 217.662 104.634 215.536 104.634 212.913C104.634 210.29 102.505 208.163 99.8782 208.163C97.2514 208.163 95.1221 210.29 95.1221 212.913C95.1221 215.536 97.2514 217.662 99.8782 217.662Z" fill="#E0E0E0"/>
<path d="M128.415 217.662C131.042 217.662 133.171 215.536 133.171 212.913C133.171 210.29 131.042 208.163 128.415 208.163C125.789 208.163 123.659 210.29 123.659 212.913C123.659 215.536 125.789 217.662 128.415 217.662Z" fill="#E0E0E0"/>
<path d="M156.951 217.662C159.578 217.662 161.708 215.536 161.708 212.913C161.708 210.29 159.578 208.163 156.951 208.163C154.325 208.163 152.195 210.29 152.195 212.913C152.195 215.536 154.325 217.662 156.951 217.662Z" fill="#E0E0E0"/>
<path d="M185.489 217.662C188.115 217.662 190.245 215.536 190.245 212.913C190.245 210.29 188.115 208.163 185.489 208.163C182.862 208.163 180.732 210.29 180.732 212.913C180.732 215.536 182.862 217.662 185.489 217.662Z" fill="#E0E0E0"/>
<path d="M214.025 217.662C216.651 217.662 218.781 215.536 218.781 212.913C218.781 210.29 216.651 208.163 214.025 208.163C211.398 208.163 209.269 210.29 209.269 212.913C209.269 215.536 211.398 217.662 214.025 217.662Z" fill="#E0E0E0"/>
<path d="M242.561 217.662C245.187 217.662 247.317 215.536 247.317 212.913C247.317 210.29 245.187 208.163 242.561 208.163C239.934 208.163 237.805 210.29 237.805 212.913C237.805 215.536 239.934 217.662 242.561 217.662Z" fill="#E0E0E0"/>
<path d="M14.2688 239.825C16.8955 239.825 19.0249 237.699 19.0249 235.076C19.0249 232.453 16.8955 230.327 14.2688 230.327C11.6421 230.327 9.5127 232.453 9.5127 235.076C9.5127 237.699 11.6421 239.825 14.2688 239.825Z" fill="#E0E0E0"/>
<path d="M42.8049 239.825C45.4316 239.825 47.561 237.699 47.561 235.076C47.561 232.453 45.4316 230.327 42.8049 230.327C40.1782 230.327 38.0488 232.453 38.0488 235.076C38.0488 237.699 40.1782 239.825 42.8049 239.825Z" fill="#E0E0E0"/>
<path d="M71.342 239.825C73.9688 239.825 76.0981 237.699 76.0981 235.076C76.0981 232.453 73.9688 230.327 71.342 230.327C68.7153 230.327 66.5859 232.453 66.5859 235.076C66.5859 237.699 68.7153 239.825 71.342 239.825Z" fill="#E0E0E0"/>
<path d="M99.8782 239.825C102.505 239.825 104.634 237.699 104.634 235.076C104.634 232.453 102.505 230.327 99.8782 230.327C97.2514 230.327 95.1221 232.453 95.1221 235.076C95.1221 237.699 97.2514 239.825 99.8782 239.825Z" fill="#E0E0E0"/>
<path d="M128.415 239.825C131.042 239.825 133.171 237.699 133.171 235.076C133.171 232.453 131.042 230.327 128.415 230.327C125.789 230.327 123.659 232.453 123.659 235.076C123.659 237.699 125.789 239.825 128.415 239.825Z" fill="#E0E0E0"/>
<path d="M156.951 239.825C159.578 239.825 161.708 237.699 161.708 235.076C161.708 232.453 159.578 230.327 156.951 230.327C154.325 230.327 152.195 232.453 152.195 235.076C152.195 237.699 154.325 239.825 156.951 239.825Z" fill="#E0E0E0"/>
<path d="M185.489 239.825C188.115 239.825 190.245 237.699 190.245 235.076C190.245 232.453 188.115 230.327 185.489 230.327C182.862 230.327 180.732 232.453 180.732 235.076C180.732 237.699 182.862 239.825 185.489 239.825Z" fill="#E0E0E0"/>
<path d="M214.025 239.825C216.651 239.825 218.781 237.699 218.781 235.076C218.781 232.453 216.651 230.327 214.025 230.327C211.398 230.327 209.269 232.453 209.269 235.076C209.269 237.699 211.398 239.825 214.025 239.825Z" fill="#E0E0E0"/>
<path d="M242.561 239.825C245.187 239.825 247.317 237.699 247.317 235.076C247.317 232.453 245.187 230.327 242.561 230.327C239.934 230.327 237.805 232.453 237.805 235.076C237.805 237.699 239.934 239.825 242.561 239.825Z" fill="#E0E0E0"/>
<path d="M14.2688 261.989C16.8955 261.989 19.0249 259.862 19.0249 257.239C19.0249 254.616 16.8955 252.49 14.2688 252.49C11.6421 252.49 9.5127 254.616 9.5127 257.239C9.5127 259.862 11.6421 261.989 14.2688 261.989Z" fill="#E0E0E0"/>
<path d="M42.8049 261.989C45.4316 261.989 47.561 259.862 47.561 257.239C47.561 254.616 45.4316 252.49 42.8049 252.49C40.1782 252.49 38.0488 254.616 38.0488 257.239C38.0488 259.862 40.1782 261.989 42.8049 261.989Z" fill="#E0E0E0"/>
<path d="M71.342 261.989C73.9688 261.989 76.0981 259.862 76.0981 257.239C76.0981 254.616 73.9688 252.49 71.342 252.49C68.7153 252.49 66.5859 254.616 66.5859 257.239C66.5859 259.862 68.7153 261.989 71.342 261.989Z" fill="#E0E0E0"/>
<path d="M99.8782 261.989C102.505 261.989 104.634 259.862 104.634 257.239C104.634 254.616 102.505 252.49 99.8782 252.49C97.2514 252.49 95.1221 254.616 95.1221 257.239C95.1221 259.862 97.2514 261.989 99.8782 261.989Z" fill="#E0E0E0"/>
<path d="M128.415 261.989C131.042 261.989 133.171 259.862 133.171 257.239C133.171 254.616 131.042 252.49 128.415 252.49C125.789 252.49 123.659 254.616 123.659 257.239C123.659 259.862 125.789 261.989 128.415 261.989Z" fill="#E0E0E0"/>
<path d="M156.951 261.989C159.578 261.989 161.708 259.862 161.708 257.239C161.708 254.616 159.578 252.49 156.951 252.49C154.325 252.49 152.195 254.616 152.195 257.239C152.195 259.862 154.325 261.989 156.951 261.989Z" fill="#E0E0E0"/>
<path d="M185.489 261.989C188.115 261.989 190.245 259.862 190.245 257.239C190.245 254.616 188.115 252.49 185.489 252.49C182.862 252.49 180.732 254.616 180.732 257.239C180.732 259.862 182.862 261.989 185.489 261.989Z" fill="#E0E0E0"/>
<path d="M214.025 261.989C216.651 261.989 218.781 259.862 218.781 257.239C218.781 254.616 216.651 252.49 214.025 252.49C211.398 252.49 209.269 254.616 209.269 257.239C209.269 259.862 211.398 261.989 214.025 261.989Z" fill="#E0E0E0"/>
<path d="M242.561 261.989C245.187 261.989 247.317 259.862 247.317 257.239C247.317 254.616 245.187 252.49 242.561 252.49C239.934 252.49 237.805 254.616 237.805 257.239C237.805 259.862 239.934 261.989 242.561 261.989Z" fill="#E0E0E0"/>
<path d="M14.2688 284.152C16.8955 284.152 19.0249 282.026 19.0249 279.403C19.0249 276.78 16.8955 274.653 14.2688 274.653C11.6421 274.653 9.5127 276.78 9.5127 279.403C9.5127 282.026 11.6421 284.152 14.2688 284.152Z" fill="#E0E0E0"/>
<path d="M42.8049 284.152C45.4316 284.152 47.561 282.026 47.561 279.403C47.561 276.78 45.4316 274.653 42.8049 274.653C40.1782 274.653 38.0488 276.78 38.0488 279.403C38.0488 282.026 40.1782 284.152 42.8049 284.152Z" fill="#E0E0E0"/>
<path d="M71.342 284.152C73.9688 284.152 76.0981 282.026 76.0981 279.403C76.0981 276.78 73.9688 274.653 71.342 274.653C68.7153 274.653 66.5859 276.78 66.5859 279.403C66.5859 282.026 68.7153 284.152 71.342 284.152Z" fill="#E0E0E0"/>
<path d="M99.8782 284.152C102.505 284.152 104.634 282.026 104.634 279.403C104.634 276.78 102.505 274.653 99.8782 274.653C97.2514 274.653 95.1221 276.78 95.1221 279.403C95.1221 282.026 97.2514 284.152 99.8782 284.152Z" fill="#E0E0E0"/>
<path d="M128.415 284.152C131.042 284.152 133.171 282.026 133.171 279.403C133.171 276.78 131.042 274.653 128.415 274.653C125.789 274.653 123.659 276.78 123.659 279.403C123.659 282.026 125.789 284.152 128.415 284.152Z" fill="#E0E0E0"/>
<path d="M156.951 284.152C159.578 284.152 161.708 282.026 161.708 279.403C161.708 276.78 159.578 274.653 156.951 274.653C154.325 274.653 152.195 276.78 152.195 279.403C152.195 282.026 154.325 284.152 156.951 284.152Z" fill="#E0E0E0"/>
<path d="M185.489 284.152C188.115 284.152 190.245 282.026 190.245 279.403C190.245 276.78 188.115 274.653 185.489 274.653C182.862 274.653 180.732 276.78 180.732 279.403C180.732 282.026 182.862 284.152 185.489 284.152Z" fill="#E0E0E0"/>
<path d="M214.025 284.152C216.651 284.152 218.781 282.026 218.781 279.403C218.781 276.78 216.651 274.653 214.025 274.653C211.398 274.653 209.269 276.78 209.269 279.403C209.269 282.026 211.398 284.152 214.025 284.152Z" fill="#E0E0E0"/>
<path d="M242.561 284.152C245.187 284.152 247.317 282.026 247.317 279.403C247.317 276.78 245.187 274.653 242.561 274.653C239.934 274.653 237.805 276.78 237.805 279.403C237.805 282.026 239.934 284.152 242.561 284.152Z" fill="#E0E0E0"/>
<path d="M14.2688 306.315C16.8955 306.315 19.0249 304.189 19.0249 301.566C19.0249 298.943 16.8955 296.817 14.2688 296.817C11.6421 296.817 9.5127 298.943 9.5127 301.566C9.5127 304.189 11.6421 306.315 14.2688 306.315Z" fill="#E0E0E0"/>
<path d="M42.8049 306.315C45.4316 306.315 47.561 304.189 47.561 301.566C47.561 298.943 45.4316 296.817 42.8049 296.817C40.1782 296.817 38.0488 298.943 38.0488 301.566C38.0488 304.189 40.1782 306.315 42.8049 306.315Z" fill="#E0E0E0"/>
<path d="M71.342 306.315C73.9688 306.315 76.0981 304.189 76.0981 301.566C76.0981 298.943 73.9688 296.817 71.342 296.817C68.7153 296.817 66.5859 298.943 66.5859 301.566C66.5859 304.189 68.7153 306.315 71.342 306.315Z" fill="#E0E0E0"/>
<path d="M99.8782 306.315C102.505 306.315 104.634 304.189 104.634 301.566C104.634 298.943 102.505 296.817 99.8782 296.817C97.2514 296.817 95.1221 298.943 95.1221 301.566C95.1221 304.189 97.2514 306.315 99.8782 306.315Z" fill="#E0E0E0"/>
<path d="M128.415 306.315C131.042 306.315 133.171 304.189 133.171 301.566C133.171 298.943 131.042 296.817 128.415 296.817C125.789 296.817 123.659 298.943 123.659 301.566C123.659 304.189 125.789 306.315 128.415 306.315Z" fill="#E0E0E0"/>
<path d="M156.951 306.315C159.578 306.315 161.708 304.189 161.708 301.566C161.708 298.943 159.578 296.817 156.951 296.817C154.325 296.817 152.195 298.943 152.195 301.566C152.195 304.189 154.325 306.315 156.951 306.315Z" fill="#E0E0E0"/>
<path d="M185.489 306.315C188.115 306.315 190.245 304.189 190.245 301.566C190.245 298.943 188.115 296.817 185.489 296.817C182.862 296.817 180.732 298.943 180.732 301.566C180.732 304.189 182.862 306.315 185.489 306.315Z" fill="#E0E0E0"/>
<path d="M214.025 306.315C216.651 306.315 218.781 304.189 218.781 301.566C218.781 298.943 216.651 296.817 214.025 296.817C211.398 296.817 209.269 298.943 209.269 301.566C209.269 304.189 211.398 306.315 214.025 306.315Z" fill="#E0E0E0"/>
<path d="M242.561 306.315C245.187 306.315 247.317 304.189 247.317 301.566C247.317 298.943 245.187 296.817 242.561 296.817C239.934 296.817 237.805 298.943 237.805 301.566C237.805 304.189 239.934 306.315 242.561 306.315Z" fill="#E0E0E0"/>
<path d="M14.2688 328.479C16.8955 328.479 19.0249 326.352 19.0249 323.729C19.0249 321.106 16.8955 318.98 14.2688 318.98C11.6421 318.98 9.5127 321.106 9.5127 323.729C9.5127 326.352 11.6421 328.479 14.2688 328.479Z" fill="#E0E0E0"/>
<path d="M42.8049 328.479C45.4316 328.479 47.561 326.352 47.561 323.729C47.561 321.106 45.4316 318.98 42.8049 318.98C40.1782 318.98 38.0488 321.106 38.0488 323.729C38.0488 326.352 40.1782 328.479 42.8049 328.479Z" fill="#E0E0E0"/>
<path d="M71.342 328.479C73.9688 328.479 76.0981 326.352 76.0981 323.729C76.0981 321.106 73.9688 318.98 71.342 318.98C68.7153 318.98 66.5859 321.106 66.5859 323.729C66.5859 326.352 68.7153 328.479 71.342 328.479Z" fill="#E0E0E0"/>
<path d="M99.8782 328.479C102.505 328.479 104.634 326.352 104.634 323.729C104.634 321.106 102.505 318.98 99.8782 318.98C97.2514 318.98 95.1221 321.106 95.1221 323.729C95.1221 326.352 97.2514 328.479 99.8782 328.479Z" fill="#E0E0E0"/>
<path d="M128.415 328.479C131.042 328.479 133.171 326.352 133.171 323.729C133.171 321.106 131.042 318.98 128.415 318.98C125.789 318.98 123.659 321.106 123.659 323.729C123.659 326.352 125.789 328.479 128.415 328.479Z" fill="#E0E0E0"/>
<path d="M156.951 328.479C159.578 328.479 161.708 326.352 161.708 323.729C161.708 321.106 159.578 318.98 156.951 318.98C154.325 318.98 152.195 321.106 152.195 323.729C152.195 326.352 154.325 328.479 156.951 328.479Z" fill="#E0E0E0"/>
<path d="M185.489 328.479C188.115 328.479 190.245 326.352 190.245 323.729C190.245 321.106 188.115 318.98 185.489 318.98C182.862 318.98 180.732 321.106 180.732 323.729C180.732 326.352 182.862 328.479 185.489 328.479Z" fill="#E0E0E0"/>
<path d="M214.025 328.479C216.651 328.479 218.781 326.352 218.781 323.729C218.781 321.106 216.651 318.98 214.025 318.98C211.398 318.98 209.269 321.106 209.269 323.729C209.269 326.352 211.398 328.479 214.025 328.479Z" fill="#E0E0E0"/>
<path d="M242.561 328.479C245.187 328.479 247.317 326.352 247.317 323.729C247.317 321.106 245.187 318.98 242.561 318.98C239.934 318.98 237.805 321.106 237.805 323.729C237.805 326.352 239.934 328.479 242.561 328.479Z" fill="#E0E0E0"/>
<path d="M14.2688 350.642C16.8955 350.642 19.0249 348.516 19.0249 345.893C19.0249 343.27 16.8955 341.143 14.2688 341.143C11.6421 341.143 9.5127 343.27 9.5127 345.893C9.5127 348.516 11.6421 350.642 14.2688 350.642Z" fill="#E0E0E0"/>
<path d="M42.8049 350.642C45.4316 350.642 47.561 348.516 47.561 345.893C47.561 343.27 45.4316 341.143 42.8049 341.143C40.1782 341.143 38.0488 343.27 38.0488 345.893C38.0488 348.516 40.1782 350.642 42.8049 350.642Z" fill="#E0E0E0"/>
<path d="M71.342 350.642C73.9688 350.642 76.0981 348.516 76.0981 345.893C76.0981 343.27 73.9688 341.143 71.342 341.143C68.7153 341.143 66.5859 343.27 66.5859 345.893C66.5859 348.516 68.7153 350.642 71.342 350.642Z" fill="#E0E0E0"/>
<path d="M99.8782 350.642C102.505 350.642 104.634 348.516 104.634 345.893C104.634 343.27 102.505 341.143 99.8782 341.143C97.2514 341.143 95.1221 343.27 95.1221 345.893C95.1221 348.516 97.2514 350.642 99.8782 350.642Z" fill="#E0E0E0"/>
<path d="M128.415 350.642C131.042 350.642 133.171 348.516 133.171 345.893C133.171 343.27 131.042 341.143 128.415 341.143C125.789 341.143 123.659 343.27 123.659 345.893C123.659 348.516 125.789 350.642 128.415 350.642Z" fill="#E0E0E0"/>
<path d="M156.951 350.642C159.578 350.642 161.708 348.516 161.708 345.893C161.708 343.27 159.578 341.143 156.951 341.143C154.325 341.143 152.195 343.27 152.195 345.893C152.195 348.516 154.325 350.642 156.951 350.642Z" fill="#E0E0E0"/>
<path d="M185.489 350.642C188.115 350.642 190.245 348.516 190.245 345.893C190.245 343.27 188.115 341.143 185.489 341.143C182.862 341.143 180.732 343.27 180.732 345.893C180.732 348.516 182.862 350.642 185.489 350.642Z" fill="#E0E0E0"/>
<path d="M214.025 350.642C216.651 350.642 218.781 348.516 218.781 345.893C218.781 343.27 216.651 341.143 214.025 341.143C211.398 341.143 209.269 343.27 209.269 345.893C209.269 348.516 211.398 350.642 214.025 350.642Z" fill="#E0E0E0"/>
<path d="M242.561 350.642C245.187 350.642 247.317 348.516 247.317 345.893C247.317 343.27 245.187 341.143 242.561 341.143C239.934 341.143 237.805 343.27 237.805 345.893C237.805 348.516 239.934 350.642 242.561 350.642Z" fill="#E0E0E0"/>
<path d="M14.2688 372.805C16.8955 372.805 19.0249 370.679 19.0249 368.056C19.0249 365.433 16.8955 363.307 14.2688 363.307C11.6421 363.307 9.5127 365.433 9.5127 368.056C9.5127 370.679 11.6421 372.805 14.2688 372.805Z" fill="#E0E0E0"/>
<path d="M42.8049 372.805C45.4316 372.805 47.561 370.679 47.561 368.056C47.561 365.433 45.4316 363.307 42.8049 363.307C40.1782 363.307 38.0488 365.433 38.0488 368.056C38.0488 370.679 40.1782 372.805 42.8049 372.805Z" fill="#E0E0E0"/>
<path d="M71.342 372.805C73.9688 372.805 76.0981 370.679 76.0981 368.056C76.0981 365.433 73.9688 363.307 71.342 363.307C68.7153 363.307 66.5859 365.433 66.5859 368.056C66.5859 370.679 68.7153 372.805 71.342 372.805Z" fill="#E0E0E0"/>
<path d="M99.8782 372.805C102.505 372.805 104.634 370.679 104.634 368.056C104.634 365.433 102.505 363.307 99.8782 363.307C97.2514 363.307 95.1221 365.433 95.1221 368.056C95.1221 370.679 97.2514 372.805 99.8782 372.805Z" fill="#E0E0E0"/>
<path d="M128.415 372.805C131.042 372.805 133.171 370.679 133.171 368.056C133.171 365.433 131.042 363.307 128.415 363.307C125.789 363.307 123.659 365.433 123.659 368.056C123.659 370.679 125.789 372.805 128.415 372.805Z" fill="#E0E0E0"/>
<path d="M156.951 372.805C159.578 372.805 161.708 370.679 161.708 368.056C161.708 365.433 159.578 363.307 156.951 363.307C154.325 363.307 152.195 365.433 152.195 368.056C152.195 370.679 154.325 372.805 156.951 372.805Z" fill="#E0E0E0"/>
<path d="M185.489 372.805C188.115 372.805 190.245 370.679 190.245 368.056C190.245 365.433 188.115 363.307 185.489 363.307C182.862 363.307 180.732 365.433 180.732 368.056C180.732 370.679 182.862 372.805 185.489 372.805Z" fill="#E0E0E0"/>
<path d="M214.025 372.805C216.651 372.805 218.781 370.679 218.781 368.056C218.781 365.433 216.651 363.307 214.025 363.307C211.398 363.307 209.269 365.433 209.269 368.056C209.269 370.679 211.398 372.805 214.025 372.805Z" fill="#E0E0E0"/>
<path d="M242.561 372.805C245.187 372.805 247.317 370.679 247.317 368.056C247.317 365.433 245.187 363.307 242.561 363.307C239.934 363.307 237.805 365.433 237.805 368.056C237.805 370.679 239.934 372.805 242.561 372.805Z" fill="#E0E0E0"/>
<path d="M14.2688 394.968C16.8955 394.968 19.0249 392.842 19.0249 390.219C19.0249 387.596 16.8955 385.47 14.2688 385.47C11.6421 385.47 9.5127 387.596 9.5127 390.219C9.5127 392.842 11.6421 394.968 14.2688 394.968Z" fill="#E0E0E0"/>
<path d="M42.8049 394.968C45.4316 394.968 47.561 392.842 47.561 390.219C47.561 387.596 45.4316 385.47 42.8049 385.47C40.1782 385.47 38.0488 387.596 38.0488 390.219C38.0488 392.842 40.1782 394.968 42.8049 394.968Z" fill="#E0E0E0"/>
<path d="M71.342 394.968C73.9688 394.968 76.0981 392.842 76.0981 390.219C76.0981 387.596 73.9688 385.47 71.342 385.47C68.7153 385.47 66.5859 387.596 66.5859 390.219C66.5859 392.842 68.7153 394.968 71.342 394.968Z" fill="#E0E0E0"/>
<path d="M99.8782 394.968C102.505 394.968 104.634 392.842 104.634 390.219C104.634 387.596 102.505 385.47 99.8782 385.47C97.2514 385.47 95.1221 387.596 95.1221 390.219C95.1221 392.842 97.2514 394.968 99.8782 394.968Z" fill="#E0E0E0"/>
<path d="M128.415 394.968C131.042 394.968 133.171 392.842 133.171 390.219C133.171 387.596 131.042 385.47 128.415 385.47C125.789 385.47 123.659 387.596 123.659 390.219C123.659 392.842 125.789 394.968 128.415 394.968Z" fill="#E0E0E0"/>
<path d="M156.951 394.968C159.578 394.968 161.708 392.842 161.708 390.219C161.708 387.596 159.578 385.47 156.951 385.47C154.325 385.47 152.195 387.596 152.195 390.219C152.195 392.842 154.325 394.968 156.951 394.968Z" fill="#E0E0E0"/>
<path d="M185.489 394.968C188.115 394.968 190.245 392.842 190.245 390.219C190.245 387.596 188.115 385.47 185.489 385.47C182.862 385.47 180.732 387.596 180.732 390.219C180.732 392.842 182.862 394.968 185.489 394.968Z" fill="#E0E0E0"/>
<path d="M214.025 394.968C216.651 394.968 218.781 392.842 218.781 390.219C218.781 387.596 216.651 385.47 214.025 385.47C211.398 385.47 209.269 387.596 209.269 390.219C209.269 392.842 211.398 394.968 214.025 394.968Z" fill="#E0E0E0"/>
<path d="M242.561 394.968C245.187 394.968 247.317 392.842 247.317 390.219C247.317 387.596 245.187 385.47 242.561 385.47C239.934 385.47 237.805 387.596 237.805 390.219C237.805 392.842 239.934 394.968 242.561 394.968Z" fill="#E0E0E0"/>
</g>
<g clip-path="url(#clip1)">
<path d="M982.269 9.49857C984.896 9.49857 987.025 7.37224 987.025 4.74928C987.025 2.12633 984.896 0 982.269 0C979.642 0 977.513 2.12633 977.513 4.74928C977.513 7.37224 979.642 9.49857 982.269 9.49857Z" fill="#E0E0E0"/>
<path d="M1010.8 9.49857C1013.43 9.49857 1015.56 7.37224 1015.56 4.74928C1015.56 2.12633 1013.43 0 1010.8 0C1008.18 0 1006.05 2.12633 1006.05 4.74928C1006.05 7.37224 1008.18 9.49857 1010.8 9.49857Z" fill="#E0E0E0"/>
<path d="M1039.34 9.49857C1041.97 9.49857 1044.1 7.37224 1044.1 4.74928C1044.1 2.12633 1041.97 0 1039.34 0C1036.72 0 1034.59 2.12633 1034.59 4.74928C1034.59 7.37224 1036.72 9.49857 1039.34 9.49857Z" fill="#E0E0E0"/>
<path d="M1067.88 9.49857C1070.5 9.49857 1072.63 7.37224 1072.63 4.74928C1072.63 2.12633 1070.5 0 1067.88 0C1065.25 0 1063.12 2.12633 1063.12 4.74928C1063.12 7.37224 1065.25 9.49857 1067.88 9.49857Z" fill="#E0E0E0"/>
<path d="M1096.42 9.49857C1099.04 9.49857 1101.17 7.37224 1101.17 4.74928C1101.17 2.12633 1099.04 0 1096.42 0C1093.79 0 1091.66 2.12633 1091.66 4.74928C1091.66 7.37224 1093.79 9.49857 1096.42 9.49857Z" fill="#E0E0E0"/>
<path d="M1124.95 9.49857C1127.58 9.49857 1129.71 7.37224 1129.71 4.74928C1129.71 2.12633 1127.58 0 1124.95 0C1122.32 0 1120.2 2.12633 1120.2 4.74928C1120.2 7.37224 1122.32 9.49857 1124.95 9.49857Z" fill="#E0E0E0"/>
<path d="M1153.49 9.49857C1156.12 9.49857 1158.24 7.37224 1158.24 4.74928C1158.24 2.12633 1156.12 0 1153.49 0C1150.86 0 1148.73 2.12633 1148.73 4.74928C1148.73 7.37224 1150.86 9.49857 1153.49 9.49857Z" fill="#E0E0E0"/>
<path d="M1182.02 9.49857C1184.65 9.49857 1186.78 7.37224 1186.78 4.74928C1186.78 2.12633 1184.65 0 1182.02 0C1179.4 0 1177.27 2.12633 1177.27 4.74928C1177.27 7.37224 1179.4 9.49857 1182.02 9.49857Z" fill="#E0E0E0"/>
<path d="M1210.56 9.49857C1213.19 9.49857 1215.32 7.37224 1215.32 4.74928C1215.32 2.12633 1213.19 0 1210.56 0C1207.93 0 1205.8 2.12633 1205.8 4.74928C1205.8 7.37224 1207.93 9.49857 1210.56 9.49857Z" fill="#E0E0E0"/>
<path d="M982.269 31.6619C984.896 31.6619 987.025 29.5356 987.025 26.9126C987.025 24.2897 984.896 22.1633 982.269 22.1633C979.642 22.1633 977.513 24.2897 977.513 26.9126C977.513 29.5356 979.642 31.6619 982.269 31.6619Z" fill="#E0E0E0"/>
<path d="M1010.8 31.6619C1013.43 31.6619 1015.56 29.5356 1015.56 26.9126C1015.56 24.2897 1013.43 22.1633 1010.8 22.1633C1008.18 22.1633 1006.05 24.2897 1006.05 26.9126C1006.05 29.5356 1008.18 31.6619 1010.8 31.6619Z" fill="#E0E0E0"/>
<path d="M1039.34 31.6619C1041.97 31.6619 1044.1 29.5356 1044.1 26.9126C1044.1 24.2897 1041.97 22.1633 1039.34 22.1633C1036.72 22.1633 1034.59 24.2897 1034.59 26.9126C1034.59 29.5356 1036.72 31.6619 1039.34 31.6619Z" fill="#E0E0E0"/>
<path d="M1067.88 31.6619C1070.5 31.6619 1072.63 29.5356 1072.63 26.9126C1072.63 24.2897 1070.5 22.1633 1067.88 22.1633C1065.25 22.1633 1063.12 24.2897 1063.12 26.9126C1063.12 29.5356 1065.25 31.6619 1067.88 31.6619Z" fill="#E0E0E0"/>
<path d="M1096.42 31.6619C1099.04 31.6619 1101.17 29.5356 1101.17 26.9126C1101.17 24.2897 1099.04 22.1633 1096.42 22.1633C1093.79 22.1633 1091.66 24.2897 1091.66 26.9126C1091.66 29.5356 1093.79 31.6619 1096.42 31.6619Z" fill="#E0E0E0"/>
<path d="M1124.95 31.6619C1127.58 31.6619 1129.71 29.5356 1129.71 26.9126C1129.71 24.2897 1127.58 22.1633 1124.95 22.1633C1122.32 22.1633 1120.2 24.2897 1120.2 26.9126C1120.2 29.5356 1122.32 31.6619 1124.95 31.6619Z" fill="#E0E0E0"/>
<path d="M1153.49 31.6619C1156.12 31.6619 1158.24 29.5356 1158.24 26.9126C1158.24 24.2897 1156.12 22.1633 1153.49 22.1633C1150.86 22.1633 1148.73 24.2897 1148.73 26.9126C1148.73 29.5356 1150.86 31.6619 1153.49 31.6619Z" fill="#E0E0E0"/>
<path d="M1182.02 31.6619C1184.65 31.6619 1186.78 29.5356 1186.78 26.9126C1186.78 24.2897 1184.65 22.1633 1182.02 22.1633C1179.4 22.1633 1177.27 24.2897 1177.27 26.9126C1177.27 29.5356 1179.4 31.6619 1182.02 31.6619Z" fill="#E0E0E0"/>
<path d="M1210.56 31.6619C1213.19 31.6619 1215.32 29.5356 1215.32 26.9126C1215.32 24.2897 1213.19 22.1633 1210.56 22.1633C1207.93 22.1633 1205.8 24.2897 1205.8 26.9126C1205.8 29.5356 1207.93 31.6619 1210.56 31.6619Z" fill="#E0E0E0"/>
<path d="M982.269 53.8252C984.896 53.8252 987.025 51.6989 987.025 49.0759C987.025 46.453 984.896 44.3267 982.269 44.3267C979.642 44.3267 977.513 46.453 977.513 49.0759C977.513 51.6989 979.642 53.8252 982.269 53.8252Z" fill="#E0E0E0"/>
<path d="M1010.8 53.8252C1013.43 53.8252 1015.56 51.6989 1015.56 49.0759C1015.56 46.453 1013.43 44.3267 1010.8 44.3267C1008.18 44.3267 1006.05 46.453 1006.05 49.0759C1006.05 51.6989 1008.18 53.8252 1010.8 53.8252Z" fill="#E0E0E0"/>
<path d="M1039.34 53.8252C1041.97 53.8252 1044.1 51.6989 1044.1 49.0759C1044.1 46.453 1041.97 44.3267 1039.34 44.3267C1036.72 44.3267 1034.59 46.453 1034.59 49.0759C1034.59 51.6989 1036.72 53.8252 1039.34 53.8252Z" fill="#E0E0E0"/>
<path d="M1067.88 53.8252C1070.5 53.8252 1072.63 51.6989 1072.63 49.0759C1072.63 46.453 1070.5 44.3267 1067.88 44.3267C1065.25 44.3267 1063.12 46.453 1063.12 49.0759C1063.12 51.6989 1065.25 53.8252 1067.88 53.8252Z" fill="#E0E0E0"/>
<path d="M1096.42 53.8252C1099.04 53.8252 1101.17 51.6989 1101.17 49.0759C1101.17 46.453 1099.04 44.3267 1096.42 44.3267C1093.79 44.3267 1091.66 46.453 1091.66 49.0759C1091.66 51.6989 1093.79 53.8252 1096.42 53.8252Z" fill="#E0E0E0"/>
<path d="M1124.95 53.8252C1127.58 53.8252 1129.71 51.6989 1129.71 49.0759C1129.71 46.453 1127.58 44.3267 1124.95 44.3267C1122.32 44.3267 1120.2 46.453 1120.2 49.0759C1120.2 51.6989 1122.32 53.8252 1124.95 53.8252Z" fill="#E0E0E0"/>
<path d="M1153.49 53.8252C1156.12 53.8252 1158.24 51.6989 1158.24 49.0759C1158.24 46.453 1156.12 44.3267 1153.49 44.3267C1150.86 44.3267 1148.73 46.453 1148.73 49.0759C1148.73 51.6989 1150.86 53.8252 1153.49 53.8252Z" fill="#E0E0E0"/>
<path d="M1182.02 53.8252C1184.65 53.8252 1186.78 51.6989 1186.78 49.0759C1186.78 46.453 1184.65 44.3267 1182.02 44.3267C1179.4 44.3267 1177.27 46.453 1177.27 49.0759C1177.27 51.6989 1179.4 53.8252 1182.02 53.8252Z" fill="#E0E0E0"/>
<path d="M1210.56 53.8252C1213.19 53.8252 1215.32 51.6989 1215.32 49.0759C1215.32 46.453 1213.19 44.3267 1210.56 44.3267C1207.93 44.3267 1205.8 46.453 1205.8 49.0759C1205.8 51.6989 1207.93 53.8252 1210.56 53.8252Z" fill="#E0E0E0"/>
<path d="M982.269 75.9885C984.896 75.9885 987.025 73.8622 987.025 71.2393C987.025 68.6163 984.896 66.49 982.269 66.49C979.642 66.49 977.513 68.6163 977.513 71.2393C977.513 73.8622 979.642 75.9885 982.269 75.9885Z" fill="#E0E0E0"/>
<path d="M1010.8 75.9885C1013.43 75.9885 1015.56 73.8622 1015.56 71.2393C1015.56 68.6163 1013.43 66.49 1010.8 66.49C1008.18 66.49 1006.05 68.6163 1006.05 71.2393C1006.05 73.8622 1008.18 75.9885 1010.8 75.9885Z" fill="#E0E0E0"/>
<path d="M1039.34 75.9885C1041.97 75.9885 1044.1 73.8622 1044.1 71.2393C1044.1 68.6163 1041.97 66.49 1039.34 66.49C1036.72 66.49 1034.59 68.6163 1034.59 71.2393C1034.59 73.8622 1036.72 75.9885 1039.34 75.9885Z" fill="#E0E0E0"/>
<path d="M1067.88 75.9885C1070.5 75.9885 1072.63 73.8622 1072.63 71.2393C1072.63 68.6163 1070.5 66.49 1067.88 66.49C1065.25 66.49 1063.12 68.6163 1063.12 71.2393C1063.12 73.8622 1065.25 75.9885 1067.88 75.9885Z" fill="#E0E0E0"/>
<path d="M1096.42 75.9885C1099.04 75.9885 1101.17 73.8622 1101.17 71.2393C1101.17 68.6163 1099.04 66.49 1096.42 66.49C1093.79 66.49 1091.66 68.6163 1091.66 71.2393C1091.66 73.8622 1093.79 75.9885 1096.42 75.9885Z" fill="#E0E0E0"/>
<path d="M1124.95 75.9885C1127.58 75.9885 1129.71 73.8622 1129.71 71.2393C1129.71 68.6163 1127.58 66.49 1124.95 66.49C1122.32 66.49 1120.2 68.6163 1120.2 71.2393C1120.2 73.8622 1122.32 75.9885 1124.95 75.9885Z" fill="#E0E0E0"/>
<path d="M1153.49 75.9885C1156.12 75.9885 1158.24 73.8622 1158.24 71.2393C1158.24 68.6163 1156.12 66.49 1153.49 66.49C1150.86 66.49 1148.73 68.6163 1148.73 71.2393C1148.73 73.8622 1150.86 75.9885 1153.49 75.9885Z" fill="#E0E0E0"/>
<path d="M1182.02 75.9885C1184.65 75.9885 1186.78 73.8622 1186.78 71.2393C1186.78 68.6163 1184.65 66.49 1182.02 66.49C1179.4 66.49 1177.27 68.6163 1177.27 71.2393C1177.27 73.8622 1179.4 75.9885 1182.02 75.9885Z" fill="#E0E0E0"/>
<path d="M1210.56 75.9885C1213.19 75.9885 1215.32 73.8622 1215.32 71.2393C1215.32 68.6163 1213.19 66.49 1210.56 66.49C1207.93 66.49 1205.8 68.6163 1205.8 71.2393C1205.8 73.8622 1207.93 75.9885 1210.56 75.9885Z" fill="#E0E0E0"/>
<path d="M982.269 98.1519C984.896 98.1519 987.025 96.0255 987.025 93.4026C987.025 90.7796 984.896 88.6533 982.269 88.6533C979.642 88.6533 977.513 90.7796 977.513 93.4026C977.513 96.0255 979.642 98.1519 982.269 98.1519Z" fill="#E0E0E0"/>
<path d="M1010.8 98.1519C1013.43 98.1519 1015.56 96.0255 1015.56 93.4026C1015.56 90.7796 1013.43 88.6533 1010.8 88.6533C1008.18 88.6533 1006.05 90.7796 1006.05 93.4026C1006.05 96.0255 1008.18 98.1519 1010.8 98.1519Z" fill="#E0E0E0"/>
<path d="M1039.34 98.1519C1041.97 98.1519 1044.1 96.0255 1044.1 93.4026C1044.1 90.7796 1041.97 88.6533 1039.34 88.6533C1036.72 88.6533 1034.59 90.7796 1034.59 93.4026C1034.59 96.0255 1036.72 98.1519 1039.34 98.1519Z" fill="#E0E0E0"/>
<path d="M1067.88 98.1519C1070.5 98.1519 1072.63 96.0255 1072.63 93.4026C1072.63 90.7796 1070.5 88.6533 1067.88 88.6533C1065.25 88.6533 1063.12 90.7796 1063.12 93.4026C1063.12 96.0255 1065.25 98.1519 1067.88 98.1519Z" fill="#E0E0E0"/>
<path d="M1096.42 98.1519C1099.04 98.1519 1101.17 96.0255 1101.17 93.4026C1101.17 90.7796 1099.04 88.6533 1096.42 88.6533C1093.79 88.6533 1091.66 90.7796 1091.66 93.4026C1091.66 96.0255 1093.79 98.1519 1096.42 98.1519Z" fill="#E0E0E0"/>
<path d="M1124.95 98.1519C1127.58 98.1519 1129.71 96.0255 1129.71 93.4026C1129.71 90.7796 1127.58 88.6533 1124.95 88.6533C1122.32 88.6533 1120.2 90.7796 1120.2 93.4026C1120.2 96.0255 1122.32 98.1519 1124.95 98.1519Z" fill="#E0E0E0"/>
<path d="M1153.49 98.1519C1156.12 98.1519 1158.24 96.0255 1158.24 93.4026C1158.24 90.7796 1156.12 88.6533 1153.49 88.6533C1150.86 88.6533 1148.73 90.7796 1148.73 93.4026C1148.73 96.0255 1150.86 98.1519 1153.49 98.1519Z" fill="#E0E0E0"/>
<path d="M1182.02 98.1519C1184.65 98.1519 1186.78 96.0255 1186.78 93.4026C1186.78 90.7796 1184.65 88.6533 1182.02 88.6533C1179.4 88.6533 1177.27 90.7796 1177.27 93.4026C1177.27 96.0255 1179.4 98.1519 1182.02 98.1519Z" fill="#E0E0E0"/>
<path d="M1210.56 98.1519C1213.19 98.1519 1215.32 96.0255 1215.32 93.4026C1215.32 90.7796 1213.19 88.6533 1210.56 88.6533C1207.93 88.6533 1205.8 90.7796 1205.8 93.4026C1205.8 96.0255 1207.93 98.1519 1210.56 98.1519Z" fill="#E0E0E0"/>
<path d="M982.269 120.315C984.896 120.315 987.025 118.189 987.025 115.566C987.025 112.943 984.896 110.817 982.269 110.817C979.642 110.817 977.513 112.943 977.513 115.566C977.513 118.189 979.642 120.315 982.269 120.315Z" fill="#E0E0E0"/>
<path d="M1010.8 120.315C1013.43 120.315 1015.56 118.189 1015.56 115.566C1015.56 112.943 1013.43 110.817 1010.8 110.817C1008.18 110.817 1006.05 112.943 1006.05 115.566C1006.05 118.189 1008.18 120.315 1010.8 120.315Z" fill="#E0E0E0"/>
<path d="M1039.34 120.315C1041.97 120.315 1044.1 118.189 1044.1 115.566C1044.1 112.943 1041.97 110.817 1039.34 110.817C1036.72 110.817 1034.59 112.943 1034.59 115.566C1034.59 118.189 1036.72 120.315 1039.34 120.315Z" fill="#E0E0E0"/>
<path d="M1067.88 120.315C1070.5 120.315 1072.63 118.189 1072.63 115.566C1072.63 112.943 1070.5 110.817 1067.88 110.817C1065.25 110.817 1063.12 112.943 1063.12 115.566C1063.12 118.189 1065.25 120.315 1067.88 120.315Z" fill="#E0E0E0"/>
<path d="M1096.42 120.315C1099.04 120.315 1101.17 118.189 1101.17 115.566C1101.17 112.943 1099.04 110.817 1096.42 110.817C1093.79 110.817 1091.66 112.943 1091.66 115.566C1091.66 118.189 1093.79 120.315 1096.42 120.315Z" fill="#E0E0E0"/>
<path d="M1124.95 120.315C1127.58 120.315 1129.71 118.189 1129.71 115.566C1129.71 112.943 1127.58 110.817 1124.95 110.817C1122.32 110.817 1120.2 112.943 1120.2 115.566C1120.2 118.189 1122.32 120.315 1124.95 120.315Z" fill="#E0E0E0"/>
<path d="M1153.49 120.315C1156.12 120.315 1158.24 118.189 1158.24 115.566C1158.24 112.943 1156.12 110.817 1153.49 110.817C1150.86 110.817 1148.73 112.943 1148.73 115.566C1148.73 118.189 1150.86 120.315 1153.49 120.315Z" fill="#E0E0E0"/>
<path d="M1182.02 120.315C1184.65 120.315 1186.78 118.189 1186.78 115.566C1186.78 112.943 1184.65 110.817 1182.02 110.817C1179.4 110.817 1177.27 112.943 1177.27 115.566C1177.27 118.189 1179.4 120.315 1182.02 120.315Z" fill="#E0E0E0"/>
<path d="M1210.56 120.315C1213.19 120.315 1215.32 118.189 1215.32 115.566C1215.32 112.943 1213.19 110.817 1210.56 110.817C1207.93 110.817 1205.8 112.943 1205.8 115.566C1205.8 118.189 1207.93 120.315 1210.56 120.315Z" fill="#E0E0E0"/>
<path d="M982.269 142.479C984.896 142.479 987.025 140.352 987.025 137.729C987.025 135.106 984.896 132.98 982.269 132.98C979.642 132.98 977.513 135.106 977.513 137.729C977.513 140.352 979.642 142.479 982.269 142.479Z" fill="#E0E0E0"/>
<path d="M1010.8 142.479C1013.43 142.479 1015.56 140.352 1015.56 137.729C1015.56 135.106 1013.43 132.98 1010.8 132.98C1008.18 132.98 1006.05 135.106 1006.05 137.729C1006.05 140.352 1008.18 142.479 1010.8 142.479Z" fill="#E0E0E0"/>
<path d="M1039.34 142.479C1041.97 142.479 1044.1 140.352 1044.1 137.729C1044.1 135.106 1041.97 132.98 1039.34 132.98C1036.72 132.98 1034.59 135.106 1034.59 137.729C1034.59 140.352 1036.72 142.479 1039.34 142.479Z" fill="#E0E0E0"/>
<path d="M1067.88 142.479C1070.5 142.479 1072.63 140.352 1072.63 137.729C1072.63 135.106 1070.5 132.98 1067.88 132.98C1065.25 132.98 1063.12 135.106 1063.12 137.729C1063.12 140.352 1065.25 142.479 1067.88 142.479Z" fill="#E0E0E0"/>
<path d="M1096.42 142.479C1099.04 142.479 1101.17 140.352 1101.17 137.729C1101.17 135.106 1099.04 132.98 1096.42 132.98C1093.79 132.98 1091.66 135.106 1091.66 137.729C1091.66 140.352 1093.79 142.479 1096.42 142.479Z" fill="#E0E0E0"/>
<path d="M1124.95 142.479C1127.58 142.479 1129.71 140.352 1129.71 137.729C1129.71 135.106 1127.58 132.98 1124.95 132.98C1122.32 132.98 1120.2 135.106 1120.2 137.729C1120.2 140.352 1122.32 142.479 1124.95 142.479Z" fill="#E0E0E0"/>
<path d="M1153.49 142.479C1156.12 142.479 1158.24 140.352 1158.24 137.729C1158.24 135.106 1156.12 132.98 1153.49 132.98C1150.86 132.98 1148.73 135.106 1148.73 137.729C1148.73 140.352 1150.86 142.479 1153.49 142.479Z" fill="#E0E0E0"/>
<path d="M1182.02 142.479C1184.65 142.479 1186.78 140.352 1186.78 137.729C1186.78 135.106 1184.65 132.98 1182.02 132.98C1179.4 132.98 1177.27 135.106 1177.27 137.729C1177.27 140.352 1179.4 142.479 1182.02 142.479Z" fill="#E0E0E0"/>
<path d="M1210.56 142.479C1213.19 142.479 1215.32 140.352 1215.32 137.729C1215.32 135.106 1213.19 132.98 1210.56 132.98C1207.93 132.98 1205.8 135.106 1205.8 137.729C1205.8 140.352 1207.93 142.479 1210.56 142.479Z" fill="#E0E0E0"/>
<path d="M982.269 164.642C984.896 164.642 987.025 162.516 987.025 159.893C987.025 157.27 984.896 155.143 982.269 155.143C979.642 155.143 977.513 157.27 977.513 159.893C977.513 162.516 979.642 164.642 982.269 164.642Z" fill="#E0E0E0"/>
<path d="M1010.8 164.642C1013.43 164.642 1015.56 162.516 1015.56 159.893C1015.56 157.27 1013.43 155.143 1010.8 155.143C1008.18 155.143 1006.05 157.27 1006.05 159.893C1006.05 162.516 1008.18 164.642 1010.8 164.642Z" fill="#E0E0E0"/>
<path d="M1039.34 164.642C1041.97 164.642 1044.1 162.516 1044.1 159.893C1044.1 157.27 1041.97 155.143 1039.34 155.143C1036.72 155.143 1034.59 157.27 1034.59 159.893C1034.59 162.516 1036.72 164.642 1039.34 164.642Z" fill="#E0E0E0"/>
<path d="M1067.88 164.642C1070.5 164.642 1072.63 162.516 1072.63 159.893C1072.63 157.27 1070.5 155.143 1067.88 155.143C1065.25 155.143 1063.12 157.27 1063.12 159.893C1063.12 162.516 1065.25 164.642 1067.88 164.642Z" fill="#E0E0E0"/>
<path d="M1096.42 164.642C1099.04 164.642 1101.17 162.516 1101.17 159.893C1101.17 157.27 1099.04 155.143 1096.42 155.143C1093.79 155.143 1091.66 157.27 1091.66 159.893C1091.66 162.516 1093.79 164.642 1096.42 164.642Z" fill="#E0E0E0"/>
<path d="M1124.95 164.642C1127.58 164.642 1129.71 162.516 1129.71 159.893C1129.71 157.27 1127.58 155.143 1124.95 155.143C1122.32 155.143 1120.2 157.27 1120.2 159.893C1120.2 162.516 1122.32 164.642 1124.95 164.642Z" fill="#E0E0E0"/>
<path d="M1153.49 164.642C1156.12 164.642 1158.24 162.516 1158.24 159.893C1158.24 157.27 1156.12 155.143 1153.49 155.143C1150.86 155.143 1148.73 157.27 1148.73 159.893C1148.73 162.516 1150.86 164.642 1153.49 164.642Z" fill="#E0E0E0"/>
<path d="M1182.02 164.642C1184.65 164.642 1186.78 162.516 1186.78 159.893C1186.78 157.27 1184.65 155.143 1182.02 155.143C1179.4 155.143 1177.27 157.27 1177.27 159.893C1177.27 162.516 1179.4 164.642 1182.02 164.642Z" fill="#E0E0E0"/>
<path d="M1210.56 164.642C1213.19 164.642 1215.32 162.516 1215.32 159.893C1215.32 157.27 1213.19 155.143 1210.56 155.143C1207.93 155.143 1205.8 157.27 1205.8 159.893C1205.8 162.516 1207.93 164.642 1210.56 164.642Z" fill="#E0E0E0"/>
<path d="M982.269 186.805C984.896 186.805 987.025 184.679 987.025 182.056C987.025 179.433 984.896 177.307 982.269 177.307C979.642 177.307 977.513 179.433 977.513 182.056C977.513 184.679 979.642 186.805 982.269 186.805Z" fill="#E0E0E0"/>
<path d="M1010.8 186.805C1013.43 186.805 1015.56 184.679 1015.56 182.056C1015.56 179.433 1013.43 177.307 1010.8 177.307C1008.18 177.307 1006.05 179.433 1006.05 182.056C1006.05 184.679 1008.18 186.805 1010.8 186.805Z" fill="#E0E0E0"/>
<path d="M1039.34 186.805C1041.97 186.805 1044.1 184.679 1044.1 182.056C1044.1 179.433 1041.97 177.307 1039.34 177.307C1036.72 177.307 1034.59 179.433 1034.59 182.056C1034.59 184.679 1036.72 186.805 1039.34 186.805Z" fill="#E0E0E0"/>
<path d="M1067.88 186.805C1070.5 186.805 1072.63 184.679 1072.63 182.056C1072.63 179.433 1070.5 177.307 1067.88 177.307C1065.25 177.307 1063.12 179.433 1063.12 182.056C1063.12 184.679 1065.25 186.805 1067.88 186.805Z" fill="#E0E0E0"/>
<path d="M1096.42 186.805C1099.04 186.805 1101.17 184.679 1101.17 182.056C1101.17 179.433 1099.04 177.307 1096.42 177.307C1093.79 177.307 1091.66 179.433 1091.66 182.056C1091.66 184.679 1093.79 186.805 1096.42 186.805Z" fill="#E0E0E0"/>
<path d="M1124.95 186.805C1127.58 186.805 1129.71 184.679 1129.71 182.056C1129.71 179.433 1127.58 177.307 1124.95 177.307C1122.32 177.307 1120.2 179.433 1120.2 182.056C1120.2 184.679 1122.32 186.805 1124.95 186.805Z" fill="#E0E0E0"/>
<path d="M1153.49 186.805C1156.12 186.805 1158.24 184.679 1158.24 182.056C1158.24 179.433 1156.12 177.307 1153.49 177.307C1150.86 177.307 1148.73 179.433 1148.73 182.056C1148.73 184.679 1150.86 186.805 1153.49 186.805Z" fill="#E0E0E0"/>
<path d="M1182.02 186.805C1184.65 186.805 1186.78 184.679 1186.78 182.056C1186.78 179.433 1184.65 177.307 1182.02 177.307C1179.4 177.307 1177.27 179.433 1177.27 182.056C1177.27 184.679 1179.4 186.805 1182.02 186.805Z" fill="#E0E0E0"/>
<path d="M1210.56 186.805C1213.19 186.805 1215.32 184.679 1215.32 182.056C1215.32 179.433 1213.19 177.307 1210.56 177.307C1207.93 177.307 1205.8 179.433 1205.8 182.056C1205.8 184.679 1207.93 186.805 1210.56 186.805Z" fill="#E0E0E0"/>
<path d="M982.269 208.968C984.896 208.968 987.025 206.842 987.025 204.219C987.025 201.596 984.896 199.47 982.269 199.47C979.642 199.47 977.513 201.596 977.513 204.219C977.513 206.842 979.642 208.968 982.269 208.968Z" fill="#E0E0E0"/>
<path d="M1010.8 208.968C1013.43 208.968 1015.56 206.842 1015.56 204.219C1015.56 201.596 1013.43 199.47 1010.8 199.47C1008.18 199.47 1006.05 201.596 1006.05 204.219C1006.05 206.842 1008.18 208.968 1010.8 208.968Z" fill="#E0E0E0"/>
<path d="M1039.34 208.968C1041.97 208.968 1044.1 206.842 1044.1 204.219C1044.1 201.596 1041.97 199.47 1039.34 199.47C1036.72 199.47 1034.59 201.596 1034.59 204.219C1034.59 206.842 1036.72 208.968 1039.34 208.968Z" fill="#E0E0E0"/>
<path d="M1067.88 208.968C1070.5 208.968 1072.63 206.842 1072.63 204.219C1072.63 201.596 1070.5 199.47 1067.88 199.47C1065.25 199.47 1063.12 201.596 1063.12 204.219C1063.12 206.842 1065.25 208.968 1067.88 208.968Z" fill="#E0E0E0"/>
<path d="M1096.42 208.968C1099.04 208.968 1101.17 206.842 1101.17 204.219C1101.17 201.596 1099.04 199.47 1096.42 199.47C1093.79 199.47 1091.66 201.596 1091.66 204.219C1091.66 206.842 1093.79 208.968 1096.42 208.968Z" fill="#E0E0E0"/>
<path d="M1124.95 208.968C1127.58 208.968 1129.71 206.842 1129.71 204.219C1129.71 201.596 1127.58 199.47 1124.95 199.47C1122.32 199.47 1120.2 201.596 1120.2 204.219C1120.2 206.842 1122.32 208.968 1124.95 208.968Z" fill="#E0E0E0"/>
<path d="M1153.49 208.968C1156.12 208.968 1158.24 206.842 1158.24 204.219C1158.24 201.596 1156.12 199.47 1153.49 199.47C1150.86 199.47 1148.73 201.596 1148.73 204.219C1148.73 206.842 1150.86 208.968 1153.49 208.968Z" fill="#E0E0E0"/>
<path d="M1182.02 208.968C1184.65 208.968 1186.78 206.842 1186.78 204.219C1186.78 201.596 1184.65 199.47 1182.02 199.47C1179.4 199.47 1177.27 201.596 1177.27 204.219C1177.27 206.842 1179.4 208.968 1182.02 208.968Z" fill="#E0E0E0"/>
<path d="M1210.56 208.968C1213.19 208.968 1215.32 206.842 1215.32 204.219C1215.32 201.596 1213.19 199.47 1210.56 199.47C1207.93 199.47 1205.8 201.596 1205.8 204.219C1205.8 206.842 1207.93 208.968 1210.56 208.968Z" fill="#E0E0E0"/>
</g>
<path d="M1056.77 81.6172C1170.38 133.617 1212.57 247.404 1205.19 371.575C1197.8 495.754 1140.84 630.074 1056.45 722.648C871.296 925.751 534.677 928.475 352.61 722.659C240.191 595.576 179.476 456.64 247.728 301.775C268.239 255.237 298.314 227.958 334.642 211.57C371.018 195.16 413.707 189.647 459.478 186.756C474.309 185.819 489.469 185.158 504.836 184.488C536.828 183.093 569.715 181.659 602.383 177.619C650.782 171.633 698.848 159.918 743.169 134.081C763.104 122.46 777.966 109.519 792.06 97.2458C795.74 94.0416 799.367 90.883 803.019 87.8053C820.668 72.9306 838.969 59.8594 866.735 52.2926C939.083 32.5761 988.297 50.2773 1056.77 81.6172Z" fill="white" stroke="#E0E0E0" stroke-width="2"/>
<path d="M303.016 345.588C377.459 176.463 591.24 286.658 750.737 193.563C795.957 167.169 812.023 133.31 862.526 119.529C928.173 101.616 972.86 117.738 1034.73 146.091C1240.81 240.538 1187.4 559.371 1034.73 727.063C867.2 911.068 562.629 913.553 397.867 727.063C296.266 612.063 241.178 486.076 303.016 345.588Z" fill="#6F0DCC" fill-opacity="0.12"/>
<path d="M366.044 323.695C423.397 184.177 588.102 275.081 710.984 198.284C745.824 176.511 758.201 148.579 797.111 137.211C847.688 122.434 882.116 135.734 929.78 159.123C1088.56 237.036 1047.41 500.052 929.78 638.386C800.712 790.178 566.059 792.228 439.121 638.386C360.843 543.519 318.401 439.588 366.044 323.695Z" fill="#6F0DCC"/>
<rect x="441" y="263" width="657" height="550" rx="20" fill="#EEEEEE"/>
<g filter="url(#filter0_d)">
<path d="M441 273C441 267.477 445.477 263 451 263H1088C1093.52 263 1098 267.477 1098 273V334H441V273Z" fill="white"/>
</g>
<rect x="482" y="285" width="81" height="27" rx="5" fill="#DFDFDF"/>
<rect x="981" y="289" width="60" height="19" rx="5" fill="#6F0DCC"/>
<rect x="682" y="293" width="41" height="10" rx="5" fill="#FED385"/>
<rect x="735" y="293" width="41" height="10" rx="5" fill="#FED385"/>
<rect x="788" y="293" width="41" height="10" rx="5" fill="#FED385"/>
<rect x="841" y="293" width="41" height="10" rx="5" fill="#FED385"/>
<rect x="894" y="293" width="41" height="10" rx="5" fill="#FED385"/>
<g filter="url(#filter1_d)">
<rect x="487" y="365" width="179" height="179" rx="10" fill="white"/>
</g>
<path d="M487 375C487 369.477 491.477 365 497 365H656C661.523 365 666 369.477 666 375V443H487V375Z" fill="#DFDFDF"/>
<rect x="495" y="455" width="133" height="13" rx="6.5" fill="#6F0DCC"/>
<rect x="495" y="480" width="159" height="5" rx="2.5" fill="#DFDFDF"/>
<rect x="495" y="487" width="159" height="5" rx="2.5" fill="#DFDFDF"/>
<rect x="495" y="494" width="137" height="5" rx="2.5" fill="#DFDFDF"/>
<rect x="495" y="501" width="119" height="5" rx="2.5" fill="#DFDFDF"/>
<rect x="495" y="527" width="44" height="5" rx="2.5" fill="#DFDFDF"/>
<rect x="610" y="527" width="44" height="5" rx="2.5" fill="#DFDFDF"/>
<g filter="url(#filter2_d)">
<rect x="680" y="365" width="179" height="179" rx="10" fill="white"/>
</g>
<path d="M680 375C680 369.477 684.477 365 690 365H849C854.523 365 859 369.477 859 375V443H680V375Z" fill="#DFDFDF"/>
<rect x="688" y="455" width="133" height="13" rx="6.5" fill="#6F0DCC"/>
<rect x="688" y="480" width="159" height="5" rx="2.5" fill="#DFDFDF"/>
<rect x="688" y="487" width="159" height="5" rx="2.5" fill="#DFDFDF"/>
<rect x="688" y="494" width="137" height="5" rx="2.5" fill="#DFDFDF"/>
<rect x="688" y="501" width="119" height="5" rx="2.5" fill="#DFDFDF"/>
<rect x="688" y="527" width="44" height="5" rx="2.5" fill="#DFDFDF"/>
<rect x="803" y="527" width="44" height="5" rx="2.5" fill="#DFDFDF"/>
<g filter="url(#filter3_d)">
<rect x="873" y="365" width="179" height="179" rx="10" fill="white"/>
</g>
<path d="M873 375C873 369.477 877.477 365 883 365H1042C1047.52 365 1052 369.477 1052 375V443H873V375Z" fill="#DFDFDF"/>
<rect x="881" y="455" width="133" height="13" rx="6.5" fill="#6F0DCC"/>
<rect x="881" y="480" width="159" height="5" rx="2.5" fill="#DFDFDF"/>
<rect x="881" y="487" width="159" height="5" rx="2.5" fill="#DFDFDF"/>
<rect x="881" y="494" width="137" height="5" rx="2.5" fill="#DFDFDF"/>
<rect x="881" y="501" width="119" height="5" rx="2.5" fill="#DFDFDF"/>
<rect x="881" y="527" width="44" height="5" rx="2.5" fill="#DFDFDF"/>
<rect x="996" y="527" width="44" height="5" rx="2.5" fill="#DFDFDF"/>
<rect x="487" y="569" width="179" height="30" rx="10" fill="#DFDFDF"/>
<rect x="503" y="580" width="58" height="8" rx="4" fill="#BDBDBD"/>
<rect x="503" y="611" width="112" height="8" rx="4" fill="#6F0DCC"/>
<rect x="514" y="628" width="76" height="8" rx="4" fill="#BDBDBD"/>
<rect x="514" y="642" width="76" height="8" rx="4" fill="#BDBDBD"/>
<g filter="url(#filter4_d)">
<rect x="682" y="572" width="370" height="97" rx="10" fill="white"/>
</g>
<rect x="895" y="584" width="130" height="5" rx="2.5" fill="#DFDFDF"/>
<rect x="895" y="591" width="130" height="5" rx="2.5" fill="#DFDFDF"/>
<rect x="895" y="598" width="130" height="5" rx="2.5" fill="#DFDFDF"/>
<rect x="895" y="605" width="130" height="5" rx="2.5" fill="#DFDFDF"/>
<rect x="895" y="612" width="107" height="5" rx="2.5" fill="#DFDFDF"/>
<rect x="895" y="619" width="90" height="5" rx="2.5" fill="#DFDFDF"/>
<rect x="808" y="584" width="77" height="9" rx="4.5" fill="#6F0DCC"/>
<rect x="808" y="607" width="29" height="7" rx="3.5" fill="#DFDFDF"/>
<rect x="808" y="644" width="29" height="7" rx="3.5" fill="#DFDFDF"/>
<rect x="691" y="580" width="107" height="80" rx="10" fill="#DFDFDF"/>
<g filter="url(#filter5_d)">
<rect x="682" y="681" width="370" height="97" rx="10" fill="white"/>
</g>
<rect x="895" y="693" width="130" height="5" rx="2.5" fill="#DFDFDF"/>
<rect x="895" y="700" width="130" height="5" rx="2.5" fill="#DFDFDF"/>
<rect x="895" y="707" width="130" height="5" rx="2.5" fill="#DFDFDF"/>
<rect x="895" y="714" width="130" height="5" rx="2.5" fill="#DFDFDF"/>
<rect x="895" y="721" width="107" height="5" rx="2.5" fill="#DFDFDF"/>
<rect x="895" y="728" width="90" height="5" rx="2.5" fill="#DFDFDF"/>
<rect x="808" y="693" width="77" height="9" rx="4.5" fill="#6F0DCC"/>
<rect x="808" y="716" width="29" height="7" rx="3.5" fill="#DFDFDF"/>
<rect x="808" y="753" width="29" height="7" rx="3.5" fill="#DFDFDF"/>
<rect x="691" y="689" width="107" height="80" rx="10" fill="#DFDFDF"/>
<g clip-path="url(#clip2)">
<path d="M459.839 816.439C454.597 807.712 450.422 805.396 437.451 805.04C424.48 804.684 407.245 804.862 407.245 804.862L407.067 823.296C407.067 823.296 421.371 831.578 429.011 835.674C429.455 835.941 430.699 836.653 431.587 837.188C432.92 837.811 434.342 838.345 435.763 838.702C443.314 840.305 450.155 839.503 455.041 834.605C460.461 829.173 465.08 825.166 459.839 816.439Z" fill="#4E4C4C"/>
<path d="M362.025 800.053C361.58 800.41 360.425 801.3 359.626 801.924C358.56 802.903 357.582 804.061 356.694 805.218C352.43 811.63 350.564 818.309 353.318 824.721C356.339 831.756 358.382 837.633 368.332 835.941C378.282 834.249 382.103 831.221 387.255 819.378C392.408 807.534 398.716 791.326 398.627 791.326L381.658 784.291C381.658 784.291 368.688 794.532 362.025 800.053Z" fill="#4E4C4C"/>
<path d="M408.399 805.664C408.399 805.664 408.666 824.275 405.645 824.721C402.625 825.166 360.958 819.11 344.345 818.22C327.732 817.329 290.063 806.554 271.584 785.627C255.593 767.55 258.081 747.513 269.896 747.513C281.712 747.513 292.551 737.45 322.579 751.788C352.607 766.125 384.412 768.529 402.269 767.104C420.126 765.68 470.143 756.418 474.052 753.569C477.961 750.719 496.707 742.526 522.826 745.376C548.945 748.226 536.596 768.974 531.088 776.989C523.359 788.121 505.058 800.053 489.777 800.588C474.497 801.122 408.399 805.664 408.399 805.664Z" fill="#6F0DCC"/>
<path d="M377.482 480.181C368.687 483.387 357.493 527.022 357.493 527.022L357.316 526.844L356.072 532.899L354.562 540.825L357.493 588.2L385.922 602.449L451.22 620.081L469.255 645.817C469.255 645.817 509.678 687.047 509.944 689.897C510.211 692.747 466.501 707.262 462.325 707.885C452.286 709.399 526.557 691.144 502.748 662.202C492.62 649.824 477.784 612.6 448.377 587.933C431.32 573.685 436.117 533.167 430.076 507.52C422.525 475.461 417.905 465.844 410.354 465.844C403.513 465.844 394.007 474.037 377.482 480.181Z" fill="#D37C59"/>
<path d="M469.876 583.748C456.195 571.192 451.575 568.164 439.582 572.438C427.588 576.713 421.725 580.631 405.378 583.303C395.339 585.084 384.945 583.748 375.616 579.651L341.946 583.035C337.681 582.501 289.796 672.621 288.641 691.322C287.931 702.809 313.961 720.531 321.246 722.312C324.178 723.024 329.419 694.706 331.107 692.123L320.18 688.739C322.134 683.841 328.708 671.73 333.062 665.23C334.394 663.182 344.789 645.995 346.21 639.405C346.477 640.028 347.987 652.495 349.408 656.503C352.074 663.894 355.716 668.079 355.716 673.957C355.716 679.834 355.005 703.166 350.741 713.674C346.477 724.182 340.258 748.493 340.258 748.493L447.933 747.869C447.933 747.869 444.024 701.474 445.623 685.533C445.623 685.533 443.935 679.122 447.133 669.86C452.375 654.544 453.885 631.746 452.997 628.184C451.664 622.574 484.624 670.039 491.82 682.06C494.841 687.047 453.885 695.863 450.509 699.693C446.956 703.7 453.974 714.564 453.974 714.564C453.974 714.564 525.402 705.837 525.047 694.884C524.691 683.931 485.779 598.263 469.876 583.748Z" fill="#FED385"/>
<path d="M386.1 454.534C386.1 454.534 366.111 455.336 360.337 476.352C354.562 497.368 353.762 526.666 353.585 531.207C353.407 536.016 355.628 564.156 344.878 575.911C335.639 586.063 339.37 595.859 337.06 603.962L335.994 617.409C336.172 619.012 337.327 620.348 338.837 620.882C340.258 621.327 345.234 619.012 346.122 618.656C358.56 613.669 358.56 609.662 363.268 605.654C367.177 602.359 377.927 594.701 381.125 591.673C384.324 588.646 386.545 585.974 386.722 582.145C387.344 562.643 383.968 544.654 379.704 535.126C375.439 525.597 367.266 509.479 374.107 498.793C380.948 488.107 393.296 477.42 394.007 474.749C394.718 472.077 395.073 485.079 402.625 489.621C410.176 494.162 416.484 500.485 418.794 506.629C420.748 511.794 423.325 520.61 416.217 535.838C409.11 551.066 403.335 570.657 413.374 585.173C423.414 599.688 444.558 615.361 448.022 622.663C451.931 630.767 448.2 649.824 447.489 661.311C446.779 672.799 469.877 641.364 469.167 626.403C468.456 611.443 470.943 605.031 456.64 582.056C442.337 559.081 433.008 519.72 432.653 510.191C432.298 500.663 428.033 474.215 419.416 466.645C411.953 460.234 410.354 454 395.073 454C392.053 454 389.032 454.178 386.1 454.534Z" fill="#3F3D56"/>
<path opacity="0.07" d="M340.525 772.982L441.448 773.516C441.448 773.516 429.633 782.777 423.947 783.846C418.261 784.915 393.919 797.026 384.857 792.395C378.46 788.922 340.525 772.982 340.525 772.982Z" fill="black"/>
<path opacity="0.07" d="M396.762 545.812C396.762 545.812 406.179 548.216 410.088 542.695C418.883 530.228 410.887 549.018 410.887 549.018C410.887 549.018 408.311 556.32 408.489 559.971C408.666 563.622 398.361 546.346 396.762 545.812Z" fill="black"/>
<path opacity="0.07" d="M359.093 609.929C357.938 611.354 356.25 612.511 355.361 616.162C353.851 622.04 352.252 628.63 348.165 634.685C345.767 638.247 347.099 652.05 351.097 660.777C352.252 663.271 355.806 669.771 355.717 671.285L355.45 683.931H366.289C366.289 683.931 375.528 684.91 373.574 677.252C371.886 670.484 363.091 645.282 369.043 639.761C380.237 629.52 366.111 609.038 371.353 602.449C375.884 596.749 382.369 592.653 382.369 590.783C382.369 590.07 380.681 592.386 379.526 593.187C377.305 594.79 376.15 596.037 374.284 597.284C372.241 598.619 369.132 600.846 367.088 602.359C364.157 604.586 361.491 607.079 359.093 609.929Z" fill="black"/>
<path d="M316.893 691.055C316.893 691.055 316.804 684.465 323.289 684.198C329.775 683.93 467.122 684.109 467.122 684.109C467.122 684.109 473.164 684.821 473.341 689.719C473.519 694.617 473.519 767.372 473.519 767.372C473.519 767.372 473.608 772.982 467.655 773.16C461.703 773.338 321.69 773.338 321.69 773.338C321.69 773.338 316.448 772.002 316.537 766.748C316.626 761.494 316.893 691.055 316.893 691.055Z" fill="white"/>
<path d="M395.605 734.69C398.892 734.69 401.557 732.018 401.557 728.723C401.557 725.428 398.892 722.757 395.605 722.757C392.317 722.757 389.652 725.428 389.652 728.723C389.652 732.018 392.317 734.69 395.605 734.69Z" fill="#6F0DCC" fill-opacity="0.6"/>
</g>
<g filter="url(#filter6_d)">
<rect x="151" y="85" width="402" height="249" rx="20" fill="white"/>
<rect x="152" y="86" width="400" height="247" rx="19" stroke="#6F0DCC" stroke-width="2"/>
</g>
<path d="M197 222C197 216.477 201.477 212 207 212H238C243.523 212 248 216.477 248 222V295H197V222Z" fill="#6F0DCC"/>
<path d="M279 180C279 174.477 283.477 170 289 170H320C325.523 170 330 174.477 330 180V295H279V180Z" fill="#DE8E68"/>
<path d="M443 134C443 128.477 447.477 124 453 124H484C489.523 124 494 128.477 494 134V296H443V134Z" fill="#FFC74C"/>
<rect x="197" y="308" width="51" height="10" rx="5" fill="#DFDFDF"/>
<rect x="279" y="308" width="51" height="10" rx="5" fill="#DFDFDF"/>
<rect x="361" y="308" width="51" height="10" rx="5" fill="#DFDFDF"/>
<rect x="443" y="308" width="51" height="10" rx="5" fill="#DFDFDF"/>
<path d="M361 158C361 152.477 365.477 148 371 148H402C407.523 148 412 152.477 412 158V295H361V158Z" fill="#FED385"/>
<g filter="url(#filter7_d)">
<rect x="823" y="672" width="369" height="221" rx="20" fill="white"/>
<rect x="824" y="673" width="367" height="219" rx="19" stroke="#DE8E68" stroke-width="2"/>
</g>
<path d="M866.5 700.5L866.5 851.5" stroke="#EEEEEE" stroke-width="3" stroke-linecap="round"/>
<path d="M920 701L920 852" stroke="#EEEEEE" stroke-width="3" stroke-linecap="round"/>
<path d="M973.5 701.5L973.5 852.5" stroke="#EEEEEE" stroke-width="3" stroke-linecap="round"/>
<path d="M1027 702L1027 853" stroke="#EEEEEE" stroke-width="3" stroke-linecap="round"/>
<path d="M1080.5 702.5L1080.5 853.5" stroke="#EEEEEE" stroke-width="3" stroke-linecap="round"/>
<path d="M1134 703L1134 854" stroke="#EEEEEE" stroke-width="3" stroke-linecap="round"/>
<circle cx="920" cy="788" r="3.5" fill="url(#paint0_linear)" stroke="url(#paint1_linear)" stroke-width="3"/>
<circle cx="974" cy="804" r="3.5" fill="url(#paint2_linear)" stroke="url(#paint3_linear)" stroke-width="3"/>
<circle cx="867" cy="821" r="3.5" fill="url(#paint4_linear)" stroke="url(#paint5_linear)" stroke-width="3"/>
<circle cx="1027" cy="758" r="3.5" fill="url(#paint6_linear)" stroke="url(#paint7_linear)" stroke-width="3"/>
<circle cx="1081" cy="777" r="3.5" fill="url(#paint8_linear)" stroke="url(#paint9_linear)" stroke-width="3"/>
<circle cx="1134" cy="730" r="3.5" fill="url(#paint10_linear)" stroke="url(#paint11_linear)" stroke-width="3"/>
<path d="M920.5 788.5L867 821.5V855.5H1134.5V730.5L1081 777L1027.5 758L974 804L920.5 788.5Z" fill="url(#paint12_linear)" fill-opacity="0.5" stroke="white" stroke-width="2" stroke-linecap="round" stroke-linejoin="round"/>
<path d="M1015.76 944.499C1018.38 944.499 1020.51 942.372 1020.51 939.749C1020.51 937.126 1018.38 935 1015.76 935C1013.13 935 1011 937.126 1011 939.749C1011 942.372 1013.13 944.499 1015.76 944.499Z" fill="#E0E0E0"/>
<path d="M1044.29 944.499C1046.92 944.499 1049.05 942.372 1049.05 939.749C1049.05 937.126 1046.92 935 1044.29 935C1041.67 935 1039.54 937.126 1039.54 939.749C1039.54 942.372 1041.67 944.499 1044.29 944.499Z" fill="#E0E0E0"/>
<path d="M1072.83 944.499C1075.46 944.499 1077.59 942.372 1077.59 939.749C1077.59 937.126 1075.46 935 1072.83 935C1070.2 935 1068.07 937.126 1068.07 939.749C1068.07 942.372 1070.2 944.499 1072.83 944.499Z" fill="#E0E0E0"/>
<path d="M1101.37 944.499C1103.99 944.499 1106.12 942.372 1106.12 939.749C1106.12 937.126 1103.99 935 1101.37 935C1098.74 935 1096.61 937.126 1096.61 939.749C1096.61 942.372 1098.74 944.499 1101.37 944.499Z" fill="#E0E0E0"/>
<path d="M1129.9 944.499C1132.53 944.499 1134.66 942.372 1134.66 939.749C1134.66 937.126 1132.53 935 1129.9 935C1127.28 935 1125.15 937.126 1125.15 939.749C1125.15 942.372 1127.28 944.499 1129.9 944.499Z" fill="#E0E0E0"/>
<path d="M1158.44 944.499C1161.07 944.499 1163.19 942.372 1163.19 939.749C1163.19 937.126 1161.07 935 1158.44 935C1155.81 935 1153.68 937.126 1153.68 939.749C1153.68 942.372 1155.81 944.499 1158.44 944.499Z" fill="#E0E0E0"/>
<path d="M1186.98 944.499C1189.6 944.499 1191.73 942.372 1191.73 939.749C1191.73 937.126 1189.6 935 1186.98 935C1184.35 935 1182.22 937.126 1182.22 939.749C1182.22 942.372 1184.35 944.499 1186.98 944.499Z" fill="#E0E0E0"/>
<path d="M1215.51 944.499C1218.14 944.499 1220.27 942.372 1220.27 939.749C1220.27 937.126 1218.14 935 1215.51 935C1212.89 935 1210.76 937.126 1210.76 939.749C1210.76 942.372 1212.89 944.499 1215.51 944.499Z" fill="#E0E0E0"/>
<path d="M1244.05 944.499C1246.68 944.499 1248.81 942.372 1248.81 939.749C1248.81 937.126 1246.68 935 1244.05 935C1241.42 935 1239.29 937.126 1239.29 939.749C1239.29 942.372 1241.42 944.499 1244.05 944.499Z" fill="#E0E0E0"/>
<path d="M1015.76 966.662C1018.38 966.662 1020.51 964.536 1020.51 961.913C1020.51 959.29 1018.38 957.163 1015.76 957.163C1013.13 957.163 1011 959.29 1011 961.913C1011 964.536 1013.13 966.662 1015.76 966.662Z" fill="#E0E0E0"/>
<path d="M1044.29 966.662C1046.92 966.662 1049.05 964.536 1049.05 961.913C1049.05 959.29 1046.92 957.163 1044.29 957.163C1041.67 957.163 1039.54 959.29 1039.54 961.913C1039.54 964.536 1041.67 966.662 1044.29 966.662Z" fill="#E0E0E0"/>
<path d="M1072.83 966.662C1075.46 966.662 1077.59 964.536 1077.59 961.913C1077.59 959.29 1075.46 957.163 1072.83 957.163C1070.2 957.163 1068.07 959.29 1068.07 961.913C1068.07 964.536 1070.2 966.662 1072.83 966.662Z" fill="#E0E0E0"/>
<path d="M1101.37 966.662C1103.99 966.662 1106.12 964.536 1106.12 961.913C1106.12 959.29 1103.99 957.163 1101.37 957.163C1098.74 957.163 1096.61 959.29 1096.61 961.913C1096.61 964.536 1098.74 966.662 1101.37 966.662Z" fill="#E0E0E0"/>
<path d="M1129.9 966.662C1132.53 966.662 1134.66 964.536 1134.66 961.913C1134.66 959.29 1132.53 957.163 1129.9 957.163C1127.28 957.163 1125.15 959.29 1125.15 961.913C1125.15 964.536 1127.28 966.662 1129.9 966.662Z" fill="#E0E0E0"/>
<path d="M1158.44 966.662C1161.07 966.662 1163.19 964.536 1163.19 961.913C1163.19 959.29 1161.07 957.163 1158.44 957.163C1155.81 957.163 1153.68 959.29 1153.68 961.913C1153.68 964.536 1155.81 966.662 1158.44 966.662Z" fill="#E0E0E0"/>
<path d="M1186.98 966.662C1189.6 966.662 1191.73 964.536 1191.73 961.913C1191.73 959.29 1189.6 957.163 1186.98 957.163C1184.35 957.163 1182.22 959.29 1182.22 961.913C1182.22 964.536 1184.35 966.662 1186.98 966.662Z" fill="#E0E0E0"/>
<path d="M1215.51 966.662C1218.14 966.662 1220.27 964.536 1220.27 961.913C1220.27 959.29 1218.14 957.163 1215.51 957.163C1212.89 957.163 1210.76 959.29 1210.76 961.913C1210.76 964.536 1212.89 966.662 1215.51 966.662Z" fill="#E0E0E0"/>
<path d="M1244.05 966.662C1246.68 966.662 1248.81 964.536 1248.81 961.913C1248.81 959.29 1246.68 957.163 1244.05 957.163C1241.42 957.163 1239.29 959.29 1239.29 961.913C1239.29 964.536 1241.42 966.662 1244.05 966.662Z" fill="#E0E0E0"/>
<path d="M1015.76 988.825C1018.38 988.825 1020.51 986.699 1020.51 984.076C1020.51 981.453 1018.38 979.327 1015.76 979.327C1013.13 979.327 1011 981.453 1011 984.076C1011 986.699 1013.13 988.825 1015.76 988.825Z" fill="#E0E0E0"/>
<path d="M1044.29 988.825C1046.92 988.825 1049.05 986.699 1049.05 984.076C1049.05 981.453 1046.92 979.327 1044.29 979.327C1041.67 979.327 1039.54 981.453 1039.54 984.076C1039.54 986.699 1041.67 988.825 1044.29 988.825Z" fill="#E0E0E0"/>
<path d="M1072.83 988.825C1075.46 988.825 1077.59 986.699 1077.59 984.076C1077.59 981.453 1075.46 979.327 1072.83 979.327C1070.2 979.327 1068.07 981.453 1068.07 984.076C1068.07 986.699 1070.2 988.825 1072.83 988.825Z" fill="#E0E0E0"/>
<path d="M1101.37 988.825C1103.99 988.825 1106.12 986.699 1106.12 984.076C1106.12 981.453 1103.99 979.327 1101.37 979.327C1098.74 979.327 1096.61 981.453 1096.61 984.076C1096.61 986.699 1098.74 988.825 1101.37 988.825Z" fill="#E0E0E0"/>
<path d="M1129.9 988.825C1132.53 988.825 1134.66 986.699 1134.66 984.076C1134.66 981.453 1132.53 979.327 1129.9 979.327C1127.28 979.327 1125.15 981.453 1125.15 984.076C1125.15 986.699 1127.28 988.825 1129.9 988.825Z" fill="#E0E0E0"/>
<path d="M1158.44 988.825C1161.07 988.825 1163.19 986.699 1163.19 984.076C1163.19 981.453 1161.07 979.327 1158.44 979.327C1155.81 979.327 1153.68 981.453 1153.68 984.076C1153.68 986.699 1155.81 988.825 1158.44 988.825Z" fill="#E0E0E0"/>
<path d="M1186.98 988.825C1189.6 988.825 1191.73 986.699 1191.73 984.076C1191.73 981.453 1189.6 979.327 1186.98 979.327C1184.35 979.327 1182.22 981.453 1182.22 984.076C1182.22 986.699 1184.35 988.825 1186.98 988.825Z" fill="#E0E0E0"/>
<path d="M1215.51 988.825C1218.14 988.825 1220.27 986.699 1220.27 984.076C1220.27 981.453 1218.14 979.327 1215.51 979.327C1212.89 979.327 1210.76 981.453 1210.76 984.076C1210.76 986.699 1212.89 988.825 1215.51 988.825Z" fill="#E0E0E0"/>
<path d="M1244.05 988.825C1246.68 988.825 1248.81 986.699 1248.81 984.076C1248.81 981.453 1246.68 979.327 1244.05 979.327C1241.42 979.327 1239.29 981.453 1239.29 984.076C1239.29 986.699 1241.42 988.825 1244.05 988.825Z" fill="#E0E0E0"/>
<defs>
<filter id="filter0_d" x="437" y="263" width="665" height="79" filterUnits="userSpaceOnUse" color-interpolation-filters="sRGB">
<feFlood flood-opacity="0" result="BackgroundImageFix"/>
<feColorMatrix in="SourceAlpha" type="matrix" values="0 0 0 0 0 0 0 0 0 0 0 0 0 0 0 0 0 0 127 0"/>
<feOffset dy="4"/>
<feGaussianBlur stdDeviation="2"/>
<feColorMatrix type="matrix" values="0 0 0 0 0 0 0 0 0 0 0 0 0 0 0 0 0 0 0.05 0"/>
<feBlend mode="normal" in2="BackgroundImageFix" result="effect1_dropShadow"/>
<feBlend mode="normal" in="SourceGraphic" in2="effect1_dropShadow" result="shape"/>
</filter>
<filter id="filter1_d" x="483" y="365" width="187" height="187" filterUnits="userSpaceOnUse" color-interpolation-filters="sRGB">
<feFlood flood-opacity="0" result="BackgroundImageFix"/>
<feColorMatrix in="SourceAlpha" type="matrix" values="0 0 0 0 0 0 0 0 0 0 0 0 0 0 0 0 0 0 127 0"/>
<feOffset dy="4"/>
<feGaussianBlur stdDeviation="2"/>
<feColorMatrix type="matrix" values="0 0 0 0 0 0 0 0 0 0 0 0 0 0 0 0 0 0 0.05 0"/>
<feBlend mode="normal" in2="BackgroundImageFix" result="effect1_dropShadow"/>
<feBlend mode="normal" in="SourceGraphic" in2="effect1_dropShadow" result="shape"/>
</filter>
<filter id="filter2_d" x="676" y="365" width="187" height="187" filterUnits="userSpaceOnUse" color-interpolation-filters="sRGB">
<feFlood flood-opacity="0" result="BackgroundImageFix"/>
<feColorMatrix in="SourceAlpha" type="matrix" values="0 0 0 0 0 0 0 0 0 0 0 0 0 0 0 0 0 0 127 0"/>
<feOffset dy="4"/>
<feGaussianBlur stdDeviation="2"/>
<feColorMatrix type="matrix" values="0 0 0 0 0 0 0 0 0 0 0 0 0 0 0 0 0 0 0.05 0"/>
<feBlend mode="normal" in2="BackgroundImageFix" result="effect1_dropShadow"/>
<feBlend mode="normal" in="SourceGraphic" in2="effect1_dropShadow" result="shape"/>
</filter>
<filter id="filter3_d" x="869" y="365" width="187" height="187" filterUnits="userSpaceOnUse" color-interpolation-filters="sRGB">
<feFlood flood-opacity="0" result="BackgroundImageFix"/>
<feColorMatrix in="SourceAlpha" type="matrix" values="0 0 0 0 0 0 0 0 0 0 0 0 0 0 0 0 0 0 127 0"/>
<feOffset dy="4"/>
<feGaussianBlur stdDeviation="2"/>
<feColorMatrix type="matrix" values="0 0 0 0 0 0 0 0 0 0 0 0 0 0 0 0 0 0 0.05 0"/>
<feBlend mode="normal" in2="BackgroundImageFix" result="effect1_dropShadow"/>
<feBlend mode="normal" in="SourceGraphic" in2="effect1_dropShadow" result="shape"/>
</filter>
<filter id="filter4_d" x="678" y="572" width="378" height="105" filterUnits="userSpaceOnUse" color-interpolation-filters="sRGB">
<feFlood flood-opacity="0" result="BackgroundImageFix"/>
<feColorMatrix in="SourceAlpha" type="matrix" values="0 0 0 0 0 0 0 0 0 0 0 0 0 0 0 0 0 0 127 0"/>
<feOffset dy="4"/>
<feGaussianBlur stdDeviation="2"/>
<feColorMatrix type="matrix" values="0 0 0 0 0 0 0 0 0 0 0 0 0 0 0 0 0 0 0.05 0"/>
<feBlend mode="normal" in2="BackgroundImageFix" result="effect1_dropShadow"/>
<feBlend mode="normal" in="SourceGraphic" in2="effect1_dropShadow" result="shape"/>
</filter>
<filter id="filter5_d" x="678" y="681" width="378" height="105" filterUnits="userSpaceOnUse" color-interpolation-filters="sRGB">
<feFlood flood-opacity="0" result="BackgroundImageFix"/>
<feColorMatrix in="SourceAlpha" type="matrix" values="0 0 0 0 0 0 0 0 0 0 0 0 0 0 0 0 0 0 127 0"/>
<feOffset dy="4"/>
<feGaussianBlur stdDeviation="2"/>
<feColorMatrix type="matrix" values="0 0 0 0 0 0 0 0 0 0 0 0 0 0 0 0 0 0 0.05 0"/>
<feBlend mode="normal" in2="BackgroundImageFix" result="effect1_dropShadow"/>
<feBlend mode="normal" in="SourceGraphic" in2="effect1_dropShadow" result="shape"/>
</filter>
<filter id="filter6_d" x="147" y="85" width="410" height="257" filterUnits="userSpaceOnUse" color-interpolation-filters="sRGB">
<feFlood flood-opacity="0" result="BackgroundImageFix"/>
<feColorMatrix in="SourceAlpha" type="matrix" values="0 0 0 0 0 0 0 0 0 0 0 0 0 0 0 0 0 0 127 0"/>
<feOffset dy="4"/>
<feGaussianBlur stdDeviation="2"/>
<feColorMatrix type="matrix" values="0 0 0 0 0 0 0 0 0 0 0 0 0 0 0 0 0 0 0.15 0"/>
<feBlend mode="normal" in2="BackgroundImageFix" result="effect1_dropShadow"/>
<feBlend mode="normal" in="SourceGraphic" in2="effect1_dropShadow" result="shape"/>
</filter>
<filter id="filter7_d" x="819" y="672" width="377" height="229" filterUnits="userSpaceOnUse" color-interpolation-filters="sRGB">
<feFlood flood-opacity="0" result="BackgroundImageFix"/>
<feColorMatrix in="SourceAlpha" type="matrix" values="0 0 0 0 0 0 0 0 0 0 0 0 0 0 0 0 0 0 127 0"/>
<feOffset dy="4"/>
<feGaussianBlur stdDeviation="2"/>
<feColorMatrix type="matrix" values="0 0 0 0 0 0 0 0 0 0 0 0 0 0 0 0 0 0 0.15 0"/>
<feBlend mode="normal" in2="BackgroundImageFix" result="effect1_dropShadow"/>
<feBlend mode="normal" in="SourceGraphic" in2="effect1_dropShadow" result="shape"/>
</filter>
<linearGradient id="paint0_linear" x1="920" y1="783" x2="920" y2="793" gradientUnits="userSpaceOnUse">
<stop stop-color="white"/>
<stop offset="1" stop-color="white" stop-opacity="0"/>
</linearGradient>
<linearGradient id="paint1_linear" x1="920" y1="783" x2="920" y2="793" gradientUnits="userSpaceOnUse">
<stop stop-color="#6F0DCC"/>
<stop offset="1" stop-color="#DE8E68"/>
</linearGradient>
<linearGradient id="paint2_linear" x1="974" y1="799" x2="974" y2="809" gradientUnits="userSpaceOnUse">
<stop stop-color="white"/>
<stop offset="1" stop-color="white" stop-opacity="0"/>
</linearGradient>
<linearGradient id="paint3_linear" x1="974" y1="799" x2="974" y2="809" gradientUnits="userSpaceOnUse">
<stop stop-color="#6F0DCC"/>
<stop offset="1" stop-color="#DE8E68"/>
</linearGradient>
<linearGradient id="paint4_linear" x1="867" y1="816" x2="867" y2="826" gradientUnits="userSpaceOnUse">
<stop stop-color="white"/>
<stop offset="1" stop-color="white" stop-opacity="0"/>
</linearGradient>
<linearGradient id="paint5_linear" x1="867" y1="816" x2="867" y2="826" gradientUnits="userSpaceOnUse">
<stop stop-color="#6F0DCC"/>
<stop offset="1" stop-color="#DE8E68"/>
</linearGradient>
<linearGradient id="paint6_linear" x1="1027" y1="753" x2="1027" y2="763" gradientUnits="userSpaceOnUse">
<stop stop-color="white"/>
<stop offset="1" stop-color="white" stop-opacity="0"/>
</linearGradient>
<linearGradient id="paint7_linear" x1="1027" y1="753" x2="1027" y2="763" gradientUnits="userSpaceOnUse">
<stop stop-color="#6F0DCC"/>
<stop offset="1" stop-color="#DE8E68"/>
</linearGradient>
<linearGradient id="paint8_linear" x1="1081" y1="772" x2="1081" y2="782" gradientUnits="userSpaceOnUse">
<stop stop-color="white"/>
<stop offset="1" stop-color="white" stop-opacity="0"/>
</linearGradient>
<linearGradient id="paint9_linear" x1="1081" y1="772" x2="1081" y2="782" gradientUnits="userSpaceOnUse">
<stop stop-color="#6F0DCC"/>
<stop offset="1" stop-color="#DE8E68"/>
</linearGradient>
<linearGradient id="paint10_linear" x1="1134" y1="725" x2="1134" y2="735" gradientUnits="userSpaceOnUse">
<stop stop-color="white"/>
<stop offset="1" stop-color="white" stop-opacity="0"/>
</linearGradient>
<linearGradient id="paint11_linear" x1="1134" y1="725" x2="1134" y2="735" gradientUnits="userSpaceOnUse">
<stop stop-color="#6F0DCC"/>
<stop offset="1" stop-color="#DE8E68"/>
</linearGradient>
<linearGradient id="paint12_linear" x1="920" y1="824" x2="1056.5" y2="824.5" gradientUnits="userSpaceOnUse">
<stop stop-color="#6F0DCC"/>
<stop offset="1" stop-color="#FED385"/>
</linearGradient>
<clipPath id="clip0">
<rect width="260" height="221" fill="white" transform="translate(0 186)"/>
</clipPath>
<clipPath id="clip1">
<rect width="260" height="221" fill="white" transform="translate(968)"/>
</clipPath>
<clipPath id="clip2">
<rect width="387" height="597" fill="white" transform="translate(152 454)"/>
</clipPath>
</defs>
</svg>
