<svg width="530" height="452" viewBox="0 0 530 452" fill="none" xmlns="http://www.w3.org/2000/svg">
<g opacity="0.5">
<path opacity="0.5" d="M365.165 50.8423H94.0347V423.488H365.165V50.8423Z" fill="url(#paint0_linear)"/>
</g>
<path d="M360.224 55.8962H97.5674V415.541H360.224V55.8962Z" fill="#F2F2F2"/>
<path d="M208.418 71.0646H118.043V73.9518H208.418V71.0646Z" fill="#E0E0E0"/>
<path opacity="0.7" d="M208.418 84.0599H118.043V86.9472H208.418V84.0599Z" fill="#6F0DCC"/>
<path d="M312.208 71.0646H221.833V73.9518H312.208V71.0646Z" fill="#E0E0E0"/>
<path d="M326.327 153.394H235.953V156.282H326.327V153.394Z" fill="#E0E0E0"/>
<path d="M328.446 161.336H238.071V164.223H328.446V161.336Z" fill="#E0E0E0"/>
<path d="M332.683 169.277H242.308V172.164H332.683V169.277Z" fill="#E0E0E0"/>
<path d="M326.327 281.217H235.953V284.104H326.327V281.217Z" fill="#E0E0E0"/>
<path d="M328.446 289.165H238.071V292.052H328.446V289.165Z" fill="#E0E0E0"/>
<path d="M332.683 297.106H242.308V299.993H332.683V297.106Z" fill="#E0E0E0"/>
<g opacity="0.5">
<path opacity="0.5" d="M214.773 123.784H118.747V223.443H214.773V123.784Z" fill="url(#paint1_linear)"/>
</g>
<path d="M213.861 125.951H119.353V221.276H213.861V125.951Z" fill="#F5F5F5"/>
<g opacity="0.5">
<path opacity="0.5" d="M210.83 131.726H122.684V193.833H210.83V131.726Z" fill="url(#paint2_linear)"/>
</g>
<path d="M210.224 132.446H123.29V192.387H210.224V132.446Z" fill="white"/>
<path opacity="0.4" d="M115.924 190.226L137.814 155.555L146.992 170.724L166.757 149.781L183.705 170.724L198.535 139.673L236.663 201.781L113.101 197.447L115.924 190.226Z" fill="#6C63FF"/>
<path opacity="0.4" d="M132.867 147.614C136.377 147.614 139.222 144.704 139.222 141.113C139.222 137.523 136.377 134.613 132.867 134.613C129.356 134.613 126.511 137.523 126.511 141.113C126.511 144.704 129.356 147.614 132.867 147.614Z" fill="#6C63FF"/>
<g opacity="0.5">
<path opacity="0.5" d="M214.773 251.607H118.747V351.266H214.773V251.607Z" fill="url(#paint3_linear)"/>
</g>
<path d="M213.861 253.774H119.353V349.099H213.861V253.774Z" fill="#F5F5F5"/>
<g opacity="0.5">
<path opacity="0.5" d="M210.83 259.554H122.684V321.662H210.83V259.554Z" fill="url(#paint4_linear)"/>
</g>
<path d="M210.224 260.275H123.29V320.215H210.224V260.275Z" fill="white"/>
<path opacity="0.4" d="M115.924 318.048L137.814 283.384L146.992 298.552L166.757 277.61L183.705 298.552L198.535 267.496L236.663 329.603L113.101 325.27L115.924 318.048Z" fill="#BDBDBD"/>
<path opacity="0.4" d="M132.867 275.443C136.377 275.443 139.222 272.532 139.222 268.942C139.222 265.352 136.377 262.442 132.867 262.442C129.356 262.442 126.511 265.352 126.511 268.942C126.511 272.532 129.356 275.443 132.867 275.443Z" fill="#BDBDBD"/>
<g opacity="0.5">
<path opacity="0.5" d="M204.857 32.4294L133.842 397.928L399.772 451.983L470.787 86.4845L204.857 32.4294Z" fill="url(#paint5_linear)"/>
</g>
<path d="M207.352 38.0921L138.815 390.838L396.433 443.204L464.97 90.4577L207.352 38.0921Z" fill="white"/>
<path d="M405.736 95.3423L222.911 58.1797L222.36 61.0115L405.186 98.1742L405.736 95.3423Z" fill="#E0E0E0"/>
<path d="M353.713 363.099L170.887 325.936L170.337 328.768L353.162 365.931L353.713 363.099Z" fill="#E0E0E0"/>
<path d="M308.996 370.946L167.722 342.23L167.172 345.062L308.446 373.778L308.996 370.946Z" fill="#E0E0E0"/>
<path opacity="0.7" d="M217.193 369.217L164.56 358.519L164.01 361.351L216.642 372.049L217.193 369.217Z" fill="#6F0DCC"/>
<path opacity="0.7" d="M311.16 93.0602L219.749 74.4795L219.199 77.3113L310.609 95.8921L311.16 93.0602Z" fill="#6F0DCC"/>
<path d="M381.406 124.27L216.585 90.7675L216.034 93.5993L380.856 127.102L381.406 124.27Z" fill="#E0E0E0"/>
<path opacity="0.7" d="M253.586 115.225L213.421 107.061L212.871 109.893L253.036 118.057L253.586 115.225Z" fill="#3AD29F"/>
<path d="M393.076 160.512L210.25 123.35L209.7 126.182L392.526 163.344L393.076 160.512Z" fill="#E0E0E0"/>
<g opacity="0.5">
<path opacity="0.5" d="M226.367 192.162L207.649 288.496L371.774 321.858L390.491 225.523L226.367 192.162Z" fill="url(#paint6_linear)"/>
</g>
<path d="M389.35 226.025L227.298 193.085L208.993 287.294L371.046 320.234L389.35 226.025Z" fill="white"/>
<path d="M389.911 176.804L207.085 139.641L206.535 142.473L389.361 179.636L389.911 176.804Z" fill="#E0E0E0"/>
<path d="M261.872 213.364L241.79 209.282L228.441 277.987L248.523 282.07L261.872 213.364Z" fill="#6F0DCC"/>
<path d="M293.478 243.355L273.396 239.273L264.451 285.312L284.533 289.394L293.478 243.355Z" fill="#3AD29F"/>
<path d="M325.361 271.918L305.279 267.836L300.462 292.628L320.544 296.71L325.361 271.918Z" fill="#F55F44"/>
<path d="M366.326 253.742L346.243 249.66L336.472 299.95L356.555 304.032L366.326 253.742Z" fill="#FDD835"/>
<g opacity="0.5">
<path opacity="0.5" d="M76.3822 380.882H74.2637V393.157H76.3822V380.882Z" fill="#47E6B1"/>
<path opacity="0.5" d="M81.3293 388.103V385.936H69.3282V388.103H81.3293Z" fill="#47E6B1"/>
</g>
<path opacity="0.5" d="M322.402 4.91819C321.819 4.65819 321.349 4.18776 321.083 3.59651C320.817 3.00527 320.773 2.33455 320.959 1.71214C320.99 1.61641 321.009 1.51731 321.017 1.41692C321.026 1.13835 320.95 0.863827 320.798 0.632201C320.646 0.400576 320.427 0.223586 320.172 0.126289C319.917 0.0289927 319.638 0.016318 319.375 0.0900584C319.112 0.163799 318.879 0.320219 318.708 0.537176C318.65 0.61769 318.601 0.704886 318.563 0.796968C318.309 1.39368 317.849 1.87389 317.271 2.1461C316.693 2.41832 316.037 2.4635 315.429 2.27305C315.335 2.24178 315.238 2.22196 315.14 2.21401C314.868 2.20441 314.6 2.28268 314.373 2.43774C314.147 2.59279 313.974 2.81676 313.878 3.07796C313.783 3.33916 313.771 3.62435 313.843 3.89315C313.915 4.16195 314.068 4.40075 314.28 4.57574C314.359 4.63495 314.444 4.68449 314.534 4.72335C315.118 4.98334 315.587 5.45378 315.853 6.04502C316.119 6.63626 316.163 7.30699 315.977 7.9294C315.947 8.02513 315.927 8.12422 315.92 8.22461C315.91 8.50318 315.987 8.77771 316.138 9.00933C316.29 9.24096 316.509 9.41795 316.764 9.51525C317.02 9.61254 317.298 9.62522 317.561 9.55148C317.824 9.47774 318.058 9.32131 318.229 9.10436C318.286 9.02384 318.335 8.93665 318.373 8.84457C318.627 8.24785 319.087 7.76764 319.665 7.49543C320.243 7.22322 320.899 7.17803 321.507 7.36848C321.601 7.39975 321.698 7.41957 321.796 7.42753C322.068 7.43712 322.337 7.35885 322.563 7.2038C322.79 7.04875 322.963 6.82477 323.058 6.56357C323.153 6.30237 323.165 6.01718 323.093 5.74838C323.021 5.47958 322.868 5.24078 322.656 5.06579C322.577 5.00658 322.492 4.95704 322.402 4.91819Z" fill="#4D8AF0"/>
<path opacity="0.5" d="M83.9327 66.2288C83.3493 65.9688 82.8798 65.4984 82.6137 64.9072C82.3476 64.3159 82.3034 63.6452 82.4896 63.0228C82.5202 62.9271 82.5395 62.828 82.5473 62.7276C82.5567 62.449 82.4802 62.1745 82.3286 61.9429C82.177 61.7112 81.958 61.5343 81.7026 61.437C81.4473 61.3397 81.1685 61.327 80.9057 61.4007C80.6429 61.4745 80.4094 61.6309 80.2383 61.8478C80.1804 61.9284 80.132 62.0156 80.094 62.1076C79.8398 62.7043 79.3799 63.1846 78.8018 63.4568C78.2238 63.729 77.568 63.7742 76.9595 63.5837C76.8659 63.5524 76.769 63.5326 76.6709 63.5247C76.3985 63.5151 76.1301 63.5933 75.9037 63.7484C75.6772 63.9035 75.5042 64.1274 75.409 64.3886C75.3139 64.6498 75.3015 64.935 75.3736 65.2038C75.4457 65.4726 75.5986 65.7114 75.8108 65.8864C75.8895 65.9456 75.9747 65.9952 76.0648 66.034C76.6481 66.294 77.1176 66.7644 77.3838 67.3557C77.6499 67.9469 77.6941 68.6176 77.5079 69.24C77.4773 69.3358 77.4579 69.4349 77.4502 69.5353C77.4408 69.8138 77.5173 70.0884 77.6689 70.32C77.8205 70.5516 78.0395 70.7286 78.2948 70.8259C78.5502 70.9232 78.829 70.9359 79.0918 70.8621C79.3546 70.7884 79.5881 70.632 79.7592 70.415C79.8171 70.3345 79.8655 70.2473 79.9035 70.1552C80.1577 69.5585 80.6176 69.0783 81.1957 68.8061C81.7737 68.5339 82.4295 68.4887 83.038 68.6791C83.1316 68.7104 83.2285 68.7302 83.3266 68.7382C83.599 68.7478 83.8674 68.6695 84.0938 68.5144C84.3203 68.3594 84.4933 68.1354 84.5884 67.8742C84.6836 67.613 84.696 67.3278 84.6239 67.059C84.5518 66.7902 84.3988 66.5514 84.1867 66.3764C84.108 66.3172 84.0227 66.2677 83.9327 66.2288Z" fill="#FDD835"/>
<path opacity="0.5" d="M65.0565 246.346C64.4731 246.086 64.0036 245.616 63.7375 245.025C63.4713 244.433 63.4272 243.763 63.6134 243.14C63.6439 243.045 63.6633 242.945 63.6711 242.845C63.6805 242.566 63.6039 242.292 63.4523 242.06C63.3008 241.829 63.0818 241.652 62.8264 241.554C62.571 241.457 62.2922 241.444 62.0294 241.518C61.7666 241.592 61.5331 241.748 61.3621 241.965C61.3042 242.046 61.2557 242.133 61.2177 242.225C60.9636 242.822 60.5036 243.302 59.9256 243.574C59.3475 243.846 58.6918 243.892 58.0833 243.701C57.9897 243.67 57.8928 243.65 57.7946 243.642C57.5223 243.633 57.2539 243.711 57.0274 243.866C56.801 244.021 56.6279 244.245 56.5328 244.506C56.4377 244.767 56.4253 245.052 56.4974 245.321C56.5695 245.59 56.7224 245.829 56.9345 246.004C57.0132 246.063 57.0985 246.113 57.1885 246.151C57.7719 246.411 58.2414 246.882 58.5075 247.473C58.7737 248.064 58.8178 248.735 58.6317 249.358C58.6011 249.453 58.5817 249.552 58.5739 249.653C58.5645 249.931 58.6411 250.206 58.7927 250.437C58.9442 250.669 59.1632 250.846 59.4186 250.943C59.674 251.041 59.9528 251.053 60.2156 250.98C60.4784 250.906 60.7119 250.749 60.8829 250.532C60.9408 250.452 60.9893 250.365 61.0273 250.273C61.2814 249.676 61.7414 249.196 62.3194 248.924C62.8975 248.651 63.5532 248.606 64.1617 248.797C64.2553 248.828 64.3522 248.848 64.4504 248.856C64.7227 248.865 64.9911 248.787 65.2176 248.632C65.444 248.477 65.6171 248.253 65.7122 247.992C65.8073 247.73 65.8197 247.445 65.7476 247.177C65.6755 246.908 65.5226 246.669 65.3105 246.494C65.2318 246.435 65.1465 246.385 65.0565 246.346Z" fill="#FDD835"/>
<path opacity="0.5" d="M195.002 21.232C197.342 21.232 199.239 19.2917 199.239 16.8982C199.239 14.5048 197.342 12.5645 195.002 12.5645C192.662 12.5645 190.765 14.5048 190.765 16.8982C190.765 19.2917 192.662 21.232 195.002 21.232Z" fill="#F55F44"/>
<path opacity="0.5" d="M4.23704 191.773C6.5771 191.773 8.47409 189.832 8.47409 187.439C8.47409 185.045 6.5771 183.105 4.23704 183.105C1.89699 183.105 0 185.045 0 187.439C0 189.832 1.89699 191.773 4.23704 191.773Z" fill="#F55F44"/>
<path opacity="0.5" d="M498.609 75.3983C500.949 75.3983 502.846 73.458 502.846 71.0645C502.846 68.671 500.949 66.7307 498.609 66.7307C496.269 66.7307 494.372 68.671 494.372 71.0645C494.372 73.458 496.269 75.3983 498.609 75.3983Z" fill="#F55F44"/>
<path opacity="0.5" d="M474.601 204.668C476.941 204.668 478.838 202.727 478.838 200.334C478.838 197.94 476.941 196 474.601 196C472.261 196 470.364 197.94 470.364 200.334C470.364 202.727 472.261 204.668 474.601 204.668Z" fill="#4D8AF0"/>
<path opacity="0.5" d="M21.751 90.0765C24.091 90.0765 25.988 88.1362 25.988 85.7427C25.988 83.3492 24.091 81.4089 21.751 81.4089C19.4109 81.4089 17.5139 83.3492 17.5139 85.7427C17.5139 88.1362 19.4109 90.0765 21.751 90.0765Z" fill="#47E6B1"/>
<path opacity="0.5" d="M492.565 386.545C494.905 386.545 496.802 384.604 496.802 382.211C496.802 379.817 494.905 377.877 492.565 377.877C490.225 377.877 488.328 379.817 488.328 382.211C488.328 384.604 490.225 386.545 492.565 386.545Z" fill="#47E6B1"/>
<path opacity="0.5" d="M525.763 258.793C528.103 258.793 530 256.852 530 254.459C530 252.065 528.103 250.125 525.763 250.125C523.423 250.125 521.526 252.065 521.526 254.459C521.526 256.852 523.423 258.793 525.763 258.793Z" fill="#47E6B1"/>
<path d="M421.915 354.88H314.269V445.257H421.915V354.88Z" fill="url(#paint7_linear)"/>
<path d="M336.476 337.592C336.476 329.05 339.793 320.857 345.699 314.817C351.604 308.777 359.613 305.384 367.965 305.384C376.316 305.384 384.326 308.777 390.231 314.817C396.136 320.857 399.454 329.05 399.454 337.592V358.204H408.269V337.592C408.269 326.658 404.022 316.172 396.463 308.44C388.904 300.708 378.652 296.365 367.962 296.365C357.272 296.365 347.02 300.708 339.461 308.44C331.902 316.172 327.655 326.658 327.655 337.592V358.204H336.47L336.476 337.592Z" fill="url(#paint8_linear)"/>
<path d="M337.734 337.149C337.734 328.948 340.919 321.083 346.588 315.285C352.258 309.486 359.947 306.228 367.965 306.228C375.983 306.228 383.672 309.486 389.341 315.285C395.011 321.083 398.196 328.948 398.196 337.149V356.94H406.658V337.149C406.658 326.653 402.582 316.586 395.325 309.164C388.069 301.742 378.227 297.572 367.965 297.572C357.703 297.572 347.861 301.742 340.605 309.164C333.348 316.586 329.272 326.653 329.272 337.149V356.94H337.734V337.149Z" fill="#F5F5F5"/>
<path d="M420.564 355.706H315.365V443.521H420.564V355.706Z" fill="#6C63FF"/>
<path d="M420.564 355.706H315.365V443.521H420.564V355.706Z" fill="#F5F5F5"/>
<path d="M420.564 373.018H315.365V426.198H420.564V373.018Z" fill="#6F0DCC"/>
<path d="M375.677 389.55C375.678 388.262 375.372 386.994 374.783 385.855C374.195 384.716 373.343 383.742 372.302 383.018C371.261 382.294 370.062 381.841 368.811 381.7C367.559 381.559 366.293 381.733 365.123 382.208C363.952 382.682 362.913 383.443 362.096 384.423C361.279 385.403 360.709 386.573 360.436 387.83C360.163 389.087 360.195 390.393 360.529 391.635C360.864 392.877 361.49 394.016 362.354 394.953V411.786C362.354 413.308 362.945 414.768 363.997 415.844C365.05 416.92 366.477 417.525 367.965 417.525C369.453 417.525 370.88 416.92 371.932 415.844C372.985 414.768 373.576 413.308 373.576 411.786V394.97C374.93 393.506 375.683 391.566 375.677 389.55Z" fill="url(#paint9_linear)"/>
<path opacity="0.2" d="M374.615 390.955C374.616 389.845 374.352 388.751 373.844 387.769C373.337 386.787 372.603 385.947 371.705 385.322C370.807 384.698 369.773 384.307 368.694 384.186C367.615 384.064 366.523 384.214 365.514 384.623C364.505 385.033 363.609 385.689 362.904 386.534C362.2 387.379 361.708 388.387 361.473 389.472C361.238 390.556 361.265 391.682 361.554 392.753C361.842 393.824 362.382 394.806 363.127 395.614V410.126C363.127 411.439 363.637 412.697 364.544 413.625C365.451 414.553 366.682 415.074 367.965 415.074C369.248 415.074 370.478 414.553 371.385 413.625C372.293 412.697 372.802 411.439 372.802 410.126V395.614C373.967 394.355 374.616 392.688 374.615 390.955Z" fill="black"/>
<defs>
<linearGradient id="paint0_linear" x1="229.597" y1="423.488" x2="229.597" y2="50.8423" gradientUnits="userSpaceOnUse">
<stop stop-color="#808080" stop-opacity="0.25"/>
<stop offset="0.54" stop-color="#808080" stop-opacity="0.12"/>
<stop offset="1" stop-color="#808080" stop-opacity="0.1"/>
</linearGradient>
<linearGradient id="paint1_linear" x1="27858.8" y1="37838.8" x2="27858.8" y2="21017.3" gradientUnits="userSpaceOnUse">
<stop stop-color="#808080" stop-opacity="0.25"/>
<stop offset="0.54" stop-color="#808080" stop-opacity="0.12"/>
<stop offset="1" stop-color="#808080" stop-opacity="0.1"/>
</linearGradient>
<linearGradient id="paint2_linear" x1="25586.5" y1="20521" x2="25586.5" y2="13987.9" gradientUnits="userSpaceOnUse">
<stop stop-color="#808080" stop-opacity="0.25"/>
<stop offset="0.54" stop-color="#808080" stop-opacity="0.12"/>
<stop offset="1" stop-color="#808080" stop-opacity="0.1"/>
</linearGradient>
<linearGradient id="paint3_linear" x1="27858.8" y1="59542.8" x2="27858.8" y2="42720.3" gradientUnits="userSpaceOnUse">
<stop stop-color="#808080" stop-opacity="0.25"/>
<stop offset="0.54" stop-color="#808080" stop-opacity="0.12"/>
<stop offset="1" stop-color="#808080" stop-opacity="0.1"/>
</linearGradient>
<linearGradient id="paint4_linear" x1="25586.5" y1="34095.2" x2="25586.5" y2="27562.1" gradientUnits="userSpaceOnUse">
<stop stop-color="#808080" stop-opacity="0.25"/>
<stop offset="0.54" stop-color="#808080" stop-opacity="0.12"/>
<stop offset="1" stop-color="#808080" stop-opacity="0.1"/>
</linearGradient>
<linearGradient id="paint5_linear" x1="199938" y1="255681" x2="234773" y2="84311.3" gradientUnits="userSpaceOnUse">
<stop stop-color="#808080" stop-opacity="0.25"/>
<stop offset="0.54" stop-color="#808080" stop-opacity="0.12"/>
<stop offset="1" stop-color="#808080" stop-opacity="0.1"/>
</linearGradient>
<linearGradient id="paint6_linear" x1="45394.3" y1="105965" x2="51060.7" y2="78088.3" gradientUnits="userSpaceOnUse">
<stop stop-color="#808080" stop-opacity="0.25"/>
<stop offset="0.54" stop-color="#808080" stop-opacity="0.12"/>
<stop offset="1" stop-color="#808080" stop-opacity="0.1"/>
</linearGradient>
<linearGradient id="paint7_linear" x1="68956" y1="68510.4" x2="68956" y2="54676.3" gradientUnits="userSpaceOnUse">
<stop stop-color="#808080" stop-opacity="0.25"/>
<stop offset="0.54" stop-color="#808080" stop-opacity="0.12"/>
<stop offset="1" stop-color="#808080" stop-opacity="0.1"/>
</linearGradient>
<linearGradient id="paint8_linear" x1="63074.8" y1="41967.2" x2="63074.8" y2="35490.8" gradientUnits="userSpaceOnUse">
<stop stop-color="#808080" stop-opacity="0.25"/>
<stop offset="0.54" stop-color="#808080" stop-opacity="0.12"/>
<stop offset="1" stop-color="#808080" stop-opacity="0.1"/>
</linearGradient>
<linearGradient id="paint9_linear" x1="12366" y1="28161.4" x2="12366" y2="25982.2" gradientUnits="userSpaceOnUse">
<stop stop-color="#808080" stop-opacity="0.25"/>
<stop offset="0.54" stop-color="#808080" stop-opacity="0.12"/>
<stop offset="1" stop-color="#808080" stop-opacity="0.1"/>
</linearGradient>
</defs>
</svg>
