<svg xmlns="http://www.w3.org/2000/svg" xmlns:xlink="http://www.w3.org/1999/xlink" viewBox="0 0 665 483">
  <defs>
    <style>
      .cls-1 {
        fill: none;
      }

      .cls-2 {
        clip-path: url(#clip-path);
      }

      .cls-3 {
        fill: #eee;
      }
    </style>
    <clipPath id="clip-path">
      <rect class="cls-1" width="665" height="483"/>
    </clipPath>
  </defs>
  <g id="Repeat_Grid_4" data-name="Repeat Grid 4" class="cls-2">
    <g transform="translate(-1306 -5351)">
      <circle id="Ellipse_336" data-name="Ellipse 336" class="cls-3" cx="7.5" cy="7.5" r="7.5" transform="translate(1306 5351)"/>
    </g>
    <g transform="translate(-1261 -5351)">
      <circle id="Ellipse_336-2" data-name="Ellipse 336" class="cls-3" cx="7.5" cy="7.5" r="7.5" transform="translate(1306 5351)"/>
    </g>
    <g transform="translate(-1216 -5351)">
      <circle id="Ellipse_336-3" data-name="Ellipse 336" class="cls-3" cx="7.5" cy="7.5" r="7.5" transform="translate(1306 5351)"/>
    </g>
    <g transform="translate(-1171 -5351)">
      <circle id="Ellipse_336-4" data-name="Ellipse 336" class="cls-3" cx="7.5" cy="7.5" r="7.5" transform="translate(1306 5351)"/>
    </g>
    <g transform="translate(-1126 -5351)">
      <circle id="Ellipse_336-5" data-name="Ellipse 336" class="cls-3" cx="7.5" cy="7.5" r="7.5" transform="translate(1306 5351)"/>
    </g>
    <g transform="translate(-1081 -5351)">
      <circle id="Ellipse_336-6" data-name="Ellipse 336" class="cls-3" cx="7.5" cy="7.5" r="7.5" transform="translate(1306 5351)"/>
    </g>
    <g transform="translate(-1036 -5351)">
      <circle id="Ellipse_336-7" data-name="Ellipse 336" class="cls-3" cx="7.5" cy="7.5" r="7.5" transform="translate(1306 5351)"/>
    </g>
    <g transform="translate(-991 -5351)">
      <circle id="Ellipse_336-8" data-name="Ellipse 336" class="cls-3" cx="7.5" cy="7.5" r="7.5" transform="translate(1306 5351)"/>
    </g>
    <g transform="translate(-946 -5351)">
      <circle id="Ellipse_336-9" data-name="Ellipse 336" class="cls-3" cx="7.5" cy="7.5" r="7.5" transform="translate(1306 5351)"/>
    </g>
    <g transform="translate(-901 -5351)">
      <circle id="Ellipse_336-10" data-name="Ellipse 336" class="cls-3" cx="7.5" cy="7.5" r="7.5" transform="translate(1306 5351)"/>
    </g>
    <g transform="translate(-856 -5351)">
      <circle id="Ellipse_336-11" data-name="Ellipse 336" class="cls-3" cx="7.5" cy="7.5" r="7.5" transform="translate(1306 5351)"/>
    </g>
    <g transform="translate(-811 -5351)">
      <circle id="Ellipse_336-12" data-name="Ellipse 336" class="cls-3" cx="7.5" cy="7.5" r="7.5" transform="translate(1306 5351)"/>
    </g>
    <g transform="translate(-766 -5351)">
      <circle id="Ellipse_336-13" data-name="Ellipse 336" class="cls-3" cx="7.5" cy="7.5" r="7.5" transform="translate(1306 5351)"/>
    </g>
    <g transform="translate(-721 -5351)">
      <circle id="Ellipse_336-14" data-name="Ellipse 336" class="cls-3" cx="7.5" cy="7.5" r="7.5" transform="translate(1306 5351)"/>
    </g>
    <g transform="translate(-676 -5351)">
      <circle id="Ellipse_336-15" data-name="Ellipse 336" class="cls-3" cx="7.5" cy="7.5" r="7.5" transform="translate(1306 5351)"/>
    </g>
    <g transform="translate(-1306 -5316)">
      <circle id="Ellipse_336-16" data-name="Ellipse 336" class="cls-3" cx="7.5" cy="7.5" r="7.5" transform="translate(1306 5351)"/>
    </g>
    <g transform="translate(-1261 -5316)">
      <circle id="Ellipse_336-17" data-name="Ellipse 336" class="cls-3" cx="7.5" cy="7.5" r="7.5" transform="translate(1306 5351)"/>
    </g>
    <g transform="translate(-1216 -5316)">
      <circle id="Ellipse_336-18" data-name="Ellipse 336" class="cls-3" cx="7.5" cy="7.5" r="7.5" transform="translate(1306 5351)"/>
    </g>
    <g transform="translate(-1171 -5316)">
      <circle id="Ellipse_336-19" data-name="Ellipse 336" class="cls-3" cx="7.5" cy="7.5" r="7.5" transform="translate(1306 5351)"/>
    </g>
    <g transform="translate(-1126 -5316)">
      <circle id="Ellipse_336-20" data-name="Ellipse 336" class="cls-3" cx="7.5" cy="7.5" r="7.5" transform="translate(1306 5351)"/>
    </g>
    <g transform="translate(-1081 -5316)">
      <circle id="Ellipse_336-21" data-name="Ellipse 336" class="cls-3" cx="7.5" cy="7.5" r="7.5" transform="translate(1306 5351)"/>
    </g>
    <g transform="translate(-1036 -5316)">
      <circle id="Ellipse_336-22" data-name="Ellipse 336" class="cls-3" cx="7.5" cy="7.5" r="7.5" transform="translate(1306 5351)"/>
    </g>
    <g transform="translate(-991 -5316)">
      <circle id="Ellipse_336-23" data-name="Ellipse 336" class="cls-3" cx="7.5" cy="7.5" r="7.5" transform="translate(1306 5351)"/>
    </g>
    <g transform="translate(-946 -5316)">
      <circle id="Ellipse_336-24" data-name="Ellipse 336" class="cls-3" cx="7.5" cy="7.5" r="7.5" transform="translate(1306 5351)"/>
    </g>
    <g transform="translate(-901 -5316)">
      <circle id="Ellipse_336-25" data-name="Ellipse 336" class="cls-3" cx="7.5" cy="7.5" r="7.5" transform="translate(1306 5351)"/>
    </g>
    <g transform="translate(-856 -5316)">
      <circle id="Ellipse_336-26" data-name="Ellipse 336" class="cls-3" cx="7.5" cy="7.5" r="7.5" transform="translate(1306 5351)"/>
    </g>
    <g transform="translate(-811 -5316)">
      <circle id="Ellipse_336-27" data-name="Ellipse 336" class="cls-3" cx="7.5" cy="7.5" r="7.5" transform="translate(1306 5351)"/>
    </g>
    <g transform="translate(-766 -5316)">
      <circle id="Ellipse_336-28" data-name="Ellipse 336" class="cls-3" cx="7.5" cy="7.5" r="7.5" transform="translate(1306 5351)"/>
    </g>
    <g transform="translate(-721 -5316)">
      <circle id="Ellipse_336-29" data-name="Ellipse 336" class="cls-3" cx="7.5" cy="7.5" r="7.5" transform="translate(1306 5351)"/>
    </g>
    <g transform="translate(-676 -5316)">
      <circle id="Ellipse_336-30" data-name="Ellipse 336" class="cls-3" cx="7.5" cy="7.5" r="7.5" transform="translate(1306 5351)"/>
    </g>
    <g transform="translate(-1306 -5281)">
      <circle id="Ellipse_336-31" data-name="Ellipse 336" class="cls-3" cx="7.5" cy="7.5" r="7.5" transform="translate(1306 5351)"/>
    </g>
    <g transform="translate(-1261 -5281)">
      <circle id="Ellipse_336-32" data-name="Ellipse 336" class="cls-3" cx="7.5" cy="7.5" r="7.5" transform="translate(1306 5351)"/>
    </g>
    <g transform="translate(-1216 -5281)">
      <circle id="Ellipse_336-33" data-name="Ellipse 336" class="cls-3" cx="7.5" cy="7.5" r="7.5" transform="translate(1306 5351)"/>
    </g>
    <g transform="translate(-1171 -5281)">
      <circle id="Ellipse_336-34" data-name="Ellipse 336" class="cls-3" cx="7.5" cy="7.5" r="7.5" transform="translate(1306 5351)"/>
    </g>
    <g transform="translate(-1126 -5281)">
      <circle id="Ellipse_336-35" data-name="Ellipse 336" class="cls-3" cx="7.5" cy="7.5" r="7.5" transform="translate(1306 5351)"/>
    </g>
    <g transform="translate(-1081 -5281)">
      <circle id="Ellipse_336-36" data-name="Ellipse 336" class="cls-3" cx="7.5" cy="7.5" r="7.5" transform="translate(1306 5351)"/>
    </g>
    <g transform="translate(-1036 -5281)">
      <circle id="Ellipse_336-37" data-name="Ellipse 336" class="cls-3" cx="7.5" cy="7.5" r="7.5" transform="translate(1306 5351)"/>
    </g>
    <g transform="translate(-991 -5281)">
      <circle id="Ellipse_336-38" data-name="Ellipse 336" class="cls-3" cx="7.5" cy="7.5" r="7.5" transform="translate(1306 5351)"/>
    </g>
    <g transform="translate(-946 -5281)">
      <circle id="Ellipse_336-39" data-name="Ellipse 336" class="cls-3" cx="7.5" cy="7.5" r="7.5" transform="translate(1306 5351)"/>
    </g>
    <g transform="translate(-901 -5281)">
      <circle id="Ellipse_336-40" data-name="Ellipse 336" class="cls-3" cx="7.5" cy="7.5" r="7.5" transform="translate(1306 5351)"/>
    </g>
    <g transform="translate(-856 -5281)">
      <circle id="Ellipse_336-41" data-name="Ellipse 336" class="cls-3" cx="7.5" cy="7.5" r="7.5" transform="translate(1306 5351)"/>
    </g>
    <g transform="translate(-811 -5281)">
      <circle id="Ellipse_336-42" data-name="Ellipse 336" class="cls-3" cx="7.5" cy="7.5" r="7.5" transform="translate(1306 5351)"/>
    </g>
    <g transform="translate(-766 -5281)">
      <circle id="Ellipse_336-43" data-name="Ellipse 336" class="cls-3" cx="7.5" cy="7.5" r="7.5" transform="translate(1306 5351)"/>
    </g>
    <g transform="translate(-721 -5281)">
      <circle id="Ellipse_336-44" data-name="Ellipse 336" class="cls-3" cx="7.5" cy="7.5" r="7.5" transform="translate(1306 5351)"/>
    </g>
    <g transform="translate(-676 -5281)">
      <circle id="Ellipse_336-45" data-name="Ellipse 336" class="cls-3" cx="7.5" cy="7.5" r="7.5" transform="translate(1306 5351)"/>
    </g>
    <g transform="translate(-1306 -5246)">
      <circle id="Ellipse_336-46" data-name="Ellipse 336" class="cls-3" cx="7.5" cy="7.5" r="7.5" transform="translate(1306 5351)"/>
    </g>
    <g transform="translate(-1261 -5246)">
      <circle id="Ellipse_336-47" data-name="Ellipse 336" class="cls-3" cx="7.5" cy="7.5" r="7.5" transform="translate(1306 5351)"/>
    </g>
    <g transform="translate(-1216 -5246)">
      <circle id="Ellipse_336-48" data-name="Ellipse 336" class="cls-3" cx="7.5" cy="7.5" r="7.5" transform="translate(1306 5351)"/>
    </g>
    <g transform="translate(-1171 -5246)">
      <circle id="Ellipse_336-49" data-name="Ellipse 336" class="cls-3" cx="7.5" cy="7.5" r="7.5" transform="translate(1306 5351)"/>
    </g>
    <g transform="translate(-1126 -5246)">
      <circle id="Ellipse_336-50" data-name="Ellipse 336" class="cls-3" cx="7.5" cy="7.5" r="7.5" transform="translate(1306 5351)"/>
    </g>
    <g transform="translate(-1081 -5246)">
      <circle id="Ellipse_336-51" data-name="Ellipse 336" class="cls-3" cx="7.5" cy="7.5" r="7.5" transform="translate(1306 5351)"/>
    </g>
    <g transform="translate(-1036 -5246)">
      <circle id="Ellipse_336-52" data-name="Ellipse 336" class="cls-3" cx="7.5" cy="7.5" r="7.5" transform="translate(1306 5351)"/>
    </g>
    <g transform="translate(-991 -5246)">
      <circle id="Ellipse_336-53" data-name="Ellipse 336" class="cls-3" cx="7.5" cy="7.5" r="7.5" transform="translate(1306 5351)"/>
    </g>
    <g transform="translate(-946 -5246)">
      <circle id="Ellipse_336-54" data-name="Ellipse 336" class="cls-3" cx="7.5" cy="7.5" r="7.5" transform="translate(1306 5351)"/>
    </g>
    <g transform="translate(-901 -5246)">
      <circle id="Ellipse_336-55" data-name="Ellipse 336" class="cls-3" cx="7.5" cy="7.5" r="7.5" transform="translate(1306 5351)"/>
    </g>
    <g transform="translate(-856 -5246)">
      <circle id="Ellipse_336-56" data-name="Ellipse 336" class="cls-3" cx="7.5" cy="7.5" r="7.5" transform="translate(1306 5351)"/>
    </g>
    <g transform="translate(-811 -5246)">
      <circle id="Ellipse_336-57" data-name="Ellipse 336" class="cls-3" cx="7.5" cy="7.5" r="7.5" transform="translate(1306 5351)"/>
    </g>
    <g transform="translate(-766 -5246)">
      <circle id="Ellipse_336-58" data-name="Ellipse 336" class="cls-3" cx="7.5" cy="7.5" r="7.5" transform="translate(1306 5351)"/>
    </g>
    <g transform="translate(-721 -5246)">
      <circle id="Ellipse_336-59" data-name="Ellipse 336" class="cls-3" cx="7.5" cy="7.5" r="7.5" transform="translate(1306 5351)"/>
    </g>
    <g transform="translate(-676 -5246)">
      <circle id="Ellipse_336-60" data-name="Ellipse 336" class="cls-3" cx="7.5" cy="7.5" r="7.5" transform="translate(1306 5351)"/>
    </g>
    <g transform="translate(-1306 -5211)">
      <circle id="Ellipse_336-61" data-name="Ellipse 336" class="cls-3" cx="7.5" cy="7.5" r="7.5" transform="translate(1306 5351)"/>
    </g>
    <g transform="translate(-1261 -5211)">
      <circle id="Ellipse_336-62" data-name="Ellipse 336" class="cls-3" cx="7.5" cy="7.5" r="7.5" transform="translate(1306 5351)"/>
    </g>
    <g transform="translate(-1216 -5211)">
      <circle id="Ellipse_336-63" data-name="Ellipse 336" class="cls-3" cx="7.5" cy="7.5" r="7.5" transform="translate(1306 5351)"/>
    </g>
    <g transform="translate(-1171 -5211)">
      <circle id="Ellipse_336-64" data-name="Ellipse 336" class="cls-3" cx="7.5" cy="7.5" r="7.5" transform="translate(1306 5351)"/>
    </g>
    <g transform="translate(-1126 -5211)">
      <circle id="Ellipse_336-65" data-name="Ellipse 336" class="cls-3" cx="7.5" cy="7.5" r="7.5" transform="translate(1306 5351)"/>
    </g>
    <g transform="translate(-1081 -5211)">
      <circle id="Ellipse_336-66" data-name="Ellipse 336" class="cls-3" cx="7.5" cy="7.5" r="7.5" transform="translate(1306 5351)"/>
    </g>
    <g transform="translate(-1036 -5211)">
      <circle id="Ellipse_336-67" data-name="Ellipse 336" class="cls-3" cx="7.5" cy="7.5" r="7.5" transform="translate(1306 5351)"/>
    </g>
    <g transform="translate(-991 -5211)">
      <circle id="Ellipse_336-68" data-name="Ellipse 336" class="cls-3" cx="7.5" cy="7.5" r="7.5" transform="translate(1306 5351)"/>
    </g>
    <g transform="translate(-946 -5211)">
      <circle id="Ellipse_336-69" data-name="Ellipse 336" class="cls-3" cx="7.5" cy="7.5" r="7.5" transform="translate(1306 5351)"/>
    </g>
    <g transform="translate(-901 -5211)">
      <circle id="Ellipse_336-70" data-name="Ellipse 336" class="cls-3" cx="7.5" cy="7.5" r="7.5" transform="translate(1306 5351)"/>
    </g>
    <g transform="translate(-856 -5211)">
      <circle id="Ellipse_336-71" data-name="Ellipse 336" class="cls-3" cx="7.5" cy="7.5" r="7.5" transform="translate(1306 5351)"/>
    </g>
    <g transform="translate(-811 -5211)">
      <circle id="Ellipse_336-72" data-name="Ellipse 336" class="cls-3" cx="7.5" cy="7.5" r="7.5" transform="translate(1306 5351)"/>
    </g>
    <g transform="translate(-766 -5211)">
      <circle id="Ellipse_336-73" data-name="Ellipse 336" class="cls-3" cx="7.5" cy="7.5" r="7.5" transform="translate(1306 5351)"/>
    </g>
    <g transform="translate(-721 -5211)">
      <circle id="Ellipse_336-74" data-name="Ellipse 336" class="cls-3" cx="7.5" cy="7.5" r="7.5" transform="translate(1306 5351)"/>
    </g>
    <g transform="translate(-676 -5211)">
      <circle id="Ellipse_336-75" data-name="Ellipse 336" class="cls-3" cx="7.5" cy="7.5" r="7.5" transform="translate(1306 5351)"/>
    </g>
    <g transform="translate(-1306 -5176)">
      <circle id="Ellipse_336-76" data-name="Ellipse 336" class="cls-3" cx="7.5" cy="7.5" r="7.5" transform="translate(1306 5351)"/>
    </g>
    <g transform="translate(-1261 -5176)">
      <circle id="Ellipse_336-77" data-name="Ellipse 336" class="cls-3" cx="7.5" cy="7.5" r="7.5" transform="translate(1306 5351)"/>
    </g>
    <g transform="translate(-1216 -5176)">
      <circle id="Ellipse_336-78" data-name="Ellipse 336" class="cls-3" cx="7.5" cy="7.5" r="7.5" transform="translate(1306 5351)"/>
    </g>
    <g transform="translate(-1171 -5176)">
      <circle id="Ellipse_336-79" data-name="Ellipse 336" class="cls-3" cx="7.5" cy="7.5" r="7.5" transform="translate(1306 5351)"/>
    </g>
    <g transform="translate(-1126 -5176)">
      <circle id="Ellipse_336-80" data-name="Ellipse 336" class="cls-3" cx="7.5" cy="7.5" r="7.5" transform="translate(1306 5351)"/>
    </g>
    <g transform="translate(-1081 -5176)">
      <circle id="Ellipse_336-81" data-name="Ellipse 336" class="cls-3" cx="7.5" cy="7.5" r="7.5" transform="translate(1306 5351)"/>
    </g>
    <g transform="translate(-1036 -5176)">
      <circle id="Ellipse_336-82" data-name="Ellipse 336" class="cls-3" cx="7.5" cy="7.5" r="7.5" transform="translate(1306 5351)"/>
    </g>
    <g transform="translate(-991 -5176)">
      <circle id="Ellipse_336-83" data-name="Ellipse 336" class="cls-3" cx="7.5" cy="7.5" r="7.5" transform="translate(1306 5351)"/>
    </g>
    <g transform="translate(-946 -5176)">
      <circle id="Ellipse_336-84" data-name="Ellipse 336" class="cls-3" cx="7.5" cy="7.5" r="7.5" transform="translate(1306 5351)"/>
    </g>
    <g transform="translate(-901 -5176)">
      <circle id="Ellipse_336-85" data-name="Ellipse 336" class="cls-3" cx="7.5" cy="7.5" r="7.5" transform="translate(1306 5351)"/>
    </g>
    <g transform="translate(-856 -5176)">
      <circle id="Ellipse_336-86" data-name="Ellipse 336" class="cls-3" cx="7.5" cy="7.5" r="7.5" transform="translate(1306 5351)"/>
    </g>
    <g transform="translate(-811 -5176)">
      <circle id="Ellipse_336-87" data-name="Ellipse 336" class="cls-3" cx="7.5" cy="7.5" r="7.5" transform="translate(1306 5351)"/>
    </g>
    <g transform="translate(-766 -5176)">
      <circle id="Ellipse_336-88" data-name="Ellipse 336" class="cls-3" cx="7.5" cy="7.5" r="7.5" transform="translate(1306 5351)"/>
    </g>
    <g transform="translate(-721 -5176)">
      <circle id="Ellipse_336-89" data-name="Ellipse 336" class="cls-3" cx="7.5" cy="7.5" r="7.5" transform="translate(1306 5351)"/>
    </g>
    <g transform="translate(-676 -5176)">
      <circle id="Ellipse_336-90" data-name="Ellipse 336" class="cls-3" cx="7.5" cy="7.5" r="7.5" transform="translate(1306 5351)"/>
    </g>
    <g transform="translate(-1306 -5141)">
      <circle id="Ellipse_336-91" data-name="Ellipse 336" class="cls-3" cx="7.5" cy="7.5" r="7.5" transform="translate(1306 5351)"/>
    </g>
    <g transform="translate(-1261 -5141)">
      <circle id="Ellipse_336-92" data-name="Ellipse 336" class="cls-3" cx="7.5" cy="7.5" r="7.5" transform="translate(1306 5351)"/>
    </g>
    <g transform="translate(-1216 -5141)">
      <circle id="Ellipse_336-93" data-name="Ellipse 336" class="cls-3" cx="7.5" cy="7.5" r="7.5" transform="translate(1306 5351)"/>
    </g>
    <g transform="translate(-1171 -5141)">
      <circle id="Ellipse_336-94" data-name="Ellipse 336" class="cls-3" cx="7.5" cy="7.5" r="7.5" transform="translate(1306 5351)"/>
    </g>
    <g transform="translate(-1126 -5141)">
      <circle id="Ellipse_336-95" data-name="Ellipse 336" class="cls-3" cx="7.5" cy="7.5" r="7.5" transform="translate(1306 5351)"/>
    </g>
    <g transform="translate(-1081 -5141)">
      <circle id="Ellipse_336-96" data-name="Ellipse 336" class="cls-3" cx="7.5" cy="7.5" r="7.5" transform="translate(1306 5351)"/>
    </g>
    <g transform="translate(-1036 -5141)">
      <circle id="Ellipse_336-97" data-name="Ellipse 336" class="cls-3" cx="7.5" cy="7.5" r="7.5" transform="translate(1306 5351)"/>
    </g>
    <g transform="translate(-991 -5141)">
      <circle id="Ellipse_336-98" data-name="Ellipse 336" class="cls-3" cx="7.5" cy="7.5" r="7.5" transform="translate(1306 5351)"/>
    </g>
    <g transform="translate(-946 -5141)">
      <circle id="Ellipse_336-99" data-name="Ellipse 336" class="cls-3" cx="7.5" cy="7.5" r="7.5" transform="translate(1306 5351)"/>
    </g>
    <g transform="translate(-901 -5141)">
      <circle id="Ellipse_336-100" data-name="Ellipse 336" class="cls-3" cx="7.5" cy="7.5" r="7.5" transform="translate(1306 5351)"/>
    </g>
    <g transform="translate(-856 -5141)">
      <circle id="Ellipse_336-101" data-name="Ellipse 336" class="cls-3" cx="7.5" cy="7.5" r="7.5" transform="translate(1306 5351)"/>
    </g>
    <g transform="translate(-811 -5141)">
      <circle id="Ellipse_336-102" data-name="Ellipse 336" class="cls-3" cx="7.5" cy="7.5" r="7.5" transform="translate(1306 5351)"/>
    </g>
    <g transform="translate(-766 -5141)">
      <circle id="Ellipse_336-103" data-name="Ellipse 336" class="cls-3" cx="7.5" cy="7.5" r="7.5" transform="translate(1306 5351)"/>
    </g>
    <g transform="translate(-721 -5141)">
      <circle id="Ellipse_336-104" data-name="Ellipse 336" class="cls-3" cx="7.5" cy="7.5" r="7.5" transform="translate(1306 5351)"/>
    </g>
    <g transform="translate(-676 -5141)">
      <circle id="Ellipse_336-105" data-name="Ellipse 336" class="cls-3" cx="7.5" cy="7.5" r="7.5" transform="translate(1306 5351)"/>
    </g>
    <g transform="translate(-1306 -5106)">
      <circle id="Ellipse_336-106" data-name="Ellipse 336" class="cls-3" cx="7.5" cy="7.5" r="7.5" transform="translate(1306 5351)"/>
    </g>
    <g transform="translate(-1261 -5106)">
      <circle id="Ellipse_336-107" data-name="Ellipse 336" class="cls-3" cx="7.5" cy="7.5" r="7.5" transform="translate(1306 5351)"/>
    </g>
    <g transform="translate(-1216 -5106)">
      <circle id="Ellipse_336-108" data-name="Ellipse 336" class="cls-3" cx="7.5" cy="7.5" r="7.5" transform="translate(1306 5351)"/>
    </g>
    <g transform="translate(-1171 -5106)">
      <circle id="Ellipse_336-109" data-name="Ellipse 336" class="cls-3" cx="7.5" cy="7.5" r="7.5" transform="translate(1306 5351)"/>
    </g>
    <g transform="translate(-1126 -5106)">
      <circle id="Ellipse_336-110" data-name="Ellipse 336" class="cls-3" cx="7.5" cy="7.5" r="7.5" transform="translate(1306 5351)"/>
    </g>
    <g transform="translate(-1081 -5106)">
      <circle id="Ellipse_336-111" data-name="Ellipse 336" class="cls-3" cx="7.5" cy="7.5" r="7.5" transform="translate(1306 5351)"/>
    </g>
    <g transform="translate(-1036 -5106)">
      <circle id="Ellipse_336-112" data-name="Ellipse 336" class="cls-3" cx="7.5" cy="7.5" r="7.5" transform="translate(1306 5351)"/>
    </g>
    <g transform="translate(-991 -5106)">
      <circle id="Ellipse_336-113" data-name="Ellipse 336" class="cls-3" cx="7.5" cy="7.5" r="7.5" transform="translate(1306 5351)"/>
    </g>
    <g transform="translate(-946 -5106)">
      <circle id="Ellipse_336-114" data-name="Ellipse 336" class="cls-3" cx="7.5" cy="7.5" r="7.5" transform="translate(1306 5351)"/>
    </g>
    <g transform="translate(-901 -5106)">
      <circle id="Ellipse_336-115" data-name="Ellipse 336" class="cls-3" cx="7.5" cy="7.5" r="7.5" transform="translate(1306 5351)"/>
    </g>
    <g transform="translate(-856 -5106)">
      <circle id="Ellipse_336-116" data-name="Ellipse 336" class="cls-3" cx="7.5" cy="7.5" r="7.5" transform="translate(1306 5351)"/>
    </g>
    <g transform="translate(-811 -5106)">
      <circle id="Ellipse_336-117" data-name="Ellipse 336" class="cls-3" cx="7.5" cy="7.5" r="7.5" transform="translate(1306 5351)"/>
    </g>
    <g transform="translate(-766 -5106)">
      <circle id="Ellipse_336-118" data-name="Ellipse 336" class="cls-3" cx="7.5" cy="7.5" r="7.5" transform="translate(1306 5351)"/>
    </g>
    <g transform="translate(-721 -5106)">
      <circle id="Ellipse_336-119" data-name="Ellipse 336" class="cls-3" cx="7.5" cy="7.5" r="7.5" transform="translate(1306 5351)"/>
    </g>
    <g transform="translate(-676 -5106)">
      <circle id="Ellipse_336-120" data-name="Ellipse 336" class="cls-3" cx="7.5" cy="7.5" r="7.5" transform="translate(1306 5351)"/>
    </g>
    <g transform="translate(-1306 -5071)">
      <circle id="Ellipse_336-121" data-name="Ellipse 336" class="cls-3" cx="7.5" cy="7.5" r="7.5" transform="translate(1306 5351)"/>
    </g>
    <g transform="translate(-1261 -5071)">
      <circle id="Ellipse_336-122" data-name="Ellipse 336" class="cls-3" cx="7.5" cy="7.5" r="7.5" transform="translate(1306 5351)"/>
    </g>
    <g transform="translate(-1216 -5071)">
      <circle id="Ellipse_336-123" data-name="Ellipse 336" class="cls-3" cx="7.5" cy="7.5" r="7.5" transform="translate(1306 5351)"/>
    </g>
    <g transform="translate(-1171 -5071)">
      <circle id="Ellipse_336-124" data-name="Ellipse 336" class="cls-3" cx="7.5" cy="7.5" r="7.5" transform="translate(1306 5351)"/>
    </g>
    <g transform="translate(-1126 -5071)">
      <circle id="Ellipse_336-125" data-name="Ellipse 336" class="cls-3" cx="7.5" cy="7.5" r="7.5" transform="translate(1306 5351)"/>
    </g>
    <g transform="translate(-1081 -5071)">
      <circle id="Ellipse_336-126" data-name="Ellipse 336" class="cls-3" cx="7.5" cy="7.5" r="7.5" transform="translate(1306 5351)"/>
    </g>
    <g transform="translate(-1036 -5071)">
      <circle id="Ellipse_336-127" data-name="Ellipse 336" class="cls-3" cx="7.5" cy="7.5" r="7.5" transform="translate(1306 5351)"/>
    </g>
    <g transform="translate(-991 -5071)">
      <circle id="Ellipse_336-128" data-name="Ellipse 336" class="cls-3" cx="7.5" cy="7.5" r="7.5" transform="translate(1306 5351)"/>
    </g>
    <g transform="translate(-946 -5071)">
      <circle id="Ellipse_336-129" data-name="Ellipse 336" class="cls-3" cx="7.5" cy="7.5" r="7.5" transform="translate(1306 5351)"/>
    </g>
    <g transform="translate(-901 -5071)">
      <circle id="Ellipse_336-130" data-name="Ellipse 336" class="cls-3" cx="7.5" cy="7.5" r="7.5" transform="translate(1306 5351)"/>
    </g>
    <g transform="translate(-856 -5071)">
      <circle id="Ellipse_336-131" data-name="Ellipse 336" class="cls-3" cx="7.5" cy="7.5" r="7.5" transform="translate(1306 5351)"/>
    </g>
    <g transform="translate(-811 -5071)">
      <circle id="Ellipse_336-132" data-name="Ellipse 336" class="cls-3" cx="7.5" cy="7.5" r="7.5" transform="translate(1306 5351)"/>
    </g>
    <g transform="translate(-766 -5071)">
      <circle id="Ellipse_336-133" data-name="Ellipse 336" class="cls-3" cx="7.5" cy="7.5" r="7.5" transform="translate(1306 5351)"/>
    </g>
    <g transform="translate(-721 -5071)">
      <circle id="Ellipse_336-134" data-name="Ellipse 336" class="cls-3" cx="7.5" cy="7.5" r="7.5" transform="translate(1306 5351)"/>
    </g>
    <g transform="translate(-676 -5071)">
      <circle id="Ellipse_336-135" data-name="Ellipse 336" class="cls-3" cx="7.5" cy="7.5" r="7.5" transform="translate(1306 5351)"/>
    </g>
    <g transform="translate(-1306 -5036)">
      <circle id="Ellipse_336-136" data-name="Ellipse 336" class="cls-3" cx="7.5" cy="7.5" r="7.5" transform="translate(1306 5351)"/>
    </g>
    <g transform="translate(-1261 -5036)">
      <circle id="Ellipse_336-137" data-name="Ellipse 336" class="cls-3" cx="7.5" cy="7.5" r="7.5" transform="translate(1306 5351)"/>
    </g>
    <g transform="translate(-1216 -5036)">
      <circle id="Ellipse_336-138" data-name="Ellipse 336" class="cls-3" cx="7.5" cy="7.5" r="7.5" transform="translate(1306 5351)"/>
    </g>
    <g transform="translate(-1171 -5036)">
      <circle id="Ellipse_336-139" data-name="Ellipse 336" class="cls-3" cx="7.5" cy="7.5" r="7.5" transform="translate(1306 5351)"/>
    </g>
    <g transform="translate(-1126 -5036)">
      <circle id="Ellipse_336-140" data-name="Ellipse 336" class="cls-3" cx="7.5" cy="7.5" r="7.5" transform="translate(1306 5351)"/>
    </g>
    <g transform="translate(-1081 -5036)">
      <circle id="Ellipse_336-141" data-name="Ellipse 336" class="cls-3" cx="7.5" cy="7.5" r="7.5" transform="translate(1306 5351)"/>
    </g>
    <g transform="translate(-1036 -5036)">
      <circle id="Ellipse_336-142" data-name="Ellipse 336" class="cls-3" cx="7.5" cy="7.5" r="7.5" transform="translate(1306 5351)"/>
    </g>
    <g transform="translate(-991 -5036)">
      <circle id="Ellipse_336-143" data-name="Ellipse 336" class="cls-3" cx="7.5" cy="7.5" r="7.5" transform="translate(1306 5351)"/>
    </g>
    <g transform="translate(-946 -5036)">
      <circle id="Ellipse_336-144" data-name="Ellipse 336" class="cls-3" cx="7.5" cy="7.5" r="7.5" transform="translate(1306 5351)"/>
    </g>
    <g transform="translate(-901 -5036)">
      <circle id="Ellipse_336-145" data-name="Ellipse 336" class="cls-3" cx="7.5" cy="7.5" r="7.5" transform="translate(1306 5351)"/>
    </g>
    <g transform="translate(-856 -5036)">
      <circle id="Ellipse_336-146" data-name="Ellipse 336" class="cls-3" cx="7.5" cy="7.5" r="7.5" transform="translate(1306 5351)"/>
    </g>
    <g transform="translate(-811 -5036)">
      <circle id="Ellipse_336-147" data-name="Ellipse 336" class="cls-3" cx="7.5" cy="7.5" r="7.5" transform="translate(1306 5351)"/>
    </g>
    <g transform="translate(-766 -5036)">
      <circle id="Ellipse_336-148" data-name="Ellipse 336" class="cls-3" cx="7.5" cy="7.5" r="7.5" transform="translate(1306 5351)"/>
    </g>
    <g transform="translate(-721 -5036)">
      <circle id="Ellipse_336-149" data-name="Ellipse 336" class="cls-3" cx="7.5" cy="7.5" r="7.5" transform="translate(1306 5351)"/>
    </g>
    <g transform="translate(-676 -5036)">
      <circle id="Ellipse_336-150" data-name="Ellipse 336" class="cls-3" cx="7.5" cy="7.5" r="7.5" transform="translate(1306 5351)"/>
    </g>
    <g transform="translate(-1306 -5001)">
      <circle id="Ellipse_336-151" data-name="Ellipse 336" class="cls-3" cx="7.5" cy="7.5" r="7.5" transform="translate(1306 5351)"/>
    </g>
    <g transform="translate(-1261 -5001)">
      <circle id="Ellipse_336-152" data-name="Ellipse 336" class="cls-3" cx="7.5" cy="7.5" r="7.5" transform="translate(1306 5351)"/>
    </g>
    <g transform="translate(-1216 -5001)">
      <circle id="Ellipse_336-153" data-name="Ellipse 336" class="cls-3" cx="7.5" cy="7.5" r="7.5" transform="translate(1306 5351)"/>
    </g>
    <g transform="translate(-1171 -5001)">
      <circle id="Ellipse_336-154" data-name="Ellipse 336" class="cls-3" cx="7.5" cy="7.5" r="7.5" transform="translate(1306 5351)"/>
    </g>
    <g transform="translate(-1126 -5001)">
      <circle id="Ellipse_336-155" data-name="Ellipse 336" class="cls-3" cx="7.5" cy="7.5" r="7.5" transform="translate(1306 5351)"/>
    </g>
    <g transform="translate(-1081 -5001)">
      <circle id="Ellipse_336-156" data-name="Ellipse 336" class="cls-3" cx="7.5" cy="7.5" r="7.5" transform="translate(1306 5351)"/>
    </g>
    <g transform="translate(-1036 -5001)">
      <circle id="Ellipse_336-157" data-name="Ellipse 336" class="cls-3" cx="7.5" cy="7.5" r="7.5" transform="translate(1306 5351)"/>
    </g>
    <g transform="translate(-991 -5001)">
      <circle id="Ellipse_336-158" data-name="Ellipse 336" class="cls-3" cx="7.5" cy="7.5" r="7.5" transform="translate(1306 5351)"/>
    </g>
    <g transform="translate(-946 -5001)">
      <circle id="Ellipse_336-159" data-name="Ellipse 336" class="cls-3" cx="7.5" cy="7.5" r="7.5" transform="translate(1306 5351)"/>
    </g>
    <g transform="translate(-901 -5001)">
      <circle id="Ellipse_336-160" data-name="Ellipse 336" class="cls-3" cx="7.5" cy="7.5" r="7.5" transform="translate(1306 5351)"/>
    </g>
    <g transform="translate(-856 -5001)">
      <circle id="Ellipse_336-161" data-name="Ellipse 336" class="cls-3" cx="7.5" cy="7.5" r="7.5" transform="translate(1306 5351)"/>
    </g>
    <g transform="translate(-811 -5001)">
      <circle id="Ellipse_336-162" data-name="Ellipse 336" class="cls-3" cx="7.5" cy="7.5" r="7.5" transform="translate(1306 5351)"/>
    </g>
    <g transform="translate(-766 -5001)">
      <circle id="Ellipse_336-163" data-name="Ellipse 336" class="cls-3" cx="7.5" cy="7.5" r="7.5" transform="translate(1306 5351)"/>
    </g>
    <g transform="translate(-721 -5001)">
      <circle id="Ellipse_336-164" data-name="Ellipse 336" class="cls-3" cx="7.5" cy="7.5" r="7.5" transform="translate(1306 5351)"/>
    </g>
    <g transform="translate(-676 -5001)">
      <circle id="Ellipse_336-165" data-name="Ellipse 336" class="cls-3" cx="7.5" cy="7.5" r="7.5" transform="translate(1306 5351)"/>
    </g>
    <g transform="translate(-1306 -4966)">
      <circle id="Ellipse_336-166" data-name="Ellipse 336" class="cls-3" cx="7.5" cy="7.5" r="7.5" transform="translate(1306 5351)"/>
    </g>
    <g transform="translate(-1261 -4966)">
      <circle id="Ellipse_336-167" data-name="Ellipse 336" class="cls-3" cx="7.5" cy="7.5" r="7.5" transform="translate(1306 5351)"/>
    </g>
    <g transform="translate(-1216 -4966)">
      <circle id="Ellipse_336-168" data-name="Ellipse 336" class="cls-3" cx="7.5" cy="7.5" r="7.5" transform="translate(1306 5351)"/>
    </g>
    <g transform="translate(-1171 -4966)">
      <circle id="Ellipse_336-169" data-name="Ellipse 336" class="cls-3" cx="7.5" cy="7.5" r="7.5" transform="translate(1306 5351)"/>
    </g>
    <g transform="translate(-1126 -4966)">
      <circle id="Ellipse_336-170" data-name="Ellipse 336" class="cls-3" cx="7.5" cy="7.5" r="7.5" transform="translate(1306 5351)"/>
    </g>
    <g transform="translate(-1081 -4966)">
      <circle id="Ellipse_336-171" data-name="Ellipse 336" class="cls-3" cx="7.5" cy="7.5" r="7.5" transform="translate(1306 5351)"/>
    </g>
    <g transform="translate(-1036 -4966)">
      <circle id="Ellipse_336-172" data-name="Ellipse 336" class="cls-3" cx="7.5" cy="7.5" r="7.5" transform="translate(1306 5351)"/>
    </g>
    <g transform="translate(-991 -4966)">
      <circle id="Ellipse_336-173" data-name="Ellipse 336" class="cls-3" cx="7.5" cy="7.5" r="7.5" transform="translate(1306 5351)"/>
    </g>
    <g transform="translate(-946 -4966)">
      <circle id="Ellipse_336-174" data-name="Ellipse 336" class="cls-3" cx="7.5" cy="7.5" r="7.5" transform="translate(1306 5351)"/>
    </g>
    <g transform="translate(-901 -4966)">
      <circle id="Ellipse_336-175" data-name="Ellipse 336" class="cls-3" cx="7.5" cy="7.5" r="7.5" transform="translate(1306 5351)"/>
    </g>
    <g transform="translate(-856 -4966)">
      <circle id="Ellipse_336-176" data-name="Ellipse 336" class="cls-3" cx="7.5" cy="7.5" r="7.5" transform="translate(1306 5351)"/>
    </g>
    <g transform="translate(-811 -4966)">
      <circle id="Ellipse_336-177" data-name="Ellipse 336" class="cls-3" cx="7.5" cy="7.5" r="7.5" transform="translate(1306 5351)"/>
    </g>
    <g transform="translate(-766 -4966)">
      <circle id="Ellipse_336-178" data-name="Ellipse 336" class="cls-3" cx="7.5" cy="7.5" r="7.5" transform="translate(1306 5351)"/>
    </g>
    <g transform="translate(-721 -4966)">
      <circle id="Ellipse_336-179" data-name="Ellipse 336" class="cls-3" cx="7.5" cy="7.5" r="7.5" transform="translate(1306 5351)"/>
    </g>
    <g transform="translate(-676 -4966)">
      <circle id="Ellipse_336-180" data-name="Ellipse 336" class="cls-3" cx="7.5" cy="7.5" r="7.5" transform="translate(1306 5351)"/>
    </g>
    <g transform="translate(-1306 -4931)">
      <circle id="Ellipse_336-181" data-name="Ellipse 336" class="cls-3" cx="7.5" cy="7.5" r="7.5" transform="translate(1306 5351)"/>
    </g>
    <g transform="translate(-1261 -4931)">
      <circle id="Ellipse_336-182" data-name="Ellipse 336" class="cls-3" cx="7.5" cy="7.5" r="7.5" transform="translate(1306 5351)"/>
    </g>
    <g transform="translate(-1216 -4931)">
      <circle id="Ellipse_336-183" data-name="Ellipse 336" class="cls-3" cx="7.5" cy="7.5" r="7.5" transform="translate(1306 5351)"/>
    </g>
    <g transform="translate(-1171 -4931)">
      <circle id="Ellipse_336-184" data-name="Ellipse 336" class="cls-3" cx="7.5" cy="7.5" r="7.5" transform="translate(1306 5351)"/>
    </g>
    <g transform="translate(-1126 -4931)">
      <circle id="Ellipse_336-185" data-name="Ellipse 336" class="cls-3" cx="7.5" cy="7.5" r="7.5" transform="translate(1306 5351)"/>
    </g>
    <g transform="translate(-1081 -4931)">
      <circle id="Ellipse_336-186" data-name="Ellipse 336" class="cls-3" cx="7.5" cy="7.5" r="7.5" transform="translate(1306 5351)"/>
    </g>
    <g transform="translate(-1036 -4931)">
      <circle id="Ellipse_336-187" data-name="Ellipse 336" class="cls-3" cx="7.5" cy="7.5" r="7.5" transform="translate(1306 5351)"/>
    </g>
    <g transform="translate(-991 -4931)">
      <circle id="Ellipse_336-188" data-name="Ellipse 336" class="cls-3" cx="7.5" cy="7.5" r="7.5" transform="translate(1306 5351)"/>
    </g>
    <g transform="translate(-946 -4931)">
      <circle id="Ellipse_336-189" data-name="Ellipse 336" class="cls-3" cx="7.5" cy="7.5" r="7.5" transform="translate(1306 5351)"/>
    </g>
    <g transform="translate(-901 -4931)">
      <circle id="Ellipse_336-190" data-name="Ellipse 336" class="cls-3" cx="7.5" cy="7.5" r="7.5" transform="translate(1306 5351)"/>
    </g>
    <g transform="translate(-856 -4931)">
      <circle id="Ellipse_336-191" data-name="Ellipse 336" class="cls-3" cx="7.5" cy="7.5" r="7.5" transform="translate(1306 5351)"/>
    </g>
    <g transform="translate(-811 -4931)">
      <circle id="Ellipse_336-192" data-name="Ellipse 336" class="cls-3" cx="7.5" cy="7.5" r="7.5" transform="translate(1306 5351)"/>
    </g>
    <g transform="translate(-766 -4931)">
      <circle id="Ellipse_336-193" data-name="Ellipse 336" class="cls-3" cx="7.5" cy="7.5" r="7.5" transform="translate(1306 5351)"/>
    </g>
    <g transform="translate(-721 -4931)">
      <circle id="Ellipse_336-194" data-name="Ellipse 336" class="cls-3" cx="7.5" cy="7.5" r="7.5" transform="translate(1306 5351)"/>
    </g>
    <g transform="translate(-676 -4931)">
      <circle id="Ellipse_336-195" data-name="Ellipse 336" class="cls-3" cx="7.5" cy="7.5" r="7.5" transform="translate(1306 5351)"/>
    </g>
    <g transform="translate(-1306 -4896)">
      <circle id="Ellipse_336-196" data-name="Ellipse 336" class="cls-3" cx="7.5" cy="7.5" r="7.5" transform="translate(1306 5351)"/>
    </g>
    <g transform="translate(-1261 -4896)">
      <circle id="Ellipse_336-197" data-name="Ellipse 336" class="cls-3" cx="7.5" cy="7.5" r="7.5" transform="translate(1306 5351)"/>
    </g>
    <g transform="translate(-1216 -4896)">
      <circle id="Ellipse_336-198" data-name="Ellipse 336" class="cls-3" cx="7.5" cy="7.5" r="7.5" transform="translate(1306 5351)"/>
    </g>
    <g transform="translate(-1171 -4896)">
      <circle id="Ellipse_336-199" data-name="Ellipse 336" class="cls-3" cx="7.5" cy="7.5" r="7.5" transform="translate(1306 5351)"/>
    </g>
    <g transform="translate(-1126 -4896)">
      <circle id="Ellipse_336-200" data-name="Ellipse 336" class="cls-3" cx="7.5" cy="7.5" r="7.5" transform="translate(1306 5351)"/>
    </g>
    <g transform="translate(-1081 -4896)">
      <circle id="Ellipse_336-201" data-name="Ellipse 336" class="cls-3" cx="7.5" cy="7.5" r="7.5" transform="translate(1306 5351)"/>
    </g>
    <g transform="translate(-1036 -4896)">
      <circle id="Ellipse_336-202" data-name="Ellipse 336" class="cls-3" cx="7.5" cy="7.5" r="7.5" transform="translate(1306 5351)"/>
    </g>
    <g transform="translate(-991 -4896)">
      <circle id="Ellipse_336-203" data-name="Ellipse 336" class="cls-3" cx="7.5" cy="7.5" r="7.5" transform="translate(1306 5351)"/>
    </g>
    <g transform="translate(-946 -4896)">
      <circle id="Ellipse_336-204" data-name="Ellipse 336" class="cls-3" cx="7.5" cy="7.5" r="7.5" transform="translate(1306 5351)"/>
    </g>
    <g transform="translate(-901 -4896)">
      <circle id="Ellipse_336-205" data-name="Ellipse 336" class="cls-3" cx="7.5" cy="7.5" r="7.5" transform="translate(1306 5351)"/>
    </g>
    <g transform="translate(-856 -4896)">
      <circle id="Ellipse_336-206" data-name="Ellipse 336" class="cls-3" cx="7.5" cy="7.5" r="7.5" transform="translate(1306 5351)"/>
    </g>
    <g transform="translate(-811 -4896)">
      <circle id="Ellipse_336-207" data-name="Ellipse 336" class="cls-3" cx="7.5" cy="7.5" r="7.5" transform="translate(1306 5351)"/>
    </g>
    <g transform="translate(-766 -4896)">
      <circle id="Ellipse_336-208" data-name="Ellipse 336" class="cls-3" cx="7.5" cy="7.5" r="7.5" transform="translate(1306 5351)"/>
    </g>
    <g transform="translate(-721 -4896)">
      <circle id="Ellipse_336-209" data-name="Ellipse 336" class="cls-3" cx="7.5" cy="7.5" r="7.5" transform="translate(1306 5351)"/>
    </g>
    <g transform="translate(-676 -4896)">
      <circle id="Ellipse_336-210" data-name="Ellipse 336" class="cls-3" cx="7.5" cy="7.5" r="7.5" transform="translate(1306 5351)"/>
    </g>
  </g>
</svg>
