<svg width="2678" height="647" viewBox="0 0 2678 647" fill="none" xmlns="http://www.w3.org/2000/svg">
<g filter="url(#filter0_b_1642_285)">
<circle cx="1340" cy="324" r="300" fill="#8AA79F" fill-opacity="0.22"/>
<circle cx="1340" cy="324" r="297.5" stroke="url(#paint0_linear_1642_285)" stroke-width="5"/>
</g>
<circle cx="1340" cy="324" r="140" stroke="#FFECD1" stroke-opacity="0.6" stroke-width="120"/>
<path d="M-0.00488281 324.534L1041.5 322.5" stroke="url(#paint1_linear_1642_285)" stroke-width="5"/>
<path d="M-2 23.0007C-2 23.0007 542.344 22.9992 757.732 23.0006C973.121 23.0021 1041 323 1041 323" stroke="url(#paint2_linear_1642_285)" stroke-width="5"/>
<path d="M0 163C0 163 543.118 162.999 758.021 163C972.924 163.001 1040 324 1040 324" stroke="url(#paint3_linear_1642_285)" stroke-width="5"/>
<path d="M-2 624.999C-2 624.999 542.163 625.001 757.479 624.999C972.795 624.998 1040 325 1040 325" stroke="url(#paint4_linear_1642_285)" stroke-width="5"/>
<path d="M0 473C0 473 543.118 473 758.021 473C972.924 472.999 1040 323 1040 323" stroke="url(#paint5_linear_1642_285)" stroke-width="5"/>
<path d="M2677.5 324.534L1636 322.5" stroke="url(#paint6_linear_1642_285)" stroke-width="5"/>
<path d="M2680 23.0007C2680 23.0007 2137.22 22.9992 1922.45 23.0006C1707.68 23.0021 1640 323 1640 323" stroke="url(#paint7_linear_1642_285)" stroke-width="5"/>
<path d="M2677 163C2677 163 2135.45 162.999 1921.17 163C1706.88 163.001 1640 324 1640 324" stroke="url(#paint8_linear_1642_285)" stroke-width="5"/>
<path d="M2680 624.999C2680 624.999 2136.88 625.001 1921.98 624.999C1707.08 624.998 1640 325 1640 325" stroke="url(#paint9_linear_1642_285)" stroke-width="5"/>
<path d="M2677 473C2677 473 2137.02 473 1923.35 473C1709.69 472.999 1643 323 1643 323" stroke="url(#paint10_linear_1642_285)" stroke-width="5"/>
<rect x="317.5" y="1.5" width="138" height="42" rx="21" fill="#FFECD1" fill-opacity="0.9" stroke="#15616D" stroke-width="3"/>
<path d="M350.54 26H346C345.47 26 344.961 26.2107 344.586 26.5858C344.211 26.9609 344 27.4696 344 28V32.54" stroke="#001524" stroke-width="2" stroke-linecap="round" stroke-linejoin="round"/>
<path d="M336 14.3401V16.0001C336 16.7957 336.316 17.5588 336.879 18.1214C337.441 18.684 338.204 19.0001 339 19.0001C339.53 19.0001 340.039 19.2108 340.414 19.5859C340.789 19.9609 341 20.4697 341 21.0001C341 22.1001 341.9 23.0001 343 23.0001C343.53 23.0001 344.039 22.7894 344.414 22.4143C344.789 22.0392 345 21.5305 345 21.0001C345 19.9001 345.9 19.0001 347 19.0001H350.17" stroke="#001524" stroke-width="2" stroke-linecap="round" stroke-linejoin="round"/>
<path d="M340 32.95V29C340 28.4696 339.789 27.9609 339.414 27.5858C339.039 27.2107 338.53 27 338 27C337.47 27 336.961 26.7893 336.586 26.4142C336.211 26.0391 336 25.5304 336 25V24C336 23.4696 335.789 22.9609 335.414 22.5858C335.039 22.2107 334.53 22 334 22H331.05" stroke="#001524" stroke-width="2" stroke-linecap="round" stroke-linejoin="round"/>
<path d="M341 33C346.523 33 351 28.5228 351 23C351 17.4772 346.523 13 341 13C335.477 13 331 17.4772 331 23C331 28.5228 335.477 33 341 33Z" stroke="#001524" stroke-width="2" stroke-linecap="round" stroke-linejoin="round"/>
<path d="M360.642 27L358.256 18.2727H359.33L361.153 25.3807H361.239L363.097 18.2727H364.29L366.148 25.3807H366.233L368.057 18.2727H369.131L366.744 27H365.653L363.727 20.0455H363.659L361.733 27H360.642ZM372.446 27.1364C371.815 27.1364 371.271 26.9972 370.814 26.7188C370.359 26.4375 370.009 26.0455 369.761 25.5426C369.517 25.0369 369.395 24.4489 369.395 23.7784C369.395 23.108 369.517 22.517 369.761 22.0057C370.009 21.4915 370.352 21.0909 370.793 20.804C371.236 20.5142 371.753 20.3693 372.344 20.3693C372.685 20.3693 373.021 20.4261 373.354 20.5398C373.686 20.6534 373.989 20.8381 374.261 21.0938C374.534 21.3466 374.751 21.6818 374.913 22.0994C375.075 22.517 375.156 23.0312 375.156 23.642V24.0682H370.111V23.1989H374.134C374.134 22.8295 374.06 22.5 373.912 22.2102C373.767 21.9205 373.56 21.6918 373.29 21.5241C373.023 21.3565 372.707 21.2727 372.344 21.2727C371.943 21.2727 371.597 21.3722 371.304 21.571C371.014 21.767 370.791 22.0227 370.635 22.3381C370.479 22.6534 370.401 22.9915 370.401 23.3523V23.9318C370.401 24.4261 370.486 24.8452 370.656 25.1889C370.83 25.5298 371.07 25.7898 371.376 25.9688C371.683 26.1449 372.04 26.233 372.446 26.233C372.71 26.233 372.949 26.196 373.162 26.1222C373.378 26.0455 373.564 25.9318 373.72 25.7812C373.876 25.6278 373.997 25.4375 374.082 25.2102L375.054 25.483C374.952 25.8125 374.78 26.1023 374.538 26.3523C374.297 26.5994 373.999 26.7926 373.643 26.9318C373.288 27.0682 372.889 27.1364 372.446 27.1364ZM376.822 27V18.2727H377.828V21.4943H377.913C377.987 21.3807 378.089 21.2358 378.22 21.0597C378.354 20.8807 378.544 20.7216 378.791 20.5824C379.041 20.4403 379.379 20.3693 379.805 20.3693C380.357 20.3693 380.842 20.5071 381.263 20.7827C381.683 21.0582 382.011 21.4489 382.247 21.9545C382.483 22.4602 382.601 23.0568 382.601 23.7443C382.601 24.4375 382.483 25.0384 382.247 25.5469C382.011 26.0526 381.685 26.4446 381.267 26.723C380.849 26.9986 380.368 27.1364 379.822 27.1364C379.402 27.1364 379.065 27.0668 378.812 26.9276C378.56 26.7855 378.365 26.625 378.229 26.446C378.092 26.2642 377.987 26.1136 377.913 25.9943H377.794V27H376.822ZM377.811 23.7273C377.811 24.2216 377.884 24.6577 378.028 25.0355C378.173 25.4105 378.385 25.7045 378.663 25.9176C378.942 26.1278 379.283 26.233 379.686 26.233C380.107 26.233 380.457 26.1222 380.739 25.9006C381.023 25.6761 381.236 25.375 381.378 24.9972C381.523 24.6165 381.595 24.1932 381.595 23.7273C381.595 23.267 381.524 22.8523 381.382 22.483C381.243 22.1108 381.031 21.8168 380.747 21.6009C380.466 21.3821 380.112 21.2727 379.686 21.2727C379.277 21.2727 378.933 21.3764 378.655 21.5838C378.376 21.7884 378.166 22.0753 378.024 22.4446C377.882 22.8111 377.811 23.2386 377.811 23.7273ZM392.151 21.9205L391.247 22.1761C391.19 22.0256 391.107 21.8793 390.996 21.7372C390.888 21.5923 390.74 21.473 390.553 21.3793C390.365 21.2855 390.125 21.2386 389.832 21.2386C389.432 21.2386 389.098 21.331 388.831 21.5156C388.567 21.6974 388.435 21.929 388.435 22.2102C388.435 22.4602 388.526 22.6577 388.707 22.8026C388.889 22.9474 389.173 23.0682 389.56 23.1648L390.531 23.4034C391.116 23.5455 391.553 23.7628 391.839 24.0554C392.126 24.3452 392.27 24.7187 392.27 25.1761C392.27 25.5511 392.162 25.8864 391.946 26.1818C391.733 26.4773 391.435 26.7102 391.051 26.8807C390.668 27.0511 390.222 27.1364 389.713 27.1364C389.045 27.1364 388.493 26.9915 388.055 26.7017C387.618 26.4119 387.341 25.9886 387.224 25.4318L388.179 25.1932C388.27 25.5455 388.442 25.8097 388.695 25.9858C388.95 26.1619 389.284 26.25 389.696 26.25C390.165 26.25 390.537 26.1506 390.812 25.9517C391.091 25.75 391.23 25.5085 391.23 25.2273C391.23 25 391.151 24.8097 390.991 24.6562C390.832 24.5 390.588 24.3835 390.259 24.3068L389.168 24.0511C388.568 23.9091 388.128 23.6889 387.847 23.3906C387.568 23.0895 387.429 22.7131 387.429 22.2614C387.429 21.892 387.533 21.5653 387.74 21.2812C387.95 20.9972 388.236 20.7741 388.597 20.6122C388.96 20.4503 389.372 20.3693 389.832 20.3693C390.48 20.3693 390.989 20.5114 391.358 20.7955C391.73 21.0795 391.994 21.4545 392.151 21.9205ZM396.443 27.1364C395.829 27.1364 395.301 26.9915 394.858 26.7017C394.414 26.4119 394.074 26.0128 393.835 25.5043C393.596 24.9957 393.477 24.4148 393.477 23.7614C393.477 23.0966 393.599 22.5099 393.843 22.0014C394.091 21.4901 394.434 21.0909 394.875 20.804C395.318 20.5142 395.835 20.3693 396.426 20.3693C396.886 20.3693 397.301 20.4545 397.67 20.625C398.039 20.7955 398.342 21.0341 398.578 21.3409C398.814 21.6477 398.96 22.0057 399.017 22.4148H398.011C397.934 22.1165 397.764 21.8523 397.5 21.6222C397.238 21.3892 396.886 21.2727 396.443 21.2727C396.051 21.2727 395.707 21.375 395.412 21.5795C395.119 21.7812 394.89 22.0668 394.725 22.4361C394.564 22.8026 394.483 23.233 394.483 23.7273C394.483 24.233 394.562 24.6733 394.721 25.0483C394.883 25.4233 395.11 25.7145 395.403 25.9219C395.699 26.1293 396.045 26.233 396.443 26.233C396.704 26.233 396.941 26.1875 397.154 26.0966C397.368 26.0057 397.548 25.875 397.696 25.7045C397.843 25.5341 397.949 25.3295 398.011 25.0909H399.017C398.96 25.4773 398.819 25.8253 398.595 26.1349C398.373 26.4418 398.079 26.6861 397.713 26.8679C397.349 27.0469 396.926 27.1364 396.443 27.1364ZM400.487 27V20.4545H401.458V21.4432H401.527C401.646 21.1193 401.862 20.8565 402.174 20.6548C402.487 20.4531 402.839 20.3523 403.231 20.3523C403.305 20.3523 403.397 20.3537 403.508 20.3565C403.619 20.3594 403.703 20.3636 403.76 20.3693V21.392C403.725 21.3835 403.647 21.3707 403.525 21.3537C403.406 21.3338 403.279 21.3239 403.146 21.3239C402.828 21.3239 402.544 21.3906 402.294 21.5241C402.047 21.6548 401.85 21.8366 401.706 22.0696C401.564 22.2997 401.493 22.5625 401.493 22.858V27H400.487ZM406.878 27.1534C406.463 27.1534 406.087 27.0753 405.749 26.919C405.411 26.7599 405.142 26.5312 404.943 26.233C404.744 25.9318 404.645 25.5682 404.645 25.142C404.645 24.767 404.719 24.4631 404.866 24.2301C405.014 23.9943 405.212 23.8097 405.459 23.6761C405.706 23.5426 405.979 23.4432 406.277 23.3778C406.578 23.3097 406.881 23.2557 407.185 23.2159C407.582 23.1648 407.905 23.1264 408.152 23.1009C408.402 23.0724 408.584 23.0256 408.697 22.9602C408.814 22.8949 408.872 22.7812 408.872 22.6193V22.5852C408.872 22.1648 408.757 21.8381 408.527 21.6051C408.3 21.3722 407.955 21.2557 407.491 21.2557C407.011 21.2557 406.635 21.3608 406.362 21.571C406.089 21.7812 405.898 22.0057 405.787 22.2443L404.832 21.9034C405.003 21.5057 405.23 21.196 405.514 20.9744C405.801 20.75 406.114 20.5937 406.452 20.5057C406.793 20.4148 407.128 20.3693 407.457 20.3693C407.668 20.3693 407.909 20.3949 408.182 20.446C408.457 20.4943 408.723 20.5952 408.979 20.7486C409.237 20.902 409.452 21.1335 409.622 21.4432C409.793 21.7528 409.878 22.1676 409.878 22.6875V27H408.872V26.1136H408.821C408.753 26.2557 408.639 26.4077 408.48 26.5696C408.321 26.7315 408.109 26.8693 407.845 26.983C407.581 27.0966 407.259 27.1534 406.878 27.1534ZM407.031 26.25C407.429 26.25 407.764 26.1719 408.037 26.0156C408.313 25.8594 408.52 25.6577 408.659 25.4105C408.801 25.1634 408.872 24.9034 408.872 24.6307V23.7102C408.83 23.7614 408.736 23.8082 408.591 23.8509C408.449 23.8906 408.284 23.9261 408.097 23.9574C407.912 23.9858 407.732 24.0114 407.555 24.0341C407.382 24.054 407.241 24.071 407.134 24.0852C406.872 24.1193 406.628 24.1747 406.401 24.2514C406.176 24.3253 405.994 24.4375 405.855 24.5881C405.719 24.7358 405.651 24.9375 405.651 25.1932C405.651 25.5426 405.78 25.8068 406.038 25.9858C406.3 26.1619 406.631 26.25 407.031 26.25ZM411.713 29.4545V20.4545H412.685V21.4943H412.804C412.878 21.3807 412.98 21.2358 413.111 21.0597C413.245 20.8807 413.435 20.7216 413.682 20.5824C413.932 20.4403 414.27 20.3693 414.696 20.3693C415.248 20.3693 415.733 20.5071 416.154 20.7827C416.574 21.0582 416.902 21.4489 417.138 21.9545C417.374 22.4602 417.492 23.0568 417.492 23.7443C417.492 24.4375 417.374 25.0384 417.138 25.5469C416.902 26.0526 416.576 26.4446 416.158 26.723C415.74 26.9986 415.259 27.1364 414.713 27.1364C414.293 27.1364 413.956 27.0668 413.703 26.9276C413.451 26.7855 413.256 26.625 413.12 26.446C412.983 26.2642 412.878 26.1136 412.804 25.9943H412.719V29.4545H411.713ZM412.702 23.7273C412.702 24.2216 412.775 24.6577 412.919 25.0355C413.064 25.4105 413.276 25.7045 413.554 25.9176C413.833 26.1278 414.174 26.233 414.577 26.233C414.998 26.233 415.348 26.1222 415.63 25.9006C415.914 25.6761 416.127 25.375 416.269 24.9972C416.414 24.6165 416.486 24.1932 416.486 23.7273C416.486 23.267 416.415 22.8523 416.273 22.483C416.134 22.1108 415.922 21.8168 415.638 21.6009C415.357 21.3821 415.003 21.2727 414.577 21.2727C414.168 21.2727 413.824 21.3764 413.546 21.5838C413.267 21.7884 413.057 22.0753 412.915 22.4446C412.773 22.8111 412.702 23.2386 412.702 23.7273ZM419.026 29.4545V20.4545H419.998V21.4943H420.117C420.191 21.3807 420.293 21.2358 420.424 21.0597C420.557 20.8807 420.748 20.7216 420.995 20.5824C421.245 20.4403 421.583 20.3693 422.009 20.3693C422.56 20.3693 423.046 20.5071 423.466 20.7827C423.887 21.0582 424.215 21.4489 424.451 21.9545C424.686 22.4602 424.804 23.0568 424.804 23.7443C424.804 24.4375 424.686 25.0384 424.451 25.5469C424.215 26.0526 423.888 26.4446 423.471 26.723C423.053 26.9986 422.571 27.1364 422.026 27.1364C421.605 27.1364 421.269 27.0668 421.016 26.9276C420.763 26.7855 420.569 26.625 420.432 26.446C420.296 26.2642 420.191 26.1136 420.117 25.9943H420.032V29.4545H419.026ZM420.015 23.7273C420.015 24.2216 420.087 24.6577 420.232 25.0355C420.377 25.4105 420.588 25.7045 420.867 25.9176C421.145 26.1278 421.486 26.233 421.89 26.233C422.31 26.233 422.661 26.1222 422.942 25.9006C423.226 25.6761 423.439 25.375 423.581 24.9972C423.726 24.6165 423.799 24.1932 423.799 23.7273C423.799 23.267 423.728 22.8523 423.586 22.483C423.446 22.1108 423.235 21.8168 422.951 21.6009C422.669 21.3821 422.316 21.2727 421.89 21.2727C421.48 21.2727 421.137 21.3764 420.858 21.5838C420.58 21.7884 420.37 22.0753 420.228 22.4446C420.086 22.8111 420.015 23.2386 420.015 23.7273ZM426.338 27V20.4545H427.344V27H426.338ZM426.85 19.3636C426.654 19.3636 426.485 19.2969 426.343 19.1634C426.203 19.0298 426.134 18.8693 426.134 18.6818C426.134 18.4943 426.203 18.3338 426.343 18.2003C426.485 18.0668 426.654 18 426.85 18C427.046 18 427.213 18.0668 427.353 18.2003C427.495 18.3338 427.566 18.4943 427.566 18.6818C427.566 18.8693 427.495 19.0298 427.353 19.1634C427.213 19.2969 427.046 19.3636 426.85 19.3636ZM430.192 23.0625V27H429.186V20.4545H430.158V21.4773H430.243C430.396 21.1449 430.629 20.8778 430.942 20.6761C431.254 20.4716 431.658 20.3693 432.152 20.3693C432.595 20.3693 432.983 20.4602 433.315 20.642C433.648 20.821 433.906 21.0938 434.091 21.4602C434.276 21.8239 434.368 22.2841 434.368 22.8409V27H433.362V22.9091C433.362 22.3949 433.229 21.9943 432.962 21.7074C432.695 21.4176 432.328 21.2727 431.862 21.2727C431.541 21.2727 431.254 21.3423 431.001 21.4815C430.751 21.6207 430.554 21.8239 430.409 22.0909C430.264 22.358 430.192 22.6818 430.192 23.0625ZM438.848 29.5909C438.362 29.5909 437.944 29.5284 437.595 29.4034C437.245 29.2812 436.954 29.1193 436.721 28.9176C436.491 28.7188 436.308 28.5057 436.172 28.2784L436.973 27.7159C437.064 27.8352 437.179 27.9716 437.318 28.125C437.457 28.2812 437.647 28.4162 437.889 28.5298C438.133 28.6463 438.453 28.7045 438.848 28.7045C439.376 28.7045 439.812 28.5767 440.156 28.321C440.5 28.0653 440.672 27.6648 440.672 27.1193V25.7898H440.586C440.512 25.9091 440.407 26.0568 440.271 26.233C440.137 26.4062 439.944 26.5611 439.691 26.6974C439.441 26.831 439.103 26.8977 438.677 26.8977C438.149 26.8977 437.674 26.7727 437.254 26.5227C436.836 26.2727 436.505 25.9091 436.261 25.4318C436.02 24.9545 435.899 24.375 435.899 23.6932C435.899 23.0227 436.017 22.4389 436.252 21.9418C436.488 21.4418 436.816 21.0554 437.237 20.7827C437.657 20.5071 438.143 20.3693 438.694 20.3693C439.12 20.3693 439.458 20.4403 439.708 20.5824C439.961 20.7216 440.154 20.8807 440.288 21.0597C440.424 21.2358 440.529 21.3807 440.603 21.4943H440.706V20.4545H441.677V27.1875C441.677 27.75 441.549 28.2074 441.294 28.5597C441.041 28.9148 440.7 29.1747 440.271 29.3395C439.845 29.5071 439.37 29.5909 438.848 29.5909ZM438.814 25.9943C439.217 25.9943 439.558 25.902 439.836 25.7173C440.115 25.5327 440.326 25.267 440.471 24.9205C440.616 24.5739 440.689 24.1591 440.689 23.6761C440.689 23.2045 440.618 22.7884 440.475 22.4276C440.333 22.0668 440.123 21.7841 439.845 21.5795C439.566 21.375 439.223 21.2727 438.814 21.2727C438.387 21.2727 438.032 21.3807 437.748 21.5966C437.467 21.8125 437.255 22.1023 437.113 22.4659C436.974 22.8295 436.904 23.233 436.904 23.6761C436.904 24.1307 436.975 24.5327 437.118 24.8821C437.262 25.2287 437.475 25.5014 437.757 25.7003C438.041 25.8963 438.393 25.9943 438.814 25.9943Z" fill="#001524"/>
<rect x="234.5" y="140.5" width="140" height="44" rx="22" fill="#FFECD1" fill-opacity="0.9" stroke="#FFECD1"/>
<path d="M268.54 166H264C263.47 166 262.961 166.211 262.586 166.586C262.211 166.961 262 167.47 262 168V172.54" stroke="#001524" stroke-width="2" stroke-linecap="round" stroke-linejoin="round"/>
<path d="M254 154.34V156C254 156.796 254.316 157.559 254.879 158.121C255.441 158.684 256.204 159 257 159C257.53 159 258.039 159.211 258.414 159.586C258.789 159.961 259 160.47 259 161C259 162.1 259.9 163 261 163C261.53 163 262.039 162.789 262.414 162.414C262.789 162.039 263 161.531 263 161C263 159.9 263.9 159 265 159H268.17" stroke="#001524" stroke-width="2" stroke-linecap="round" stroke-linejoin="round"/>
<path d="M258 172.95V169C258 168.47 257.789 167.961 257.414 167.586C257.039 167.211 256.53 167 256 167C255.47 167 254.961 166.789 254.586 166.414C254.211 166.039 254 165.53 254 165V164C254 163.47 253.789 162.961 253.414 162.586C253.039 162.211 252.53 162 252 162H249.05" stroke="#001524" stroke-width="2" stroke-linecap="round" stroke-linejoin="round"/>
<path d="M259 173C264.523 173 269 168.523 269 163C269 157.477 264.523 153 259 153C253.477 153 249 157.477 249 163C249 168.523 253.477 173 259 173Z" stroke="#001524" stroke-width="2" stroke-linecap="round" stroke-linejoin="round"/>
<path d="M277.415 167H276.307L279.511 158.273H280.602L283.807 167H282.699L280.091 159.653H280.023L277.415 167ZM277.824 163.591H282.29V164.528H277.824V163.591ZM286.036 163.062V167H285.03V160.455H286.001V161.477H286.087C286.24 161.145 286.473 160.878 286.786 160.676C287.098 160.472 287.501 160.369 287.996 160.369C288.439 160.369 288.827 160.46 289.159 160.642C289.491 160.821 289.75 161.094 289.935 161.46C290.119 161.824 290.212 162.284 290.212 162.841V167H289.206V162.909C289.206 162.395 289.072 161.994 288.805 161.707C288.538 161.418 288.172 161.273 287.706 161.273C287.385 161.273 287.098 161.342 286.845 161.482C286.595 161.621 286.398 161.824 286.253 162.091C286.108 162.358 286.036 162.682 286.036 163.062ZM293.975 167.153C293.561 167.153 293.184 167.075 292.846 166.919C292.508 166.76 292.24 166.531 292.041 166.233C291.842 165.932 291.743 165.568 291.743 165.142C291.743 164.767 291.816 164.463 291.964 164.23C292.112 163.994 292.309 163.81 292.556 163.676C292.804 163.543 293.076 163.443 293.375 163.378C293.676 163.31 293.978 163.256 294.282 163.216C294.68 163.165 295.002 163.126 295.25 163.101C295.5 163.072 295.681 163.026 295.795 162.96C295.912 162.895 295.97 162.781 295.97 162.619V162.585C295.97 162.165 295.855 161.838 295.625 161.605C295.397 161.372 295.052 161.256 294.589 161.256C294.109 161.256 293.733 161.361 293.46 161.571C293.187 161.781 292.995 162.006 292.885 162.244L291.93 161.903C292.1 161.506 292.328 161.196 292.612 160.974C292.899 160.75 293.211 160.594 293.549 160.506C293.89 160.415 294.225 160.369 294.555 160.369C294.765 160.369 295.007 160.395 295.279 160.446C295.555 160.494 295.821 160.595 296.076 160.749C296.335 160.902 296.549 161.134 296.72 161.443C296.89 161.753 296.975 162.168 296.975 162.688V167H295.97V166.114H295.919C295.85 166.256 295.737 166.408 295.578 166.57C295.419 166.732 295.207 166.869 294.943 166.983C294.679 167.097 294.356 167.153 293.975 167.153ZM294.129 166.25C294.527 166.25 294.862 166.172 295.135 166.016C295.41 165.859 295.618 165.658 295.757 165.411C295.899 165.163 295.97 164.903 295.97 164.631V163.71C295.927 163.761 295.833 163.808 295.689 163.851C295.547 163.891 295.382 163.926 295.194 163.957C295.01 163.986 294.829 164.011 294.653 164.034C294.48 164.054 294.339 164.071 294.231 164.085C293.97 164.119 293.725 164.175 293.498 164.251C293.274 164.325 293.092 164.437 292.953 164.588C292.816 164.736 292.748 164.937 292.748 165.193C292.748 165.543 292.877 165.807 293.136 165.986C293.397 166.162 293.728 166.25 294.129 166.25ZM299.817 158.273V167H298.811V158.273H299.817ZM302.306 169.455C302.136 169.455 301.984 169.44 301.85 169.412C301.717 169.386 301.625 169.361 301.574 169.335L301.829 168.449C302.074 168.511 302.289 168.534 302.477 168.517C302.664 168.5 302.831 168.416 302.975 168.266C303.123 168.118 303.258 167.878 303.38 167.545L303.568 167.034L301.147 160.455H302.238L304.045 165.67H304.113L305.92 160.455H307.011L304.233 167.955C304.108 168.293 303.953 168.572 303.768 168.794C303.583 169.018 303.369 169.185 303.125 169.293C302.883 169.401 302.61 169.455 302.306 169.455ZM311.185 160.455V161.307H307.793V160.455H311.185ZM308.782 158.886H309.787V165.125C309.787 165.409 309.828 165.622 309.911 165.764C309.996 165.903 310.104 165.997 310.235 166.045C310.368 166.091 310.509 166.114 310.657 166.114C310.767 166.114 310.858 166.108 310.929 166.097C311 166.082 311.057 166.071 311.1 166.062L311.304 166.966C311.236 166.991 311.141 167.017 311.019 167.043C310.897 167.071 310.742 167.085 310.554 167.085C310.27 167.085 309.992 167.024 309.719 166.902C309.449 166.78 309.225 166.594 309.046 166.344C308.87 166.094 308.782 165.778 308.782 165.398V158.886ZM312.698 167V160.455H313.703V167H312.698ZM313.209 159.364C313.013 159.364 312.844 159.297 312.702 159.163C312.563 159.03 312.493 158.869 312.493 158.682C312.493 158.494 312.563 158.334 312.702 158.2C312.844 158.067 313.013 158 313.209 158C313.405 158 313.573 158.067 313.712 158.2C313.854 158.334 313.925 158.494 313.925 158.682C313.925 158.869 313.854 159.03 313.712 159.163C313.573 159.297 313.405 159.364 313.209 159.364ZM318.205 167.136C317.591 167.136 317.063 166.991 316.619 166.702C316.176 166.412 315.835 166.013 315.597 165.504C315.358 164.996 315.239 164.415 315.239 163.761C315.239 163.097 315.361 162.51 315.605 162.001C315.852 161.49 316.196 161.091 316.636 160.804C317.08 160.514 317.597 160.369 318.188 160.369C318.648 160.369 319.062 160.455 319.432 160.625C319.801 160.795 320.104 161.034 320.339 161.341C320.575 161.648 320.722 162.006 320.778 162.415H319.773C319.696 162.116 319.526 161.852 319.261 161.622C319 161.389 318.648 161.273 318.205 161.273C317.813 161.273 317.469 161.375 317.173 161.58C316.881 161.781 316.652 162.067 316.487 162.436C316.325 162.803 316.244 163.233 316.244 163.727C316.244 164.233 316.324 164.673 316.483 165.048C316.645 165.423 316.872 165.714 317.165 165.922C317.46 166.129 317.807 166.233 318.205 166.233C318.466 166.233 318.703 166.188 318.916 166.097C319.129 166.006 319.31 165.875 319.457 165.705C319.605 165.534 319.71 165.33 319.773 165.091H320.778C320.722 165.477 320.581 165.825 320.357 166.135C320.135 166.442 319.841 166.686 319.474 166.868C319.111 167.047 318.688 167.136 318.205 167.136ZM326.885 161.92L325.982 162.176C325.925 162.026 325.841 161.879 325.73 161.737C325.622 161.592 325.474 161.473 325.287 161.379C325.099 161.286 324.859 161.239 324.567 161.239C324.166 161.239 323.832 161.331 323.565 161.516C323.301 161.697 323.169 161.929 323.169 162.21C323.169 162.46 323.26 162.658 323.442 162.803C323.624 162.947 323.908 163.068 324.294 163.165L325.266 163.403C325.851 163.545 326.287 163.763 326.574 164.055C326.861 164.345 327.004 164.719 327.004 165.176C327.004 165.551 326.896 165.886 326.68 166.182C326.467 166.477 326.169 166.71 325.786 166.881C325.402 167.051 324.956 167.136 324.447 167.136C323.78 167.136 323.227 166.991 322.79 166.702C322.352 166.412 322.075 165.989 321.959 165.432L322.913 165.193C323.004 165.545 323.176 165.81 323.429 165.986C323.685 166.162 324.018 166.25 324.43 166.25C324.899 166.25 325.271 166.151 325.547 165.952C325.825 165.75 325.964 165.509 325.964 165.227C325.964 165 325.885 164.81 325.726 164.656C325.567 164.5 325.322 164.384 324.993 164.307L323.902 164.051C323.303 163.909 322.862 163.689 322.581 163.391C322.303 163.089 322.163 162.713 322.163 162.261C322.163 161.892 322.267 161.565 322.474 161.281C322.685 160.997 322.97 160.774 323.331 160.612C323.695 160.45 324.107 160.369 324.567 160.369C325.214 160.369 325.723 160.511 326.092 160.795C326.464 161.08 326.729 161.455 326.885 161.92ZM331.552 159.21V158.273H338.098V159.21H335.353V167H334.297V159.21H331.552ZM341.302 167.136C340.711 167.136 340.193 166.996 339.747 166.714C339.304 166.433 338.957 166.04 338.707 165.534C338.46 165.028 338.336 164.437 338.336 163.761C338.336 163.08 338.46 162.484 338.707 161.976C338.957 161.467 339.304 161.072 339.747 160.791C340.193 160.51 340.711 160.369 341.302 160.369C341.893 160.369 342.41 160.51 342.853 160.791C343.299 161.072 343.646 161.467 343.893 161.976C344.143 162.484 344.268 163.08 344.268 163.761C344.268 164.437 344.143 165.028 343.893 165.534C343.646 166.04 343.299 166.433 342.853 166.714C342.41 166.996 341.893 167.136 341.302 167.136ZM341.302 166.233C341.751 166.233 342.12 166.118 342.41 165.888C342.7 165.658 342.914 165.355 343.054 164.98C343.193 164.605 343.262 164.199 343.262 163.761C343.262 163.324 343.193 162.916 343.054 162.538C342.914 162.161 342.7 161.855 342.41 161.622C342.12 161.389 341.751 161.273 341.302 161.273C340.853 161.273 340.484 161.389 340.194 161.622C339.904 161.855 339.69 162.161 339.551 162.538C339.412 162.916 339.342 163.324 339.342 163.761C339.342 164.199 339.412 164.605 339.551 164.98C339.69 165.355 339.904 165.658 340.194 165.888C340.484 166.118 340.853 166.233 341.302 166.233ZM348.462 167.136C347.871 167.136 347.353 166.996 346.907 166.714C346.464 166.433 346.117 166.04 345.867 165.534C345.62 165.028 345.496 164.437 345.496 163.761C345.496 163.08 345.62 162.484 345.867 161.976C346.117 161.467 346.464 161.072 346.907 160.791C347.353 160.51 347.871 160.369 348.462 160.369C349.053 160.369 349.57 160.51 350.013 160.791C350.46 161.072 350.806 161.467 351.053 161.976C351.303 162.484 351.428 163.08 351.428 163.761C351.428 164.437 351.303 165.028 351.053 165.534C350.806 166.04 350.46 166.433 350.013 166.714C349.57 166.996 349.053 167.136 348.462 167.136ZM348.462 166.233C348.911 166.233 349.281 166.118 349.57 165.888C349.86 165.658 350.075 165.355 350.214 164.98C350.353 164.605 350.423 164.199 350.423 163.761C350.423 163.324 350.353 162.916 350.214 162.538C350.075 162.161 349.86 161.855 349.57 161.622C349.281 161.389 348.911 161.273 348.462 161.273C348.013 161.273 347.644 161.389 347.354 161.622C347.065 161.855 346.85 162.161 346.711 162.538C346.572 162.916 346.502 163.324 346.502 163.761C346.502 164.199 346.572 164.605 346.711 164.98C346.85 165.355 347.065 165.658 347.354 165.888C347.644 166.118 348.013 166.233 348.462 166.233ZM353.969 158.273V167H352.963V158.273H353.969ZM360.447 161.92L359.544 162.176C359.487 162.026 359.403 161.879 359.293 161.737C359.185 161.592 359.037 161.473 358.849 161.379C358.662 161.286 358.422 161.239 358.129 161.239C357.729 161.239 357.395 161.331 357.128 161.516C356.864 161.697 356.732 161.929 356.732 162.21C356.732 162.46 356.822 162.658 357.004 162.803C357.186 162.947 357.47 163.068 357.857 163.165L358.828 163.403C359.413 163.545 359.849 163.763 360.136 164.055C360.423 164.345 360.567 164.719 360.567 165.176C360.567 165.551 360.459 165.886 360.243 166.182C360.03 166.477 359.732 166.71 359.348 166.881C358.964 167.051 358.518 167.136 358.01 167.136C357.342 167.136 356.79 166.991 356.352 166.702C355.915 166.412 355.638 165.989 355.521 165.432L356.476 165.193C356.567 165.545 356.739 165.81 356.991 165.986C357.247 166.162 357.581 166.25 357.993 166.25C358.462 166.25 358.834 166.151 359.109 165.952C359.388 165.75 359.527 165.509 359.527 165.227C359.527 165 359.447 164.81 359.288 164.656C359.129 164.5 358.885 164.384 358.555 164.307L357.464 164.051C356.865 163.909 356.425 163.689 356.143 163.391C355.865 163.089 355.726 162.713 355.726 162.261C355.726 161.892 355.83 161.565 356.037 161.281C356.247 160.997 356.533 160.774 356.893 160.612C357.257 160.45 357.669 160.369 358.129 160.369C358.777 160.369 359.286 160.511 359.655 160.795C360.027 161.08 360.291 161.455 360.447 161.92Z" fill="#001524"/>
<rect x="375.5" y="299.5" width="140" height="44" rx="22" fill="#FFECD1" fill-opacity="0.9" stroke="#FFECD1"/>
<path d="M409.54 325H405C404.47 325 403.961 325.211 403.586 325.586C403.211 325.961 403 326.47 403 327V331.54" stroke="#001524" stroke-width="2" stroke-linecap="round" stroke-linejoin="round"/>
<path d="M395 313.34V315C395 315.796 395.316 316.559 395.879 317.121C396.441 317.684 397.204 318 398 318C398.53 318 399.039 318.211 399.414 318.586C399.789 318.961 400 319.47 400 320C400 321.1 400.9 322 402 322C402.53 322 403.039 321.789 403.414 321.414C403.789 321.039 404 320.531 404 320C404 318.9 404.9 318 406 318H409.17" stroke="#001524" stroke-width="2" stroke-linecap="round" stroke-linejoin="round"/>
<path d="M399 331.95V328C399 327.47 398.789 326.961 398.414 326.586C398.039 326.211 397.53 326 397 326C396.47 326 395.961 325.789 395.586 325.414C395.211 325.039 395 324.53 395 324V323C395 322.47 394.789 321.961 394.414 321.586C394.039 321.211 393.53 321 393 321H390.05" stroke="#001524" stroke-width="2" stroke-linecap="round" stroke-linejoin="round"/>
<path d="M400 332C405.523 332 410 327.523 410 322C410 316.477 405.523 312 400 312C394.477 312 390 316.477 390 322C390 327.523 394.477 332 400 332Z" stroke="#001524" stroke-width="2" stroke-linecap="round" stroke-linejoin="round"/>
<path d="M418.057 326V317.273H421.006C421.69 317.273 422.25 317.396 422.685 317.643C423.122 317.888 423.446 318.219 423.656 318.636C423.866 319.054 423.972 319.52 423.972 320.034C423.972 320.548 423.866 321.016 423.656 321.436C423.449 321.857 423.128 322.192 422.693 322.442C422.259 322.689 421.702 322.812 421.023 322.812H418.909V321.875H420.989C421.457 321.875 421.834 321.794 422.118 321.632C422.402 321.47 422.608 321.251 422.736 320.976C422.866 320.697 422.932 320.384 422.932 320.034C422.932 319.685 422.866 319.372 422.736 319.097C422.608 318.821 422.401 318.605 422.114 318.449C421.827 318.29 421.446 318.21 420.972 318.21H419.114V326H418.057ZM429.663 323.324V319.455H430.668V326H429.663V324.892H429.594C429.441 325.224 429.202 325.507 428.879 325.74C428.555 325.97 428.146 326.085 427.651 326.085C427.242 326.085 426.879 325.996 426.56 325.817C426.242 325.635 425.992 325.362 425.81 324.999C425.629 324.632 425.538 324.17 425.538 323.614V319.455H426.543V323.545C426.543 324.023 426.677 324.403 426.944 324.688C427.214 324.972 427.558 325.114 427.975 325.114C428.225 325.114 428.479 325.05 428.738 324.922C428.999 324.794 429.218 324.598 429.394 324.334C429.573 324.07 429.663 323.733 429.663 323.324ZM432.647 326V317.273H433.652V320.494H433.738C433.811 320.381 433.914 320.236 434.044 320.06C434.178 319.881 434.368 319.722 434.615 319.582C434.865 319.44 435.203 319.369 435.63 319.369C436.181 319.369 436.667 319.507 437.087 319.783C437.507 320.058 437.836 320.449 438.071 320.955C438.307 321.46 438.425 322.057 438.425 322.744C438.425 323.438 438.307 324.038 438.071 324.547C437.836 325.053 437.509 325.445 437.091 325.723C436.674 325.999 436.192 326.136 435.647 326.136C435.226 326.136 434.89 326.067 434.637 325.928C434.384 325.786 434.189 325.625 434.053 325.446C433.917 325.264 433.811 325.114 433.738 324.994H433.618V326H432.647ZM433.635 322.727C433.635 323.222 433.708 323.658 433.853 324.036C433.998 324.411 434.209 324.705 434.488 324.918C434.766 325.128 435.107 325.233 435.51 325.233C435.931 325.233 436.282 325.122 436.563 324.901C436.847 324.676 437.06 324.375 437.202 323.997C437.347 323.616 437.419 323.193 437.419 322.727C437.419 322.267 437.348 321.852 437.206 321.483C437.067 321.111 436.855 320.817 436.571 320.601C436.29 320.382 435.936 320.273 435.51 320.273C435.101 320.273 434.757 320.376 434.479 320.584C434.201 320.788 433.99 321.075 433.848 321.445C433.706 321.811 433.635 322.239 433.635 322.727ZM440.969 317.273V326H439.963V317.273H440.969ZM442.811 326V319.455H443.817V326H442.811ZM443.322 318.364C443.126 318.364 442.957 318.297 442.815 318.163C442.676 318.03 442.607 317.869 442.607 317.682C442.607 317.494 442.676 317.334 442.815 317.2C442.957 317.067 443.126 317 443.322 317C443.518 317 443.686 317.067 443.825 317.2C443.967 317.334 444.038 317.494 444.038 317.682C444.038 317.869 443.967 318.03 443.825 318.163C443.686 318.297 443.518 318.364 443.322 318.364ZM448.318 326.136C447.704 326.136 447.176 325.991 446.733 325.702C446.289 325.412 445.949 325.013 445.71 324.504C445.471 323.996 445.352 323.415 445.352 322.761C445.352 322.097 445.474 321.51 445.718 321.001C445.966 320.49 446.309 320.091 446.75 319.804C447.193 319.514 447.71 319.369 448.301 319.369C448.761 319.369 449.176 319.455 449.545 319.625C449.914 319.795 450.217 320.034 450.453 320.341C450.689 320.648 450.835 321.006 450.892 321.415H449.886C449.809 321.116 449.639 320.852 449.375 320.622C449.113 320.389 448.761 320.273 448.318 320.273C447.926 320.273 447.582 320.375 447.287 320.58C446.994 320.781 446.765 321.067 446.6 321.436C446.439 321.803 446.358 322.233 446.358 322.727C446.358 323.233 446.437 323.673 446.596 324.048C446.758 324.423 446.985 324.714 447.278 324.922C447.574 325.129 447.92 325.233 448.318 325.233C448.579 325.233 448.816 325.188 449.029 325.097C449.243 325.006 449.423 324.875 449.571 324.705C449.718 324.534 449.824 324.33 449.886 324.091H450.892C450.835 324.477 450.694 324.825 450.47 325.135C450.248 325.442 449.954 325.686 449.588 325.868C449.224 326.047 448.801 326.136 448.318 326.136ZM458.566 326H455.873V317.273H458.686C459.532 317.273 460.257 317.447 460.859 317.797C461.461 318.143 461.923 318.642 462.244 319.293C462.565 319.94 462.725 320.716 462.725 321.619C462.725 322.528 462.564 323.311 462.24 323.967C461.916 324.621 461.444 325.124 460.825 325.476C460.206 325.825 459.453 326 458.566 326ZM456.93 325.062H458.498C459.22 325.062 459.818 324.923 460.292 324.645C460.767 324.366 461.12 323.97 461.353 323.456C461.586 322.942 461.703 322.33 461.703 321.619C461.703 320.915 461.588 320.308 461.358 319.8C461.127 319.288 460.784 318.896 460.326 318.624C459.869 318.348 459.299 318.21 458.618 318.21H456.93V325.062ZM466.288 326.153C465.873 326.153 465.497 326.075 465.159 325.919C464.821 325.76 464.552 325.531 464.353 325.233C464.154 324.932 464.055 324.568 464.055 324.142C464.055 323.767 464.129 323.463 464.277 323.23C464.424 322.994 464.622 322.81 464.869 322.676C465.116 322.543 465.389 322.443 465.687 322.378C465.988 322.31 466.291 322.256 466.595 322.216C466.993 322.165 467.315 322.126 467.562 322.101C467.812 322.072 467.994 322.026 468.108 321.96C468.224 321.895 468.282 321.781 468.282 321.619V321.585C468.282 321.165 468.167 320.838 467.937 320.605C467.71 320.372 467.365 320.256 466.902 320.256C466.422 320.256 466.045 320.361 465.772 320.571C465.5 320.781 465.308 321.006 465.197 321.244L464.243 320.903C464.413 320.506 464.64 320.196 464.924 319.974C465.211 319.75 465.524 319.594 465.862 319.506C466.203 319.415 466.538 319.369 466.868 319.369C467.078 319.369 467.319 319.395 467.592 319.446C467.868 319.494 468.133 319.595 468.389 319.749C468.647 319.902 468.862 320.134 469.032 320.443C469.203 320.753 469.288 321.168 469.288 321.688V326H468.282V325.114H468.231C468.163 325.256 468.049 325.408 467.89 325.57C467.731 325.732 467.52 325.869 467.255 325.983C466.991 326.097 466.669 326.153 466.288 326.153ZM466.441 325.25C466.839 325.25 467.174 325.172 467.447 325.016C467.723 324.859 467.93 324.658 468.069 324.411C468.211 324.163 468.282 323.903 468.282 323.631V322.71C468.24 322.761 468.146 322.808 468.001 322.851C467.859 322.891 467.694 322.926 467.507 322.957C467.322 322.986 467.142 323.011 466.966 323.034C466.792 323.054 466.652 323.071 466.544 323.085C466.282 323.119 466.038 323.175 465.811 323.251C465.586 323.325 465.404 323.437 465.265 323.588C465.129 323.736 465.061 323.937 465.061 324.193C465.061 324.543 465.19 324.807 465.449 324.986C465.71 325.162 466.041 325.25 466.441 325.25ZM473.97 319.455V320.307H470.578V319.455H473.97ZM471.567 317.886H472.572V324.125C472.572 324.409 472.614 324.622 472.696 324.764C472.781 324.903 472.889 324.997 473.02 325.045C473.153 325.091 473.294 325.114 473.442 325.114C473.553 325.114 473.643 325.108 473.714 325.097C473.786 325.082 473.842 325.071 473.885 325.062L474.089 325.966C474.021 325.991 473.926 326.017 473.804 326.043C473.682 326.071 473.527 326.085 473.339 326.085C473.055 326.085 472.777 326.024 472.504 325.902C472.234 325.78 472.01 325.594 471.831 325.344C471.655 325.094 471.567 324.778 471.567 324.398V317.886ZM477.409 326.153C476.994 326.153 476.618 326.075 476.28 325.919C475.942 325.76 475.673 325.531 475.474 325.233C475.276 324.932 475.176 324.568 475.176 324.142C475.176 323.767 475.25 323.463 475.398 323.23C475.545 322.994 475.743 322.81 475.99 322.676C476.237 322.543 476.51 322.443 476.808 322.378C477.109 322.31 477.412 322.256 477.716 322.216C478.114 322.165 478.436 322.126 478.683 322.101C478.933 322.072 479.115 322.026 479.229 321.96C479.345 321.895 479.403 321.781 479.403 321.619V321.585C479.403 321.165 479.288 320.838 479.058 320.605C478.831 320.372 478.486 320.256 478.023 320.256C477.543 320.256 477.166 320.361 476.893 320.571C476.621 320.781 476.429 321.006 476.318 321.244L475.364 320.903C475.534 320.506 475.761 320.196 476.045 319.974C476.332 319.75 476.645 319.594 476.983 319.506C477.324 319.415 477.659 319.369 477.989 319.369C478.199 319.369 478.44 319.395 478.713 319.446C478.989 319.494 479.254 319.595 479.51 319.749C479.768 319.902 479.983 320.134 480.153 320.443C480.324 320.753 480.409 321.168 480.409 321.688V326H479.403V325.114H479.352C479.284 325.256 479.17 325.408 479.011 325.57C478.852 325.732 478.641 325.869 478.376 325.983C478.112 326.097 477.79 326.153 477.409 326.153ZM477.562 325.25C477.96 325.25 478.295 325.172 478.568 325.016C478.844 324.859 479.051 324.658 479.19 324.411C479.332 324.163 479.403 323.903 479.403 323.631V322.71C479.361 322.761 479.267 322.808 479.122 322.851C478.98 322.891 478.815 322.926 478.628 322.957C478.443 322.986 478.263 323.011 478.087 323.034C477.913 323.054 477.773 323.071 477.665 323.085C477.403 323.119 477.159 323.175 476.932 323.251C476.707 323.325 476.526 323.437 476.386 323.588C476.25 323.736 476.182 323.937 476.182 324.193C476.182 324.543 476.311 324.807 476.57 324.986C476.831 325.162 477.162 325.25 477.562 325.25ZM486.881 320.92L485.978 321.176C485.921 321.026 485.837 320.879 485.726 320.737C485.618 320.592 485.471 320.473 485.283 320.379C485.096 320.286 484.855 320.239 484.563 320.239C484.162 320.239 483.828 320.331 483.561 320.516C483.297 320.697 483.165 320.929 483.165 321.21C483.165 321.46 483.256 321.658 483.438 321.803C483.62 321.947 483.904 322.068 484.29 322.165L485.262 322.403C485.847 322.545 486.283 322.763 486.57 323.055C486.857 323.345 487 323.719 487 324.176C487 324.551 486.892 324.886 486.676 325.182C486.463 325.477 486.165 325.71 485.782 325.881C485.398 326.051 484.952 326.136 484.444 326.136C483.776 326.136 483.223 325.991 482.786 325.702C482.348 325.412 482.071 324.989 481.955 324.432L482.909 324.193C483 324.545 483.172 324.81 483.425 324.986C483.681 325.162 484.015 325.25 484.426 325.25C484.895 325.25 485.267 325.151 485.543 324.952C485.821 324.75 485.961 324.509 485.961 324.227C485.961 324 485.881 323.81 485.722 323.656C485.563 323.5 485.319 323.384 484.989 323.307L483.898 323.051C483.299 322.909 482.858 322.689 482.577 322.391C482.299 322.089 482.159 321.713 482.159 321.261C482.159 320.892 482.263 320.565 482.471 320.281C482.681 319.997 482.966 319.774 483.327 319.612C483.691 319.45 484.103 319.369 484.563 319.369C485.211 319.369 485.719 319.511 486.088 319.795C486.461 320.08 486.725 320.455 486.881 320.92ZM491.259 326.136C490.628 326.136 490.084 325.997 489.626 325.719C489.172 325.438 488.821 325.045 488.574 324.543C488.33 324.037 488.207 323.449 488.207 322.778C488.207 322.108 488.33 321.517 488.574 321.006C488.821 320.491 489.165 320.091 489.605 319.804C490.048 319.514 490.565 319.369 491.156 319.369C491.497 319.369 491.834 319.426 492.166 319.54C492.499 319.653 492.801 319.838 493.074 320.094C493.347 320.347 493.564 320.682 493.726 321.099C493.888 321.517 493.969 322.031 493.969 322.642V323.068H488.923V322.199H492.946C492.946 321.83 492.872 321.5 492.724 321.21C492.58 320.92 492.372 320.692 492.102 320.524C491.835 320.357 491.52 320.273 491.156 320.273C490.756 320.273 490.409 320.372 490.116 320.571C489.827 320.767 489.604 321.023 489.447 321.338C489.291 321.653 489.213 321.991 489.213 322.352V322.932C489.213 323.426 489.298 323.845 489.469 324.189C489.642 324.53 489.882 324.79 490.189 324.969C490.496 325.145 490.852 325.233 491.259 325.233C491.523 325.233 491.761 325.196 491.974 325.122C492.19 325.045 492.376 324.932 492.533 324.781C492.689 324.628 492.81 324.437 492.895 324.21L493.866 324.483C493.764 324.812 493.592 325.102 493.351 325.352C493.109 325.599 492.811 325.793 492.456 325.932C492.101 326.068 491.702 326.136 491.259 326.136ZM498.345 319.455V320.307H494.953V319.455H498.345ZM495.942 317.886H496.947V324.125C496.947 324.409 496.989 324.622 497.071 324.764C497.156 324.903 497.264 324.997 497.395 325.045C497.528 325.091 497.669 325.114 497.817 325.114C497.928 325.114 498.018 325.108 498.089 325.097C498.161 325.082 498.217 325.071 498.26 325.062L498.464 325.966C498.396 325.991 498.301 326.017 498.179 326.043C498.057 326.071 497.902 326.085 497.714 326.085C497.43 326.085 497.152 326.024 496.879 325.902C496.609 325.78 496.385 325.594 496.206 325.344C496.03 325.094 495.942 324.778 495.942 324.398V317.886ZM504.377 320.92L503.474 321.176C503.417 321.026 503.333 320.879 503.222 320.737C503.114 320.592 502.967 320.473 502.779 320.379C502.592 320.286 502.352 320.239 502.059 320.239C501.658 320.239 501.325 320.331 501.058 320.516C500.793 320.697 500.661 320.929 500.661 321.21C500.661 321.46 500.752 321.658 500.934 321.803C501.116 321.947 501.4 322.068 501.786 322.165L502.758 322.403C503.343 322.545 503.779 322.763 504.066 323.055C504.353 323.345 504.496 323.719 504.496 324.176C504.496 324.551 504.388 324.886 504.173 325.182C503.96 325.477 503.661 325.71 503.278 325.881C502.894 326.051 502.448 326.136 501.94 326.136C501.272 326.136 500.719 325.991 500.282 325.702C499.844 325.412 499.567 324.989 499.451 324.432L500.406 324.193C500.496 324.545 500.668 324.81 500.921 324.986C501.177 325.162 501.511 325.25 501.923 325.25C502.391 325.25 502.763 325.151 503.039 324.952C503.317 324.75 503.457 324.509 503.457 324.227C503.457 324 503.377 323.81 503.218 323.656C503.059 323.5 502.815 323.384 502.485 323.307L501.394 323.051C500.795 322.909 500.354 322.689 500.073 322.391C499.795 322.089 499.656 321.713 499.656 321.261C499.656 320.892 499.759 320.565 499.967 320.281C500.177 319.997 500.462 319.774 500.823 319.612C501.187 319.45 501.599 319.369 502.059 319.369C502.707 319.369 503.215 319.511 503.585 319.795C503.957 320.08 504.221 320.455 504.377 320.92Z" fill="#001524"/>
<rect x="565.5" y="300.5" width="140" height="44" rx="22" fill="#FFECD1" fill-opacity="0.9" stroke="#FFECD1"/>
<path d="M599.54 326H595C594.47 326 593.961 326.211 593.586 326.586C593.211 326.961 593 327.47 593 328V332.54" stroke="#001524" stroke-width="2" stroke-linecap="round" stroke-linejoin="round"/>
<path d="M585 314.34V316C585 316.796 585.316 317.559 585.879 318.121C586.441 318.684 587.204 319 588 319C588.53 319 589.039 319.211 589.414 319.586C589.789 319.961 590 320.47 590 321C590 322.1 590.9 323 592 323C592.53 323 593.039 322.789 593.414 322.414C593.789 322.039 594 321.531 594 321C594 319.9 594.9 319 596 319H599.17" stroke="#001524" stroke-width="2" stroke-linecap="round" stroke-linejoin="round"/>
<path d="M589 332.95V329C589 328.47 588.789 327.961 588.414 327.586C588.039 327.211 587.53 327 587 327C586.47 327 585.961 326.789 585.586 326.414C585.211 326.039 585 325.53 585 325V324C585 323.47 584.789 322.961 584.414 322.586C584.039 322.211 583.53 322 583 322H580.05" stroke="#001524" stroke-width="2" stroke-linecap="round" stroke-linejoin="round"/>
<path d="M590 333C595.523 333 600 328.523 600 323C600 317.477 595.523 313 590 313C584.477 313 580 317.477 580 323C580 328.523 584.477 333 590 333Z" stroke="#001524" stroke-width="2" stroke-linecap="round" stroke-linejoin="round"/>
<path d="M608.057 327V318.273H609.114V322.602H609.216L613.136 318.273H614.517L610.852 322.21L614.517 327H613.239L610.205 322.943L609.114 324.17V327H608.057ZM617.675 327.153C617.26 327.153 616.884 327.075 616.545 326.919C616.207 326.76 615.939 326.531 615.74 326.233C615.541 325.932 615.442 325.568 615.442 325.142C615.442 324.767 615.516 324.463 615.663 324.23C615.811 323.994 616.009 323.81 616.256 323.676C616.503 323.543 616.776 323.443 617.074 323.378C617.375 323.31 617.678 323.256 617.982 323.216C618.379 323.165 618.702 323.126 618.949 323.101C619.199 323.072 619.381 323.026 619.494 322.96C619.611 322.895 619.669 322.781 619.669 322.619V322.585C619.669 322.165 619.554 321.838 619.324 321.605C619.097 321.372 618.751 321.256 618.288 321.256C617.808 321.256 617.432 321.361 617.159 321.571C616.886 321.781 616.695 322.006 616.584 322.244L615.629 321.903C615.8 321.506 616.027 321.196 616.311 320.974C616.598 320.75 616.911 320.594 617.249 320.506C617.589 320.415 617.925 320.369 618.254 320.369C618.464 320.369 618.706 320.395 618.979 320.446C619.254 320.494 619.52 320.595 619.776 320.749C620.034 320.902 620.249 321.134 620.419 321.443C620.589 321.753 620.675 322.168 620.675 322.688V327H619.669V326.114H619.618C619.55 326.256 619.436 326.408 619.277 326.57C619.118 326.732 618.906 326.869 618.642 326.983C618.378 327.097 618.055 327.153 617.675 327.153ZM617.828 326.25C618.226 326.25 618.561 326.172 618.834 326.016C619.109 325.859 619.317 325.658 619.456 325.411C619.598 325.163 619.669 324.903 619.669 324.631V323.71C619.626 323.761 619.533 323.808 619.388 323.851C619.246 323.891 619.081 323.926 618.893 323.957C618.709 323.986 618.528 324.011 618.352 324.034C618.179 324.054 618.038 324.071 617.93 324.085C617.669 324.119 617.425 324.175 617.197 324.251C616.973 324.325 616.791 324.437 616.652 324.588C616.516 324.736 616.447 324.937 616.447 325.193C616.447 325.543 616.577 325.807 616.835 325.986C617.097 326.162 617.428 326.25 617.828 326.25ZM625.152 329.591C624.667 329.591 624.249 329.528 623.9 329.403C623.55 329.281 623.259 329.119 623.026 328.918C622.796 328.719 622.613 328.506 622.476 328.278L623.277 327.716C623.368 327.835 623.483 327.972 623.623 328.125C623.762 328.281 623.952 328.416 624.194 328.53C624.438 328.646 624.757 328.705 625.152 328.705C625.681 328.705 626.117 328.577 626.461 328.321C626.804 328.065 626.976 327.665 626.976 327.119V325.79H626.891C626.817 325.909 626.712 326.057 626.576 326.233C626.442 326.406 626.249 326.561 625.996 326.697C625.746 326.831 625.408 326.898 624.982 326.898C624.453 326.898 623.979 326.773 623.559 326.523C623.141 326.273 622.81 325.909 622.566 325.432C622.324 324.955 622.203 324.375 622.203 323.693C622.203 323.023 622.321 322.439 622.557 321.942C622.793 321.442 623.121 321.055 623.542 320.783C623.962 320.507 624.448 320.369 624.999 320.369C625.425 320.369 625.763 320.44 626.013 320.582C626.266 320.722 626.459 320.881 626.593 321.06C626.729 321.236 626.834 321.381 626.908 321.494H627.01V320.455H627.982V327.188C627.982 327.75 627.854 328.207 627.598 328.56C627.346 328.915 627.005 329.175 626.576 329.339C626.15 329.507 625.675 329.591 625.152 329.591ZM625.118 325.994C625.522 325.994 625.863 325.902 626.141 325.717C626.419 325.533 626.631 325.267 626.776 324.92C626.921 324.574 626.993 324.159 626.993 323.676C626.993 323.205 626.922 322.788 626.78 322.428C626.638 322.067 626.428 321.784 626.15 321.58C625.871 321.375 625.527 321.273 625.118 321.273C624.692 321.273 624.337 321.381 624.053 321.597C623.772 321.812 623.56 322.102 623.418 322.466C623.279 322.83 623.209 323.233 623.209 323.676C623.209 324.131 623.28 324.533 623.422 324.882C623.567 325.229 623.78 325.501 624.061 325.7C624.346 325.896 624.698 325.994 625.118 325.994ZM632.465 329.591C631.979 329.591 631.561 329.528 631.212 329.403C630.863 329.281 630.571 329.119 630.338 328.918C630.108 328.719 629.925 328.506 629.789 328.278L630.59 327.716C630.681 327.835 630.796 327.972 630.935 328.125C631.074 328.281 631.265 328.416 631.506 328.53C631.75 328.646 632.07 328.705 632.465 328.705C632.993 328.705 633.429 328.577 633.773 328.321C634.117 328.065 634.289 327.665 634.289 327.119V325.79H634.203C634.13 325.909 634.025 326.057 633.888 326.233C633.755 326.406 633.561 326.561 633.309 326.697C633.059 326.831 632.721 326.898 632.294 326.898C631.766 326.898 631.292 326.773 630.871 326.523C630.453 326.273 630.123 325.909 629.878 325.432C629.637 324.955 629.516 324.375 629.516 323.693C629.516 323.023 629.634 322.439 629.87 321.942C630.105 321.442 630.434 321.055 630.854 320.783C631.275 320.507 631.76 320.369 632.311 320.369C632.738 320.369 633.076 320.44 633.326 320.582C633.578 320.722 633.772 320.881 633.905 321.06C634.042 321.236 634.147 321.381 634.221 321.494H634.323V320.455H635.294V327.188C635.294 327.75 635.167 328.207 634.911 328.56C634.658 328.915 634.317 329.175 633.888 329.339C633.462 329.507 632.988 329.591 632.465 329.591ZM632.431 325.994C632.834 325.994 633.175 325.902 633.453 325.717C633.732 325.533 633.944 325.267 634.088 324.92C634.233 324.574 634.306 324.159 634.306 323.676C634.306 323.205 634.235 322.788 634.093 322.428C633.951 322.067 633.74 321.784 633.462 321.58C633.184 321.375 632.84 321.273 632.431 321.273C632.005 321.273 631.65 321.381 631.365 321.597C631.084 321.812 630.873 322.102 630.73 322.466C630.591 322.83 630.522 323.233 630.522 323.676C630.522 324.131 630.593 324.533 630.735 324.882C630.88 325.229 631.093 325.501 631.374 325.7C631.658 325.896 632.01 325.994 632.431 325.994ZM638.141 318.273V327H637.135V318.273H638.141ZM642.727 327.136C642.097 327.136 641.553 326.997 641.095 326.719C640.641 326.438 640.29 326.045 640.043 325.543C639.798 325.037 639.676 324.449 639.676 323.778C639.676 323.108 639.798 322.517 640.043 322.006C640.29 321.491 640.634 321.091 641.074 320.804C641.517 320.514 642.034 320.369 642.625 320.369C642.966 320.369 643.303 320.426 643.635 320.54C643.967 320.653 644.27 320.838 644.543 321.094C644.815 321.347 645.033 321.682 645.195 322.099C645.357 322.517 645.438 323.031 645.438 323.642V324.068H640.392V323.199H644.415C644.415 322.83 644.341 322.5 644.193 322.21C644.048 321.92 643.841 321.692 643.571 321.524C643.304 321.357 642.989 321.273 642.625 321.273C642.224 321.273 641.878 321.372 641.585 321.571C641.295 321.767 641.072 322.023 640.916 322.338C640.76 322.653 640.682 322.991 640.682 323.352V323.932C640.682 324.426 640.767 324.845 640.938 325.189C641.111 325.53 641.351 325.79 641.658 325.969C641.964 326.145 642.321 326.233 642.727 326.233C642.991 326.233 643.23 326.196 643.443 326.122C643.659 326.045 643.845 325.932 644.001 325.781C644.158 325.628 644.278 325.437 644.364 325.21L645.335 325.483C645.233 325.812 645.061 326.102 644.82 326.352C644.578 326.599 644.28 326.793 643.925 326.932C643.57 327.068 643.17 327.136 642.727 327.136Z" fill="#001524"/>
<rect x="743.5" y="301.5" width="140" height="44" rx="22" fill="#FFECD1" fill-opacity="0.9" stroke="#FFECD1"/>
<path d="M777.54 327H773C772.47 327 771.961 327.211 771.586 327.586C771.211 327.961 771 328.47 771 329V333.54" stroke="#001524" stroke-width="2" stroke-linecap="round" stroke-linejoin="round"/>
<path d="M763 315.34V317C763 317.796 763.316 318.559 763.879 319.121C764.441 319.684 765.204 320 766 320C766.53 320 767.039 320.211 767.414 320.586C767.789 320.961 768 321.47 768 322C768 323.1 768.9 324 770 324C770.53 324 771.039 323.789 771.414 323.414C771.789 323.039 772 322.531 772 322C772 320.9 772.9 320 774 320H777.17" stroke="#001524" stroke-width="2" stroke-linecap="round" stroke-linejoin="round"/>
<path d="M767 333.95V330C767 329.47 766.789 328.961 766.414 328.586C766.039 328.211 765.53 328 765 328C764.47 328 763.961 327.789 763.586 327.414C763.211 327.039 763 326.53 763 326V325C763 324.47 762.789 323.961 762.414 323.586C762.039 323.211 761.53 323 761 323H758.05" stroke="#001524" stroke-width="2" stroke-linecap="round" stroke-linejoin="round"/>
<path d="M768 334C773.523 334 778 329.523 778 324C778 318.477 773.523 314 768 314C762.477 314 758 318.477 758 324C758 329.523 762.477 334 768 334Z" stroke="#001524" stroke-width="2" stroke-linecap="round" stroke-linejoin="round"/>
<path d="M785.767 328V327.233L790.472 320.21H785.716V319.273H791.733V320.04L787.028 327.062H791.784V328H785.767ZM793.42 328V321.455H794.426V328H793.42ZM793.932 320.364C793.736 320.364 793.567 320.297 793.425 320.163C793.286 320.03 793.216 319.869 793.216 319.682C793.216 319.494 793.286 319.334 793.425 319.2C793.567 319.067 793.736 319 793.932 319C794.128 319 794.295 319.067 794.435 319.2C794.577 319.334 794.648 319.494 794.648 319.682C794.648 319.869 794.577 320.03 794.435 320.163C794.295 320.297 794.128 320.364 793.932 320.364ZM797.274 324.062V328H796.268V321.455H797.24V322.477H797.325C797.478 322.145 797.711 321.878 798.024 321.676C798.336 321.472 798.74 321.369 799.234 321.369C799.677 321.369 800.065 321.46 800.397 321.642C800.73 321.821 800.988 322.094 801.173 322.46C801.358 322.824 801.45 323.284 801.45 323.841V328H800.444V323.909C800.444 323.395 800.311 322.994 800.044 322.707C799.777 322.418 799.41 322.273 798.944 322.273C798.623 322.273 798.336 322.342 798.083 322.482C797.833 322.621 797.636 322.824 797.491 323.091C797.346 323.358 797.274 323.682 797.274 324.062ZM805.759 328.136C805.214 328.136 804.732 327.999 804.315 327.723C803.897 327.445 803.57 327.053 803.335 326.547C803.099 326.038 802.981 325.438 802.981 324.744C802.981 324.057 803.099 323.46 803.335 322.955C803.57 322.449 803.898 322.058 804.319 321.783C804.739 321.507 805.225 321.369 805.776 321.369C806.202 321.369 806.539 321.44 806.786 321.582C807.036 321.722 807.227 321.881 807.357 322.06C807.491 322.236 807.594 322.381 807.668 322.494H807.754V319.273H808.759V328H807.788V326.994H807.668C807.594 327.114 807.489 327.264 807.353 327.446C807.217 327.625 807.022 327.786 806.769 327.928C806.516 328.067 806.18 328.136 805.759 328.136ZM805.896 327.233C806.299 327.233 806.64 327.128 806.918 326.918C807.197 326.705 807.408 326.411 807.553 326.036C807.698 325.658 807.771 325.222 807.771 324.727C807.771 324.239 807.7 323.811 807.558 323.445C807.415 323.075 807.205 322.788 806.927 322.584C806.648 322.376 806.305 322.273 805.896 322.273C805.469 322.273 805.114 322.382 804.83 322.601C804.549 322.817 804.337 323.111 804.195 323.483C804.056 323.852 803.987 324.267 803.987 324.727C803.987 325.193 804.058 325.616 804.2 325.997C804.344 326.375 804.558 326.676 804.839 326.901C805.123 327.122 805.475 327.233 805.896 327.233ZM810.741 328V321.455H811.746V328H810.741ZM811.252 320.364C811.056 320.364 810.887 320.297 810.745 320.163C810.606 320.03 810.536 319.869 810.536 319.682C810.536 319.494 810.606 319.334 810.745 319.2C810.887 319.067 811.056 319 811.252 319C811.448 319 811.616 319.067 811.755 319.2C811.897 319.334 811.968 319.494 811.968 319.682C811.968 319.869 811.897 320.03 811.755 320.163C811.616 320.297 811.448 320.364 811.252 320.364Z" fill="#001524"/>
<rect x="324.5" y="602.5" width="140" height="44" rx="22" fill="#FFECD1" fill-opacity="0.9" stroke="#FFECD1"/>
<path d="M358.54 628H354C353.47 628 352.961 628.211 352.586 628.586C352.211 628.961 352 629.47 352 630V634.54" stroke="#001524" stroke-width="2" stroke-linecap="round" stroke-linejoin="round"/>
<path d="M344 616.34V618C344 618.796 344.316 619.559 344.879 620.121C345.441 620.684 346.204 621 347 621C347.53 621 348.039 621.211 348.414 621.586C348.789 621.961 349 622.47 349 623C349 624.1 349.9 625 351 625C351.53 625 352.039 624.789 352.414 624.414C352.789 624.039 353 623.531 353 623C353 621.9 353.9 621 355 621H358.17" stroke="#001524" stroke-width="2" stroke-linecap="round" stroke-linejoin="round"/>
<path d="M348 634.95V631C348 630.47 347.789 629.961 347.414 629.586C347.039 629.211 346.53 629 346 629C345.47 629 344.961 628.789 344.586 628.414C344.211 628.039 344 627.53 344 627V626C344 625.47 343.789 624.961 343.414 624.586C343.039 624.211 342.53 624 342 624H339.05" stroke="#001524" stroke-width="2" stroke-linecap="round" stroke-linejoin="round"/>
<path d="M349 635C354.523 635 359 630.523 359 625C359 619.477 354.523 615 349 615C343.477 615 339 619.477 339 625C339 630.523 343.477 635 349 635Z" stroke="#001524" stroke-width="2" stroke-linecap="round" stroke-linejoin="round"/>
<path d="M367.415 629H366.307L369.511 620.273H370.602L373.807 629H372.699L370.091 621.653H370.023L367.415 629ZM367.824 625.591H372.29V626.528H367.824V625.591ZM375.166 629V620.273H378.115C378.8 620.273 379.359 620.396 379.794 620.643C380.232 620.888 380.555 621.219 380.766 621.636C380.976 622.054 381.081 622.52 381.081 623.034C381.081 623.548 380.976 624.016 380.766 624.436C380.558 624.857 380.237 625.192 379.803 625.442C379.368 625.689 378.811 625.812 378.132 625.812H376.018V624.875H378.098C378.567 624.875 378.943 624.794 379.227 624.632C379.511 624.47 379.717 624.251 379.845 623.976C379.976 623.697 380.041 623.384 380.041 623.034C380.041 622.685 379.976 622.372 379.845 622.097C379.717 621.821 379.51 621.605 379.223 621.449C378.936 621.29 378.555 621.21 378.081 621.21H376.223V629H375.166ZM383.84 620.273V629H382.783V620.273H383.84ZM390.459 623.92L389.556 624.176C389.499 624.026 389.415 623.879 389.304 623.737C389.196 623.592 389.049 623.473 388.861 623.379C388.674 623.286 388.434 623.239 388.141 623.239C387.74 623.239 387.407 623.331 387.14 623.516C386.875 623.697 386.743 623.929 386.743 624.21C386.743 624.46 386.834 624.658 387.016 624.803C387.198 624.947 387.482 625.068 387.868 625.165L388.84 625.403C389.425 625.545 389.861 625.763 390.148 626.055C390.435 626.345 390.578 626.719 390.578 627.176C390.578 627.551 390.471 627.886 390.255 628.182C390.042 628.477 389.743 628.71 389.36 628.881C388.976 629.051 388.53 629.136 388.022 629.136C387.354 629.136 386.801 628.991 386.364 628.702C385.926 628.412 385.65 627.989 385.533 627.432L386.488 627.193C386.578 627.545 386.75 627.81 387.003 627.986C387.259 628.162 387.593 628.25 388.005 628.25C388.473 628.25 388.846 628.151 389.121 627.952C389.4 627.75 389.539 627.509 389.539 627.227C389.539 627 389.459 626.81 389.3 626.656C389.141 626.5 388.897 626.384 388.567 626.307L387.476 626.051C386.877 625.909 386.436 625.689 386.155 625.391C385.877 625.089 385.738 624.713 385.738 624.261C385.738 623.892 385.841 623.565 386.049 623.281C386.259 622.997 386.544 622.774 386.905 622.612C387.269 622.45 387.681 622.369 388.141 622.369C388.789 622.369 389.297 622.511 389.667 622.795C390.039 623.08 390.303 623.455 390.459 623.92Z" fill="#001524"/>
<rect x="175.5" y="450.5" width="140" height="44" rx="22" fill="#FFECD1" fill-opacity="0.9" stroke="#FFECD1"/>
<rect x="175.5" y="450.5" width="140" height="44" rx="22" fill="#FFECD1" fill-opacity="0.9" stroke="#FFECD1"/>
<path d="M209.54 476H205C204.47 476 203.961 476.211 203.586 476.586C203.211 476.961 203 477.47 203 478V482.54" stroke="#001524" stroke-width="2" stroke-linecap="round" stroke-linejoin="round"/>
<path d="M195 464.34V466C195 466.796 195.316 467.559 195.879 468.121C196.441 468.684 197.204 469 198 469C198.53 469 199.039 469.211 199.414 469.586C199.789 469.961 200 470.47 200 471C200 472.1 200.9 473 202 473C202.53 473 203.039 472.789 203.414 472.414C203.789 472.039 204 471.531 204 471C204 469.9 204.9 469 206 469H209.17" stroke="#001524" stroke-width="2" stroke-linecap="round" stroke-linejoin="round"/>
<path d="M199 482.95V479C199 478.47 198.789 477.961 198.414 477.586C198.039 477.211 197.53 477 197 477C196.47 477 195.961 476.789 195.586 476.414C195.211 476.039 195 475.53 195 475V474C195 473.47 194.789 472.961 194.414 472.586C194.039 472.211 193.53 472 193 472H190.05" stroke="#001524" stroke-width="2" stroke-linecap="round" stroke-linejoin="round"/>
<path d="M200 483C205.523 483 210 478.523 210 473C210 467.477 205.523 463 200 463C194.477 463 190 467.477 190 473C190 478.523 194.477 483 200 483Z" stroke="#001524" stroke-width="2" stroke-linecap="round" stroke-linejoin="round"/>
<path d="M220.75 477H218.057V468.273H220.869C221.716 468.273 222.44 468.447 223.043 468.797C223.645 469.143 224.107 469.642 224.428 470.293C224.749 470.94 224.909 471.716 224.909 472.619C224.909 473.528 224.747 474.311 224.423 474.967C224.099 475.621 223.628 476.124 223.009 476.476C222.389 476.825 221.636 477 220.75 477ZM219.114 476.062H220.682C221.403 476.062 222.001 475.923 222.476 475.645C222.95 475.366 223.304 474.97 223.537 474.456C223.77 473.942 223.886 473.33 223.886 472.619C223.886 471.915 223.771 471.308 223.541 470.8C223.311 470.288 222.967 469.896 222.51 469.624C222.053 469.348 221.483 469.21 220.801 469.21H219.114V476.062ZM228.472 477.153C228.057 477.153 227.68 477.075 227.342 476.919C227.004 476.76 226.736 476.531 226.537 476.233C226.338 475.932 226.239 475.568 226.239 475.142C226.239 474.767 226.313 474.463 226.46 474.23C226.608 473.994 226.805 473.81 227.053 473.676C227.3 473.543 227.572 473.443 227.871 473.378C228.172 473.31 228.474 473.256 228.778 473.216C229.176 473.165 229.499 473.126 229.746 473.101C229.996 473.072 230.178 473.026 230.291 472.96C230.408 472.895 230.466 472.781 230.466 472.619V472.585C230.466 472.165 230.351 471.838 230.121 471.605C229.893 471.372 229.548 471.256 229.085 471.256C228.605 471.256 228.229 471.361 227.956 471.571C227.683 471.781 227.491 472.006 227.381 472.244L226.426 471.903C226.597 471.506 226.824 471.196 227.108 470.974C227.395 470.75 227.707 470.594 228.045 470.506C228.386 470.415 228.722 470.369 229.051 470.369C229.261 470.369 229.503 470.395 229.776 470.446C230.051 470.494 230.317 470.595 230.572 470.749C230.831 470.902 231.045 471.134 231.216 471.443C231.386 471.753 231.472 472.168 231.472 472.688V477H230.466V476.114H230.415C230.347 476.256 230.233 476.408 230.074 476.57C229.915 476.732 229.703 476.869 229.439 476.983C229.175 477.097 228.852 477.153 228.472 477.153ZM228.625 476.25C229.023 476.25 229.358 476.172 229.631 476.016C229.906 475.859 230.114 475.658 230.253 475.411C230.395 475.163 230.466 474.903 230.466 474.631V473.71C230.423 473.761 230.33 473.808 230.185 473.851C230.043 473.891 229.878 473.926 229.69 473.957C229.506 473.986 229.325 474.011 229.149 474.034C228.976 474.054 228.835 474.071 228.727 474.085C228.466 474.119 228.222 474.175 227.994 474.251C227.77 474.325 227.588 474.437 227.449 474.588C227.313 474.736 227.244 474.937 227.244 475.193C227.244 475.543 227.374 475.807 227.632 475.986C227.893 476.162 228.224 476.25 228.625 476.25ZM236.154 470.455V471.307H232.762V470.455H236.154ZM233.75 468.886H234.756V475.125C234.756 475.409 234.797 475.622 234.88 475.764C234.965 475.903 235.073 475.997 235.203 476.045C235.337 476.091 235.478 476.114 235.625 476.114C235.736 476.114 235.827 476.108 235.898 476.097C235.969 476.082 236.026 476.071 236.069 476.062L236.273 476.966C236.205 476.991 236.11 477.017 235.988 477.043C235.865 477.071 235.711 477.085 235.523 477.085C235.239 477.085 234.961 477.024 234.688 476.902C234.418 476.78 234.194 476.594 234.015 476.344C233.838 476.094 233.75 475.778 233.75 475.398V468.886ZM239.593 477.153C239.178 477.153 238.801 477.075 238.463 476.919C238.125 476.76 237.857 476.531 237.658 476.233C237.459 475.932 237.36 475.568 237.36 475.142C237.36 474.767 237.434 474.463 237.581 474.23C237.729 473.994 237.926 473.81 238.174 473.676C238.421 473.543 238.694 473.443 238.992 473.378C239.293 473.31 239.596 473.256 239.9 473.216C240.297 473.165 240.62 473.126 240.867 473.101C241.117 473.072 241.299 473.026 241.412 472.96C241.529 472.895 241.587 472.781 241.587 472.619V472.585C241.587 472.165 241.472 471.838 241.242 471.605C241.015 471.372 240.669 471.256 240.206 471.256C239.726 471.256 239.35 471.361 239.077 471.571C238.804 471.781 238.613 472.006 238.502 472.244L237.547 471.903C237.718 471.506 237.945 471.196 238.229 470.974C238.516 470.75 238.828 470.594 239.167 470.506C239.507 470.415 239.843 470.369 240.172 470.369C240.382 470.369 240.624 470.395 240.897 470.446C241.172 470.494 241.438 470.595 241.694 470.749C241.952 470.902 242.167 471.134 242.337 471.443C242.507 471.753 242.593 472.168 242.593 472.688V477H241.587V476.114H241.536C241.468 476.256 241.354 476.408 241.195 476.57C241.036 476.732 240.824 476.869 240.56 476.983C240.296 477.097 239.973 477.153 239.593 477.153ZM239.746 476.25C240.144 476.25 240.479 476.172 240.752 476.016C241.027 475.859 241.235 475.658 241.374 475.411C241.516 475.163 241.587 474.903 241.587 474.631V473.71C241.544 473.761 241.451 473.808 241.306 473.851C241.164 473.891 240.999 473.926 240.811 473.957C240.627 473.986 240.446 474.011 240.27 474.034C240.097 474.054 239.956 474.071 239.848 474.085C239.587 474.119 239.343 474.175 239.115 474.251C238.891 474.325 238.709 474.437 238.57 474.588C238.434 474.736 238.365 474.937 238.365 475.193C238.365 475.543 238.495 475.807 238.753 475.986C239.015 476.162 239.346 476.25 239.746 476.25ZM244.565 477V468.273H245.57V471.494H245.656C245.729 471.381 245.832 471.236 245.962 471.06C246.096 470.881 246.286 470.722 246.533 470.582C246.783 470.44 247.121 470.369 247.548 470.369C248.099 470.369 248.585 470.507 249.005 470.783C249.425 471.058 249.754 471.449 249.989 471.955C250.225 472.46 250.343 473.057 250.343 473.744C250.343 474.438 250.225 475.038 249.989 475.547C249.754 476.053 249.427 476.445 249.009 476.723C248.592 476.999 248.11 477.136 247.565 477.136C247.144 477.136 246.808 477.067 246.555 476.928C246.302 476.786 246.107 476.625 245.971 476.446C245.835 476.264 245.729 476.114 245.656 475.994H245.536V477H244.565ZM245.553 473.727C245.553 474.222 245.626 474.658 245.771 475.036C245.915 475.411 246.127 475.705 246.406 475.918C246.684 476.128 247.025 476.233 247.428 476.233C247.849 476.233 248.2 476.122 248.481 475.901C248.765 475.676 248.978 475.375 249.12 474.997C249.265 474.616 249.337 474.193 249.337 473.727C249.337 473.267 249.266 472.852 249.124 472.483C248.985 472.111 248.773 471.817 248.489 471.601C248.208 471.382 247.854 471.273 247.428 471.273C247.019 471.273 246.675 471.376 246.397 471.584C246.119 471.788 245.908 472.075 245.766 472.445C245.624 472.811 245.553 473.239 245.553 473.727ZM253.808 477.153C253.393 477.153 253.016 477.075 252.678 476.919C252.34 476.76 252.072 476.531 251.873 476.233C251.674 475.932 251.575 475.568 251.575 475.142C251.575 474.767 251.648 474.463 251.796 474.23C251.944 473.994 252.141 473.81 252.388 473.676C252.636 473.543 252.908 473.443 253.207 473.378C253.508 473.31 253.81 473.256 254.114 473.216C254.512 473.165 254.835 473.126 255.082 473.101C255.332 473.072 255.513 473.026 255.627 472.96C255.744 472.895 255.802 472.781 255.802 472.619V472.585C255.802 472.165 255.687 471.838 255.457 471.605C255.229 471.372 254.884 471.256 254.421 471.256C253.941 471.256 253.565 471.361 253.292 471.571C253.019 471.781 252.827 472.006 252.717 472.244L251.762 471.903C251.933 471.506 252.16 471.196 252.444 470.974C252.731 470.75 253.043 470.594 253.381 470.506C253.722 470.415 254.058 470.369 254.387 470.369C254.597 470.369 254.839 470.395 255.112 470.446C255.387 470.494 255.653 470.595 255.908 470.749C256.167 470.902 256.381 471.134 256.552 471.443C256.722 471.753 256.808 472.168 256.808 472.688V477H255.802V476.114H255.751C255.683 476.256 255.569 476.408 255.41 476.57C255.251 476.732 255.039 476.869 254.775 476.983C254.511 477.097 254.188 477.153 253.808 477.153ZM253.961 476.25C254.359 476.25 254.694 476.172 254.967 476.016C255.242 475.859 255.45 475.658 255.589 475.411C255.731 475.163 255.802 474.903 255.802 474.631V473.71C255.759 473.761 255.665 473.808 255.521 473.851C255.379 473.891 255.214 473.926 255.026 473.957C254.842 473.986 254.661 474.011 254.485 474.034C254.312 474.054 254.171 474.071 254.063 474.085C253.802 474.119 253.558 474.175 253.33 474.251C253.106 474.325 252.924 474.437 252.785 474.588C252.648 474.736 252.58 474.937 252.58 475.193C252.58 475.543 252.71 475.807 252.968 475.986C253.229 476.162 253.56 476.25 253.961 476.25ZM263.279 471.92L262.376 472.176C262.319 472.026 262.235 471.879 262.125 471.737C262.017 471.592 261.869 471.473 261.681 471.379C261.494 471.286 261.254 471.239 260.961 471.239C260.561 471.239 260.227 471.331 259.96 471.516C259.696 471.697 259.564 471.929 259.564 472.21C259.564 472.46 259.654 472.658 259.836 472.803C260.018 472.947 260.302 473.068 260.689 473.165L261.66 473.403C262.245 473.545 262.681 473.763 262.968 474.055C263.255 474.345 263.399 474.719 263.399 475.176C263.399 475.551 263.291 475.886 263.075 476.182C262.862 476.477 262.564 476.71 262.18 476.881C261.797 477.051 261.35 477.136 260.842 477.136C260.174 477.136 259.622 476.991 259.184 476.702C258.747 476.412 258.47 475.989 258.353 475.432L259.308 475.193C259.399 475.545 259.571 475.81 259.824 475.986C260.079 476.162 260.413 476.25 260.825 476.25C261.294 476.25 261.666 476.151 261.941 475.952C262.22 475.75 262.359 475.509 262.359 475.227C262.359 475 262.279 474.81 262.12 474.656C261.961 474.5 261.717 474.384 261.387 474.307L260.297 474.051C259.697 473.909 259.257 473.689 258.975 473.391C258.697 473.089 258.558 472.713 258.558 472.261C258.558 471.892 258.662 471.565 258.869 471.281C259.079 470.997 259.365 470.774 259.725 470.612C260.089 470.45 260.501 470.369 260.961 470.369C261.609 470.369 262.118 470.511 262.487 470.795C262.859 471.08 263.123 471.455 263.279 471.92ZM267.657 477.136C267.026 477.136 266.482 476.997 266.025 476.719C265.57 476.438 265.219 476.045 264.972 475.543C264.728 475.037 264.606 474.449 264.606 473.778C264.606 473.108 264.728 472.517 264.972 472.006C265.219 471.491 265.563 471.091 266.004 470.804C266.447 470.514 266.964 470.369 267.555 470.369C267.896 470.369 268.232 470.426 268.565 470.54C268.897 470.653 269.2 470.838 269.472 471.094C269.745 471.347 269.962 471.682 270.124 472.099C270.286 472.517 270.367 473.031 270.367 473.642V474.068H265.322V473.199H269.344C269.344 472.83 269.271 472.5 269.123 472.21C268.978 471.92 268.771 471.692 268.501 471.524C268.234 471.357 267.918 471.273 267.555 471.273C267.154 471.273 266.808 471.372 266.515 471.571C266.225 471.767 266.002 472.023 265.846 472.338C265.69 472.653 265.612 472.991 265.612 473.352V473.932C265.612 474.426 265.697 474.845 265.867 475.189C266.04 475.53 266.281 475.79 266.587 475.969C266.894 476.145 267.251 476.233 267.657 476.233C267.921 476.233 268.16 476.196 268.373 476.122C268.589 476.045 268.775 475.932 268.931 475.781C269.087 475.628 269.208 475.437 269.293 475.21L270.265 475.483C270.163 475.812 269.991 476.102 269.749 476.352C269.508 476.599 269.21 476.793 268.854 476.932C268.499 477.068 268.1 477.136 267.657 477.136ZM276.533 471.92L275.63 472.176C275.573 472.026 275.489 471.879 275.379 471.737C275.271 471.592 275.123 471.473 274.935 471.379C274.748 471.286 274.508 471.239 274.215 471.239C273.815 471.239 273.481 471.331 273.214 471.516C272.95 471.697 272.817 471.929 272.817 472.21C272.817 472.46 272.908 472.658 273.09 472.803C273.272 472.947 273.556 473.068 273.942 473.165L274.914 473.403C275.499 473.545 275.935 473.763 276.222 474.055C276.509 474.345 276.653 474.719 276.653 475.176C276.653 475.551 276.545 475.886 276.329 476.182C276.116 476.477 275.817 476.71 275.434 476.881C275.05 477.051 274.604 477.136 274.096 477.136C273.428 477.136 272.876 476.991 272.438 476.702C272.001 476.412 271.724 475.989 271.607 475.432L272.562 475.193C272.653 475.545 272.825 475.81 273.077 475.986C273.333 476.162 273.667 476.25 274.079 476.25C274.548 476.25 274.92 476.151 275.195 475.952C275.474 475.75 275.613 475.509 275.613 475.227C275.613 475 275.533 474.81 275.374 474.656C275.215 474.5 274.971 474.384 274.641 474.307L273.55 474.051C272.951 473.909 272.511 473.689 272.229 473.391C271.951 473.089 271.812 472.713 271.812 472.261C271.812 471.892 271.915 471.565 272.123 471.281C272.333 470.997 272.619 470.774 272.979 470.612C273.343 470.45 273.755 470.369 274.215 470.369C274.863 470.369 275.371 470.511 275.741 470.795C276.113 471.08 276.377 471.455 276.533 471.92Z" fill="#001524"/>
<circle cx="1039.5" cy="322.5" r="14.5" fill="#FFECD1" stroke="#15616D" stroke-width="4"/>
<circle cx="1639.5" cy="322.5" r="14.5" fill="#FFECD1" stroke="#15616D" stroke-width="4"/>
<defs>
<filter id="filter0_b_1642_285" x="1036" y="20" width="608" height="608" filterUnits="userSpaceOnUse" color-interpolation-filters="sRGB">
<feFlood flood-opacity="0" result="BackgroundImageFix"/>
<feGaussianBlur in="BackgroundImageFix" stdDeviation="2"/>
<feComposite in2="SourceAlpha" operator="in" result="effect1_backgroundBlur_1642_285"/>
<feBlend mode="normal" in="SourceGraphic" in2="effect1_backgroundBlur_1642_285" result="shape"/>
</filter>
<linearGradient id="paint0_linear_1642_285" x1="1340" y1="24" x2="1340" y2="624" gradientUnits="userSpaceOnUse">
<stop stop-color="#FFECD1" stop-opacity="0.6"/>
<stop offset="1" stop-color="#FFECD1"/>
</linearGradient>
<linearGradient id="paint1_linear_1642_285" x1="0.00097791" y1="327.534" x2="1040" y2="325.5" gradientUnits="userSpaceOnUse">
<stop stop-color="#FFECD1" stop-opacity="0.35"/>
<stop offset="0.45" stop-color="#FFECD1"/>
<stop offset="1" stop-color="#FFECD1"/>
</linearGradient>
<linearGradient id="paint2_linear_1642_285" x1="519.174" y1="23" x2="519.174" y2="306.465" gradientUnits="userSpaceOnUse">
<stop stop-color="#FFECD1" stop-opacity="0.35"/>
<stop offset="0.45" stop-color="#FFECD1"/>
<stop offset="1" stop-color="#FFECD1"/>
</linearGradient>
<linearGradient id="paint3_linear_1642_285" x1="520" y1="163" x2="520" y2="324" gradientUnits="userSpaceOnUse">
<stop stop-color="#FFECD1" stop-opacity="0.35"/>
<stop offset="0.45" stop-color="#FFECD1"/>
<stop offset="1" stop-color="#FFECD1"/>
</linearGradient>
<linearGradient id="paint4_linear_1642_285" x1="519" y1="625" x2="519" y2="325" gradientUnits="userSpaceOnUse">
<stop stop-color="#FFECD1" stop-opacity="0.35"/>
<stop offset="0.45" stop-color="#FFECD1"/>
<stop offset="1" stop-color="#FFECD1"/>
</linearGradient>
<linearGradient id="paint5_linear_1642_285" x1="520" y1="473" x2="520" y2="323" gradientUnits="userSpaceOnUse">
<stop stop-color="#FFECD1" stop-opacity="0.35"/>
<stop offset="0.45" stop-color="#FFECD1"/>
<stop offset="1" stop-color="#FFECD1"/>
</linearGradient>
<linearGradient id="paint6_linear_1642_285" x1="2677.5" y1="327.534" x2="1637.5" y2="325.5" gradientUnits="userSpaceOnUse">
<stop stop-color="#FFECD1" stop-opacity="0.35"/>
<stop offset="0.45" stop-color="#FFECD1"/>
<stop offset="1" stop-color="#FFECD1"/>
</linearGradient>
<linearGradient id="paint7_linear_1642_285" x1="2160.33" y1="23" x2="2160.33" y2="306.465" gradientUnits="userSpaceOnUse">
<stop stop-color="#FFECD1" stop-opacity="0.35"/>
<stop offset="0.45" stop-color="#FFECD1"/>
<stop offset="1" stop-color="#FFECD1"/>
</linearGradient>
<linearGradient id="paint8_linear_1642_285" x1="2158.5" y1="163" x2="2158.5" y2="324" gradientUnits="userSpaceOnUse">
<stop stop-color="#FFECD1" stop-opacity="0.35"/>
<stop offset="0.45" stop-color="#FFECD1"/>
<stop offset="1" stop-color="#FFECD1"/>
</linearGradient>
<linearGradient id="paint9_linear_1642_285" x1="2160" y1="625" x2="2160" y2="325" gradientUnits="userSpaceOnUse">
<stop stop-color="#FFECD1" stop-opacity="0.35"/>
<stop offset="0.45" stop-color="#FFECD1"/>
<stop offset="1" stop-color="#FFECD1"/>
</linearGradient>
<linearGradient id="paint10_linear_1642_285" x1="2160" y1="473" x2="2160" y2="323" gradientUnits="userSpaceOnUse">
<stop stop-color="#FFECD1" stop-opacity="0.35"/>
<stop offset="0.45" stop-color="#FFECD1"/>
<stop offset="1" stop-color="#FFECD1"/>
</linearGradient>
</defs>
</svg>
