<svg width="609" height="446" viewBox="0 0 609 446" fill="none" xmlns="http://www.w3.org/2000/svg">
<g clip-path="url(#clip0)">
<path opacity="0.5" d="M303.31 444.17C387.025 444.17 454.889 432.76 454.889 418.685C454.889 404.61 387.025 393.2 303.31 393.2C219.595 393.2 151.731 404.61 151.731 418.685C151.731 432.76 219.595 444.17 303.31 444.17Z" fill="#DEE3F3"/>
<g opacity="0.45">
<path opacity="0.45" d="M266.903 153.483C266.904 153.768 266.924 154.053 266.963 154.335C266.924 154.053 266.904 153.768 266.903 153.483Z" fill="#6F0DCC"/>
<path opacity="0.45" d="M343.235 135.177C343.246 135.254 343.26 135.329 343.269 135.405C343.26 135.329 343.246 135.254 343.235 135.177Z" fill="#6F0DCC"/>
<path opacity="0.45" d="M343.076 134.423C343.097 134.502 343.118 134.581 343.137 134.661C343.118 134.581 343.098 134.502 343.076 134.423Z" fill="#6F0DCC"/>
<path opacity="0.45" d="M343.155 154.916C343.126 155.047 343.092 155.176 343.056 155.303C343.092 155.175 343.126 155.047 343.155 154.916Z" fill="#6F0DCC"/>
<path opacity="0.45" d="M343.262 154.291C343.245 154.43 343.225 154.568 343.199 154.704C343.224 154.568 343.245 154.43 343.262 154.291Z" fill="#6F0DCC"/>
<path opacity="0.45" d="M270.432 159.301C269.924 159.035 269.453 158.703 269.03 158.314C269.452 158.703 269.924 159.035 270.432 159.301Z" fill="#6F0DCC"/>
<path opacity="0.45" d="M268.979 158.267C268.78 158.081 268.593 157.883 268.419 157.674C268.593 157.883 268.78 158.081 268.979 158.267Z" fill="#6F0DCC"/>
<path opacity="0.45" d="M381.621 283.556C381.544 283.296 381.451 283.042 381.342 282.794C381.451 283.042 381.544 283.296 381.621 283.556Z" fill="#6F0DCC"/>
<path opacity="0.45" d="M378.36 279.604C378.619 279.74 378.869 279.892 379.107 280.06C378.869 279.892 378.619 279.74 378.36 279.604Z" fill="#6F0DCC"/>
<path opacity="0.45" d="M379.827 280.651C380.227 281.028 380.579 281.454 380.873 281.919C380.579 281.454 380.227 281.028 379.827 280.651Z" fill="#6F0DCC"/>
<path opacity="0.45" d="M379.13 280.077C379.347 280.233 379.555 280.402 379.752 280.582C379.555 280.401 379.347 280.233 379.13 280.077Z" fill="#6F0DCC"/>
<path opacity="0.45" d="M381.286 282.676C381.187 282.464 381.078 282.257 380.957 282.057C381.078 282.257 381.187 282.464 381.286 282.676Z" fill="#6F0DCC"/>
<path opacity="0.45" d="M381.801 284.365C381.766 284.147 381.719 283.93 381.662 283.717C381.719 283.93 381.766 284.147 381.801 284.365Z" fill="#6F0DCC"/>
<path opacity="0.45" d="M579.355 248.415H541.666C542.536 247.812 543.247 247.007 543.738 246.068C544.229 245.13 544.486 244.086 544.485 243.026V225.707C544.485 224.845 544.316 223.991 543.986 223.195C543.657 222.399 543.174 221.675 542.565 221.066C541.956 220.456 541.233 219.973 540.438 219.643C539.642 219.313 538.789 219.143 537.928 219.143H494.548C495.872 218.72 497.028 217.886 497.849 216.762C498.669 215.639 499.111 214.283 499.112 212.891V195.572C499.112 194.512 498.856 193.468 498.365 192.529C497.873 191.591 497.162 190.785 496.292 190.182H537.928C538.789 190.182 539.642 190.012 540.438 189.683C541.233 189.353 541.956 188.869 542.565 188.26C543.174 187.65 543.657 186.927 543.986 186.13C544.316 185.334 544.485 184.481 544.485 183.619V166.299C544.485 165.437 544.316 164.584 543.986 163.788C543.657 162.991 543.174 162.268 542.565 161.658C541.956 161.049 541.233 160.565 540.438 160.236C539.642 159.906 538.789 159.736 537.928 159.736H491.58C492.905 159.313 494.061 158.479 494.881 157.355C495.702 156.231 496.144 154.875 496.144 153.483V136.164C496.144 135.104 495.888 134.061 495.397 133.122C494.906 132.183 494.195 131.378 493.324 130.775H537.928C538.789 130.775 539.642 130.605 540.438 130.275C541.233 129.945 541.956 129.462 542.565 128.852C543.174 128.243 543.657 127.519 543.986 126.723C544.316 125.927 544.485 125.073 544.485 124.211V106.892C544.485 106.03 544.316 105.177 543.986 104.38C543.657 103.584 543.174 102.86 542.565 102.251C541.956 101.641 541.233 101.158 540.438 100.828C539.642 100.498 538.789 100.329 537.928 100.329H514.578C515.903 99.9053 517.059 99.0715 517.88 97.9476C518.7 96.8237 519.142 95.4679 519.142 94.0759V76.7566C519.142 75.8947 518.973 75.0412 518.643 74.2449C518.314 73.4485 517.831 72.725 517.222 72.1155C516.613 71.506 515.89 71.0226 515.095 70.6927C514.299 70.3629 513.446 70.1931 512.585 70.1931H449.286C448.425 70.1931 447.572 70.3629 446.777 70.6927C445.981 71.0225 445.258 71.506 444.649 72.1155C444.04 72.725 443.557 73.4485 443.228 74.2449C442.898 75.0412 442.729 75.8947 442.729 76.7566C442.729 75.8947 442.559 75.0412 442.23 74.2449C441.9 73.4485 441.417 72.725 440.808 72.1155C440.199 71.506 439.476 71.0225 438.681 70.6927C437.885 70.3629 437.033 70.1931 436.171 70.1931H372.872C371.623 70.1937 370.4 70.5517 369.347 71.2251C368.294 71.8984 367.456 72.859 366.93 73.9936C367.014 74.4144 367.056 74.8424 367.057 75.2714V92.5908C367.056 93.5441 366.847 94.4856 366.443 95.3493C366.739 96.8446 367.545 98.1902 368.725 99.1542H384.982C386.496 99.1522 387.964 99.6772 389.134 100.639H396.222C394.897 101.063 393.741 101.896 392.921 103.02C392.1 104.144 391.658 105.5 391.658 106.892C391.656 106.474 391.615 106.058 391.535 105.648C391.536 105.672 391.539 105.694 391.539 105.718V123.037C391.537 123.589 391.465 124.139 391.325 124.674C391.43 124.785 391.524 124.906 391.606 125.036C391.641 124.762 391.658 124.487 391.658 124.211C391.661 124.592 391.698 124.971 391.768 125.346C391.855 125.554 391.904 125.777 391.914 126.003C392.328 127.462 393.234 128.733 394.478 129.601H388.838C388.888 129.565 388.933 129.523 388.983 129.486C388.459 129.5 387.932 129.442 387.407 129.436C387.22 129.434 387.035 129.396 386.862 129.323C386.252 129.507 385.619 129.6 384.982 129.601L346.136 130.775C345.266 131.378 344.555 132.183 344.064 133.122C343.573 134.061 343.316 135.104 343.317 136.164V153.483C343.317 154.875 343.759 156.231 344.579 157.355C345.4 158.479 346.556 159.313 347.881 159.736L384.982 160.047C385.634 160.047 386.283 160.144 386.906 160.335C387.32 160.372 387.73 160.444 388.132 160.551C388.163 160.544 388.194 160.541 388.225 160.535C387.864 160.337 387.485 160.173 387.094 160.047H396.222C394.897 160.47 393.741 161.304 392.921 162.428C392.1 163.552 391.658 164.907 391.658 166.299C391.657 165.919 391.624 165.539 391.558 165.164C391.514 165.227 391.466 165.286 391.414 165.341C391.496 165.759 391.538 166.184 391.539 166.61V183.93C391.539 184.733 391.658 184.54 391.658 183.619C391.657 184.678 391.914 185.722 392.405 186.661C392.896 187.599 393.607 188.405 394.478 189.008L417.624 189.751C418.418 189.752 419.206 189.898 419.947 190.182H425.518C424.521 190.88 423.736 191.84 423.252 192.957C423.86 193.971 424.181 195.131 424.182 196.314V213.633C424.182 214.538 423.995 215.432 423.632 216.26C424.452 217.63 425.742 218.655 427.262 219.143H421.18C420.121 219.832 418.886 220.197 417.624 220.197H394.662C393.741 220.79 392.983 221.605 392.458 222.568C391.933 223.531 391.658 224.61 391.658 225.707C391.658 223.394 390.797 246.188 390.797 246.188C390.797 248.235 426.527 249.158 426.527 249.158C427.435 249.158 428.333 249.347 429.164 249.714C429.536 249.635 429.918 249.602 430.299 249.617C430.287 249.608 430.276 249.598 430.264 249.59H435.904C435.034 250.193 434.322 250.998 433.831 251.937C433.34 252.876 433.084 253.919 433.084 254.979C433.082 254.666 433.058 254.353 433.012 254.043C432.981 254.114 432.949 254.184 432.913 254.252C433.025 254.734 433.083 255.227 433.084 255.722V272.298C433.084 273.16 433.254 274.014 433.583 274.81C433.913 275.606 434.396 276.33 435.005 276.939C435.614 277.549 436.337 278.032 437.132 278.362C437.928 278.692 438.78 278.862 439.641 278.862H429.55C428.617 279.35 427.58 279.605 426.527 279.604H385.429C384.364 280.158 383.471 280.993 382.847 282.02C382.224 283.046 381.895 284.224 381.894 285.425V302.745C381.894 303.606 382.064 304.46 382.394 305.256C382.723 306.053 383.206 306.776 383.815 307.386C384.424 307.995 385.147 308.479 385.942 308.808C386.738 309.138 387.591 309.308 388.452 309.308H451.751C452.612 309.308 453.465 309.138 454.26 308.808C455.056 308.479 455.779 307.995 456.388 307.386C456.997 306.776 457.48 306.053 457.809 305.256C458.139 304.46 458.308 303.606 458.308 302.745C458.308 303.606 458.478 304.46 458.807 305.256C459.137 306.053 459.62 306.776 460.229 307.386C460.838 307.995 461.56 308.479 462.356 308.808C463.152 309.138 464.004 309.308 464.865 309.308H528.165C529.026 309.308 529.879 309.138 530.674 308.808C531.47 308.479 532.193 307.995 532.801 307.386C533.41 306.776 533.893 306.053 534.223 305.256C534.552 304.46 534.722 303.606 534.722 302.745V285.425C534.722 284.563 534.552 283.71 534.223 282.913C533.893 282.117 533.41 281.394 532.801 280.784C532.193 280.175 531.47 279.691 530.674 279.361C529.879 279.031 529.026 278.862 528.165 278.862H579.355C580.216 278.862 581.068 278.692 581.864 278.362C582.66 278.032 583.382 277.549 583.991 276.939C584.6 276.33 585.083 275.606 585.413 274.81C585.742 274.014 585.912 273.16 585.912 272.298V254.979C585.912 254.117 585.742 253.263 585.413 252.467C585.083 251.671 584.6 250.947 583.991 250.338C583.382 249.728 582.66 249.245 581.864 248.915C581.068 248.585 580.216 248.415 579.355 248.415ZM422.55 130.775C421.68 131.378 420.969 132.183 420.478 133.122C419.986 134.061 419.73 135.104 419.73 136.164C419.731 135.104 419.474 134.061 418.983 133.122C418.492 132.183 417.781 131.378 416.911 130.775H422.55ZM415.166 159.736C416.491 159.313 417.647 158.479 418.467 157.355C419.288 156.231 419.73 154.875 419.73 153.483C419.731 154.875 420.173 156.231 420.993 157.355C421.814 158.479 422.97 159.313 424.294 159.736H415.166ZM438.165 100.329C439.489 99.9053 440.645 99.0715 441.466 97.9476C442.286 96.8237 442.728 95.4679 442.729 94.0759C442.729 95.4679 443.171 96.8237 443.992 97.9476C444.812 99.0715 445.968 99.9053 447.293 100.329H438.165ZM458.308 285.425C458.308 284.563 458.139 283.71 457.809 282.913C457.48 282.117 456.997 281.394 456.388 280.784C455.779 280.175 455.056 279.691 454.26 279.361C453.465 279.031 452.612 278.862 451.751 278.862H464.865C464.004 278.862 463.152 279.031 462.356 279.361C461.56 279.691 460.838 280.175 460.229 280.784C459.62 281.394 459.137 282.117 458.807 282.913C458.478 283.71 458.308 284.563 458.308 285.425ZM465.252 248.415C466.122 247.812 466.833 247.007 467.324 246.068C467.815 245.13 468.072 244.086 468.071 243.026C468.071 244.086 468.328 245.13 468.819 246.068C469.31 247.007 470.021 247.812 470.891 248.415H465.252ZM468.071 225.707C468.071 224.315 467.629 222.959 466.809 221.835C465.988 220.711 464.832 219.878 463.508 219.454H472.636C471.311 219.878 470.155 220.711 469.334 221.835C468.514 222.959 468.072 224.315 468.071 225.707ZM465.252 189.008C466.122 188.405 466.833 187.599 467.324 186.661C467.815 185.722 468.072 184.678 468.071 183.619C468.071 184.678 468.328 185.722 468.819 186.661C469.31 187.599 470.021 188.405 470.891 189.008H465.252ZM468.071 166.299C468.071 164.908 467.629 163.552 466.809 162.428C465.988 161.304 464.832 160.47 463.508 160.047H472.636C471.311 160.47 470.155 161.304 469.334 162.428C468.514 163.552 468.072 164.907 468.071 166.299ZM465.252 129.601C466.122 128.997 466.833 128.192 467.324 127.253C467.815 126.315 468.072 125.271 468.071 124.211C468.071 125.271 468.328 126.315 468.819 127.253C469.31 128.192 470.021 128.997 470.891 129.601H465.252ZM468.071 106.892C468.071 105.5 467.629 104.144 466.809 103.02C465.988 101.897 464.832 101.063 463.508 100.639H472.636C471.311 101.063 470.155 101.897 469.334 103.02C468.514 104.144 468.072 105.5 468.071 106.892ZM512.318 249.59C511.447 250.193 510.736 250.998 510.245 251.937C509.754 252.876 509.498 253.919 509.498 254.979C509.498 253.919 509.242 252.876 508.751 251.937C508.26 250.998 507.549 250.193 506.678 249.59H512.318ZM502.941 278.862C503.802 278.862 504.655 278.692 505.45 278.362C506.246 278.032 506.969 277.549 507.577 276.939C508.186 276.33 508.669 275.606 508.999 274.81C509.328 274.014 509.498 273.16 509.498 272.298C509.498 273.16 509.668 274.014 509.997 274.81C510.327 275.606 510.81 276.33 511.419 276.939C512.027 277.549 512.75 278.032 513.546 278.362C514.341 278.692 515.194 278.862 516.055 278.862H502.941Z" fill="#6F0DCC"/>
<path opacity="0.45" d="M381.894 285.425C381.892 285.146 381.873 284.866 381.835 284.589C381.873 284.866 381.892 285.146 381.894 285.425Z" fill="#6F0DCC"/>
<path opacity="0.45" d="M343.317 153.483C343.317 153.691 343.304 153.896 343.285 154.099C343.304 153.896 343.317 153.691 343.317 153.483Z" fill="#6F0DCC"/>
<path opacity="0.45" d="M266.978 154.462C267.018 154.726 267.074 154.986 267.146 155.243C267.074 154.986 267.018 154.726 266.978 154.462Z" fill="#6F0DCC"/>
<path opacity="0.45" d="M193.597 193.161C193.489 193.064 193.394 192.953 193.318 192.829C193.223 192.659 193.16 192.473 193.132 192.281C193.115 192.731 193.122 193.181 193.152 193.631C193.351 194.258 193.453 194.913 193.456 195.571C193.459 194.931 193.556 194.295 193.744 193.683C193.684 193.535 193.638 193.381 193.606 193.224C193.601 193.203 193.601 193.182 193.597 193.161Z" fill="#6F0DCC"/>
<path opacity="0.45" d="M283.344 70.1931H220.044C219.183 70.1931 218.331 70.3629 217.535 70.6927C216.739 71.0226 216.017 71.506 215.408 72.1155C214.799 72.725 214.316 73.4485 213.986 74.2449C213.657 75.0412 213.487 75.8947 213.487 76.7566C213.487 75.8947 213.318 75.0412 212.988 74.2449C212.659 73.4485 212.176 72.725 211.567 72.1155C210.958 71.506 210.235 71.0226 209.439 70.6927C208.644 70.3629 207.791 70.1931 206.93 70.1931H143.631C142.77 70.1931 141.917 70.3629 141.121 70.6927C140.326 71.0226 139.603 71.506 138.994 72.1155C138.385 72.725 137.902 73.4485 137.573 74.2449C137.243 75.0412 137.073 75.8947 137.073 76.7566V94.0759C137.074 95.4679 137.516 96.8237 138.336 97.9476C139.157 99.0715 140.313 99.9053 141.638 100.329H92.5597C91.6986 100.329 90.8459 100.498 90.0504 100.828C89.2548 101.158 88.5319 101.641 87.923 102.251C87.3141 102.86 86.8312 103.584 86.5016 104.38C86.1721 105.177 86.0025 106.03 86.0025 106.892V124.211C86.0022 125.271 86.2586 126.315 86.7497 127.253C87.2408 128.192 87.952 128.997 88.8223 129.601H44.2185C43.3574 129.601 42.5047 129.77 41.7091 130.1C40.9136 130.43 40.1907 130.913 39.5818 131.523C38.9729 132.132 38.4899 132.856 38.1604 133.652C37.8309 134.449 37.6613 135.302 37.6613 136.164V153.483C37.6613 154.345 37.8309 155.199 38.1604 155.995C38.4899 156.791 38.9729 157.515 39.5818 158.124C40.1907 158.734 40.9136 159.217 41.7091 159.547C42.5047 159.877 43.3574 160.047 44.2185 160.047H90.5665C89.2418 160.47 88.0858 161.304 87.2654 162.428C86.445 163.552 86.0028 164.907 86.0025 166.299V183.619C86.0022 184.678 86.2586 185.722 86.7497 186.661C87.2408 187.599 87.952 188.405 88.8223 189.008H47.186C46.3249 189.008 45.4722 189.178 44.6766 189.508C43.8811 189.837 43.1582 190.321 42.5493 190.93C41.9404 191.54 41.4574 192.263 41.1279 193.06C40.7984 193.856 40.6288 194.71 40.6288 195.571V212.891C40.6288 213.753 40.7984 214.606 41.1279 215.403C41.4574 216.199 41.9404 216.922 42.5493 217.532C43.1582 218.141 43.8811 218.625 44.6767 218.955C45.4722 219.285 46.3249 219.454 47.186 219.454H90.5665C89.2418 219.878 88.0858 220.711 87.2654 221.835C86.445 222.959 86.0028 224.315 86.0025 225.707V243.026C86.0025 243.888 86.1721 244.742 86.5016 245.538C86.8311 246.334 87.3141 247.058 87.923 247.667C88.5319 248.277 89.2548 248.76 90.0503 249.09C90.8459 249.42 91.6986 249.59 92.5597 249.59H130.249C129.378 250.193 128.667 250.998 128.176 251.937C127.685 252.876 127.429 253.919 127.429 254.979V272.298C127.429 274.039 128.12 275.708 129.349 276.939C130.579 278.17 132.247 278.862 133.986 278.862H82.7963C81.9352 278.862 81.0825 279.031 80.287 279.361C79.4914 279.691 78.7685 280.175 78.1596 280.784C77.5508 281.394 77.0678 282.117 76.7382 282.913C76.4087 283.71 76.2391 284.563 76.2391 285.425V302.745C76.2391 303.606 76.4087 304.46 76.7382 305.256C77.0678 306.053 77.5508 306.776 78.1597 307.386C78.7685 307.995 79.4914 308.479 80.287 308.808C81.0825 309.138 81.9352 309.308 82.7963 309.308H146.096C146.957 309.308 147.809 309.138 148.605 308.808C149.401 308.479 150.123 307.995 150.732 307.386C151.341 306.776 151.824 306.053 152.154 305.256C152.483 304.46 152.653 303.606 152.653 302.745C152.653 303.606 152.822 304.46 153.152 305.256C153.482 306.053 153.965 306.776 154.573 307.386C155.182 307.995 155.905 308.479 156.701 308.808C157.496 309.138 158.349 309.308 159.21 309.308H222.509C223.371 309.308 224.223 309.138 225.019 308.808C225.814 308.479 226.537 307.995 227.146 307.386C227.755 306.776 228.238 306.053 228.568 305.256C228.897 304.46 229.067 303.606 229.067 302.745V285.425C229.067 284.224 228.737 283.046 228.114 282.02C227.49 280.993 226.597 280.158 225.532 279.604H211.884C210.831 279.605 209.794 279.35 208.861 278.862H197.286C199.025 278.862 200.692 278.17 201.922 276.939C203.152 275.708 203.843 274.039 203.843 272.298C203.843 275.154 205.326 255.721 205.326 255.721C205.326 254.86 205.496 254.006 205.826 253.21C206.155 252.413 206.638 251.69 207.247 251.08C207.856 250.471 208.579 249.987 209.374 249.658C210.17 249.328 211.023 249.158 211.884 249.158L236.01 248.415C236.698 247.933 237.288 247.324 237.748 246.62C237.406 245.817 237.229 244.953 237.227 244.08V226.76C237.226 225.476 237.603 224.22 238.312 223.149C237.797 221.938 236.93 220.91 235.825 220.197H201.497C200.235 220.197 199 219.832 197.942 219.143H188.892C190.217 218.72 191.373 217.886 192.193 216.762C193.014 215.639 193.456 214.283 193.456 212.891L193.224 195.698C193.224 194.923 193.183 194.238 193.152 193.631C192.72 192.233 191.835 191.02 190.637 190.182H196.276C196.234 190.212 196.196 190.248 196.154 190.278C199.351 190.095 235.869 187.951 238.838 185.559C238.763 185.105 238.748 184.643 238.795 184.185C238.742 183.855 238.714 183.521 238.711 183.187V165.868C238.711 165.653 238.723 165.441 238.743 165.231C238.546 164.038 238.023 162.923 237.233 162.008C236.443 161.094 235.417 160.415 234.266 160.047H242.246C243.179 159.559 244.216 159.304 245.268 159.304H263.368C264.433 158.751 265.326 157.916 265.95 156.889C266.573 155.863 266.903 154.685 266.903 153.483V136.164C266.903 135.104 266.646 134.061 266.155 133.122C265.664 132.183 264.953 131.378 264.083 130.775L245.268 129.601C242.08 129.601 239.971 128.432 241.65 129.601H236.01C236.875 129.001 237.582 128.202 238.073 127.27C238.563 126.339 238.822 125.303 238.828 124.25C238.751 123.85 238.712 123.444 238.711 123.037V105.718C238.711 105.704 238.713 105.69 238.713 105.676C238.494 104.513 237.965 103.432 237.182 102.545C236.399 101.659 235.392 101 234.266 100.639H241.116C242.286 99.6772 243.754 99.1522 245.268 99.1543H287.491C288.244 98.5403 288.852 97.7659 289.269 96.8874C289.686 96.009 289.902 95.0485 289.901 94.076V76.7566C289.901 75.8947 289.731 75.0412 289.402 74.2449C289.072 73.4485 288.589 72.725 287.98 72.1155C287.372 71.506 286.649 71.0226 285.853 70.6927C285.058 70.3629 284.205 70.1931 283.344 70.1931ZM116.895 130.775C116.024 131.378 115.313 132.183 114.822 133.122C114.331 134.061 114.075 135.104 114.075 136.164C114.075 135.104 113.819 134.061 113.328 133.122C112.837 132.183 112.126 131.378 111.255 130.775H116.895ZM114.075 153.483C114.075 154.875 114.518 156.231 115.338 157.355C116.158 158.479 117.314 159.313 118.639 159.736H109.511C110.836 159.313 111.992 158.479 112.812 157.355C113.633 156.231 114.075 154.875 114.075 153.483ZM119.862 190.182C118.992 190.785 118.281 191.591 117.79 192.529C117.299 193.468 117.042 194.512 117.043 195.571C117.043 194.512 116.786 193.468 116.295 192.529C115.804 191.591 115.093 190.785 114.223 190.182H119.862ZM112.478 219.143C113.803 218.72 114.959 217.886 115.78 216.762C116.6 215.639 117.042 214.283 117.043 212.891C117.043 214.283 117.485 215.639 118.305 216.762C119.126 217.886 120.282 218.72 121.607 219.143H112.478ZM193.309 130.775C192.438 131.378 191.727 132.183 191.236 133.122C190.745 134.061 190.489 135.104 190.489 136.164C190.489 135.104 190.233 134.061 189.742 133.122C189.251 132.183 188.539 131.378 187.669 130.775H193.309ZM152.653 285.425C152.653 284.563 152.483 283.71 152.154 282.913C151.824 282.117 151.341 281.394 150.732 280.784C150.123 280.175 149.401 279.691 148.605 279.361C147.809 279.031 146.957 278.862 146.096 278.862H159.21C158.349 278.862 157.496 279.031 156.701 279.361C155.905 279.691 155.182 280.175 154.573 280.784C153.965 281.394 153.482 282.117 153.152 282.913C152.822 283.71 152.653 284.563 152.653 285.425ZM159.596 248.415C160.467 247.812 161.178 247.007 161.669 246.068C162.16 245.13 162.417 244.086 162.416 243.026C162.416 244.086 162.672 245.13 163.163 246.068C163.655 247.007 164.366 247.812 165.236 248.415H159.596ZM162.416 225.707C162.416 224.315 161.974 222.959 161.153 221.835C160.333 220.711 159.177 219.878 157.852 219.454H166.98C165.656 219.878 164.5 220.711 163.679 221.835C162.859 222.959 162.417 224.315 162.416 225.707ZM159.596 189.008C160.467 188.405 161.178 187.599 161.669 186.661C162.16 185.722 162.417 184.678 162.416 183.619C162.416 184.678 162.672 185.722 163.163 186.661C163.655 187.599 164.366 188.405 165.236 189.008H159.596ZM162.416 166.299C162.416 164.907 161.974 163.552 161.153 162.428C160.333 161.304 159.177 160.47 157.852 160.047H166.98C165.656 160.47 164.5 161.304 163.679 162.428C162.859 163.552 162.417 164.907 162.416 166.299ZM159.596 129.601C160.467 128.997 161.178 128.192 161.669 127.253C162.16 126.315 162.417 125.271 162.416 124.211C162.416 125.271 162.672 126.315 163.163 127.253C163.655 128.192 164.366 128.997 165.236 129.601H159.596ZM162.416 106.892C162.416 105.5 161.974 104.144 161.153 103.02C160.333 101.897 159.177 101.063 157.852 100.639H166.98C165.656 101.063 164.5 101.896 163.679 103.02C162.859 104.144 162.417 105.5 162.416 106.892ZM185.925 159.736C187.249 159.313 188.406 158.479 189.226 157.355C190.046 156.231 190.489 154.875 190.489 153.483C190.489 154.875 190.931 156.231 191.752 157.355C192.572 158.479 193.728 159.313 195.053 159.736H185.925ZM208.923 100.329C210.248 99.9053 211.404 99.0715 212.224 97.9476C213.045 96.8237 213.487 95.4679 213.487 94.076C213.487 95.4679 213.93 96.8237 214.75 97.9476C215.571 99.0715 216.727 99.9053 218.051 100.329H208.923Z" fill="#6F0DCC"/>
<path opacity="0.45" d="M269.058 131.309C269.089 131.28 269.119 131.252 269.151 131.224C269.119 131.252 269.089 131.28 269.058 131.309Z" fill="#6F0DCC"/>
<path opacity="0.45" d="M268.622 131.744C268.59 131.779 268.557 131.814 268.526 131.85C268.557 131.814 268.59 131.779 268.622 131.744Z" fill="#6F0DCC"/>
<path opacity="0.45" d="M268.072 132.427C268.087 132.406 268.104 132.386 268.119 132.365C268.104 132.386 268.087 132.406 268.072 132.427Z" fill="#6F0DCC"/>
<path opacity="0.45" d="M267.185 155.376C267.261 155.632 267.352 155.882 267.459 156.126C267.352 155.882 267.261 155.632 267.185 155.376Z" fill="#6F0DCC"/>
<path opacity="0.45" d="M267.884 156.935C268.031 157.17 268.193 157.396 268.369 157.611C268.193 157.396 268.031 157.17 267.884 156.935Z" fill="#6F0DCC"/>
<path opacity="0.45" d="M267.492 156.196C267.606 156.448 267.735 156.693 267.88 156.928C267.735 156.693 267.606 156.448 267.492 156.196Z" fill="#6F0DCC"/>
<path opacity="0.45" d="M267.082 134.661C267.101 134.581 267.122 134.502 267.143 134.423C267.122 134.502 267.101 134.581 267.082 134.661Z" fill="#6F0DCC"/>
<path opacity="0.45" d="M267.304 133.922C267.327 133.857 267.35 133.79 267.375 133.726C267.35 133.79 267.328 133.856 267.304 133.922Z" fill="#6F0DCC"/>
<path opacity="0.45" d="M266.95 135.405C266.959 135.329 266.973 135.254 266.985 135.177C266.973 135.254 266.959 135.329 266.95 135.405Z" fill="#6F0DCC"/>
<path opacity="0.45" d="M267.665 133.096C267.669 133.088 267.672 133.081 267.676 133.073C267.672 133.081 267.669 133.088 267.665 133.096Z" fill="#6F0DCC"/>
<path opacity="0.1" d="M143.049 100.639L208.996 100.639C211.886 100.639 214.229 98.2941 214.229 95.401V75.4315C214.229 72.5384 211.886 70.1931 208.996 70.1931H143.049C140.158 70.1931 137.815 72.5384 137.815 75.4315V95.401C137.815 98.2941 140.158 100.639 143.049 100.639Z" fill="black"/>
<path opacity="0.1" d="M371.548 100.639L437.495 100.639C440.385 100.639 442.729 98.2941 442.729 95.401V75.4315C442.729 72.5384 440.385 70.1931 437.495 70.1931H371.548C368.658 70.1931 366.315 72.5384 366.315 75.4315V95.401C366.315 98.2941 368.658 100.639 371.548 100.639Z" fill="black"/>
<path opacity="0.1" d="M473.186 130.343H539.133C542.023 130.343 544.366 127.998 544.366 125.105V105.135C544.366 102.242 542.023 99.897 539.133 99.897H473.186C470.296 99.897 467.953 102.242 467.953 105.135V125.105C467.953 127.998 470.296 130.343 473.186 130.343Z" fill="black"/>
<path opacity="0.1" d="M348.55 160.047H414.497C417.387 160.047 419.73 157.702 419.73 154.808V134.839C419.73 131.946 417.387 129.601 414.497 129.601H348.55C345.66 129.601 343.316 131.946 343.316 134.839V154.808C343.316 157.702 345.66 160.047 348.55 160.047Z" fill="black"/>
<path opacity="0.1" d="M473.186 190.493H539.133C542.023 190.493 544.366 188.148 544.366 185.255V165.285C544.366 162.392 542.023 160.047 539.133 160.047H473.186C470.296 160.047 467.953 162.392 467.953 165.285V185.255C467.953 188.148 470.296 190.493 473.186 190.493Z" fill="black"/>
<path opacity="0.1" d="M473.186 249.9H539.133C542.023 249.9 544.366 247.555 544.366 244.662V224.693C544.366 221.799 542.023 219.454 539.133 219.454H473.186C470.296 219.454 467.953 221.799 467.953 224.693V244.662C467.953 247.555 470.296 249.9 473.186 249.9Z" fill="black"/>
<path opacity="0.1" d="M504.724 249.158H437.858C436.826 249.158 435.822 249.494 434.996 250.114C434.17 250.734 433.567 251.605 433.278 252.597C433.296 252.867 433.277 253.138 433.224 253.403C433.189 253.558 433.144 253.711 433.088 253.86C433.088 253.886 433.084 253.911 433.084 253.937V274.826C433.084 276.093 433.587 277.308 434.482 278.205C435.378 279.101 436.592 279.604 437.858 279.604H504.724C505.99 279.604 507.204 279.101 508.1 278.205C508.995 277.308 509.498 276.093 509.498 274.826V253.937C509.498 253.309 509.374 252.688 509.135 252.108C508.895 251.528 508.543 251.001 508.1 250.558C507.656 250.114 507.13 249.762 506.551 249.522C505.972 249.282 505.351 249.158 504.724 249.158Z" fill="black"/>
<path opacity="0.1" d="M387.128 309.308H453.075C455.965 309.308 458.308 306.963 458.308 304.07V284.1C458.308 281.207 455.965 278.862 453.075 278.862H387.128C384.237 278.862 381.894 281.207 381.894 284.1V304.07C381.894 306.963 384.237 309.308 387.128 309.308Z" fill="black"/>
<path opacity="0.1" d="M167.531 130.343H233.478C236.368 130.343 238.711 127.998 238.711 125.105V105.135C238.711 102.242 236.368 99.897 233.478 99.897H167.531C164.64 99.897 162.297 102.242 162.297 105.135V125.105C162.297 127.998 164.64 130.343 167.531 130.343Z" fill="black"/>
<path opacity="0.1" d="M120.05 160.047H185.997C188.888 160.047 191.231 157.702 191.231 154.808V134.839C191.231 131.946 188.888 129.601 185.997 129.601H120.05C117.16 129.601 114.817 131.946 114.817 134.839V154.808C114.817 157.702 117.16 160.047 120.05 160.047Z" fill="black"/>
<path opacity="0.1" d="M91.117 190.493H157.064C159.954 190.493 162.297 188.148 162.297 185.255V165.285C162.297 162.392 159.954 160.047 157.064 160.047H91.117C88.2267 160.047 85.8836 162.392 85.8836 165.285V185.255C85.8836 188.148 88.2267 190.493 91.117 190.493Z" fill="black"/>
<path opacity="0.1" d="M122.276 220.197H188.223C191.113 220.197 193.456 217.851 193.456 214.958V194.989C193.456 192.096 191.113 189.75 188.223 189.75H122.276C119.386 189.75 117.043 192.096 117.043 194.989V214.958C117.043 217.851 119.386 220.197 122.276 220.197Z" fill="black"/>
<path opacity="0.1" d="M91.117 249.9H157.064C159.954 249.9 162.297 247.555 162.297 244.662V224.693C162.297 221.799 159.954 219.454 157.064 219.454H91.117C88.2267 219.454 85.8836 221.799 85.8836 224.693V244.662C85.8836 247.555 88.2267 249.9 91.117 249.9Z" fill="black"/>
<path opacity="0.45" d="M56.5475 279.637H122.495C125.385 279.637 127.728 277.292 127.728 274.399V254.429C127.728 251.536 125.385 249.191 122.495 249.191H56.5475C53.6572 249.191 51.3141 251.536 51.3141 254.429V274.399C51.3141 277.292 53.6572 279.637 56.5475 279.637Z" fill="#6F0DCC"/>
<path opacity="0.45" d="M502.71 220.164H568.657C571.547 220.164 573.89 217.819 573.89 214.926V194.956C573.89 192.063 571.547 189.718 568.657 189.718H502.71C499.82 189.718 497.477 192.063 497.477 194.956V214.926C497.477 217.819 499.82 220.164 502.71 220.164Z" fill="#6F0DCC"/>
<path opacity="0.45" d="M499.469 160.15H565.416C568.306 160.15 570.649 157.805 570.649 154.912V134.942C570.649 132.049 568.306 129.704 565.416 129.704H499.469C496.579 129.704 494.236 132.049 494.236 134.942V154.912C494.236 157.805 496.579 160.15 499.469 160.15Z" fill="#6F0DCC"/>
<path opacity="0.45" d="M537.82 308.833H603.767C606.657 308.833 609 306.488 609 303.595V283.625C609 280.732 606.657 278.387 603.767 278.387H537.82C534.929 278.387 532.586 280.732 532.586 283.625V303.595C532.586 306.488 534.929 308.833 537.82 308.833Z" fill="#6F0DCC"/>
<path opacity="0.45" d="M5.23341 309.374H71.1804C74.0707 309.374 76.4138 307.028 76.4138 304.135V284.166C76.4138 281.273 74.0707 278.927 71.1804 278.927H5.23341C2.34309 278.927 1.52588e-05 281.273 1.52588e-05 284.166V304.135C1.52588e-05 307.028 2.34309 309.374 5.23341 309.374Z" fill="#6F0DCC"/>
<path opacity="0.45" d="M15.4962 249.36H81.4432C84.3336 249.36 86.6766 247.015 86.6766 244.121V224.152C86.6766 221.259 84.3336 218.914 81.4432 218.914H15.4962C12.6059 218.914 10.2628 221.259 10.2628 224.152V244.121C10.2628 247.015 12.6059 249.36 15.4962 249.36Z" fill="#6F0DCC"/>
<path opacity="0.45" d="M15.4962 190.427H81.4432C84.3336 190.427 86.6766 188.082 86.6766 185.189V165.219C86.6766 162.326 84.3336 159.981 81.4432 159.981H15.4962C12.6059 159.981 10.2628 162.326 10.2628 165.219V185.189C10.2628 188.082 12.6059 190.427 15.4962 190.427Z" fill="#6F0DCC"/>
<path opacity="0.45" d="M18.1969 130.413H84.1439C87.0342 130.413 89.3773 128.068 89.3773 125.175V105.205C89.3773 102.312 87.0342 99.967 84.1439 99.967H18.1969C15.3066 99.967 12.9635 102.312 12.9635 105.205V125.175C12.9635 128.068 15.3066 130.413 18.1969 130.413Z" fill="#6F0DCC"/>
<path opacity="0.1" d="M18.1969 130.413H84.1439C87.0342 130.413 89.3773 128.068 89.3773 125.175V105.205C89.3773 102.312 87.0342 99.967 84.1439 99.967H18.1969C15.3066 99.967 12.9635 102.312 12.9635 105.205V125.175C12.9635 128.068 15.3066 130.413 18.1969 130.413Z" fill="black"/>
<path opacity="0.45" d="M66.8103 100.677L132.757 100.677C135.648 100.677 137.991 98.3314 137.991 95.4383V75.4689C137.991 72.5758 135.648 70.2305 132.757 70.2305H66.8103C63.92 70.2305 61.5769 72.5758 61.5769 75.4689V95.4383C61.5769 98.3314 63.92 100.677 66.8103 100.677Z" fill="#6F0DCC"/>
<path opacity="0.1" d="M133.404 279.604H199.351C202.242 279.604 204.585 277.259 204.585 274.366V254.396C204.585 251.503 202.242 249.158 199.351 249.158H133.404C130.514 249.158 128.171 251.503 128.171 254.396V274.366C128.171 277.259 130.514 279.604 133.404 279.604Z" fill="black"/>
<path opacity="0.1" d="M81.4725 309.308H147.419C150.31 309.308 152.653 306.963 152.653 304.07V284.1C152.653 281.207 150.31 278.862 147.419 278.862H81.4725C78.5822 278.862 76.2391 281.207 76.2391 284.1V304.07C76.2391 306.963 78.5822 309.308 81.4725 309.308Z" fill="black"/>
</g>
<path opacity="0.5" d="M479.805 34.2807C489.262 34.2807 496.929 26.6067 496.929 17.1403C496.929 7.67399 489.262 0 479.805 0C470.347 0 462.681 7.67399 462.681 17.1403C462.681 26.6067 470.347 34.2807 479.805 34.2807Z" fill="#6F0DCC"/>
<path opacity="0.5" d="M149.175 48.2163H145.101C145.476 48.2174 145.848 48.1444 146.195 48.0014C146.541 47.8584 146.857 47.6483 147.123 47.3831C147.388 47.1179 147.599 46.8029 147.743 46.456C147.887 46.1091 147.961 45.7373 147.961 45.3617C147.961 44.9861 147.887 44.6143 147.743 44.2674C147.599 43.9205 147.388 43.6055 147.123 43.3403C146.857 43.0751 146.541 42.865 146.195 42.722C145.848 42.579 145.476 42.506 145.101 42.5071H112.1C111.725 42.506 111.353 42.579 111.006 42.722C110.659 42.865 110.344 43.0751 110.078 43.3403C109.813 43.6055 109.602 43.9205 109.458 44.2674C109.314 44.6143 109.24 44.9861 109.24 45.3617C109.24 45.7373 109.314 46.1091 109.458 46.456C109.602 46.8029 109.813 47.1179 110.078 47.3831C110.344 47.6483 110.659 47.8584 111.006 48.0014C111.353 48.1444 111.725 48.2174 112.1 48.2163H116.174C115.799 48.2156 115.428 48.2888 115.081 48.4319C114.734 48.5751 114.419 48.7852 114.154 49.0504C113.889 49.3155 113.678 49.6305 113.534 49.9772C113.391 50.3239 113.317 50.6956 113.317 51.0709C113.317 51.4463 113.391 51.818 113.534 52.1647C113.678 52.5114 113.889 52.8264 114.154 53.0915C114.419 53.3567 114.734 53.5668 115.081 53.7099C115.428 53.853 115.799 53.9263 116.174 53.9255H110.471C109.716 53.9277 108.992 54.2294 108.459 54.7645C107.926 55.2996 107.627 56.0245 107.627 56.7802C107.627 57.5358 107.926 58.2607 108.459 58.7958C108.992 59.3309 109.716 59.6326 110.471 59.6348H143.471C144.226 59.6326 144.949 59.3309 145.482 58.7958C146.015 58.2607 146.315 57.5358 146.315 56.7802C146.315 56.0245 146.015 55.2996 145.482 54.7645C144.949 54.2294 144.226 53.9277 143.471 53.9255H149.175C149.93 53.924 150.654 53.6226 151.188 53.0874C151.721 52.5522 152.021 51.827 152.021 51.0709C152.021 50.3148 151.721 49.5896 151.188 49.0545C150.654 48.5193 149.93 48.2179 149.175 48.2163Z" fill="#DEE3F3"/>
<path opacity="0.5" d="M477.634 15.0804H474.533C475.109 15.0804 475.661 14.8515 476.068 14.4441C476.475 14.0367 476.704 13.4841 476.704 12.9079C476.704 12.3317 476.475 11.7791 476.068 11.3717C475.661 10.9642 475.109 10.7354 474.533 10.7354H449.418C448.842 10.7354 448.29 10.9642 447.883 11.3717C447.476 11.7791 447.248 12.3317 447.248 12.9079C447.248 13.4841 447.476 14.0367 447.883 14.4441C448.29 14.8515 448.842 15.0804 449.418 15.0804H452.519C451.943 15.0804 451.391 15.3093 450.984 15.7168C450.577 16.1242 450.348 16.6768 450.348 17.253C450.348 17.8292 450.577 18.3818 450.984 18.7892C451.391 19.1966 451.943 19.4255 452.519 19.4255H448.178C447.893 19.4255 447.611 19.4817 447.347 19.5909C447.084 19.7001 446.845 19.8601 446.643 20.0619C446.442 20.2636 446.282 20.5031 446.173 20.7667C446.064 21.0303 446.007 21.3128 446.007 21.5981C446.007 21.8834 446.064 22.1659 446.173 22.4295C446.282 22.6931 446.442 22.9326 446.643 23.1343C446.845 23.336 447.084 23.4961 447.347 23.6052C447.611 23.7144 447.893 23.7706 448.178 23.7706H473.293C473.578 23.7706 473.86 23.7144 474.124 23.6052C474.387 23.4961 474.626 23.336 474.828 23.1343C475.03 22.9326 475.189 22.6931 475.298 22.4295C475.408 22.1659 475.464 21.8834 475.464 21.5981C475.464 21.3128 475.408 21.0303 475.298 20.7667C475.189 20.5031 475.03 20.2636 474.828 20.0619C474.626 19.8601 474.387 19.7001 474.124 19.5909C473.86 19.4817 473.578 19.4255 473.293 19.4255H477.634C478.21 19.4255 478.762 19.1966 479.169 18.7892C479.576 18.3818 479.805 17.8292 479.805 17.253C479.805 16.6768 479.576 16.1242 479.169 15.7168C478.762 15.3093 478.21 15.0804 477.634 15.0804H477.634Z" fill="#DEE3F3"/>
<path opacity="0.5" d="M227.333 7.91456H223.259C223.634 7.91565 224.006 7.8426 224.353 7.69963C224.699 7.55666 225.015 7.34656 225.281 7.08138C225.546 6.8162 225.757 6.50114 225.901 6.15427C226.045 5.80739 226.119 5.43551 226.119 5.05995C226.119 4.68438 226.045 4.31251 225.901 3.96563C225.757 3.61876 225.546 3.3037 225.281 3.03852C225.015 2.77333 224.699 2.56323 224.353 2.42026C224.006 2.27729 223.634 2.20425 223.259 2.20533H190.258C189.883 2.20425 189.511 2.27729 189.164 2.42026C188.817 2.56323 188.502 2.77333 188.236 3.03852C187.971 3.3037 187.76 3.61876 187.616 3.96563C187.472 4.31251 187.398 4.68438 187.398 5.05995C187.398 5.43551 187.472 5.80739 187.616 6.15427C187.76 6.50114 187.971 6.8162 188.236 7.08138C188.502 7.34656 188.817 7.55666 189.164 7.69963C189.511 7.8426 189.883 7.91565 190.258 7.91456H194.332C193.957 7.9138 193.586 7.98707 193.239 8.13018C192.893 8.2733 192.577 8.48345 192.312 8.7486C192.047 9.01375 191.836 9.3287 191.692 9.67542C191.549 10.0221 191.475 10.3938 191.475 10.7692C191.475 11.1445 191.549 11.5162 191.692 11.8629C191.836 12.2097 192.047 12.5246 192.312 12.7898C192.577 13.0549 192.893 13.2651 193.239 13.4082C193.586 13.5513 193.957 13.6246 194.332 13.6238H188.629C187.874 13.626 187.15 13.9277 186.617 14.4628C186.084 14.9979 185.785 15.7227 185.785 16.4784C185.785 17.2341 186.084 17.9589 186.617 18.494C187.15 19.0291 187.874 19.3308 188.629 19.333H221.629C222.384 19.3308 223.107 19.0291 223.64 18.494C224.173 17.9589 224.473 17.2341 224.473 16.4784C224.473 15.7227 224.173 14.9979 223.64 14.4628C223.107 13.9277 222.384 13.626 221.629 13.6238H227.333C228.088 13.6222 228.812 13.3208 229.346 12.7856C229.879 12.2505 230.179 11.5253 230.179 10.7692C230.179 10.0131 229.879 9.28789 229.346 8.75271C228.812 8.21754 228.088 7.9161 227.333 7.91456Z" fill="#DEE3F3"/>
<path d="M353.455 156.906H231.439C227.198 156.906 223.76 160.347 223.76 164.592V212.99C223.76 217.235 227.198 220.676 231.439 220.676H353.455C357.696 220.676 361.134 217.235 361.134 212.99V164.592C361.134 160.347 357.696 156.906 353.455 156.906Z" fill="#6F0DCC"/>
<path opacity="0.1" d="M350.184 210.889H234.71V212.085H350.184V210.889Z" fill="black"/>
<path opacity="0.3" d="M350.184 166.87H234.71V210.712H350.184V166.87Z" fill="black"/>
<path opacity="0.1" d="M261.588 205.649C270.384 205.649 277.515 198.511 277.515 189.706C277.515 180.901 270.384 173.763 261.588 173.763C252.791 173.763 245.66 180.901 245.66 189.706C245.66 198.511 252.791 205.649 261.588 205.649Z" fill="black"/>
<path opacity="0.1" d="M323.306 205.649C332.103 205.649 339.234 198.511 339.234 189.706C339.234 180.901 332.103 173.763 323.306 173.763C314.51 173.763 307.379 180.901 307.379 189.706C307.379 198.511 314.51 205.649 323.306 205.649Z" fill="black"/>
<path d="M304.391 220.675H280.501V234.628H304.391V220.675Z" fill="#6F0DCC"/>
<path d="M342.22 230.641H242.674V310.354H342.22V230.641Z" fill="#6F0DCC"/>
<path d="M344.211 326.297H240.683V336.261H344.211V326.297Z" fill="#6F0DCC"/>
<path d="M257.606 360.175V372.132V390.068V400.032V406.01H275.524V400.032V390.068V372.132V360.175V346.225H257.606V360.175Z" fill="#6F0DCC"/>
<path d="M311.361 346.225V360.175V372.132V390.068V400.032V406.01H329.279V400.032V390.068V372.132V360.175V346.225H311.361Z" fill="#6F0DCC"/>
<path d="M229.115 248.577V267.009C224.197 267.869 219.614 270.08 215.879 273.395C212.415 276.607 209.721 280.56 207.999 284.961C205.696 290.546 204.576 296.75 204.119 302.615C203.555 310.526 203.925 318.475 205.22 326.299H185.311C184.466 315.283 184.735 305.831 185.832 297.715C187.062 288.566 189.338 281.118 192.222 275.061C197.99 262.951 206.194 256.381 213.401 252.813C221.962 248.577 229.115 248.577 229.115 248.577Z" fill="#6F0DCC"/>
<path opacity="0.3" d="M275.524 346.225H257.606V360.175H275.524V346.225Z" fill="black"/>
<path opacity="0.3" d="M275.524 372.132H257.606V390.068H275.524V372.132Z" fill="black"/>
<path opacity="0.3" d="M275.524 400.032H257.606V406.01H275.524V400.032Z" fill="black"/>
<path opacity="0.3" d="M329.279 346.225H311.361V360.175H329.279V346.225Z" fill="black"/>
<path opacity="0.3" d="M329.279 372.132H311.361V390.068H329.279V372.132Z" fill="black"/>
<path opacity="0.3" d="M329.279 400.032H311.361V406.01H329.279V400.032Z" fill="black"/>
<path opacity="0.3" d="M229.115 248.577V267.009C224.197 267.869 219.614 270.08 215.879 273.395L213.401 252.813C221.962 248.577 229.115 248.577 229.115 248.577Z" fill="black"/>
<path opacity="0.3" d="M207.999 284.961C205.696 290.546 204.576 296.75 204.119 302.615L185.832 297.715C187.062 288.566 189.338 281.118 192.222 275.061L207.999 284.961Z" fill="black"/>
<path d="M355.779 248.577V267.009C360.698 267.869 365.28 270.08 369.015 273.395C372.479 276.607 375.173 280.56 376.895 284.961C379.199 290.546 380.318 296.75 380.775 302.615C381.339 310.526 380.969 318.475 379.674 326.299H399.583C400.428 315.283 400.159 305.831 399.062 297.715C397.832 288.566 395.556 281.118 392.672 275.061C386.904 262.951 378.7 256.381 371.493 252.813C362.932 248.577 355.779 248.577 355.779 248.577Z" fill="#6F0DCC"/>
<path opacity="0.3" d="M355.779 248.577V267.009C360.698 267.869 365.28 270.08 369.016 273.395L371.493 252.813C362.932 248.577 355.779 248.577 355.779 248.577Z" fill="black"/>
<path opacity="0.3" d="M376.895 284.961C379.199 290.546 380.318 296.75 380.775 302.615L399.062 297.715C397.832 288.566 395.556 281.118 392.672 275.061L376.895 284.961Z" fill="black"/>
<path opacity="0.1" d="M304.391 220.675H280.501V222.326H304.391V220.675Z" fill="black"/>
<path opacity="0.1" d="M343.989 244.844V278.217C342.798 276.931 342.137 275.241 342.138 273.487V249.569C342.137 247.817 342.798 246.128 343.989 244.844Z" fill="black"/>
<path opacity="0.1" d="M243.027 247.044V272.027C242.908 273.607 242.254 275.099 241.172 276.255V242.817C242.254 243.973 242.908 245.464 243.027 247.044Z" fill="black"/>
<path opacity="0.1" d="M337.243 310.355H247.653V311.536H337.243V310.355Z" fill="black"/>
<path opacity="0.1" d="M289.459 336.263H245.66V337.178H289.459V336.263Z" fill="black"/>
<path opacity="0.1" d="M337.243 336.263H293.444V337.178H337.243V336.263Z" fill="black"/>
<path d="M257.402 97.8896H250.546V156.905H257.402V97.8896Z" fill="#6F0DCC"/>
<path d="M336.014 97.8896H329.158V156.905H336.014V97.8896Z" fill="#6F0DCC"/>
<path opacity="0.1" d="M253.745 106.124C258.036 106.124 261.515 102.642 261.515 98.3471C261.515 94.0518 258.036 90.5698 253.745 90.5698C249.454 90.5698 245.975 94.0518 245.975 98.3471C245.975 102.642 249.454 106.124 253.745 106.124Z" fill="black"/>
<path d="M253.745 105.667C258.036 105.667 261.515 102.185 261.515 97.8896C261.515 93.5943 258.036 90.1123 253.745 90.1123C249.454 90.1123 245.975 93.5943 245.975 97.8896C245.975 102.185 249.454 105.667 253.745 105.667Z" fill="#6F0DCC"/>
<path opacity="0.1" d="M332.814 106.124C337.106 106.124 340.584 102.642 340.584 98.3471C340.584 94.0518 337.106 90.5698 332.814 90.5698C328.523 90.5698 325.045 94.0518 325.045 98.3471C325.045 102.642 328.523 106.124 332.814 106.124Z" fill="black"/>
<path d="M332.814 105.667C337.106 105.667 340.584 102.185 340.584 97.8896C340.584 93.5943 337.106 90.1123 332.814 90.1123C328.523 90.1123 325.045 93.5943 325.045 97.8896C325.045 102.185 328.523 105.667 332.814 105.667Z" fill="#6F0DCC"/>
<path d="M89.7173 278.683C89.7173 278.683 112.454 323.357 93.9278 347.802C75.4015 372.246 95.612 438.836 95.612 438.836" stroke="#DE8E68" stroke-width="2" stroke-miterlimit="10"/>
<path d="M96.4541 264.775C96.4541 273.387 90.1384 280.368 90.1384 280.368C90.1384 280.368 83.8226 273.387 83.8226 264.775C83.8226 256.162 90.1384 249.181 90.1384 249.181C90.1384 249.181 96.4541 256.162 96.4541 264.775Z" fill="#DE8E68"/>
<path d="M101.507 278.683C101.507 278.683 78.7699 323.357 97.2963 347.802C115.823 372.246 95.612 438.836 95.612 438.836" stroke="#FED385" stroke-width="2" stroke-miterlimit="10"/>
<path d="M94.77 264.775C94.77 273.387 101.086 280.368 101.086 280.368C101.086 280.368 107.402 273.387 107.402 264.775C107.402 256.162 101.086 249.181 101.086 249.181C101.086 249.181 94.77 256.162 94.77 264.775Z" fill="#FED385"/>
<path d="M110.77 278.683C110.77 278.683 133.507 323.357 114.98 347.802C96.4542 372.246 116.665 438.836 116.665 438.836" stroke="#DE8E68" stroke-width="2" stroke-miterlimit="10"/>
<path d="M117.507 264.775C117.507 273.387 111.191 280.368 111.191 280.368C111.191 280.368 104.875 273.387 104.875 264.775C104.875 256.162 111.191 249.181 111.191 249.181C111.191 249.181 117.507 256.162 117.507 264.775Z" fill="#DE8E68"/>
<path d="M113.966 300.569C108.001 306.776 98.6138 307.424 98.6138 307.424C98.6138 307.424 98.898 298.01 104.863 291.803C110.828 285.597 120.216 284.949 120.216 284.949C120.216 284.949 119.931 294.363 113.966 300.569Z" fill="#DE8E68"/>
<path d="M114.558 331.388C108.593 337.595 99.2059 338.243 99.2059 338.243C99.2059 338.243 99.4901 328.829 105.455 322.622C111.421 316.416 120.808 315.768 120.808 315.768C120.808 315.768 120.523 325.182 114.558 331.388Z" fill="#DE8E68"/>
<path d="M82.2101 348.346C87.8509 354.849 87.6544 364.266 87.6544 364.266C87.6544 364.266 78.3126 363.138 72.6718 356.635C67.0311 350.132 67.2275 340.715 67.2275 340.715C67.2275 340.715 76.5694 341.842 82.2101 348.346Z" fill="#DE8E68"/>
<path d="M87.4432 282.619C94.6152 287.377 96.9401 296.503 96.9401 296.503C96.9401 296.503 87.637 297.916 80.4651 293.158C73.2931 288.401 70.9681 279.274 70.9681 279.274C70.9681 279.274 80.2712 277.861 87.4432 282.619Z" fill="#DE8E68"/>
<path d="M122.559 278.683C122.559 278.683 99.8226 323.357 118.349 347.802C136.875 372.246 116.665 438.836 116.665 438.836" stroke="#FED385" stroke-width="2" stroke-miterlimit="10"/>
<path d="M115.823 264.775C115.823 273.387 122.138 280.368 122.138 280.368C122.138 280.368 128.454 273.387 128.454 264.775C128.454 256.162 122.138 249.181 122.138 249.181C122.138 249.181 115.823 256.162 115.823 264.775Z" fill="#FED385"/>
<path d="M117.64 301.232C111.601 307.366 111.204 316.776 111.204 316.776C111.204 316.776 120.598 316.241 126.637 310.106C132.676 303.972 133.073 294.562 133.073 294.562C133.073 294.562 123.679 295.097 117.64 301.232Z" fill="#FED385"/>
<path d="M129.482 343.904C123.443 350.039 123.046 359.449 123.046 359.449C123.046 359.449 132.44 358.913 138.479 352.779C144.518 346.644 144.915 337.234 144.915 337.234C144.915 337.234 135.521 337.77 129.482 343.904Z" fill="#FED385"/>
<path d="M112.059 334.526C112.059 334.526 125.746 312.931 144.956 312.468" stroke="#FED385" stroke-width="2" stroke-miterlimit="10"/>
<path d="M101.402 321.487C101.402 321.487 87.7147 299.893 68.5054 299.429" stroke="#DE8E68" stroke-width="2" stroke-miterlimit="10"/>
<path d="M99.6252 352.306C99.6252 352.306 113.312 330.712 132.521 330.248" stroke="#FED385" stroke-width="2" stroke-miterlimit="10"/>
<path d="M144.329 315.856C146.291 315.856 147.882 314.264 147.882 312.3C147.882 310.336 146.291 308.744 144.329 308.744C142.367 308.744 140.777 310.336 140.777 312.3C140.777 314.264 142.367 315.856 144.329 315.856Z" fill="#FED385"/>
<path d="M68.8357 303.114C70.7978 303.114 72.3883 301.522 72.3883 299.558C72.3883 297.594 70.7978 296.002 68.8357 296.002C66.8736 296.002 65.2831 297.594 65.2831 299.558C65.2831 301.522 66.8736 303.114 68.8357 303.114Z" fill="#DE8E68"/>
<path d="M109.691 359.418C109.691 359.418 96.0042 337.824 76.7949 337.36" stroke="#DE8E68" stroke-width="2" stroke-miterlimit="10"/>
<path d="M77.1252 341.045C79.0872 341.045 80.6778 339.453 80.6778 337.489C80.6778 335.525 79.0872 333.933 77.1252 333.933C75.1631 333.933 73.5725 335.525 73.5725 337.489C73.5725 339.453 75.1631 341.045 77.1252 341.045Z" fill="#DE8E68"/>
<path d="M132.783 333.933C134.745 333.933 136.336 332.341 136.336 330.377C136.336 328.413 134.745 326.821 132.783 326.821C130.821 326.821 129.231 328.413 129.231 330.377C129.231 332.341 130.821 333.933 132.783 333.933Z" fill="#FED385"/>
<path d="M185.345 412.897C185.345 412.897 152.362 406.294 143.567 397.491C134.772 388.687 95.1933 373.28 90.7957 384.285C86.3981 395.29 31.4278 432.705 68.8076 439.308C106.187 445.911 156.76 448.112 167.754 443.71C178.748 439.308 185.345 412.897 185.345 412.897Z" fill="#A8A8A8"/>
<path opacity="0.2" d="M68.8076 435.22C106.187 441.822 156.76 444.023 167.754 439.621C176.127 436.269 181.945 420.163 184.245 412.667C184.941 412.816 185.345 412.897 185.345 412.897C185.345 412.897 178.748 439.308 167.754 443.71C156.76 448.112 106.187 445.911 68.8075 439.308C58.0175 437.402 54.9318 432.926 56.0942 427.262C57.0167 430.957 60.7764 433.801 68.8076 435.22Z" fill="black"/>
<path d="M541.57 286.57C541.57 286.57 549.472 296.914 537.922 312.532C526.372 328.15 516.848 341.334 520.698 351.07C520.698 351.07 538.125 322.065 552.309 321.659C566.494 321.254 557.173 304.013 541.57 286.57Z" fill="#DE8E68"/>
<path opacity="0.1" d="M541.57 286.57C542.259 287.569 542.803 288.662 543.184 289.814C557.024 306.09 564.397 321.279 551.094 321.659C538.702 322.014 523.837 344.193 520.277 349.795C520.394 350.227 520.534 350.653 520.698 351.07C520.698 351.07 538.125 322.065 552.309 321.659C566.494 321.254 557.173 304.013 541.57 286.57Z" fill="black"/>
<path d="M556.261 299.754C556.261 303.395 555.852 306.346 555.349 306.346C554.845 306.346 554.437 303.395 554.437 299.754C554.437 296.113 554.947 297.827 555.45 297.827C555.954 297.827 556.261 296.113 556.261 299.754Z" fill="#FED385"/>
<path d="M561.302 304.101C558.108 305.843 555.324 306.897 555.083 306.454C554.842 306.011 557.236 304.24 560.429 302.498C563.623 300.755 562.363 302.023 562.604 302.466C562.845 302.909 564.496 302.358 561.302 304.101Z" fill="#FED385"/>
<path d="M499.827 286.57C499.827 286.57 491.924 296.914 503.474 312.532C515.025 328.15 524.548 341.334 520.698 351.07C520.698 351.07 503.272 322.065 489.087 321.659C474.903 321.254 484.224 304.013 499.827 286.57Z" fill="#DE8E68"/>
<path opacity="0.1" d="M499.827 286.57C499.138 287.569 498.594 288.662 498.212 289.814C484.373 306.09 477 321.279 490.303 321.659C502.695 322.014 517.56 344.193 521.12 349.795C521.003 350.227 520.863 350.653 520.698 351.07C520.698 351.07 503.272 322.065 489.087 321.659C474.903 321.254 484.224 304.013 499.827 286.57Z" fill="black"/>
<path d="M485.136 299.754C485.136 303.395 485.544 306.346 486.048 306.346C486.551 306.346 486.96 303.395 486.96 299.754C486.96 296.113 486.45 297.827 485.947 297.827C485.443 297.827 485.136 296.113 485.136 299.754Z" fill="#FED385"/>
<path d="M480.095 304.101C483.288 305.843 486.073 306.897 486.314 306.454C486.555 306.011 484.161 304.24 480.968 302.498C477.774 300.755 479.033 302.023 478.792 302.466C478.551 302.909 476.901 302.358 480.095 304.101Z" fill="#FED385"/>
<path d="M487.653 349.716C487.653 349.716 509.748 349.035 516.407 344.289C523.066 339.543 550.394 333.875 552.046 341.487C553.698 349.099 585.251 379.346 560.306 379.547C535.361 379.748 502.344 375.658 495.698 371.605C489.052 367.553 487.653 349.716 487.653 349.716Z" fill="#A8A8A8"/>
<path opacity="0.2" d="M560.751 376.897C535.806 377.099 502.79 373.008 496.143 368.955C491.082 365.869 489.065 354.796 488.39 349.687C487.923 349.707 487.653 349.716 487.653 349.716C487.653 349.716 489.052 367.553 495.698 371.605C502.344 375.658 535.361 379.748 560.306 379.547C567.507 379.489 569.994 376.924 569.857 373.126C568.857 375.421 566.111 376.854 560.751 376.897Z" fill="black"/>
</g>
<defs>
<clipPath id="clip0">
<rect width="609" height="446" fill="white"/>
</clipPath>
</defs>
</svg>
