<svg width="989" height="834" viewBox="0 0 989 834" fill="none" xmlns="http://www.w3.org/2000/svg">
<path d="M838.768 38.6172C952.378 90.6174 994.565 204.404 987.185 328.575C979.804 452.754 922.837 587.074 838.445 679.648C653.296 882.751 316.677 885.475 134.61 679.659C22.1906 552.576 -38.5245 413.64 29.7279 258.775C50.2386 212.237 80.3138 184.958 116.642 168.57C153.018 152.16 195.707 146.647 241.478 143.756C256.309 142.819 271.469 142.158 286.836 141.488C318.828 140.093 351.715 138.659 384.383 134.619C432.782 128.633 480.848 116.918 525.169 91.0812C545.104 79.4605 559.966 66.5189 574.06 54.2458C577.74 51.0416 581.367 47.883 585.019 44.8053C602.668 29.9306 620.969 16.8594 648.735 9.29255C721.083 -10.4239 770.297 7.27727 838.768 38.6172Z" fill="white" stroke="#E0E0E0" stroke-width="2"/>
<path d="M85.016 302.588C159.459 133.463 373.24 243.658 532.737 150.563C577.957 124.169 594.023 90.3097 644.526 76.5289C710.173 58.6161 754.86 74.7383 816.727 103.091C1022.81 197.538 969.402 516.371 816.727 684.063C649.2 868.068 344.629 870.553 179.867 684.063C78.2655 569.063 23.1781 443.076 85.016 302.588Z" fill="#6F0DCC" fill-opacity="0.12"/>
<path d="M148.044 280.695C205.397 141.177 370.102 232.081 492.984 155.284C527.824 133.511 540.201 105.579 579.111 94.2109C629.688 79.434 664.116 92.7337 711.78 116.123C870.558 194.036 829.407 457.052 711.78 595.386C582.712 747.178 348.059 749.228 221.121 595.386C142.843 500.519 100.401 396.588 148.044 280.695Z" fill="#6F0DCC"/>
<path d="M304.193 310.424C307.574 318.552 309.776 327.074 310.741 335.758C310.816 337.849 310.009 339.882 308.497 341.412C306.985 342.943 304.892 343.845 302.677 343.921C299.141 344.24 295.584 343.59 292.43 342.05C289.276 340.51 286.659 338.145 284.893 335.238L276.035 323.432C274.499 320.886 273.843 317.951 274.158 315.037C274.473 312.122 275.744 309.373 277.793 307.171C284.858 298.618 300.988 301.35 304.193 310.424Z" fill="#F4A28C"/>
<path d="M221.016 713.662C221.016 713.662 217.678 722.479 209.346 723.146C201.014 723.813 198.815 731.618 206.319 733.644C213.823 735.669 233.099 726.456 233.099 726.456L232.556 714.971L221.016 713.662Z" fill="#6F0DCC"/>
<path d="M335.591 713.662C335.591 713.662 338.929 722.479 347.261 723.146C355.592 723.813 357.792 731.618 350.288 733.644C342.784 735.669 323.43 726.456 323.43 726.456L323.973 714.971L335.591 713.662Z" fill="#6F0DCC"/>
<path d="M346.277 361.143C346.277 361.143 405.79 372.604 400.848 425.511C395.906 478.419 450.01 507.515 416.864 538.094C383.718 568.673 339.602 551.481 339.602 551.481L346.277 361.143Z" fill="#6F0DCC"/>
<path d="M346.754 362C346.754 362 406.266 373.461 401.324 426.368C396.382 479.276 450.487 508.372 417.341 538.951C384.195 569.529 340.078 552.338 340.078 552.338L346.754 362Z" fill="#FFC74C"/>
<path d="M278.925 320.783L279.442 359.834L301.954 358.006L292.535 330.342L278.925 320.783Z" fill="#F4A28C"/>
<path d="M307.604 319L312.287 322.458C312.556 322.653 312.768 322.911 312.904 323.206C313.039 323.501 313.094 323.825 313.063 324.146C313.032 324.467 312.916 324.775 312.726 325.041C312.536 325.308 312.278 325.524 311.976 325.669L307.655 327.768L307.604 319Z" fill="#F4A28C"/>
<path opacity="0.31" d="M293.725 334.047C290.501 333.855 287.379 332.895 284.643 331.256C284.643 331.256 286.04 338.938 296.571 342.149L293.725 334.047Z" fill="#CE8172"/>
<path d="M321.955 356.03C284.831 356.685 248.187 364.166 214.03 378.063C208.793 380.177 204.066 383.294 200.139 387.22C196.212 391.145 193.169 395.797 191.198 400.889C189.227 405.98 188.37 411.403 188.679 416.823C188.987 422.243 190.456 427.545 192.994 432.403L251.73 544.22L360.612 538.069C360.612 538.069 380.432 475.233 376.448 404.121C375.641 390.935 369.514 378.559 359.354 369.593C349.193 360.626 335.789 355.765 321.955 356.03V356.03Z" fill="#FFC74C"/>
<path d="M251.73 544.244L219.205 715.267H235.455L276.259 622.42C290.714 589.527 316.196 562.144 348.709 544.565L360.664 538.094L251.73 544.244Z" fill="#24285B"/>
<path opacity="0.08" d="M242.752 392.932C242.752 392.932 268.42 411.062 263.452 443.444C258.484 475.825 253.413 500.97 284.644 493.436C315.875 485.903 332.823 416.57 332.823 416.57L369.333 417.435L363.019 494.869L341.853 496.277C336.845 496.601 332.087 498.488 328.313 501.648C324.54 504.809 321.96 509.066 320.972 513.765L315.28 540.762L251.731 544.343L242.752 531.598L203.112 490.423L198.144 425.067L242.752 392.932Z" fill="black"/>
<path d="M285.877 483.961L356.431 488.54L363.001 396.301L292.448 391.722L285.877 483.961Z" fill="#CE8172"/>
<path d="M360.612 538.094L343.819 715.267H322.187C322.187 715.267 327.233 581.887 288.239 553.581L360.612 538.094Z" fill="#24285B"/>
<path d="M245.183 402.96C245.021 397.747 243.178 392.709 239.906 388.533C236.633 384.357 232.091 381.246 226.898 379.625C221.705 378.004 216.115 377.952 210.89 379.476C205.665 381 201.06 384.026 197.703 388.14C185.205 403.355 173.717 428.747 174.674 470.441C176.692 559.361 231.418 583.32 315.874 485.928L299.262 473.578C299.262 473.578 265.987 500.55 235.532 500.995C212.866 501.291 246.71 445.42 245.183 402.96Z" fill="#FFC74C"/>
<path opacity="0.08" d="M359.887 438.43C359.887 438.43 335.668 481.086 286.816 469.033L285.755 483.853L356.316 488.422L359.887 438.43Z" fill="black"/>
<path d="M302.315 475.85C302.315 475.85 312.251 459.103 324.413 463.5C336.574 467.897 315.874 485.854 315.874 485.854L302.315 475.85Z" fill="#F4A28C"/>
<path d="M284.927 322.309C285.339 323.364 286.135 324.242 287.167 324.782C288.2 325.321 289.401 325.486 290.55 325.246C295.487 323.939 300.762 324.528 305.253 326.889C313.068 331.793 306.153 342.839 297.128 340.737C288.104 338.636 275.003 324.572 275.003 324.572C275.003 324.572 266.091 312.745 268.087 305.066C270.083 297.388 289.931 285.91 299.012 298.843C304.803 307.114 296.201 311.478 289.313 313.526C288.394 313.807 287.544 314.263 286.816 314.869C286.087 315.474 285.494 316.215 285.073 317.046C284.652 317.878 284.413 318.783 284.368 319.706C284.324 320.629 284.476 321.552 284.815 322.417L284.927 322.309Z" fill="#24285B"/>
<path d="M288.914 322.307C288.914 322.307 287.439 317.936 284.101 319.245C280.763 320.554 282.807 326.902 287.672 326.161L288.914 322.307Z" fill="#F4A28C"/>
<path d="M730.702 557.138H520.934V728.877H730.702V557.138Z" fill="#F4A28C"/>
<path d="M646.531 346.348L752.334 264.22L693.443 381.051L646.531 346.348Z" fill="#6F0DCC"/>
<path d="M650.338 338.796L756.141 256.669L697.249 373.5L650.338 338.796Z" fill="#F4A28C"/>
<path d="M748.66 516.827H500.234V557.138H748.66V516.827Z" fill="#DE8E68"/>
<path d="M619.336 445.988C686.042 489.287 772.154 479.407 811.665 423.955C813.502 421.485 815.132 418.744 816.711 416.101L575.918 259.774C573.9 262.244 571.933 264.566 570.122 267.184C530.663 322.71 552.631 402.664 619.336 445.988Z" fill="#4831D4"/>
<path d="M575.686 516.827L623.037 423.19C624.886 419.517 627.954 416.53 631.764 414.693C635.573 412.855 639.912 412.269 644.106 413.027C648.3 413.784 652.115 415.842 654.959 418.881C657.802 421.92 659.515 425.77 659.831 429.834L666.766 516.827H575.686Z" fill="#6C63FF"/>
<path opacity="0.08" d="M637.682 452.41C644.227 452.41 649.533 447.345 649.533 441.097C649.533 434.849 644.227 429.785 637.682 429.785C631.137 429.785 625.831 434.849 625.831 441.097C625.831 447.345 631.137 452.41 637.682 452.41Z" fill="black"/>
<path d="M755.31 283.116C765.599 283.116 773.94 275.154 773.94 265.332C773.94 255.51 765.599 247.548 755.31 247.548C745.021 247.548 736.68 255.51 736.68 265.332C736.68 275.154 745.021 283.116 755.31 283.116Z" fill="#4831D4"/>
<path d="M179.747 202.075H94.5898C83.5441 202.075 74.5898 211.029 74.5898 222.075V287.618C74.5898 298.664 83.5441 307.618 94.5898 307.618H179.747C190.793 307.618 199.747 298.664 199.747 287.618V222.075C199.747 211.03 190.793 202.075 179.747 202.075Z" fill="#F4A28C"/>
<path d="M164.893 248.363C163.509 248.355 162.182 247.832 161.193 246.906C154.813 240.82 146.162 237.401 137.143 237.401C128.123 237.401 119.472 240.82 113.092 246.906C112.11 247.846 110.778 248.375 109.388 248.378C107.998 248.38 106.663 247.855 105.679 246.918C104.694 245.981 104.139 244.709 104.137 243.382C104.134 242.055 104.684 240.782 105.666 239.842C109.799 235.894 114.706 232.763 120.107 230.627C125.507 228.491 131.296 227.391 137.143 227.391C142.989 227.391 148.778 228.491 154.179 230.627C159.579 232.763 164.487 235.894 168.619 239.842C169.112 240.302 169.504 240.851 169.771 241.458C170.039 242.064 170.176 242.716 170.176 243.374C170.176 244.032 170.039 244.683 169.771 245.29C169.504 245.896 169.112 246.446 168.619 246.906C167.625 247.838 166.287 248.361 164.893 248.363Z" fill="white"/>
<path d="M151.956 260.738C151.269 260.742 150.587 260.615 149.952 260.364C149.317 260.114 148.74 259.746 148.256 259.28C146.797 257.886 145.065 256.78 143.158 256.025C141.251 255.27 139.207 254.882 137.142 254.882C135.078 254.882 133.034 255.27 131.127 256.025C129.22 256.78 127.488 257.886 126.029 259.28C125.044 260.217 123.71 260.742 122.32 260.74C120.929 260.738 119.597 260.208 118.616 259.268C117.634 258.328 117.084 257.054 117.087 255.727C117.089 254.4 117.644 253.128 118.629 252.191C123.543 247.511 130.201 244.883 137.142 244.883C144.084 244.883 150.742 247.511 155.656 252.191C156.425 252.878 156.956 253.771 157.179 254.753C157.402 255.735 157.307 256.759 156.904 257.687C156.502 258.616 155.813 259.405 154.929 259.95C154.045 260.495 153.008 260.77 151.956 260.738V260.738Z" fill="white"/>
<path d="M136.849 267C135.192 267 133.572 267.469 132.193 268.348C130.815 269.227 129.741 270.477 129.107 271.939C128.472 273.4 128.306 275.009 128.63 276.561C128.953 278.113 129.751 279.538 130.923 280.657C132.095 281.776 133.589 282.538 135.214 282.846C136.84 283.155 138.525 282.997 140.056 282.391C141.588 281.786 142.897 280.76 143.818 279.445C144.738 278.129 145.23 276.582 145.23 275C145.23 272.878 144.347 270.843 142.775 269.343C141.204 267.843 139.072 267 136.849 267V267ZM141.04 278.05C141.179 278.183 141.257 278.362 141.257 278.55C141.257 278.738 141.179 278.917 141.04 279.05C140.901 279.183 140.712 279.257 140.516 279.257C140.319 279.257 140.131 279.183 139.992 279.05L136.849 276.05L133.707 279.06C133.638 279.126 133.556 279.178 133.466 279.213C133.376 279.249 133.28 279.267 133.183 279.267C133.086 279.267 132.989 279.249 132.899 279.213C132.809 279.178 132.728 279.126 132.659 279.06C132.59 278.994 132.536 278.916 132.498 278.831C132.461 278.745 132.442 278.653 132.442 278.56C132.442 278.467 132.461 278.375 132.498 278.289C132.536 278.204 132.59 278.126 132.659 278.06L135.802 275.04L132.57 271.93C132.431 271.797 132.353 271.618 132.353 271.43C132.353 271.242 132.431 271.063 132.57 270.93C132.709 270.797 132.897 270.723 133.094 270.723C133.29 270.723 133.479 270.797 133.618 270.93L136.849 274.05L140.081 270.965C140.15 270.899 140.232 270.847 140.321 270.812C140.411 270.776 140.508 270.758 140.605 270.758C140.702 270.758 140.798 270.776 140.888 270.812C140.978 270.847 141.06 270.899 141.129 270.965C141.197 271.031 141.252 271.109 141.289 271.194C141.326 271.28 141.346 271.372 141.346 271.465C141.346 271.558 141.326 271.65 141.289 271.736C141.252 271.821 141.197 271.899 141.129 271.965L137.897 275.04L141.04 278.05Z" fill="white"/>
</svg>
