<svg width="680" height="452" viewBox="0 0 680 452" fill="none" xmlns="http://www.w3.org/2000/svg">
<path d="M83.0822 398.156C83.0822 413.023 74.2364 418.215 63.3254 418.215C63.0714 418.215 62.8187 418.212 62.5674 418.205C62.0621 418.194 61.5609 418.172 61.0666 418.137C51.2184 417.441 43.5673 411.982 43.5673 398.156C43.5673 383.848 61.863 365.793 63.243 364.453L63.2458 364.451C63.2979 364.399 63.3254 364.373 63.3254 364.373C63.3254 364.373 83.0822 383.287 83.0822 398.156Z" fill="#3F3D56"/>
<path d="M62.6045 415.94L69.8313 405.851L62.5866 417.047L62.5674 418.205C62.0621 418.194 61.5609 418.172 61.0666 418.136L61.8451 403.262L61.8396 403.147L61.8534 403.125L61.9261 401.72L54.6636 390.495L61.9481 400.666L61.9659 400.964L62.555 389.726L56.3375 378.128L62.6306 387.751L63.243 364.453L63.2458 364.373V364.451L63.1441 382.824L69.3329 375.54L63.118 384.406L62.9546 394.469L68.7342 384.812L62.9299 395.951L62.8393 401.544L71.2292 388.103L62.8077 403.497L62.6045 415.94Z" fill="#F2F2F2"/>
<path d="M334.1 312.186C328.821 293.04 299.511 278.929 276.642 275.287V266.09C277.064 265.933 277.485 265.771 277.903 265.604C277.783 263.766 277.413 261.953 276.804 260.215C286.573 256.247 295.009 249.58 301.123 240.995C307.56 234.265 312.41 226.184 315.319 217.341C318.229 208.498 319.125 199.117 317.941 189.884C316.758 180.651 313.525 171.799 308.479 163.974C303.432 156.149 296.7 149.55 288.775 144.658C290.948 143.288 292.637 141.271 293.602 138.892C294.567 136.512 294.761 133.89 294.154 131.394C293.548 128.899 292.173 126.657 290.224 124.984C288.274 123.311 285.848 122.293 283.288 122.071C285.378 117.14 285.752 111.65 284.351 106.481C282.949 101.312 279.853 96.7615 275.557 93.5586C271.261 90.3556 266.015 88.6849 260.656 88.8138C255.298 88.9427 250.138 90.8637 246.001 94.2695C249.65 92.3296 253.74 91.3665 257.872 91.474C262.003 91.5815 266.037 92.7559 269.58 94.883C273.123 97.01 276.055 100.017 278.089 103.612C280.124 107.207 281.193 111.267 281.192 115.397C281.192 115.607 281.179 115.814 281.174 116.023C281.069 112.559 280.213 109.159 278.664 106.058C277.115 102.957 274.91 100.23 272.202 98.064C269.495 95.8983 266.348 94.3463 262.981 93.5152C259.614 92.684 256.106 92.5937 252.701 93.2503C249.295 93.907 246.073 95.295 243.257 97.3183C240.441 99.3416 238.099 101.952 236.392 104.969C234.685 107.986 233.654 111.337 233.371 114.791C233.088 118.245 233.559 121.719 234.752 124.974C232.923 125.369 231.212 126.187 229.756 127.362C228.3 128.537 227.141 130.037 226.37 131.741C225.6 133.445 225.239 135.306 225.319 137.175C225.398 139.043 225.914 140.867 226.826 142.499C218.16 147.049 210.684 153.568 204.999 161.532C199.315 169.495 195.58 178.681 194.097 188.349C192.613 198.018 193.421 207.9 196.457 217.199C199.493 226.499 204.671 234.956 211.574 241.891C217.391 249.723 225.172 255.883 234.131 259.752V275.081C211.019 278.381 180.584 292.754 175.265 312.371C170.631 329.466 165.684 348.241 163.223 359.264C184.32 374.077 228.591 382.774 256.335 382.774C282.695 382.774 325.78 374.924 346.257 361.436C344.039 349.324 338.936 329.725 334.1 312.186ZM291.836 135.339C291.836 135.557 291.827 135.773 291.816 135.988C291.661 133.285 290.593 130.714 288.787 128.695C286.981 126.676 284.543 125.33 281.871 124.875C282.103 124.482 282.324 124.083 282.535 123.677C285.177 124.282 287.536 125.765 289.226 127.883C290.916 130.002 291.836 132.631 291.836 135.339Z" fill="url(#paint0_linear)"/>
<path d="M256.289 378.588C281.899 378.588 323.757 370.961 343.65 357.857C341.495 346.091 336.537 327.05 331.839 310.01C325.856 288.309 288.091 273.264 265.563 273.264H243.854C221.256 273.264 183.437 288.396 177.529 310.19C173.027 326.798 168.221 345.038 165.829 355.747C186.326 370.138 229.335 378.588 256.289 378.588Z" fill="#FED385"/>
<path d="M255.878 259.614C289.432 259.614 316.633 232.435 316.633 198.907C316.633 165.38 289.432 138.201 255.878 138.201C222.323 138.201 195.122 165.38 195.122 198.907C195.122 232.435 222.323 259.614 255.878 259.614Z" fill="#4E4C4C"/>
<path d="M239.474 241.104H271.262C272.523 241.104 273.733 241.605 274.625 242.496C275.517 243.387 276.018 244.596 276.018 245.857V278.333C276.018 280.895 275.513 283.432 274.531 285.8C273.55 288.167 272.111 290.318 270.298 292.13C268.485 293.942 266.332 295.38 263.962 296.36C261.593 297.341 259.054 297.846 256.489 297.846H254.247C251.682 297.846 249.143 297.341 246.774 296.36C244.404 295.38 242.252 293.942 240.438 292.13C238.625 290.318 237.186 288.167 236.205 285.8C235.223 283.432 234.718 280.895 234.718 278.333V245.857C234.718 245.232 234.841 244.614 235.08 244.038C235.319 243.461 235.67 242.937 236.111 242.496C236.553 242.055 237.077 241.705 237.654 241.466C238.231 241.227 238.85 241.104 239.474 241.104Z" fill="#DE8E68"/>
<path opacity="0.05" d="M257.276 268.599C264.116 268.603 270.894 267.298 277.243 264.755C276.918 259.745 274.697 255.046 271.031 251.611C267.366 248.177 262.53 246.265 257.505 246.262H255.812C250.871 246.264 246.109 248.111 242.461 251.442C238.813 254.773 236.544 259.346 236.099 264.264C242.79 267.132 249.996 268.607 257.276 268.599Z" fill="black"/>
<path d="M255.985 263.441C285.671 263.441 309.736 239.396 309.736 209.734C309.736 180.073 285.671 156.027 255.985 156.027C226.3 156.027 202.235 180.073 202.235 209.734C202.235 239.396 226.3 263.441 255.985 263.441Z" fill="#DE8E68"/>
<path d="M237.78 151.117C244.206 151.117 249.414 145.912 249.414 139.492C249.414 133.072 244.206 127.868 237.78 127.868C231.355 127.868 226.146 133.072 226.146 139.492C226.146 145.912 231.355 151.117 237.78 151.117Z" fill="#4E4C4C"/>
<path d="M279.146 151.117C285.571 151.117 290.78 145.912 290.78 139.492C290.78 133.072 285.571 127.868 279.146 127.868C272.72 127.868 267.512 133.072 267.512 139.492C267.512 145.912 272.72 151.117 279.146 151.117Z" fill="#4E4C4C"/>
<path d="M257.17 143.367C270.021 143.367 280.438 132.958 280.438 120.118C280.438 107.277 270.021 96.8684 257.17 96.8684C244.32 96.8684 233.902 107.277 233.902 120.118C233.902 132.958 244.32 143.367 257.17 143.367Z" fill="#4E4C4C"/>
<path d="M281.731 125.284C279.418 125.281 277.156 125.97 275.239 127.262C277.908 126.31 280.833 126.363 283.465 127.414C286.097 128.465 288.255 130.44 289.532 132.968C290.809 135.496 291.119 138.404 290.402 141.144C289.685 143.884 287.991 146.268 285.638 147.847C288.221 146.929 290.395 145.128 291.778 142.763C293.16 140.398 293.662 137.621 293.195 134.922C292.728 132.223 291.321 129.776 289.223 128.012C287.126 126.249 284.472 125.283 281.731 125.284Z" fill="#4E4C4C"/>
<path d="M261.048 92.9937C255.647 92.9855 250.413 94.8626 246.25 98.3008C251.343 95.5956 257.259 94.8767 262.852 96.2834C268.445 97.6902 273.315 101.122 276.519 105.914C279.722 110.706 281.031 116.516 280.19 122.217C279.349 127.918 276.419 133.104 271.968 136.769C276.553 134.334 280.191 130.438 282.303 125.699C284.416 120.96 284.881 115.652 283.626 110.618C282.37 105.584 279.465 101.115 275.374 97.9214C271.283 94.7277 266.24 92.9931 261.048 92.9937Z" fill="#4E4C4C"/>
<path d="M217.097 161.45C217.097 161.45 223.561 204.074 304.999 180.824L264.926 145.95L217.097 161.45Z" fill="#4E4C4C"/>
<path d="M80.3736 405.55H46.911C40.688 405.55 35.6434 410.59 35.6434 416.808V418.101C35.6434 424.319 40.688 429.359 46.911 429.359H80.3736C86.5965 429.359 91.6412 424.319 91.6412 418.101V416.808C91.6412 410.59 86.5965 405.55 80.3736 405.55Z" fill="#DE8E68"/>
<g opacity="0.7">
<path opacity="0.7" d="M469.02 390.34V381.761H426.088V421.441C426.088 423.659 426.97 425.787 428.54 427.355C430.11 428.924 432.239 429.805 434.46 429.805H460.648C462.868 429.805 464.998 428.924 466.568 427.355C468.138 425.787 469.02 423.659 469.02 421.441V412.647C471.98 412.647 474.819 411.472 476.913 409.38C479.006 407.288 480.182 404.451 480.182 401.493C480.182 398.535 479.006 395.698 476.913 393.607C474.819 391.515 471.98 390.34 469.02 390.34ZM469.02 408.357V394.63C470.84 394.632 472.585 395.356 473.872 396.643C475.159 397.93 475.881 399.674 475.881 401.493C475.881 403.312 475.159 405.057 473.872 406.344C472.585 407.631 470.84 408.355 469.02 408.357Z" fill="url(#paint1_linear)"/>
</g>
<path d="M467.638 391.683C465.623 391.683 463.652 392.28 461.976 393.399C460.3 394.518 458.994 396.108 458.223 397.969C457.451 399.83 457.249 401.878 457.643 403.853C458.036 405.828 459.006 407.643 460.432 409.067C461.857 410.491 463.673 411.461 465.65 411.854C467.627 412.247 469.676 412.045 471.538 411.274C473.401 410.504 474.992 409.198 476.112 407.524C477.232 405.849 477.83 403.88 477.83 401.866C477.83 400.529 477.566 399.205 477.054 397.969C476.542 396.734 475.791 395.611 474.845 394.666C473.899 393.72 472.775 392.97 471.538 392.458C470.302 391.946 468.977 391.683 467.638 391.683ZM467.638 408.133C466.398 408.133 465.185 407.765 464.154 407.077C463.123 406.388 462.319 405.41 461.844 404.264C461.369 403.119 461.245 401.859 461.487 400.644C461.729 399.428 462.326 398.311 463.204 397.435C464.081 396.559 465.198 395.962 466.415 395.72C467.631 395.478 468.892 395.602 470.038 396.077C471.184 396.551 472.164 397.354 472.853 398.385C473.542 399.415 473.91 400.627 473.91 401.866C473.91 403.528 473.249 405.122 472.073 406.297C470.897 407.473 469.302 408.133 467.638 408.133Z" fill="#6F0DCC"/>
<path opacity="0.6" d="M467.638 391.683C465.623 391.683 463.652 392.28 461.976 393.399C460.3 394.518 458.994 396.108 458.223 397.969C457.451 399.83 457.249 401.878 457.643 403.853C458.036 405.828 459.006 407.643 460.432 409.067C461.857 410.491 463.673 411.461 465.65 411.854C467.627 412.247 469.676 412.045 471.538 411.274C473.401 410.504 474.992 409.198 476.112 407.524C477.232 405.849 477.83 403.88 477.83 401.866C477.83 400.529 477.566 399.205 477.054 397.969C476.542 396.734 475.791 395.611 474.845 394.666C473.899 393.72 472.775 392.97 471.538 392.458C470.302 391.946 468.977 391.683 467.638 391.683ZM467.638 408.133C466.398 408.133 465.185 407.765 464.154 407.077C463.123 406.388 462.319 405.41 461.844 404.264C461.369 403.119 461.245 401.859 461.487 400.644C461.729 399.428 462.326 398.311 463.204 397.435C464.081 396.559 465.198 395.962 466.415 395.72C467.631 395.478 468.892 395.602 470.038 396.077C471.184 396.551 472.164 397.354 472.853 398.385C473.542 399.415 473.91 400.627 473.91 401.866C473.91 403.528 473.249 405.122 472.073 406.297C470.897 407.473 469.302 408.133 467.638 408.133Z" fill="#DE8E68"/>
<path d="M428.44 383.85H467.638V420.039C467.638 422.075 466.829 424.028 465.388 425.468C463.947 426.908 461.992 427.717 459.954 427.717H436.124C434.086 427.717 432.131 426.908 430.69 425.468C429.249 424.028 428.44 422.075 428.44 420.039V383.85Z" fill="#DE8E68"/>
<path d="M508.797 427.717H0V444.95H508.797V427.717Z" fill="#4E4C4C"/>
<g opacity="0.7">
<path opacity="0.7" d="M351.159 303.219H157.638C151.327 303.219 146.21 308.331 146.21 314.637V416.298C146.21 422.604 151.327 427.717 157.638 427.717H351.159C357.47 427.717 362.586 422.604 362.586 416.298V314.637C362.586 308.331 357.47 303.219 351.159 303.219Z" fill="url(#paint2_linear)"/>
</g>
<path d="M337.518 305.516H171.279C159.599 305.516 150.13 314.976 150.13 326.647V406.585C150.13 418.256 159.599 427.716 171.279 427.716H337.518C349.198 427.716 358.666 418.256 358.666 406.585V326.647C358.666 314.976 349.198 305.516 337.518 305.516Z" fill="#4E4C4C"/>
<path d="M254.398 373.666C258.295 373.666 261.454 370.51 261.454 366.616C261.454 362.722 258.295 359.566 254.398 359.566C250.502 359.566 247.343 362.722 247.343 366.616C247.343 370.51 250.502 373.666 254.398 373.666Z" fill="white"/>
<path d="M487.238 444.95H21.5592V452H487.238V444.95Z" fill="#4E4C4C"/>
<path opacity="0.1" d="M487.238 444.95H21.5592V447.3H487.238V444.95Z" fill="black"/>
<path opacity="0.1" d="M460.583 383.85V420.079C460.583 422.105 459.777 424.047 458.344 425.48C456.91 426.912 454.966 427.717 452.939 427.717H456.859C458.886 427.717 460.83 426.912 462.264 425.48C463.697 424.047 464.502 422.105 464.502 420.079V383.85H460.583Z" fill="black"/>
<path d="M436.175 354.649C435.84 354.66 435.511 354.744 435.212 354.896C434.913 355.048 434.651 355.263 434.444 355.527C433.93 356.459 434.862 357.509 435.712 358.149C437.283 359.331 438.938 360.493 440.006 362.143C441.074 363.793 441.409 366.096 440.242 367.678C438.718 369.743 435.082 370.187 434.73 372.729C434.504 374.36 435.916 375.753 437.347 376.571C440.877 378.592 445.429 379.132 447.987 382.294C449.045 380.12 451.411 378.864 453.77 378.327C456.129 377.79 458.58 377.83 460.971 377.466C461.362 377.459 461.745 377.36 462.09 377.177C462.436 376.994 462.733 376.732 462.958 376.413C463.627 375.058 461.721 373.432 462.379 372.071C462.879 371.035 464.35 371.115 465.423 370.7C467.172 370.025 467.893 367.777 467.396 365.971C466.9 364.164 465.499 362.753 464.025 361.596C460.053 358.477 455.276 356.643 450.445 355.323C448.198 354.71 445.561 353.748 443.227 353.655C440.974 353.565 438.405 354.268 436.175 354.649Z" fill="#EEEEEE"/>
<path opacity="0.2" d="M680 0H337.594V234.401H680V0Z" fill="#E0E0E0"/>
<g opacity="0.5">
<path opacity="0.5" d="M445.87 23.085H372.36C370.402 23.085 368.814 24.6715 368.814 26.6285V93.8476C368.814 95.8046 370.402 97.3911 372.36 97.3911H445.87C447.829 97.3911 449.416 95.8046 449.416 93.8476V26.6285C449.416 24.6715 447.829 23.085 445.87 23.085Z" fill="url(#paint3_linear)"/>
</g>
<path d="M444.995 23.6611H373.344C371.385 23.6611 369.798 25.2476 369.798 27.2047V92.6217C369.798 94.5788 371.385 96.1653 373.344 96.1653H444.995C446.953 96.1653 448.541 94.5788 448.541 92.6217V27.2047C448.541 25.2476 446.953 23.6611 444.995 23.6611Z" fill="#F5F5F5"/>
<path d="M385.599 35.603H379.412C377.454 35.603 375.866 37.1895 375.866 39.1466V44.0015C375.866 45.9586 377.454 47.5451 379.412 47.5451H385.599C387.558 47.5451 389.146 45.9586 389.146 44.0015V39.1466C389.146 37.1895 387.558 35.603 385.599 35.603Z" fill="#6F0DCC"/>
<path d="M445.292 35.603H393.758C393.411 35.603 393.13 35.8839 393.13 36.2305V36.3025C393.13 36.649 393.411 36.9299 393.758 36.9299H445.292C445.639 36.9299 445.92 36.649 445.92 36.3025V36.2305C445.92 35.8839 445.639 35.603 445.292 35.603Z" fill="#E0E0E0"/>
<path d="M445.292 39.5837H393.758C393.411 39.5837 393.13 39.8646 393.13 40.2112V40.2832C393.13 40.6297 393.411 40.9106 393.758 40.9106H445.292C445.639 40.9106 445.92 40.6297 445.92 40.2832V40.2112C445.92 39.8646 445.639 39.5837 445.292 39.5837Z" fill="#E0E0E0"/>
<path d="M445.292 54.0322H375.166C374.819 54.0322 374.538 54.3131 374.538 54.6597V54.7317C374.538 55.0782 374.819 55.3591 375.166 55.3591H445.292C445.639 55.3591 445.92 55.0782 445.92 54.7317V54.6597C445.92 54.3131 445.639 54.0322 445.292 54.0322Z" fill="#E0E0E0"/>
<path d="M445.292 58.0129H375.166C374.819 58.0129 374.538 58.2939 374.538 58.6404V58.7124C374.538 59.0589 374.819 59.3398 375.166 59.3398H445.292C445.639 59.3398 445.92 59.0589 445.92 58.7124V58.6404C445.92 58.2939 445.639 58.0129 445.292 58.0129Z" fill="#E0E0E0"/>
<path d="M445.292 63.3206H375.166C374.819 63.3206 374.538 63.6015 374.538 63.948V64.02C374.538 64.3665 374.819 64.6475 375.166 64.6475H445.292C445.639 64.6475 445.92 64.3665 445.92 64.02V63.948C445.92 63.6015 445.639 63.3206 445.292 63.3206Z" fill="#E0E0E0"/>
<path d="M415.077 67.3013H375.166C374.819 67.3013 374.538 67.5822 374.538 67.9287V68.0007C374.538 68.3472 374.819 68.6282 375.166 68.6282H415.077C415.424 68.6282 415.705 68.3472 415.705 68.0007V67.9287C415.705 67.5822 415.424 67.3013 415.077 67.3013Z" fill="#E0E0E0"/>
<path d="M445.292 72.5959H375.166C374.819 72.5959 374.538 72.8769 374.538 73.2234V73.2954C374.538 73.6419 374.819 73.9228 375.166 73.9228H445.292C445.639 73.9228 445.92 73.6419 445.92 73.2954V73.2234C445.92 72.8769 445.639 72.5959 445.292 72.5959Z" fill="#E0E0E0"/>
<path d="M445.292 76.5767H375.166C374.819 76.5767 374.538 76.8576 374.538 77.2041V77.2761C374.538 77.6226 374.819 77.9035 375.166 77.9035H445.292C445.639 77.9035 445.92 77.6226 445.92 77.2761V77.2041C445.92 76.8576 445.639 76.5767 445.292 76.5767Z" fill="#E0E0E0"/>
<path d="M445.292 81.8843H375.166C374.819 81.8843 374.538 82.1652 374.538 82.5117V82.5837C374.538 82.9303 374.819 83.2112 375.166 83.2112H445.292C445.639 83.2112 445.92 82.9303 445.92 82.5837V82.5117C445.92 82.1652 445.639 81.8843 445.292 81.8843Z" fill="#E0E0E0"/>
<path d="M415.077 85.8647H375.166C374.819 85.8647 374.538 86.1457 374.538 86.4922V86.5642C374.538 86.9107 374.819 87.1916 375.166 87.1916H415.077C415.424 87.1916 415.705 86.9107 415.705 86.5642V86.4922C415.705 86.1457 415.424 85.8647 415.077 85.8647Z" fill="#E0E0E0"/>
<g opacity="0.5">
<path opacity="0.5" d="M458.035 40.2559H384.525C382.566 40.2559 380.978 41.8424 380.978 43.7994V111.018C380.978 112.976 382.566 114.562 384.525 114.562H458.035C459.993 114.562 461.581 112.976 461.581 111.018V43.7994C461.581 41.8424 459.993 40.2559 458.035 40.2559Z" fill="url(#paint4_linear)"/>
</g>
<path d="M457.159 40.832H385.509C383.55 40.832 381.962 42.4185 381.962 44.3756V109.793C381.962 111.75 383.55 113.336 385.509 113.336H457.159C459.118 113.336 460.706 111.75 460.706 109.793V44.3756C460.706 42.4185 459.118 40.832 457.159 40.832Z" fill="white"/>
<path d="M397.764 52.7739H391.577C389.618 52.7739 388.031 54.3604 388.031 56.3175V61.1724C388.031 63.1295 389.618 64.716 391.577 64.716H397.764C399.722 64.716 401.31 63.1295 401.31 61.1724V56.3175C401.31 54.3604 399.722 52.7739 397.764 52.7739Z" fill="#6F0DCC"/>
<path d="M457.457 52.7739H405.922C405.575 52.7739 405.294 53.0548 405.294 53.4014V53.4734C405.294 53.8199 405.575 54.1008 405.922 54.1008H457.457C457.804 54.1008 458.085 53.8199 458.085 53.4734V53.4014C458.085 53.0548 457.804 52.7739 457.457 52.7739Z" fill="#E0E0E0"/>
<path d="M457.457 56.7546H405.922C405.575 56.7546 405.294 57.0355 405.294 57.3821V57.4541C405.294 57.8006 405.575 58.0815 405.922 58.0815H457.457C457.804 58.0815 458.085 57.8006 458.085 57.4541V57.3821C458.085 57.0355 457.804 56.7546 457.457 56.7546Z" fill="#E0E0E0"/>
<path d="M457.457 71.2031H387.331C386.984 71.2031 386.703 71.484 386.703 71.8306V71.9026C386.703 72.2491 386.984 72.53 387.331 72.53H457.457C457.804 72.53 458.085 72.2491 458.085 71.9026V71.8306C458.085 71.484 457.804 71.2031 457.457 71.2031Z" fill="#E0E0E0"/>
<path d="M457.457 75.1838H387.331C386.984 75.1838 386.703 75.4648 386.703 75.8113V75.8833C386.703 76.2298 386.984 76.5107 387.331 76.5107H457.457C457.804 76.5107 458.085 76.2298 458.085 75.8833V75.8113C458.085 75.4648 457.804 75.1838 457.457 75.1838Z" fill="#E0E0E0"/>
<path d="M457.457 80.4915H387.331C386.984 80.4915 386.703 80.7724 386.703 81.1189V81.1909C386.703 81.5374 386.984 81.8184 387.331 81.8184H457.457C457.804 81.8184 458.085 81.5374 458.085 81.1909V81.1189C458.085 80.7724 457.804 80.4915 457.457 80.4915Z" fill="#E0E0E0"/>
<path d="M427.242 84.4722H387.331C386.984 84.4722 386.703 84.7531 386.703 85.0996V85.1716C386.703 85.5182 386.984 85.7991 387.331 85.7991H427.242C427.588 85.7991 427.87 85.5182 427.87 85.1716V85.0996C427.87 84.7531 427.588 84.4722 427.242 84.4722Z" fill="#E0E0E0"/>
<path d="M457.457 89.7668H387.331C386.984 89.7668 386.703 90.0478 386.703 90.3943V90.4663C386.703 90.8128 386.984 91.0937 387.331 91.0937H457.457C457.804 91.0937 458.085 90.8128 458.085 90.4663V90.3943C458.085 90.0478 457.804 89.7668 457.457 89.7668Z" fill="#E0E0E0"/>
<path d="M457.457 93.7476H387.331C386.984 93.7476 386.703 94.0285 386.703 94.375V94.447C386.703 94.7935 386.984 95.0745 387.331 95.0745H457.457C457.804 95.0745 458.085 94.7935 458.085 94.447V94.375C458.085 94.0285 457.804 93.7476 457.457 93.7476Z" fill="#E0E0E0"/>
<path d="M457.457 99.0552H387.331C386.984 99.0552 386.703 99.3361 386.703 99.6826V99.7546C386.703 100.101 386.984 100.382 387.331 100.382H457.457C457.804 100.382 458.085 100.101 458.085 99.7546V99.6826C458.085 99.3361 457.804 99.0552 457.457 99.0552Z" fill="#E0E0E0"/>
<path d="M427.242 103.036H387.331C386.984 103.036 386.703 103.317 386.703 103.663V103.735C386.703 104.082 386.984 104.363 387.331 104.363H427.242C427.588 104.363 427.87 104.082 427.87 103.735V103.663C427.87 103.317 427.588 103.036 427.242 103.036Z" fill="#E0E0E0"/>
<path d="M539.287 51.4971H494.894V94.1154H539.287V51.4971Z" fill="url(#paint5_linear)"/>
<path d="M538.591 52.5408H495.59V93.2456H538.591V52.5408Z" fill="#F5F5F5"/>
<g opacity="0.6">
<path opacity="0.6" d="M525.186 76.7202H509.691V78.8077H525.186V76.7202Z" fill="#6F0DCC"/>
</g>
<path d="M530.321 80.5471H503.859V82.6346H530.321V80.5471Z" fill="#BDBDBD"/>
<g opacity="0.5">
<path opacity="0.5" d="M656.426 14.2061H559.621V127.855H656.426V14.2061Z" fill="url(#paint6_linear)"/>
</g>
<path d="M654.367 16.0354H562.596V125.34H654.367V16.0354Z" fill="white"/>
<path d="M640.864 63.9915H576.327V66.7355H640.864V63.9915Z" fill="#E0E0E0"/>
<path d="M640.864 82.0564H576.327V84.8004H640.864V82.0564Z" fill="#E0E0E0"/>
<path d="M640.864 86.8586H576.327V89.6027H640.864V86.8586Z" fill="#E0E0E0"/>
<path d="M603.561 77.2544H576.327V79.9984H603.561V77.2544Z" fill="#E0E0E0"/>
<path opacity="0.6" d="M640.864 77.2544H620.496V79.9984H640.864V77.2544Z" fill="#3AD29F"/>
<path d="M619.352 98.0635H598.984V100.808H619.352V98.0635Z" fill="#6F0DCC"/>
<g opacity="0.5">
<path opacity="0.5" d="M560.658 159.819H503.138V207.025H560.658V159.819Z" fill="url(#paint7_linear)"/>
</g>
<path d="M559.876 160.712H503.809V206.244H559.876V160.712Z" fill="#F2F2F2"/>
<path d="M559.876 160.712H503.809V170.867H559.876V160.712Z" fill="#6F0DCC"/>
<path opacity="0.1" d="M559.876 160.712H503.809V170.867H559.876V160.712Z" fill="black"/>
<path d="M555.409 174.55H508.276V180.465H555.409V174.55Z" fill="#E0E0E0"/>
<path d="M542.676 184.928H508.276V186.937H542.676V184.928Z" fill="#E0E0E0"/>
<path d="M530.614 188.388H508.276V190.397H530.614V188.388Z" fill="#E0E0E0"/>
<path d="M537.762 191.848H508.276V193.856H537.762V191.848Z" fill="#E0E0E0"/>
<path d="M542.676 195.307H508.276V197.316H542.676V195.307Z" fill="#E0E0E0"/>
<path d="M519.78 198.767H508.276V200.775H519.78V198.767Z" fill="#E0E0E0"/>
<g opacity="0.5">
<path opacity="0.5" d="M538.417 142.505H467.123V201.015H538.417V142.505Z" fill="url(#paint8_linear)"/>
</g>
<path d="M537.448 143.611H467.953V200.047H537.448V143.611Z" fill="white"/>
<path d="M537.448 143.611H467.953V156.199H537.448V143.611Z" fill="#6F0DCC"/>
<path d="M531.91 160.763H473.491V168.095H531.91V160.763Z" fill="#F5F5F5"/>
<path d="M516.129 173.627H473.491V176.117H516.129V173.627Z" fill="#E0E0E0"/>
<path d="M501.178 177.916H473.491V180.405H501.178V177.916Z" fill="#E0E0E0"/>
<path d="M510.038 182.204H473.491V184.693H510.038V182.204Z" fill="#E0E0E0"/>
<path d="M516.129 186.491H473.491V188.981H516.129V186.491Z" fill="#E0E0E0"/>
<path d="M487.75 190.78H473.491V193.269H487.75V190.78Z" fill="#E0E0E0"/>
<path d="M493.148 163.253H476.536V165.466H493.148V163.253Z" fill="#69F0AE"/>
<path opacity="0.2" d="M369.909 297.884C375.225 297.884 379.535 293.578 379.535 288.266C379.535 282.954 375.225 278.647 369.909 278.647C364.593 278.647 360.283 282.954 360.283 288.266C360.283 293.578 364.593 297.884 369.909 297.884Z" fill="#E0E0E0"/>
<path opacity="0.2" d="M387.786 266.968C393.102 266.968 397.412 262.662 397.412 257.35C397.412 252.038 393.102 247.732 387.786 247.732C382.469 247.732 378.16 252.038 378.16 257.35C378.16 262.662 382.469 266.968 387.786 266.968Z" fill="#E0E0E0"/>
<defs>
<linearGradient id="paint0_linear" x1="254.74" y1="382.774" x2="254.74" y2="88.8069" gradientUnits="userSpaceOnUse">
<stop stop-color="#808080" stop-opacity="0.25"/>
<stop offset="0.53514" stop-color="#808080" stop-opacity="0.12"/>
<stop offset="1" stop-color="#808080" stop-opacity="0.1"/>
</linearGradient>
<linearGradient id="paint1_linear" x1="40647.9" y1="34436.6" x2="40647.9" y2="31505.3" gradientUnits="userSpaceOnUse">
<stop stop-color="#808080" stop-opacity="0.25"/>
<stop offset="0.53514" stop-color="#808080" stop-opacity="0.12"/>
<stop offset="1" stop-color="#808080" stop-opacity="0.1"/>
</linearGradient>
<linearGradient id="paint2_linear" x1="69993" y1="67925.7" x2="69993" y2="48242.4" gradientUnits="userSpaceOnUse">
<stop stop-color="#808080" stop-opacity="0.25"/>
<stop offset="0.53514" stop-color="#808080" stop-opacity="0.12"/>
<stop offset="1" stop-color="#808080" stop-opacity="0.1"/>
</linearGradient>
<linearGradient id="paint3_linear" x1="42211.4" y1="9213.13" x2="42211.4" y2="2201.43" gradientUnits="userSpaceOnUse">
<stop stop-color="#808080" stop-opacity="0.25"/>
<stop offset="0.53514" stop-color="#808080" stop-opacity="0.12"/>
<stop offset="1" stop-color="#808080" stop-opacity="0.1"/>
</linearGradient>
<linearGradient id="paint4_linear" x1="43467.7" y1="10850.6" x2="43467.7" y2="3838.89" gradientUnits="userSpaceOnUse">
<stop stop-color="#808080" stop-opacity="0.25"/>
<stop offset="0.53514" stop-color="#808080" stop-opacity="0.12"/>
<stop offset="1" stop-color="#808080" stop-opacity="0.1"/>
</linearGradient>
<linearGradient id="paint5_linear" x1="29622.9" y1="5145.17" x2="29622.9" y2="2838.6" gradientUnits="userSpaceOnUse">
<stop stop-color="#808080" stop-opacity="0.25"/>
<stop offset="0.53514" stop-color="#808080" stop-opacity="0.12"/>
<stop offset="1" stop-color="#808080" stop-opacity="0.1"/>
</linearGradient>
<linearGradient id="paint6_linear" x1="75246.3" y1="18466.8" x2="75246.3" y2="2064.49" gradientUnits="userSpaceOnUse">
<stop stop-color="#808080" stop-opacity="0.25"/>
<stop offset="0.53514" stop-color="#808080" stop-opacity="0.12"/>
<stop offset="1" stop-color="#808080" stop-opacity="0.1"/>
</linearGradient>
<linearGradient id="paint7_linear" x1="39324.2" y1="12570.5" x2="39324.2" y2="9740.59" gradientUnits="userSpaceOnUse">
<stop stop-color="#808080" stop-opacity="0.25"/>
<stop offset="0.53514" stop-color="#808080" stop-opacity="0.12"/>
<stop offset="1" stop-color="#808080" stop-opacity="0.1"/>
</linearGradient>
<linearGradient id="paint8_linear" x1="45949.8" y1="15078.7" x2="45949.8" y2="10731.1" gradientUnits="userSpaceOnUse">
<stop stop-color="#808080" stop-opacity="0.25"/>
<stop offset="0.53514" stop-color="#808080" stop-opacity="0.12"/>
<stop offset="1" stop-color="#808080" stop-opacity="0.1"/>
</linearGradient>
</defs>
</svg>
